<?xml version="1.0" encoding="UTF-8"?> <svg xmlns="http://www.w3.org/2000/svg" xmlns:xlink="http://www.w3.org/1999/xlink" version="1.1" id="Layer_1" x="0px" y="0px" viewBox="0 0 214 51" style="enable-background:new 0 0 214 51;" xml:space="preserve"> <style type="text/css"> .st0{fill:#2D2D2D;} .st1{fill:#E34F43;} </style> <path class="st0" d="M62.51,17.21h6.84l5.86,18.46h-5.59l-0.98-3.45h-6.11l-0.98,3.45h-4.94L62.51,17.21z M63.54,28.61h4.04 l-2.01-7.11L63.54,28.61z"></path> <path class="st0" d="M76.78,25.32h-1.71v-3.15h1.71v-1.03c0-3.37,2.06-4.94,5.27-4.94c0.84,0,1.47,0.11,2.06,0.27v3.39 c-0.33-0.11-0.73-0.19-1.25-0.19c-1.03,0-1.49,0.62-1.49,1.47v1.03h3.94v-1.19c0-3.37,2.09-4.97,5.29-4.97 c0.84,0,1.44,0.11,2.04,0.27v3.39c-0.33-0.11-0.68-0.16-1.22-0.16c-1.06,0-1.49,0.6-1.49,1.47v1.19h2.71v3.15h-2.71v10.34H85.3 V25.32h-3.94v10.34h-4.59V25.32z"></path> <path class="st0" d="M93.72,18.51c0-1.36,1.09-2.39,2.52-2.39c1.44,0,2.55,1.03,2.55,2.39s-1.11,2.39-2.55,2.39 C94.8,20.87,93.72,19.87,93.72,18.51z M93.96,22.17h4.61v13.49h-4.61V22.17z"></path> <path class="st0" d="M105.63,16.23h-4.59v19.43h4.59V16.23z"></path> <path class="st0" d="M107.89,18.51c0-1.36,1.09-2.39,2.52-2.39c1.44,0,2.55,1.03,2.55,2.39s-1.11,2.39-2.55,2.39 C108.97,20.87,107.89,19.87,107.89,18.51z M108.13,22.17h4.61v13.49h-4.61V22.17z"></path> <path class="st0" d="M114.4,31.92c0-3.18,2.69-4.42,7.17-4.42h1.3v-0.3c0-1.3-0.3-2.14-1.79-2.14c-1.28,0-1.74,0.76-1.85,1.6h-4.34 c0.22-3.26,2.77-4.86,6.46-4.86c3.72,0,6.08,1.52,6.08,5.1v8.77h-4.51v-1.57c-0.65,0.98-1.85,1.87-3.99,1.87 C116.54,35.99,114.4,34.79,114.4,31.92z M122.87,30.94v-0.81h-1.22c-1.85,0-2.69,0.35-2.69,1.47c0,0.79,0.52,1.28,1.6,1.28 C121.89,32.87,122.87,32.11,122.87,30.94z"></path> <path class="st0" d="M130.23,31.35v-6.03h-1.63v-3.15h1.63v-2.82h4.61v2.82h2.66v3.15h-2.66v5.56c0,0.98,0.49,1.41,1.36,1.41 c0.52,0,0.9-0.08,1.33-0.24v3.5c-0.6,0.16-1.46,0.38-2.55,0.38C131.91,35.99,130.23,34.53,130.23,31.35z"></path> <path class="st0" d="M138.31,29.09v-0.22c0-4.34,3.23-7.08,7.3-7.08c3.69,0,6.87,2.12,6.87,6.98v1.22h-9.5 c0.14,1.79,1.17,2.82,2.82,2.82c1.52,0,2.17-0.71,2.36-1.6h4.34c-0.41,3.04-2.77,4.78-6.84,4.78 C141.41,35.99,138.31,33.49,138.31,29.09z M147.98,27.38c-0.08-1.63-0.87-2.52-2.39-2.52c-1.38,0-2.36,0.9-2.58,2.52H147.98z"></path> <path class="st0" d="M152.43,17.21h5.35l2.39,11.51l2.47-11.51h4.7l2.69,11.62l2.5-11.62h4.91l-4.32,18.46h-5.54l-2.85-11.73 l-2.82,11.73h-5.16L152.43,17.21z"></path> <path class="st0" d="M178.97,17.21H186c5.05,0,7.41,2.25,7.41,6.16v0.11c0,3.88-2.61,5.97-7.17,5.97h-2.01v6.22h-5.27V17.21z M185.76,25.84c1.71,0,2.6-0.79,2.6-2.33V23.4c0-1.57-0.92-2.23-2.58-2.23h-1.55v4.64h1.52V25.84z"></path> <path class="st1" d="M43.39,28.42c-0.27,0-0.54,0.03-0.81,0.05l-3.91-7.03c0.87-1.03,1.38-2.36,1.38-3.8c0-3.28-2.66-5.94-5.94-5.94 c-3.28,0-5.94,2.69-5.94,5.94c0,1.41,0.49,2.71,1.33,3.75l-4.07,7.11c-0.3-0.05-0.6-0.08-0.9-0.08c-3.28,0-5.94,2.66-5.94,5.94 c0,3.28,2.66,5.94,5.94,5.94s5.94-2.66,5.94-5.94c0-1.41-0.49-2.71-1.33-3.75l4.07-7.11c0.3,0.05,0.6,0.08,0.9,0.08 c0.27,0,0.54-0.03,0.81-0.05l3.91,7.03c-0.87,1.03-1.38,2.36-1.38,3.8c0,3.28,2.66,5.94,5.94,5.94c3.28,0,5.94-2.66,5.94-5.94 C49.34,31.08,46.68,28.42,43.39,28.42z M34.11,15.6c1.11,0,2.04,0.92,2.04,2.04c0,1.11-0.92,2.04-2.04,2.04 c-1.11,0-2.04-0.92-2.04-2.04C32.08,16.53,33,15.6,34.11,15.6z M24.53,36.4c-1.11,0-2.04-0.92-2.04-2.04c0-1.11,0.92-2.04,2.04-2.04 s2.04,0.92,2.04,2.04C26.57,35.47,25.64,36.4,24.53,36.4z M43.39,36.4c-1.11,0-2.04-0.92-2.04-2.04c0-1.11,0.92-2.04,2.04-2.04 c1.11,0,2.04,0.92,2.04,2.04C45.43,35.47,44.53,36.4,43.39,36.4z"></path> </svg> 