<?xml version="1.0" encoding="UTF-8"?> <svg xmlns="http://www.w3.org/2000/svg" width="367" height="72" viewBox="0 0 367 72" fill="none"><path fill-rule="evenodd" clip-rule="evenodd" d="M330.61 72C350.492 72 366.61 55.8823 366.61 36C366.61 16.1177 350.492 0 330.61 0C310.728 0 294.61 16.1177 294.61 36C294.61 55.8823 310.728 72 330.61 72ZM324.877 13.1759C324.39 12.4327 323.486 12.0852 322.658 12.3778C321.715 12.7111 320.792 13.1031 319.895 13.5514C319.108 13.945 318.713 14.8439 318.887 15.7207L319.504 18.8445C319.663 19.6485 319.335 20.4645 318.712 20.9829C317.727 21.8022 316.818 22.7285 316.004 23.7537C315.498 24.3909 314.699 24.7287 313.911 24.5694L310.849 23.9508C309.988 23.777 309.109 24.1836 308.726 24.9888C308.51 25.4437 308.306 25.9081 308.114 26.3817C307.923 26.8554 307.747 27.3316 307.586 27.8098C307.302 28.6563 307.646 29.5775 308.376 30.0726L310.976 31.8354C311.646 32.2893 311.979 33.1031 311.898 33.9192C311.768 35.2321 311.773 36.5428 311.906 37.832C311.99 38.6477 311.66 39.4627 310.992 39.919L308.397 41.6918C307.668 42.1893 307.328 43.1111 307.614 43.9563C307.941 44.9191 308.325 45.8607 308.765 46.7756C309.15 47.5788 310.031 47.9817 310.89 47.8049L313.952 47.175C314.74 47.0129 315.539 47.3477 316.047 47.9833C316.85 48.9878 317.758 49.9152 318.763 50.7461C319.387 51.2625 319.718 52.0774 319.562 52.882L318.956 56.0068C318.786 56.8845 319.184 57.7824 319.973 58.1728C320.419 58.3934 320.874 58.6016 321.338 58.7968C321.802 58.992 322.269 59.1715 322.738 59.3355C324.109 59.8154 326.028 58.0978 327.446 56.8279C328.146 56.2017 328.578 55.3155 328.582 54.3666C328.582 54.3616 328.582 54.3565 328.582 54.3514L328.582 49.1261C328.582 49.0708 328.584 49.0159 328.588 48.9616C324.398 47.9393 321.283 44.0927 321.283 39.5037V33.9551C321.283 33.5334 321.618 33.1915 322.031 33.1915H324.627V27.7323C324.627 26.9786 325.225 26.3675 325.964 26.3675C326.703 26.3675 327.302 26.9786 327.302 27.7323V33.1915H334.323V27.7323C334.323 26.9786 334.922 26.3675 335.661 26.3675C336.4 26.3675 336.998 26.9786 336.998 27.7323V33.1915H339.594C340.007 33.1915 340.342 33.5334 340.342 33.9551V39.5037C340.342 44.2378 337.027 48.1818 332.636 49.05C332.637 49.0752 332.637 49.1006 332.637 49.1261L332.637 54.3289C332.637 55.2962 333.082 56.1985 333.802 56.8269C335.246 58.0862 337.198 59.7886 338.561 59.3071C339.505 58.9737 340.428 58.5817 341.324 58.1334C342.111 57.7399 342.506 56.8409 342.333 55.9642L341.716 52.8403C341.557 52.0363 341.885 51.2202 342.508 50.7019C343.492 49.8826 344.401 48.9563 345.215 47.9311C345.721 47.2939 346.52 46.9562 347.308 47.1154L350.371 47.7341C351.231 47.9079 352.111 47.5012 352.493 46.6961C352.71 46.2412 352.914 45.7768 353.105 45.3031C353.296 44.8295 353.472 44.3533 353.633 43.8751C353.917 43.0286 353.574 42.1074 352.843 41.6123L350.243 39.8495C349.574 39.3956 349.24 38.5817 349.321 37.7657C349.451 36.4527 349.446 35.142 349.313 33.8529C349.229 33.0372 349.56 32.2222 350.228 31.7659L352.823 29.9931C353.551 29.4955 353.892 28.5737 353.605 27.7286C353.278 26.7658 352.894 25.8241 352.455 24.9093C352.069 24.1061 351.188 23.7032 350.329 23.88L347.268 24.5099C346.48 24.672 345.68 24.3372 345.172 23.7016C344.369 22.6971 343.461 21.7697 342.457 20.9388C341.832 20.4223 341.501 19.6075 341.657 18.8029L342.263 15.6781C342.434 14.8003 342.035 13.9024 341.246 13.512C340.8 13.2915 340.345 13.0833 339.881 12.8881C339.417 12.6928 338.95 12.5133 338.482 12.3493C337.652 12.059 336.749 12.4097 336.264 13.155L334.537 15.8081C334.092 16.4913 333.294 16.8316 332.494 16.749C331.208 16.6163 329.923 16.6216 328.66 16.7572C327.861 16.8429 327.062 16.5055 326.615 15.8239L324.877 13.1759Z" fill="#005AE0"></path><path fill-rule="evenodd" clip-rule="evenodd" d="M293.045 2.92515H245.223V69.7297H293.329C291.123 65.1206 289.356 60.2617 288.081 55.207H262.45V43.1882H286.035C285.82 40.8299 285.711 38.4415 285.711 36.0275C285.711 33.5105 285.83 31.0213 286.063 28.5653H262.45V17.4479H287.932C289.164 12.3969 290.886 7.53825 293.045 2.92515ZM209.322 70.9316C195.801 70.9316 186.386 66.725 179.676 60.315L188.79 47.3947C193.597 52.2023 201.009 56.2085 210.123 56.2085C216.032 56.2085 219.638 53.7046 219.638 50.4996C219.638 46.6936 215.331 45.1913 208.22 43.6889L207.654 43.5759C196.683 41.3863 181.779 38.412 181.779 22.8563C181.779 11.6388 191.294 1.92358 208.421 1.92358C219.137 1.92358 228.452 5.1286 235.563 11.2382L226.148 23.5574C220.539 18.9502 213.228 16.6466 207.319 16.6466C201.61 16.6466 199.406 18.9502 199.406 21.8548C199.406 25.3603 203.513 26.5621 210.924 27.9643C221.942 30.2679 237.165 33.4729 237.165 48.5966C237.165 62.0176 227.25 70.9316 209.322 70.9316Z" fill="#005AE0"></path><path d="M51.8381 69.7626H70.0594L45.5045 4.77008H24.4574L0 69.7626H18.2213L21.5342 59.9211H48.5251L51.8381 69.7626ZM34.981 19.3861L44.1403 45.7923H25.919L34.981 19.3861Z" fill="#141B38"></path><path d="M77.7629 69.7626H94.5226V4.77008H77.7629V69.7626Z" fill="#141B38"></path><path d="M102.902 37.315C102.902 57.0954 117.81 70.9318 137.688 70.9318C157.566 70.9318 172.376 57.0954 172.376 37.315C172.376 17.5347 157.566 3.69824 137.688 3.69824C117.81 3.69824 102.902 17.5347 102.902 37.315ZM155.324 37.315C155.324 47.8386 148.406 56.121 137.688 56.121C126.872 56.121 119.954 47.8386 119.954 37.315C119.954 26.6941 126.872 18.5091 137.688 18.5091C148.406 18.5091 155.324 26.6941 155.324 37.315Z" fill="#141B38"></path></svg> 