<?xml version="1.0" encoding="UTF-8"?> <svg xmlns="http://www.w3.org/2000/svg" xmlns:xlink="http://www.w3.org/1999/xlink" version="1.1" id="Layer_1" x="0px" y="0px" viewBox="0 0 490 490" style="enable-background:new 0 0 490 490;" xml:space="preserve"> <style type="text/css"> .st0{fill:#E8EFFC;} .st1{fill:#0E1B3C;} .st2{fill:#FFFFFF;} .st3{fill:#185CE3;} .st4{fill:#A3BEF4;} </style> <path class="st0" d="M479.23,94.84c-16.18-32.67-48.52-50.33-68.55-61.28c-86.71-47.32-204.8-34.73-283.31,9.4 C49.91,86.53-17.61,189.65,10.69,301.7C39.1,414.19,149.72,472.02,233.33,484.29c132.81,19.47,244.4-69.12,250.51-99.86 c1.14-5.89,1.61-11.89,1.39-17.89c-2.34-22.2-20.6-35.38-24.86-85.96C452.56,187.49,507.61,152.14,479.23,94.84z"></path> <path class="st1" d="M473.45,306.88l-407.86,0.89c-1.72-0.01-3.38-0.64-4.67-1.78c-1.29-1.14-2.12-2.71-2.34-4.42L26.08,47.45 c-0.79-6.19,3.74-12.02,9.93-12.02l402.58,0.36L473.45,306.88z"></path> <path class="st2" d="M480.15,306.47H80.44c-1.72-0.01-3.38-0.64-4.67-1.78c-1.29-1.14-2.12-2.71-2.34-4.42L41.12,49.43 c-0.21-1.64-0.07-3.31,0.41-4.89s1.29-3.04,2.38-4.29c1.09-1.24,2.43-2.24,3.94-2.92s3.14-1.04,4.79-1.04H447.2 c1.72,0.01,3.38,0.64,4.67,1.78c1.29,1.14,2.12,2.71,2.34,4.42l32.99,256c0.13,1,0.04,2.02-0.26,2.98c-0.3,0.96-0.8,1.85-1.46,2.61 c-0.67,0.76-1.49,1.36-2.41,1.77C482.15,306.26,481.15,306.47,480.15,306.47z"></path> <path class="st1" d="M480.14,307.35H80.43c-1.94,0-3.81-0.71-5.26-1.99c-1.45-1.28-2.39-3.05-2.64-4.97L40.25,49.54 c-0.23-1.76-0.08-3.56,0.44-5.26c0.52-1.7,1.39-3.27,2.57-4.61c1.17-1.34,2.62-2.41,4.24-3.14c1.62-0.74,3.38-1.12,5.15-1.12H447.2 c1.93,0.01,3.8,0.72,5.24,2c1.45,1.28,2.38,3.04,2.63,4.96l32.94,255.97c0.15,1.12,0.05,2.27-0.28,3.35 c-0.33,1.08-0.89,2.08-1.63,2.94c-0.75,0.85-1.67,1.53-2.7,2c-1.03,0.47-2.15,0.71-3.28,0.71H480.14z M52.65,37.16 c-1.53,0-3.04,0.33-4.43,0.97c-1.39,0.63-2.63,1.56-3.64,2.71c-1.01,1.15-1.76,2.5-2.2,3.96c-0.45,1.46-0.57,3-0.38,4.52 l32.28,250.85c0.2,1.5,0.93,2.87,2.06,3.87c1.13,1,2.59,1.55,4.1,1.56h399.71c0.88,0,1.75-0.19,2.56-0.56 c0.8-0.36,1.52-0.9,2.1-1.56s1.02-1.44,1.27-2.29c0.26-0.84,0.33-1.73,0.22-2.61L453.35,42.62c-0.19-1.5-0.92-2.88-2.06-3.87 c-1.13-1-2.59-1.55-4.1-1.56L52.65,37.16z"></path> <path class="st0" d="M204.48,95.28H70.85c-0.16,0-0.32-0.06-0.45-0.17c-0.12-0.11-0.21-0.26-0.23-0.42l-1.29-7.76 c-0.02-0.1-0.01-0.2,0.01-0.3c0.03-0.1,0.07-0.19,0.14-0.26c0.06-0.08,0.15-0.14,0.24-0.18c0.09-0.04,0.19-0.06,0.29-0.06h133.65 c0.16,0,0.32,0.06,0.45,0.17c0.12,0.11,0.21,0.26,0.23,0.42l1.3,7.76c0.02,0.1,0.01,0.2-0.02,0.3c-0.03,0.1-0.08,0.19-0.15,0.27 c-0.07,0.08-0.15,0.14-0.25,0.18C204.68,95.27,204.58,95.29,204.48,95.28z"></path> <path class="st3" d="M223.24,95.28H211.3c-0.2,0-0.39-0.07-0.54-0.2c-0.15-0.13-0.25-0.31-0.28-0.5l-1.24-7.46 c-0.02-0.12-0.01-0.24,0.02-0.36c0.03-0.12,0.09-0.23,0.17-0.32c0.08-0.09,0.18-0.17,0.29-0.22c0.11-0.05,0.23-0.08,0.35-0.08H222 c0.2,0,0.39,0.07,0.54,0.2c0.15,0.13,0.25,0.31,0.28,0.5l1.24,7.46c0.02,0.12,0.01,0.24-0.02,0.36c-0.03,0.12-0.09,0.23-0.17,0.32 c-0.08,0.09-0.18,0.17-0.29,0.22C223.48,95.26,223.36,95.28,223.24,95.28z"></path> <path class="st3" d="M417.64,119.73H405.7c-0.2,0-0.39-0.07-0.54-0.2c-0.15-0.13-0.25-0.31-0.28-0.5l-1.24-7.46 c-0.02-0.12-0.01-0.24,0.02-0.36c0.03-0.12,0.09-0.23,0.17-0.32c0.08-0.09,0.18-0.17,0.29-0.22c0.11-0.05,0.23-0.08,0.35-0.08h11.94 c0.2,0,0.39,0.07,0.54,0.2c0.15,0.13,0.25,0.3,0.29,0.5l1.25,7.46c0.02,0.12,0.01,0.24-0.02,0.36c-0.03,0.12-0.09,0.23-0.17,0.32 c-0.08,0.09-0.18,0.17-0.29,0.22C417.88,119.7,417.76,119.73,417.64,119.73z"></path> <path class="st3" d="M449.66,145.67h-11.95c-0.2,0-0.39-0.07-0.54-0.2c-0.15-0.13-0.25-0.31-0.28-0.5l-1.24-7.45 c-0.02-0.12-0.01-0.24,0.02-0.36c0.03-0.12,0.09-0.23,0.17-0.32c0.08-0.09,0.18-0.17,0.29-0.22c0.11-0.05,0.23-0.08,0.35-0.08h11.94 c0.2,0,0.39,0.08,0.54,0.21c0.15,0.13,0.25,0.31,0.27,0.51l1.24,7.46c0.02,0.12,0.01,0.24-0.02,0.35c-0.03,0.11-0.09,0.22-0.17,0.31 c-0.08,0.09-0.17,0.16-0.28,0.21C449.9,145.64,449.78,145.66,449.66,145.67z"></path> <path class="st0" d="M398.84,119.9H74.66c-0.16,0-0.32-0.06-0.45-0.17c-0.12-0.11-0.21-0.26-0.23-0.42l-1.3-7.76 c-0.02-0.1-0.01-0.2,0.01-0.3c0.03-0.1,0.07-0.19,0.14-0.26c0.06-0.08,0.15-0.14,0.24-0.18c0.09-0.04,0.19-0.06,0.29-0.06h324.2 c0.16,0,0.32,0.06,0.45,0.17c0.12,0.11,0.21,0.26,0.23,0.42l1.29,7.76c0.02,0.1,0.01,0.2-0.02,0.3c-0.03,0.1-0.08,0.19-0.15,0.26 c-0.07,0.08-0.15,0.14-0.24,0.18C399.04,119.88,398.94,119.9,398.84,119.9z"></path> <path class="st0" d="M429.78,145.78H78.71c-0.16,0-0.32-0.06-0.45-0.16c-0.12-0.11-0.21-0.26-0.23-0.42l-1.3-7.76 c-0.01-0.1,0-0.2,0.03-0.29c0.03-0.09,0.08-0.18,0.14-0.25c0.07-0.07,0.15-0.13,0.23-0.17c0.09-0.04,0.19-0.06,0.28-0.06H428.5 c0.16,0,0.32,0.06,0.45,0.16c0.12,0.11,0.21,0.26,0.23,0.42l1.3,7.76c0.01,0.1,0,0.19-0.03,0.29c-0.03,0.09-0.08,0.18-0.14,0.25 c-0.07,0.07-0.14,0.13-0.23,0.17C429.97,145.76,429.88,145.78,429.78,145.78z"></path> <path class="st1" d="M225.18,282.71h-15.6c-0.23,0-0.46-0.09-0.62-0.26c-0.16-0.17-0.26-0.39-0.26-0.62c0-0.23,0.09-0.45,0.26-0.62 c0.16-0.16,0.39-0.26,0.62-0.26h15.6c0.78,0,1.55-0.19,2.24-0.55c0.69-0.36,1.28-0.89,1.73-1.53l7.54-10.89 c0.59-0.85,1.37-1.55,2.29-2.05c0.91-0.49,1.93-0.76,2.97-0.79s2.07,0.2,3,0.64c0.94,0.45,1.75,1.11,2.38,1.93 c0.48,0.63,1.11,1.13,1.82,1.46c0.72,0.33,1.51,0.48,2.3,0.43c0.79-0.05,1.56-0.29,2.23-0.7s1.24-0.99,1.64-1.67l13.06-22.07 c0.57-0.96,1.38-1.77,2.35-2.33c0.97-0.56,2.07-0.87,3.19-0.89c1.12-0.02,2.23,0.25,3.22,0.78c0.99,0.53,1.83,1.3,2.44,2.24 l3.51,5.48c0.45,0.7,1.08,1.28,1.82,1.67s1.57,0.58,2.41,0.55c0.84-0.03,1.65-0.27,2.36-0.71c0.71-0.44,1.3-1.05,1.7-1.79 l35.63-64.77c0.57-1.03,1.4-1.89,2.42-2.49c1.01-0.6,2.17-0.92,3.35-0.92H453.8c0.23,0,0.46,0.09,0.62,0.26 c0.17,0.16,0.26,0.39,0.26,0.62c0,0.23-0.09,0.46-0.26,0.62c-0.16,0.16-0.39,0.26-0.62,0.26H332.79c-0.86,0-1.71,0.23-2.46,0.67 c-0.74,0.44-1.36,1.07-1.77,1.83l-35.63,64.78c-0.55,1-1.35,1.84-2.32,2.43c-0.97,0.6-2.08,0.93-3.22,0.97 c-1.14,0.04-2.27-0.22-3.28-0.75c-1.01-0.53-1.86-1.31-2.48-2.27l-3.51-5.48c-0.45-0.69-1.06-1.26-1.79-1.64 c-0.73-0.39-1.54-0.58-2.36-0.57c-0.82,0.01-1.63,0.24-2.34,0.65c-0.71,0.41-1.3,1-1.73,1.71l-13.07,22.02 c-0.55,0.93-1.31,1.7-2.23,2.27c-0.92,0.56-1.96,0.89-3.03,0.96c-1.07,0.07-2.15-0.13-3.13-0.58c-0.98-0.44-1.84-1.12-2.49-1.98 c-0.46-0.61-1.06-1.1-1.74-1.43c-0.69-0.33-1.44-0.49-2.21-0.47c-0.76,0.02-1.51,0.21-2.18,0.57c-0.67,0.36-1.25,0.88-1.68,1.5 l-7.54,10.9c-0.6,0.88-1.41,1.6-2.36,2.1C227.3,282.45,226.25,282.71,225.18,282.71z"></path> <path class="st3" d="M237.19,265.8c0-0.75,0.22-1.49,0.64-2.12c0.42-0.63,1.01-1.12,1.71-1.4s1.46-0.37,2.2-0.22 s1.42,0.51,1.95,1.04c0.53,0.53,0.9,1.21,1.04,1.95c0.15,0.74,0.07,1.51-0.22,2.2c-0.29,0.7-0.78,1.29-1.4,1.71 c-0.63,0.42-1.36,0.64-2.12,0.64c-1.01,0-1.98-0.4-2.69-1.11C237.59,267.78,237.19,266.81,237.19,265.8z"></path> <path class="st1" d="M240.97,261.99c0.75,0,1.49,0.22,2.12,0.64c0.63,0.42,1.11,1.01,1.4,1.71c0.29,0.7,0.36,1.46,0.22,2.2 c-0.15,0.74-0.51,1.42-1.04,1.95c-0.53,0.53-1.21,0.9-1.95,1.04c-0.74,0.15-1.51,0.07-2.2-0.22c-0.7-0.29-1.29-0.78-1.71-1.4 c-0.42-0.63-0.64-1.36-0.64-2.12c0-0.5,0.1-1,0.29-1.46c0.19-0.46,0.47-0.88,0.83-1.24c0.35-0.35,0.77-0.63,1.24-0.82 C239.98,262.09,240.47,261.99,240.97,261.99z M240.97,260.24c-1.1,0-2.18,0.32-3.09,0.93c-0.91,0.61-1.63,1.48-2.05,2.49 c-0.42,1.02-0.53,2.13-0.32,3.21c0.21,1.08,0.74,2.07,1.52,2.85c0.78,0.78,1.77,1.31,2.85,1.52c1.08,0.21,2.2,0.11,3.21-0.32 c1.02-0.42,1.89-1.13,2.5-2.05c0.61-0.91,0.94-1.99,0.94-3.09c0-1.47-0.59-2.89-1.63-3.93 C243.86,260.83,242.44,260.24,240.97,260.24z"></path> <path class="st4" d="M269.96,242.58c0-0.75,0.22-1.49,0.64-2.12c0.42-0.63,1.01-1.11,1.71-1.4c0.7-0.29,1.46-0.36,2.2-0.22 c0.74,0.15,1.42,0.51,1.95,1.04s0.89,1.21,1.04,1.95c0.15,0.74,0.07,1.51-0.22,2.2c-0.29,0.7-0.78,1.29-1.4,1.71 c-0.63,0.42-1.36,0.64-2.12,0.64c-0.5,0-1-0.1-1.46-0.29c-0.46-0.19-0.88-0.47-1.24-0.82c-0.35-0.35-0.63-0.77-0.82-1.24 C270.06,243.58,269.96,243.08,269.96,242.58z"></path> <path class="st1" d="M273.77,238.78c0.75,0,1.49,0.22,2.12,0.64c0.63,0.42,1.12,1.01,1.4,1.71s0.36,1.46,0.22,2.2 c-0.15,0.74-0.51,1.42-1.04,1.95c-0.53,0.53-1.21,0.9-1.95,1.04c-0.74,0.15-1.51,0.07-2.2-0.22c-0.7-0.29-1.29-0.78-1.71-1.41 s-0.64-1.36-0.64-2.12c0-1.01,0.4-1.98,1.11-2.69C271.79,239.18,272.76,238.78,273.77,238.78z M273.77,237.03 c-1.1,0-2.18,0.33-3.09,0.94c-0.91,0.61-1.63,1.48-2.05,2.5c-0.42,1.02-0.53,2.13-0.32,3.21c0.21,1.08,0.74,2.07,1.52,2.85 c0.78,0.78,1.77,1.31,2.85,1.52c1.08,0.21,2.2,0.1,3.21-0.32c1.02-0.42,1.88-1.14,2.49-2.05c0.61-0.91,0.94-1.99,0.93-3.09 c0-1.47-0.59-2.89-1.63-3.93C276.65,237.61,275.24,237.03,273.77,237.03z"></path> <path class="st3" d="M429,182.23c0-0.75,0.22-1.49,0.64-2.12c0.42-0.63,1.01-1.12,1.71-1.4c0.7-0.29,1.46-0.37,2.2-0.22 c0.74,0.15,1.42,0.51,1.95,1.04c0.53,0.53,0.9,1.21,1.04,1.95c0.15,0.74,0.07,1.51-0.22,2.2c-0.29,0.7-0.78,1.29-1.4,1.71 c-0.63,0.42-1.36,0.64-2.12,0.64c-1.01,0-1.98-0.4-2.69-1.11C429.4,184.21,429,183.24,429,182.23z"></path> <path class="st1" d="M432.81,178.45c0.75,0,1.49,0.22,2.12,0.64c0.63,0.42,1.11,1.01,1.4,1.71c0.29,0.7,0.36,1.46,0.22,2.2 c-0.15,0.74-0.51,1.42-1.04,1.95c-0.53,0.53-1.21,0.89-1.95,1.04c-0.74,0.15-1.5,0.07-2.2-0.22c-0.7-0.29-1.29-0.78-1.71-1.4 c-0.42-0.63-0.64-1.36-0.64-2.12c0-1.01,0.4-1.98,1.11-2.69C430.83,178.85,431.8,178.45,432.81,178.45z M432.81,176.7 c-1.1,0-2.17,0.32-3.09,0.93c-0.92,0.61-1.63,1.48-2.05,2.5c-0.42,1.02-0.53,2.13-0.32,3.21c0.21,1.08,0.74,2.07,1.52,2.85 c0.78,0.78,1.77,1.31,2.85,1.52c1.08,0.21,2.2,0.1,3.21-0.32c1.02-0.42,1.89-1.13,2.5-2.05c0.61-0.91,0.94-1.99,0.94-3.09 c0-1.47-0.59-2.89-1.63-3.93C435.69,177.29,434.28,176.7,432.81,176.7z"></path> <path class="st2" d="M203.15,311.48l6.58,17.68c4.34,11.65,4.18,24.49-0.43,36.04l-36.22,90.54l22.84,19.41H149.1l26.99-107.97 c2.51-10.06,2.36-20.6-0.46-30.59l-8.27-29.3L203.15,311.48z"></path> <path class="st1" d="M195.92,476.02H149.1c-0.13,0-0.26-0.03-0.38-0.09c-0.12-0.06-0.22-0.14-0.3-0.25 c-0.08-0.1-0.14-0.23-0.17-0.35c-0.03-0.13-0.02-0.26,0.01-0.39l27.01-107.97c2.47-9.91,2.32-20.3-0.45-30.13l-8.31-29.3 c-0.04-0.14-0.04-0.29-0.01-0.43c0.03-0.14,0.1-0.27,0.19-0.38c0.09-0.11,0.21-0.2,0.34-0.25c0.13-0.05,0.28-0.07,0.42-0.06 l35.78,4.19c0.16,0.02,0.32,0.09,0.44,0.19c0.13,0.1,0.22,0.24,0.27,0.39l6.61,17.67c4.42,11.85,4.26,24.92-0.44,36.66l-35.98,89.96 l22.36,19.01c0.14,0.12,0.24,0.27,0.28,0.45c0.04,0.17,0.03,0.36-0.03,0.53c-0.06,0.17-0.18,0.31-0.33,0.41 c-0.15,0.1-0.33,0.15-0.51,0.15L195.92,476.02z M150.23,474.27h43.32l-21.03-17.87c-0.14-0.12-0.24-0.28-0.28-0.46 c-0.04-0.18-0.03-0.36,0.04-0.54l36.22-90.54c4.54-11.34,4.69-23.96,0.43-35.4l-6.43-17.18l-33.94-3.97l7.91,28.04 c2.85,10.13,3.01,20.82,0.46,31.03L150.23,474.27z"></path> <path class="st2" d="M152.91,279.89l7.26,65.82c0.87,7.86,0.92,15.8,0.15,23.67l-12.23,86.49l18.91,20.04 c0.41,0.29,0.71,0.71,0.87,1.19c0.16,0.48,0.16,1,0,1.48c-0.16,0.48-0.46,0.9-0.87,1.19c-0.41,0.3-0.9,0.46-1.41,0.45l-36.66-3.94 l0.09-109.11c-0.44-7.19-1.26-14.35-2.43-21.45l-5.91-35.77L152.91,279.89z"></path> <path class="st1" d="M165.62,481.1h-0.12l-36.66-3.93c-0.21-0.02-0.41-0.13-0.56-0.29c-0.14-0.16-0.22-0.37-0.22-0.59l0.09-109.11 c-0.44-7.14-1.25-14.25-2.42-21.3l-5.91-35.77c-0.02-0.14-0.01-0.29,0.04-0.42c0.05-0.14,0.13-0.26,0.23-0.36l32.22-30.07 c0.12-0.11,0.27-0.19,0.43-0.22c0.16-0.03,0.32-0.02,0.48,0.04c0.15,0.06,0.29,0.15,0.39,0.28c0.1,0.13,0.16,0.28,0.18,0.44 l7.26,65.82c0.87,7.92,0.92,15.92,0.15,23.85l-12.17,86.1l18.56,19.68c0.54,0.41,0.94,0.98,1.14,1.63c0.2,0.65,0.19,1.35-0.03,1.99 c-0.22,0.64-0.63,1.21-1.18,1.6C166.96,480.87,166.29,481.09,165.62,481.1L165.62,481.1z M129.81,475.48l35.83,3.84 c0.31-0.01,0.6-0.12,0.84-0.31c0.24-0.19,0.42-0.44,0.52-0.73c0.09-0.29,0.1-0.6,0.01-0.9c-0.09-0.29-0.26-0.55-0.5-0.74 c-0.05-0.03-0.09-0.07-0.13-0.11l-18.9-20.05c-0.09-0.1-0.16-0.21-0.2-0.33c-0.04-0.12-0.05-0.26-0.03-0.39l12.23-86.49 c0.76-7.8,0.71-15.66-0.15-23.45l-7.09-64.12l-30.6,28.56l5.84,35.31c1.18,7.13,1.99,14.32,2.44,21.54L129.81,475.48z"></path> <path class="st1" d="M170.17,476.41h26.75c0.74,0.01,1.48-0.14,2.16-0.45c0.68-0.3,1.28-0.75,1.77-1.31 c0.49-0.56,0.85-1.22,1.06-1.93c0.21-0.71,0.26-1.46,0.16-2.2c-0.24-1.3-0.84-2.51-1.71-3.51l-19.9-9.93 c-0.51-0.25-0.96-0.6-1.32-1.04c-0.36-0.43-0.64-0.94-0.79-1.48c-0.16-0.54-0.21-1.11-0.13-1.67c0.07-0.56,0.26-1.1,0.55-1.59 l8.19-13.81c0.18-0.3,0.27-0.64,0.27-0.98c0-0.35-0.09-0.69-0.26-0.99c-0.17-0.3-0.42-0.55-0.72-0.73c-0.3-0.17-0.64-0.27-0.98-0.27 h-27.15c-0.74,0-1.46,0.27-2.02,0.75c-0.56,0.48-0.93,1.16-1.03,1.89l-3.42,23.74l-1.71,9.55c-0.1,0.59-0.08,1.19,0.06,1.76 c0.14,0.58,0.41,1.12,0.78,1.59c0.37,0.47,0.83,0.85,1.36,1.13c0.53,0.28,1.11,0.44,1.7,0.47L170.17,476.41z"></path> <path class="st1" d="M127.74,438.09h24.29c0.09,0,0.19,0.02,0.27,0.06c0.08,0.04,0.16,0.09,0.22,0.17c0.06,0.07,0.11,0.15,0.13,0.24 c0.03,0.09,0.03,0.18,0.02,0.28l-1.41,10.21c-0.46,3.36,0.39,7.51,3.05,9.52l2.21,1.64l12.99,10.39c0.91,0.71,1.63,1.63,2.13,2.67 s0.74,2.19,0.71,3.34c-0.02,1.15-0.31,2.29-0.85,3.31c-0.53,1.02-1.3,1.91-2.23,2.58c-0.41,0.34-0.9,0.56-1.43,0.63l-4.26,0.31 c-5.94,0.43-11.92-0.03-17.72-1.36l-19.28-4.4c-0.35,0-0.7-0.07-1.03-0.21c-0.32-0.14-0.62-0.34-0.86-0.59 c-0.25-0.25-0.44-0.55-0.56-0.88c-0.13-0.33-0.18-0.68-0.17-1.03l1.33-34.5c0.02-0.63,0.29-1.24,0.75-1.68 S127.11,438.09,127.74,438.09z"></path> <path class="st2" d="M198.93,251.22l1.09,2.86c2.31,6.04,2.62,12.67,0.89,18.9l-1.49,5.35l-10.78-27.32L198.93,251.22z"></path> <path class="st1" d="M199.42,279.2c-0.18,0-0.35-0.05-0.49-0.15s-0.26-0.24-0.32-0.4l-10.79-27.31c-0.05-0.13-0.07-0.28-0.05-0.42 c0.02-0.14,0.07-0.28,0.15-0.4c0.09-0.12,0.2-0.21,0.33-0.28c0.13-0.07,0.27-0.1,0.41-0.1l10.29,0.21c0.18,0.01,0.35,0.07,0.49,0.17 c0.14,0.1,0.25,0.25,0.31,0.41l1.09,2.86c2.37,6.22,2.69,13.04,0.92,19.45l-1.48,5.35c-0.05,0.18-0.15,0.34-0.3,0.45 c-0.14,0.11-0.32,0.18-0.5,0.19L199.42,279.2z M189.93,251.91l9.35,23.66l0.78-2.83c1.68-6.05,1.38-12.49-0.85-18.36l-0.88-2.31 L189.93,251.91z"></path> <path class="st2" d="M208.2,204.16c0,0,10.4-3.11,17.39-0.76c0,0,0.83,4.48,3.8,6.61c2.96,2.13,10.4,3.42,11.62,7.75 c1.21,4.33-13.97,7.67-19.21,5.26c-5.24-2.41-9.8-8.07-14.88-8.07C201.82,214.95,208.2,204.16,208.2,204.16z"></path> <path class="st1" d="M226.77,224.67c-1.82,0.07-3.64-0.23-5.35-0.88c-2.08-1.06-4.06-2.32-5.9-3.76c-2.96-2.17-5.75-4.21-8.62-4.21 c-0.49,0.04-0.97-0.06-1.4-0.28c-0.43-0.22-0.79-0.56-1.04-0.98c-1.61-2.82,2.2-9.53,2.98-10.84c0.11-0.19,0.29-0.33,0.5-0.4 c0.44-0.13,10.76-3.17,17.92-0.75c0.15,0.05,0.28,0.14,0.38,0.25c0.1,0.12,0.17,0.26,0.2,0.41c0,0.04,0.82,4.17,3.45,6.06 c1.19,0.74,2.45,1.35,3.76,1.84c3.4,1.43,7.26,3.05,8.18,6.38c0.23,0.82,0.18,2.08-1.36,3.39 C237.81,223.18,231.7,224.67,226.77,224.67z M208.77,204.91c-1.68,2.92-3.57,7.4-2.79,8.76c0.07,0.12,0.21,0.38,0.92,0.38 c3.44,0,6.6,2.31,9.65,4.55c1.75,1.37,3.62,2.57,5.6,3.59c3.76,1.75,13.88,0.19,17.2-2.63c0.67-0.58,0.93-1.1,0.8-1.58 c-0.71-2.52-4.14-3.96-7.18-5.26c-1.43-0.54-2.8-1.22-4.09-2.03c-2.62-1.88-3.7-5.32-4.02-6.64 C218.9,202.33,210.53,204.43,208.77,204.91z"></path> <path class="st3" d="M193.09,250.5h5.84c0.1,0,0.19-0.02,0.28-0.06c0.09-0.04,0.17-0.09,0.23-0.16c0.07-0.07,0.11-0.15,0.14-0.24 c0.03-0.09,0.04-0.19,0.04-0.28c-0.47-5.31-3.29-37.22-3.94-45.72c-0.69-9.28,4.54-57.02-0.89-68.85 c-3.96-8.63-13.43-11.14-19.49-13.08c-4.59,4.03-8.23,7.37-14.81,7.37c-8.01,0-14.52-4.23-19.28-9.93 c-5.66,1.38-10.96,3.62-14.49,5.09c-4.06,1.68-7.48,4.61-9.76,8.36c-2.28,3.75-3.3,8.14-2.92,12.51 c1.53,16.39,13.68,35.55,13.68,35.55l-1.34,15.38c-0.82,9.41-4.33,18.38-10.11,25.85c-4.76,6.16-8.14,13.28-9.9,20.86 c-1.76,7.58-1.86,15.46-0.3,23.09l21.4,87.3l85.64-17.13L193.09,250.5z"></path> <path class="st3" d="M140.98,144.35l10.51,28.1c1.07,2.87,2.75,5.48,4.92,7.66s4.77,3.86,7.64,4.94L209,201.99l-1.87,15.82 c0,0-59.73-8.64-69.72-16.82c-9.35-7.65-19.9-41.34-19.9-41.34L140.98,144.35z"></path> <path class="st0" d="M193.69,217.33h-0.18l-4.88-1.01c-20.18-4.17-45.3-9.35-51.77-14.64c-2.11-1.75-4.84-5.1-7.46-9.25 c-0.12-0.2-0.16-0.43-0.11-0.66c0.05-0.23,0.19-0.42,0.39-0.55c0.2-0.12,0.43-0.16,0.66-0.11c0.23,0.05,0.42,0.19,0.55,0.39 c2.49,3.93,5.13,7.23,7.08,8.83c6.13,5.02,32.07,10.37,51.01,14.28l4.89,1.02c0.23,0.02,0.45,0.14,0.59,0.32 c0.15,0.18,0.22,0.41,0.19,0.65c-0.02,0.23-0.14,0.45-0.32,0.59c-0.18,0.15-0.41,0.22-0.65,0.19V217.33z"></path> <path class="st0" d="M192.64,195.92c-0.1,0-0.2-0.02-0.29-0.05l-28.57-10c-2.99-1.13-5.71-2.88-7.96-5.14s-4.01-4.98-5.13-7.97 l-10.51-28.11c-0.05-0.11-0.08-0.23-0.09-0.35c0-0.12,0.02-0.25,0.07-0.36c0.05-0.11,0.12-0.22,0.21-0.3 c0.09-0.09,0.2-0.15,0.31-0.19s0.24-0.06,0.36-0.05c0.12,0.01,0.24,0.04,0.35,0.1c0.11,0.06,0.2,0.14,0.28,0.24 c0.07,0.1,0.13,0.21,0.16,0.33l10.51,28.1c1.03,2.76,2.64,5.26,4.72,7.34c2.08,2.08,4.58,3.7,7.33,4.74l28.55,9.99 c0.22,0.08,0.4,0.24,0.5,0.45c0.1,0.21,0.12,0.45,0.04,0.67c-0.06,0.17-0.18,0.31-0.32,0.41 C192.99,195.87,192.82,195.92,192.64,195.92z"></path> <path class="st0" d="M193.24,248.6c-0.19,0-0.38-0.07-0.53-0.18s-0.26-0.28-0.31-0.47l-0.05-0.19c-3.12-11.89-6.08-23.13-7.49-32.56 c-0.03-0.23,0.02-0.47,0.16-0.66c0.14-0.19,0.35-0.31,0.58-0.35c0.23-0.03,0.47,0.03,0.66,0.17c0.19,0.14,0.31,0.35,0.35,0.58 c1.4,9.35,4.34,20.51,7.46,32.37l0.05,0.19c0.06,0.22,0.03,0.46-0.09,0.67c-0.12,0.2-0.31,0.35-0.53,0.41 C193.4,248.59,193.32,248.6,193.24,248.6z"></path> <path class="st0" d="M183.02,192.23c-0.22,0-0.44-0.08-0.6-0.24c-0.16-0.15-0.26-0.36-0.28-0.59c-1.17-19.2,0.97-28.13,1.06-28.51 c0.03-0.11,0.08-0.22,0.14-0.31c0.07-0.09,0.15-0.17,0.25-0.23c0.1-0.06,0.21-0.1,0.32-0.12c0.11-0.02,0.23-0.01,0.34,0.01 c0.11,0.03,0.22,0.08,0.31,0.14c0.09,0.07,0.17,0.15,0.23,0.25c0.06,0.1,0.1,0.21,0.12,0.32c0.02,0.11,0.01,0.23-0.01,0.34 c0,0.09-2.14,9.1-1.01,27.99c0.01,0.12-0.01,0.23-0.05,0.34c-0.04,0.11-0.1,0.21-0.17,0.3c-0.08,0.09-0.17,0.16-0.27,0.21 c-0.1,0.05-0.22,0.08-0.33,0.09H183.02z"></path> <path class="st0" d="M162.94,163.8c-0.17,0-0.34-0.05-0.48-0.15c-0.14-0.1-0.26-0.23-0.32-0.39c-0.07-0.16-0.09-0.33-0.06-0.5 c0.03-0.17,0.11-0.33,0.23-0.45c1.79-1.85,2.93-4.24,3.24-6.79c0.32-2.56-0.21-5.15-1.49-7.38c-0.11-0.2-0.13-0.43-0.07-0.65 c0.06-0.22,0.2-0.4,0.39-0.52c0.1-0.06,0.21-0.1,0.32-0.11c0.11-0.02,0.23-0.01,0.34,0.02c0.11,0.03,0.22,0.08,0.31,0.15 c0.09,0.07,0.17,0.16,0.22,0.26c1.47,2.56,2.07,5.53,1.71,8.46s-1.66,5.66-3.71,7.79c-0.08,0.08-0.18,0.15-0.29,0.19 C163.18,163.78,163.06,163.8,162.94,163.8z"></path> <path class="st0" d="M184.19,163.84c-0.17,0-0.33-0.05-0.47-0.15c-0.14-0.09-0.25-0.23-0.32-0.38c-0.07-0.15-0.09-0.32-0.06-0.49 s0.1-0.32,0.22-0.44c2.29-2.37,3.74-5.41,4.15-8.68c0.41-3.27-0.26-6.58-1.9-9.43c-0.1-0.2-0.12-0.43-0.06-0.65 c0.06-0.22,0.21-0.4,0.4-0.51c0.2-0.11,0.43-0.14,0.65-0.09c0.22,0.05,0.41,0.19,0.53,0.38c1.83,3.18,2.57,6.88,2.12,10.52 c-0.45,3.65-2.08,7.04-4.63,9.69c-0.09,0.08-0.18,0.14-0.29,0.18C184.42,163.82,184.31,163.84,184.19,163.84z"></path> <path class="st0" d="M173.88,273.28c-0.14,0-0.28-0.04-0.41-0.1c-0.13-0.07-0.24-0.16-0.31-0.28l-22.67-33.49 c-0.07-0.1-0.12-0.2-0.15-0.32c-0.03-0.12-0.03-0.24-0.01-0.35c0.02-0.12,0.06-0.23,0.13-0.33c0.06-0.1,0.15-0.19,0.25-0.25 c0.1-0.07,0.21-0.11,0.33-0.13c0.12-0.02,0.24-0.02,0.35,0c0.12,0.03,0.23,0.07,0.32,0.15c0.1,0.07,0.18,0.16,0.24,0.26l22.67,33.49 c0.07,0.1,0.11,0.2,0.13,0.32c0.02,0.11,0.02,0.23,0,0.34c-0.02,0.11-0.07,0.22-0.13,0.32c-0.06,0.1-0.15,0.18-0.24,0.24 C174.23,273.23,174.06,273.28,173.88,273.28z"></path> <path class="st0" d="M161.99,280.82c-0.16,0-0.33-0.05-0.46-0.13c-0.14-0.09-0.25-0.21-0.32-0.36l-7.26-14.8 c-0.09-0.21-0.1-0.44-0.02-0.65c0.08-0.21,0.23-0.38,0.44-0.48c0.2-0.1,0.43-0.12,0.65-0.05c0.21,0.07,0.4,0.21,0.5,0.41l7.26,14.8 c0.1,0.21,0.11,0.45,0.04,0.67c-0.08,0.22-0.23,0.4-0.44,0.5C162.25,280.79,162.12,280.82,161.99,280.82z"></path> <path class="st2" d="M180.08,86.1c-0.09-0.99-4.87-3.06-5.95-4.32c-1.08-1.26-0.9-3.15-1.53-4.87c-0.63-1.71-3-3.8-3-3.8 c-13.25-16.02-28.21,1.69-28.21,1.69c-3.16,4.42-2.03,10.91-0.46,14.6c3.05,7.14,11.42,12.17,11.42,12.17 c0.09,0.36,0.16,0.72,0.23,1.07c1.17,6.71-4.22,16.16-10.84,17.76l-0.18,0.05c2,2.39,4.46,4.36,7.23,5.78 c2.77,1.43,5.8,2.28,8.91,2.52c3.11,0.24,6.23-0.15,9.19-1.14c2.96-0.99,5.68-2.56,8.02-4.62c-1.94-0.54-3.79-1.34-5.5-2.4 c-5.8-3.91-1.69-16.47-0.25-17.64c1.44-1.17,8.18,0.83,9.68-1.09c2.17-2.83-1.03-11.26-1.03-12.07c0-0.39,0.53-1.02,1.07-1.68 C179.43,87.46,180.12,86.62,180.08,86.1z"></path> <path class="st1" d="M159.49,129.69c-3.55,0-7.05-0.78-10.27-2.28c-3.21-1.5-6.06-3.69-8.33-6.41c-0.1-0.11-0.16-0.25-0.19-0.4 c-0.03-0.15-0.02-0.3,0.03-0.44s0.13-0.27,0.24-0.37c0.11-0.1,0.24-0.17,0.39-0.2l0.17-0.05c6.02-1.46,11.35-10.22,10.19-16.75 c-0.04-0.22-0.08-0.44-0.13-0.67c-1.61-1.02-8.64-5.78-11.46-12.37c-1.45-3.42-2.99-10.51,0.55-15.46l0.05-0.05 c0.3-0.36,7.45-8.71,16.49-8.71h0.07c4.76,0,9.11,2.37,12.93,6.97c0.43,0.38,2.54,2.34,3.2,4.09c0.23,0.69,0.41,1.41,0.52,2.13 c0.18,1,0.34,1.86,0.85,2.47c0.83,0.71,1.74,1.32,2.71,1.83c2.2,1.31,3.36,2.03,3.45,2.99c0.09,0.95-0.66,1.79-1.38,2.65l-0.05,0.06 c-0.3,0.34-0.58,0.71-0.82,1.1c0.04,0.18,0.19,0.71,0.33,1.2c0.86,3.08,2.48,8.8,0.51,11.37c-1.11,1.44-3.76,1.28-6.32,1.12 c-1.17-0.07-3.14-0.19-3.5,0.11c-0.71,0.64-2.72,5.96-2.4,10.68c0.18,2.65,1.05,4.52,2.59,5.56c1.64,1,3.41,1.77,5.26,2.28 c0.15,0.05,0.28,0.13,0.38,0.25c0.1,0.12,0.17,0.26,0.2,0.41c0.03,0.15,0.02,0.31-0.03,0.45c-0.05,0.15-0.14,0.28-0.25,0.38 C171.07,127.52,165.38,129.68,159.49,129.69z M143.14,120.9c3.81,4.05,8.99,6.54,14.54,6.98c5.54,0.45,11.05-1.18,15.47-4.56 c-1.48-0.49-2.89-1.15-4.21-1.99c-2.06-1.39-3.23-3.9-3.38-7.26c-0.21-4.78,1.75-10.72,3.07-11.79c0.91-0.73,2.59-0.62,4.72-0.5 c1.71,0.1,4.28,0.26,4.82-0.44c1.44-1.86-0.14-7.44-0.81-9.83c-0.2-0.55-0.33-1.12-0.4-1.71c0-0.69,0.54-1.35,1.23-2.18l0.05-0.06 c0.36-0.4,0.68-0.84,0.95-1.31c-0.8-0.64-1.66-1.21-2.56-1.7c-1.32-0.78-2.57-1.52-3.15-2.2c-0.82-0.96-1.04-2.14-1.24-3.29 c-0.09-0.63-0.24-1.24-0.44-1.84c-0.45-1.23-2.14-2.92-2.76-3.44l-0.1-0.1c-3.51-4.22-7.41-6.37-11.64-6.39 c-8.07-0.04-14.77,7.59-15.19,8.06c-3.05,4.3-1.65,10.64-0.34,13.72c2.92,6.8,10.99,11.68,11.07,11.76c0.1,0.06,0.19,0.14,0.25,0.23 c0.07,0.09,0.12,0.2,0.14,0.31c0.09,0.38,0.17,0.75,0.23,1.12C154.7,109.5,149.52,118.47,143.14,120.9z"></path> <path class="st1" d="M93.35,76.34c0-11.72,5.45-19.97,15.4-24.64c3.77-1.75,9.42-4.63,13.86-4.63c7.69,0.11,15.03,3.24,20.43,8.72 s8.43,12.86,8.43,20.55s-3.03,15.07-8.43,20.55c-5.4,5.48-12.74,8.61-20.43,8.72c-7.51,0-11.92-4.34-17.09-8.98 C99.54,91.26,93.35,85,93.35,76.34z"></path> <path class="st1" d="M171.07,71.27c-12.16-13.31-23.37-5.09-27.95-0.51c-1.9,1.84-3.31,4.13-4.09,6.66 c-1.45,4.98-0.06,9.35,1.23,12.37c2.53,5.94,8.58,10.51,10.98,12.12c0.29,0.19,0.63,0.29,0.98,0.26c0.35-0.03,0.67-0.17,0.93-0.4 c1.27-1.15,2.47-2.38,3.58-3.67c0.11-0.13,0.19-0.28,0.23-0.44c0.04-0.16,0.05-0.33,0.03-0.5c-0.03-0.17-0.09-0.33-0.19-0.46 c-0.09-0.14-0.22-0.26-0.36-0.34c-0.18-0.1-0.35-0.21-0.51-0.33c-2.2-1.63-2.83-4.52-1.4-6.43c1.42-1.9,4.38-2.17,6.58-0.53 c0.15,0.11,0.29,0.23,0.43,0.36c1.1-4.02,0.72-7.31,2.22-10.4c0.68-1.5,1.78-2.78,3.17-3.67c1.38-0.9,3-1.38,4.65-1.39 C172.35,73,171.07,71.27,171.07,71.27z"></path> <path class="st2" d="M421.07,455.52c1.28,2.56,4.34,9.88,5.88,14.33c0.46,1.35,0.41,2.83-0.15,4.15c-0.56,1.32-1.58,2.39-2.87,3.01 c-7.54,3.64-26.54,7.16-42.22,10.86c-1.07,0.25-3.17,0.11-4.55-2.34c-4.74-8.34,11.76-14.27,26.61-26.63 c0.88,0.44,1.79,0.8,2.74,1.08c2.68,0.79,6.6-0.16,8.68-2.01l3.35-2.97c0.19-0.17,0.41-0.28,0.65-0.35 c0.24-0.07,0.49-0.07,0.74-0.02c0.24,0.05,0.47,0.15,0.67,0.3C420.8,455.1,420.96,455.29,421.07,455.52z"></path> <path class="st1" d="M380.92,488.84c-0.94-0.02-1.86-0.29-2.66-0.8c-0.8-0.5-1.44-1.21-1.86-2.05c-3.66-6.43,3.8-11.48,13.25-17.86 c4.69-3.06,9.21-6.35,13.56-9.87c0.13-0.11,0.3-0.18,0.47-0.2c0.17-0.02,0.35,0.02,0.5,0.1c0.83,0.41,1.68,0.75,2.57,1.01 c2.34,0.69,5.95-0.14,7.86-1.82l3.35-2.97c0.29-0.26,0.63-0.44,0.99-0.54c0.37-0.1,0.76-0.12,1.13-0.05s0.73,0.23,1.04,0.46 c0.3,0.23,0.55,0.53,0.72,0.87c1.33,2.66,4.39,9.99,5.92,14.44c0.54,1.56,0.48,3.26-0.15,4.79s-1.81,2.76-3.3,3.46 c-5.7,2.75-17.48,5.36-29.96,8.12c-4.14,0.92-8.43,1.86-12.44,2.81C381.59,488.81,381.25,488.84,380.92,488.84z M403.9,459.97 c-4.52,3.71-9.16,6.84-13.27,9.61c-9.93,6.71-15.43,10.73-12.71,15.53c1.32,2.34,3.22,1.99,3.59,1.9c4.02-0.95,8.31-1.9,12.47-2.82 c11.82-2.62,24.05-5.32,29.58-7.99c1.1-0.52,1.96-1.43,2.44-2.55c0.47-1.12,0.52-2.38,0.13-3.53c-1.48-4.27-4.55-11.64-5.84-14.23 c-0.05-0.1-0.12-0.19-0.21-0.26c-0.09-0.07-0.19-0.12-0.31-0.14c-0.11-0.02-0.23-0.02-0.34,0.01c-0.11,0.03-0.21,0.09-0.3,0.17 l-3.35,2.97c-2.34,2.07-6.6,3.06-9.52,2.2C405.45,460.61,404.67,460.32,403.9,459.97z"></path> <path class="st2" d="M427.82,471.84c0.04,0.08,0.05,0.13,0.06,0.15c0.97,2.8-1.17,4.38-3.59,6.1c-7.28,5.23-40.62,9.58-40.62,9.58 s-4.35,0.97-6.06-1.4c-0.28-0.3-0.5-0.64-0.65-1.02c-0.15-0.5-0.51-2.34-0.51-2.34c16.88-0.7,27.57-3.11,41.94-8.82 c1.79-0.71,7.01-3.33,8.5-4.48C426.89,469.63,427.18,470.25,427.82,471.84z"></path> <path class="st1" d="M381.69,488.75c-1.58,0-3.62-0.36-4.78-1.96l-0.17-0.22c-0.27-0.31-0.47-0.67-0.58-1.06 c-0.16-0.53-0.49-2.23-0.52-2.42c-0.02-0.12-0.02-0.25,0.01-0.38c0.03-0.12,0.09-0.24,0.16-0.34c0.08-0.1,0.18-0.18,0.29-0.24 c0.11-0.06,0.24-0.09,0.36-0.1c16.36-0.68,26.87-2.92,41.64-8.76c1.75-0.69,6.92-3.28,8.28-4.35c0.1-0.08,0.22-0.14,0.35-0.17 c0.13-0.03,0.27-0.03,0.39,0c0.13,0.03,0.25,0.09,0.35,0.18c0.1,0.08,0.18,0.19,0.24,0.31c0,0,0.3,0.67,0.94,2.25l0.07,0.19 c1.17,3.44-1.51,5.39-3.9,7.11c-7.31,5.26-39.14,9.5-40.97,9.73C383.14,488.68,382.42,488.75,381.69,488.75z M377.52,483.74 c0.11,0.54,0.22,1.06,0.29,1.26c0.06,0.17,0.15,0.33,0.28,0.46c0.08,0.09,0.16,0.19,0.24,0.3c1.34,1.85,5.12,1.06,5.16,1.06h0.08 c0.33-0.05,33.2-4.39,40.21-9.43c2.5-1.8,4-3.01,3.27-5.11l-0.05-0.11c-0.2-0.5-0.37-0.9-0.5-1.22c-2.51,1.48-5.11,2.79-7.79,3.94 C404.07,480.73,393.55,483,377.52,483.74z"></path> <path class="st1" d="M403.52,467.54c-0.13,0-0.27-0.03-0.39-0.09l-5.48-2.7c-0.13-0.03-0.24-0.1-0.34-0.18 c-0.1-0.08-0.18-0.19-0.23-0.31c-0.05-0.12-0.08-0.25-0.08-0.38c0-0.13,0.03-0.26,0.09-0.37c0.06-0.12,0.14-0.22,0.24-0.3 c0.1-0.08,0.22-0.14,0.35-0.17c0.13-0.03,0.26-0.03,0.38,0c0.13,0.03,0.25,0.08,0.35,0.16l5.48,2.7c0.18,0.09,0.32,0.23,0.41,0.41 c0.09,0.18,0.11,0.38,0.06,0.58c-0.04,0.19-0.16,0.37-0.31,0.49c-0.16,0.12-0.35,0.19-0.55,0.19L403.52,467.54z"></path> <path class="st1" d="M397.64,471.34c-0.13,0-0.26-0.03-0.38-0.09l-4.79-2.34c-0.21-0.1-0.37-0.28-0.45-0.5s-0.06-0.46,0.04-0.67 c0.1-0.21,0.28-0.37,0.5-0.44c0.22-0.08,0.46-0.06,0.67,0.04l4.79,2.34c0.18,0.09,0.32,0.23,0.41,0.41 c0.08,0.18,0.11,0.38,0.06,0.58c-0.04,0.19-0.15,0.37-0.31,0.49C398.03,471.27,397.84,471.34,397.64,471.34z"></path> <path class="st2" d="M331.53,465.46c0.74,4.3,1.23,8.63,1.46,12.99c0.05,1.45-0.44,2.88-1.38,3.99c-0.93,1.12-2.24,1.85-3.68,2.07 c-8.41,1.29-27.51,2.92-43.81,1.88c-1.12-0.07-3.11-0.84-3.73-3.61c-2.12-9.5,14.84-12.12,32.94-19.7l3.27,3.01 c0.85,0.79,1.92,1.3,3.06,1.48c1.14,0.18,2.32,0.02,3.37-0.46l6.27-2.86c0.23-0.09,0.47-0.13,0.71-0.12 c0.24,0.01,0.48,0.08,0.69,0.2c0.21,0.12,0.4,0.28,0.54,0.48C331.39,464.99,331.48,465.22,331.53,465.46z"></path> <path class="st1" d="M295.46,487.6c-3.85,0-7.72-0.11-11.44-0.35c-1.67-0.11-3.86-1.3-4.53-4.29c-1.75-7.88,8.02-11.36,20.4-15.77 c4-1.42,8.54-3.04,13.05-4.92c0.15-0.07,0.32-0.08,0.49-0.06c0.17,0.03,0.32,0.11,0.44,0.22l3.26,3c0.72,0.67,1.62,1.1,2.59,1.26 c0.97,0.15,1.96,0.02,2.86-0.39l6.27-2.86c0.35-0.16,0.74-0.24,1.13-0.23s0.77,0.11,1.11,0.3c0.34,0.18,0.64,0.43,0.87,0.75 c0.23,0.31,0.38,0.68,0.44,1.06c0.74,4.33,1.22,8.7,1.44,13.08c0.05,1.67-0.51,3.3-1.58,4.58c-1.07,1.28-2.57,2.13-4.22,2.37 C317.25,486.84,306.36,487.6,295.46,487.6z M313.13,464.09c-4.38,1.82-8.76,3.37-12.62,4.75c-12.02,4.28-20.71,7.37-19.28,13.74 c0.58,2.64,2.55,2.92,2.92,2.92c16.18,1.07,34.97-0.53,43.65-1.86c1.23-0.18,2.35-0.81,3.14-1.76c0.8-0.95,1.21-2.16,1.18-3.4 c-0.22-4.31-0.7-8.6-1.43-12.85c-0.02-0.12-0.06-0.23-0.13-0.32c-0.07-0.1-0.16-0.17-0.26-0.23c-0.11-0.05-0.22-0.08-0.34-0.08 c-0.12,0-0.24,0.03-0.34,0.08l-6.3,2.8c-1.2,0.55-2.55,0.74-3.86,0.53c-1.31-0.21-2.53-0.8-3.5-1.7L313.13,464.09z"></path> <path class="st2" d="M332.94,477.73c0,0,0,0.48,0.03,0.72c0.05,1.45-0.44,2.88-1.38,3.99c-0.93,1.12-2.24,1.85-3.68,2.07 c-8.41,1.29-27.51,2.92-43.81,1.88c-1.12-0.07-3.11-0.84-3.73-3.61c-0.12-0.79-0.16-1.59-0.12-2.39l1.17,0.03 c16.48,0.4,32.98-0.4,49.34-2.41L332.94,477.73z"></path> <path class="st1" d="M295.46,487.6c-3.85,0-7.72-0.1-11.44-0.35c-1.67-0.11-3.86-1.3-4.53-4.29c-0.14-0.86-0.19-1.74-0.15-2.62 c0.01-0.23,0.11-0.44,0.28-0.6c0.17-0.16,0.39-0.24,0.62-0.24l1.17,0.03c16.44,0.4,32.89-0.4,49.22-2.4l2.22-0.27 c0.12-0.02,0.24-0.01,0.36,0.03c0.12,0.04,0.22,0.09,0.32,0.17c0.09,0.08,0.17,0.17,0.22,0.28c0.05,0.11,0.08,0.23,0.09,0.35 c0,0,0,0.49,0.03,0.73c0.05,1.67-0.51,3.3-1.58,4.58c-1.07,1.28-2.57,2.12-4.22,2.37C317.26,486.86,306.36,487.6,295.46,487.6z M281.09,481.28c0,0.44,0.04,0.87,0.11,1.3c0.58,2.64,2.55,2.92,2.92,2.92c16.18,1.07,34.97-0.53,43.65-1.86 c1.19-0.18,2.27-0.77,3.06-1.67c0.79-0.9,1.24-2.05,1.26-3.25l-1.27,0.16c-16.41,2-32.95,2.81-49.48,2.41L281.09,481.28z"></path> <path class="st1" d="M309.23,474.58c-0.23,0-0.45-0.09-0.62-0.25l-6-5.86c-0.17-0.16-0.26-0.39-0.26-0.62 c0-0.23,0.09-0.46,0.25-0.62c0.16-0.17,0.39-0.26,0.62-0.26c0.23,0,0.46,0.09,0.62,0.25l5.98,5.88c0.16,0.16,0.26,0.39,0.26,0.62 s-0.09,0.46-0.26,0.62C309.66,474.49,309.45,474.58,309.23,474.58z"></path> <path class="st1" d="M302.39,476.53c-0.13,0-0.25-0.03-0.37-0.08c-0.11-0.05-0.22-0.13-0.3-0.22l-5.34-6.18 c-0.08-0.09-0.13-0.19-0.17-0.3c-0.04-0.11-0.05-0.23-0.05-0.34c0.01-0.12,0.04-0.23,0.09-0.33c0.05-0.1,0.12-0.2,0.21-0.27 c0.09-0.08,0.19-0.14,0.3-0.17c0.11-0.04,0.23-0.05,0.34-0.05c0.12,0.01,0.23,0.04,0.33,0.09s0.2,0.12,0.27,0.21l5.34,6.18 c0.11,0.13,0.18,0.28,0.2,0.45c0.02,0.17,0,0.34-0.07,0.49c-0.07,0.15-0.18,0.28-0.32,0.37c-0.14,0.09-0.3,0.14-0.47,0.14V476.53z"></path> <path class="st1" d="M379.99,237.4c0,0,7.78,13.34,8.62,26.42c0.41,6.37,4.85,41.18,9.42,90.29 c5.26,56.73,22.71,100.61,22.71,100.61c-1.95,3.13-5.04,5.39-8.61,6.31c-3.55,0.83-7.28,0.49-10.63-0.96l-24.7-52.71 c-7.5-14.52-13.35-29.83-17.42-45.66l-12.37-47.81l-10.95,40.44c-2.84,10.47-4.39,21.25-4.64,32.09l-0.87,79.4l-4.57,2.17 c-1.88,0.89-3.94,1.32-6.01,1.24c-2.07-0.07-4.1-0.64-5.91-1.66l-2.34-3.84l-14.7-92.97c-0.66-6.5-0.48-13.06,0.54-19.52 l17.87-113.83H379.99z"></path> <path class="st0" d="M347.01,317.87c-0.21,0-0.41-0.08-0.57-0.22c-0.16-0.14-0.26-0.33-0.29-0.54l-4.24-29.05 c-1.05-5.93-3.56-11.5-7.3-16.22c-0.14-0.18-0.21-0.41-0.18-0.65c0.03-0.23,0.14-0.44,0.33-0.59c0.18-0.14,0.42-0.21,0.65-0.18 s0.44,0.14,0.59,0.33c3.93,4.95,6.56,10.8,7.66,17.03l4.25,29.08c0.02,0.11,0.01,0.23-0.02,0.34c-0.03,0.11-0.08,0.22-0.15,0.31 c-0.07,0.09-0.15,0.17-0.25,0.23c-0.1,0.06-0.21,0.1-0.32,0.11L347.01,317.87z"></path> <path class="st0" d="M386.03,275.38c-0.08,0-0.15-0.01-0.23-0.03c-15.1-4.02-21.61-17.03-21.9-17.59c-0.07-0.2-0.07-0.43,0.02-0.63 c0.08-0.2,0.24-0.36,0.43-0.46c0.19-0.09,0.42-0.11,0.63-0.05c0.21,0.06,0.39,0.2,0.5,0.38c0.06,0.13,6.47,12.85,20.79,16.67 c0.21,0.05,0.39,0.18,0.5,0.36c0.12,0.18,0.17,0.39,0.14,0.6c-0.03,0.21-0.13,0.4-0.29,0.55c-0.16,0.14-0.37,0.22-0.58,0.22V275.38z "></path> <path class="st2" d="M410.57,265.39c0,0-1.99,7.14-1.92,9.89c0.08,2.75,0.24,10.85,1.46,12.06c1.21,1.22,3.72-0.32,3.72-5.67 c-0.02-1.98,0.07-3.96,0.29-5.93c0.01-0.08,0.05-0.15,0.1-0.2c0.06-0.05,0.12-0.09,0.2-0.1c0.08-0.01,0.15,0,0.22,0.04 c0.07,0.04,0.12,0.1,0.15,0.17c0.75,1.8,2.12,5.44,2.12,7.97c0,3.5-0.89,12.95,3.08,13.68c3.59,0.66,6.76-5.89,7.66-15.72 c0.16-1.9-0.02-3.83-0.53-5.67c-0.79-2.89-1.95-7.55-1.95-10.11L410.57,265.39z"></path> <path class="st1" d="M420.48,298.22c-0.22,0-0.43-0.02-0.65-0.06c-4.17-0.77-3.96-8.34-3.83-12.85c0-0.65,0.04-1.22,0.04-1.68 c0-1.62-0.63-3.8-1.24-5.51c-0.05,0.95-0.09,2.12-0.09,3.57c0,3.51-1.05,6.03-2.8,6.75c-0.4,0.18-0.85,0.23-1.28,0.14 c-0.43-0.08-0.83-0.3-1.13-0.61c-1.01-1-1.48-4.42-1.7-12.17v-0.48c-0.08-2.86,1.86-9.86,1.95-10.15c0.05-0.19,0.16-0.36,0.32-0.47 c0.16-0.12,0.35-0.17,0.55-0.16l14.6,0.41c0.23,0.01,0.45,0.1,0.6,0.26c0.16,0.16,0.25,0.38,0.25,0.61c0,2.51,1.17,7.26,1.92,9.88 c0.55,1.94,0.75,3.96,0.58,5.98c-0.71,7.69-2.79,13.55-5.58,15.67C422.29,297.9,421.4,298.22,420.48,298.22z M414.49,274.53 c0.24,0,0.48,0.07,0.68,0.2c0.2,0.13,0.35,0.33,0.44,0.55c0.82,1.97,2.18,5.66,2.18,8.31c0,0.48,0,1.07-0.04,1.75 c-0.1,3.44-0.3,10.6,2.39,11.1c0.31,0.05,0.63,0.03,0.93-0.05c0.3-0.09,0.58-0.24,0.82-0.45c2.37-1.8,4.25-7.32,4.9-14.43 c0.15-1.8-0.02-3.61-0.51-5.35c-0.81-2.96-1.75-6.86-1.95-9.49l-13.08-0.38c-0.49,1.81-1.75,6.85-1.71,8.97v0.48 c0.23,8.27,0.77,10.54,1.17,10.99c0.06,0.07,0.15,0.12,0.24,0.13c0.09,0.02,0.19,0,0.27-0.05c0.58-0.24,1.72-1.64,1.72-5.14 c-0.02-2.02,0.08-4.03,0.29-6.04c0.03-0.27,0.15-0.52,0.35-0.72c0.19-0.19,0.44-0.32,0.72-0.35L414.49,274.53z"></path> <path class="st2" d="M243.41,205.69c0,0-14.87-4.67-16.31-4.42c-1.44,0.26-3.26,2.81-6.91,4.63c-3.65,1.82-6.38,2.89-5.62,4.48 c0.68,1.41,7.35,1.21,12.13-0.59c0.47-0.18,0.99-0.2,1.48-0.07c0.49,0.13,0.92,0.41,1.24,0.81c1.6,1.95,8.95,5.66,15.61,5.87 L243.41,205.69z"></path> <path class="st1" d="M245.04,217.28h-0.03c-7.12-0.23-14.57-4.14-16.26-6.19c-0.21-0.25-0.49-0.43-0.8-0.52 c-0.31-0.08-0.65-0.07-0.95,0.05c-4.45,1.69-12.14,2.44-13.23,0.16c-1.04-2.18,1.51-3.43,4.73-5.01l1.29-0.63 c1.54-0.81,2.98-1.8,4.28-2.95c1.1-0.91,1.96-1.62,2.88-1.75c1.49-0.23,12.18,3.03,16.71,4.44c0.15,0.05,0.29,0.15,0.39,0.27 c0.1,0.12,0.17,0.27,0.2,0.43l1.62,10.7c0.02,0.13,0.01,0.26-0.02,0.38c-0.04,0.12-0.1,0.24-0.19,0.33 c-0.08,0.09-0.17,0.16-0.28,0.21C245.27,217.25,245.15,217.28,245.04,217.28z M227.55,208.75c0.49,0,0.97,0.11,1.41,0.32 c0.44,0.21,0.83,0.51,1.14,0.89c1.24,1.51,7.59,4.95,13.91,5.49l-1.38-9.08c-6.82-2.12-14.24-4.22-15.38-4.22h-0.04 c-0.42,0.07-1.17,0.71-2.01,1.39c-1.41,1.23-2.96,2.29-4.62,3.16l-1.3,0.64c-2.07,1.01-4.21,2.06-3.91,2.68 c0.68,0.72,6.37,0.72,11.02-1.05C226.76,208.82,227.15,208.75,227.55,208.75z"></path> <path class="st2" d="M424.86,197.37c-5.84-30.8-15.13-55.75-19.39-62.02c-11.47-16.88-48.72-24.34-48.75-24.35 c-2.8,1.88-20.2,3.06-23.49,1.53c-0.33,0.18-30.9,9.14-40.03,21.49c-8.11,10.97-6.06,47.37-13.91,54.14 c-7.35,6.34-36.22,15.92-36.22,15.92l2.1,15.19c0,0,41.94-4,44.87-4.59c2.93-0.58,13.51-2.92,15.85-11.94 c0.68-2.59,1.66-7.88,2.72-14.1l6.82,48.76c12.31,4.57,25.57,5.94,38.55,3.96l26.02-3.96l6.34-70.93c0,0,1.31,3.41,3.23,8.63 c7.81,21.34,13.42,43.42,16.75,65.9l3.68,24.83l15.72,0.18C425.57,233.27,429.1,219.76,424.86,197.37z"></path> <path class="st1" d="M425.71,266.89l-15.72-0.18c-0.21,0-0.41-0.08-0.57-0.21c-0.16-0.14-0.26-0.33-0.29-0.53l-3.71-24.83 c-3.33-22.42-8.92-44.43-16.71-65.72c-0.72-1.96-1.36-3.68-1.87-5.05l-5.96,67.11c-0.02,0.2-0.1,0.38-0.24,0.52 c-0.13,0.14-0.31,0.24-0.51,0.27l-26.02,3.96c-13.13,1.99-26.54,0.61-38.99-4.01c-0.15-0.05-0.29-0.14-0.39-0.27 c-0.1-0.12-0.17-0.27-0.2-0.43l-6.05-43.23c-0.74,4.09-1.34,7.01-1.75,8.69c-1.65,6.31-7.52,10.77-16.53,12.58 c-2.95,0.58-43.23,4.43-44.98,4.6c-0.22,0.02-0.45-0.04-0.63-0.18c-0.18-0.14-0.29-0.34-0.32-0.57l-2.1-15.19 c-0.03-0.2,0.01-0.41,0.12-0.58c0.11-0.17,0.27-0.3,0.46-0.37c0.29-0.1,28.78-9.6,35.92-15.77c3.71-3.2,5.18-14.43,6.6-25.29 c1.49-11.35,3.02-23.09,7.17-28.71c7.43-10.04,28.11-17.83,39.77-21.58l0.62-0.2c0.11-0.05,0.23-0.08,0.36-0.08 c0.12,0,0.24,0.03,0.36,0.08c2.92,1.37,20.07,0.26,22.64-1.46c0.1-0.07,0.21-0.11,0.33-0.13c0.12-0.02,0.24-0.02,0.35,0.01 c3.9,0.81,38.13,8.31,49.28,24.71c4.48,6.58,13.76,31.92,19.53,62.36c2.75,14.5,2.27,25.12,1.6,39.87 c-0.36,8.09-0.78,17.27-0.73,28.92c0,0.11-0.02,0.23-0.07,0.34c-0.04,0.11-0.11,0.2-0.19,0.29c-0.08,0.08-0.18,0.15-0.28,0.19 C425.94,266.86,425.82,266.88,425.71,266.89L425.71,266.89z M410.75,264.96l14.08,0.16c-0.03-11.27,0.38-20.21,0.74-28.12 c0.66-14.6,1.17-25.16-1.58-39.47c-5.73-30.2-14.86-55.23-19.28-61.69c-10.56-15.54-44.17-23.11-47.9-23.92 c-3.76,1.89-19.6,2.92-23.66,1.53l-0.41,0.13c-19.51,6.27-33.69,13.9-38.9,20.95c-3.88,5.26-5.39,16.76-6.84,27.89 c-1.54,11.68-2.98,22.75-7.2,26.39c-6.85,5.91-31.28,14.32-35.82,15.86l1.89,13.64c5.92-0.58,41.31-3.97,43.95-4.49 c4.82-0.96,13.2-3.71,15.19-11.3c0.58-2.3,1.51-7.01,2.7-14.02c0.04-0.2,0.15-0.39,0.31-0.52c0.16-0.13,0.36-0.21,0.57-0.21 c0.21,0,0.41,0.08,0.57,0.22c0.16,0.14,0.26,0.33,0.29,0.54l6.75,48.24c12.03,4.37,24.97,5.65,37.62,3.73l25.34-3.86l6.32-70.24 c0.02-0.2,0.1-0.38,0.24-0.52c0.14-0.14,0.32-0.24,0.51-0.26c0.2-0.03,0.39,0.01,0.56,0.11c0.17,0.1,0.3,0.25,0.38,0.44 c0,0.04,1.34,3.51,3.23,8.65c7.82,21.4,13.45,43.53,16.79,66.07L410.75,264.96z"></path> <path class="st1" d="M309.09,194.36c-0.22,0-0.43-0.08-0.59-0.23c-0.16-0.15-0.26-0.35-0.28-0.57c-0.78-9.08-2.4-17.09-4.27-26.36 c-0.54-2.68-1.11-5.48-1.68-8.44c-0.02-0.11-0.02-0.23,0-0.34c0.02-0.11,0.07-0.22,0.13-0.32c0.07-0.1,0.15-0.18,0.24-0.24 c0.1-0.06,0.2-0.11,0.32-0.13c0.11-0.02,0.23-0.02,0.34,0s0.22,0.07,0.32,0.13c0.1,0.06,0.18,0.15,0.24,0.24 c0.06,0.1,0.11,0.2,0.13,0.32c0.58,2.96,1.13,5.75,1.68,8.43c1.88,9.35,3.51,17.38,4.3,26.55c0.01,0.12,0,0.23-0.04,0.34 c-0.04,0.11-0.09,0.21-0.17,0.3c-0.08,0.09-0.17,0.16-0.27,0.21c-0.1,0.05-0.21,0.08-0.33,0.1L309.09,194.36z"></path> <path class="st1" d="M340.58,178.14c-0.18,0-0.36-0.06-0.5-0.16c-0.15-0.1-0.26-0.25-0.32-0.42l-7.1-19.35 c-0.05-0.11-0.08-0.23-0.09-0.35s0.02-0.24,0.07-0.36c0.05-0.11,0.12-0.22,0.21-0.3c0.09-0.08,0.19-0.15,0.31-0.19 s0.24-0.06,0.36-0.05c0.12,0.01,0.24,0.04,0.35,0.1c0.11,0.06,0.2,0.14,0.28,0.24c0.08,0.1,0.13,0.21,0.16,0.33l7.09,19.35 c0.04,0.11,0.06,0.22,0.05,0.34c-0.01,0.12-0.03,0.23-0.08,0.33c-0.05,0.1-0.12,0.2-0.2,0.28c-0.08,0.08-0.18,0.14-0.29,0.18 C340.78,178.13,340.68,178.15,340.58,178.14z"></path> <path class="st1" d="M324.16,79.91c-0.33,0-0.65-0.07-0.95-0.22c-0.91-0.46-1.38-1.52-1.33-2.99c0.1-1.42,0.5-2.8,1.17-4.05 c1.6-3.15,4.09-4.88,5.79-4.01c0.91,0.46,1.39,1.52,1.33,2.99c-0.1,1.42-0.5,2.8-1.17,4.05C327.69,78.25,325.75,79.91,324.16,79.91z M327.86,70.16c-0.65,0-2.13,1.06-3.25,3.28c-0.55,1.03-0.88,2.16-0.97,3.32c0,0.8,0.16,1.26,0.37,1.37 c0.5,0.25,2.18-0.78,3.43-3.24c0.55-1.03,0.88-2.16,0.97-3.32c0.03-0.8-0.16-1.26-0.37-1.37C327.98,70.17,327.92,70.16,327.86,70.16 z"></path> <path class="st2" d="M343.38,119.14c6.24-0.01,12.33-1.86,17.52-5.32c-10.37-3.64-6.72-19.42-6.72-19.42 c7.83-17.24,1.75-28.23-7.51-30.52c-13.13-3.24-14.8,4.39-14.8,4.39c-0.99,2.05-3.31,6.82-4.21,7.37c-1.1,0.67-3.73,1.35-4.17,1.9 c-0.43,0.55-0.18,2.34,1.47,3.86c0,0-4.78,9.98-3.18,12.99c1.59,3,12.94,5.51,12.94,5.51s2.66,12.12-4.67,16.28 c2.85,1.33,5.88,2.23,8.99,2.66C340.49,119.04,341.94,119.14,343.38,119.14z"></path> <path class="st1" d="M343.38,120.03c-1.5,0-3-0.11-4.48-0.32c-3.2-0.44-6.31-1.36-9.24-2.73c-0.15-0.07-0.27-0.17-0.36-0.31 c-0.09-0.13-0.14-0.29-0.15-0.45c-0.01-0.16,0.03-0.32,0.11-0.46c0.08-0.14,0.19-0.26,0.33-0.34c5.84-3.31,4.76-12.47,4.38-14.79 c-2.53-0.58-11.37-2.86-12.94-5.84c-1.57-2.98,1.72-10.64,2.92-13.21c-1.52-1.68-1.83-3.65-1.11-4.57c0.37-0.47,1.17-0.78,2.47-1.29 c0.66-0.23,1.31-0.5,1.93-0.82c0.33-0.25,1.29-1.67,3.84-6.93c0.55-1.75,1.73-3.23,3.31-4.17c2.92-1.83,7.16-2.09,12.52-0.77 c2.15,0.52,4.17,1.51,5.88,2.91c1.72,1.4,3.1,3.17,4.05,5.17c2.95,6.1,2.34,14.47-1.78,23.56c-0.25,1.17-2.97,15.1,6.16,18.31 c0.15,0.06,0.29,0.15,0.39,0.28c0.1,0.13,0.17,0.28,0.19,0.44c0.02,0.16-0.01,0.32-0.07,0.47c-0.07,0.15-0.18,0.27-0.31,0.36 c-5.34,3.56-11.61,5.46-18.03,5.47L343.38,120.03z M331.82,116.01c2.35,0.96,4.81,1.62,7.33,1.96c1.4,0.2,2.82,0.3,4.24,0.3 c5.52-0.01,10.93-1.5,15.67-4.31c-9.05-4.76-5.84-19.11-5.7-19.76c0-0.05,0.04-0.11,0.06-0.16c3.92-8.64,4.57-16.51,1.84-22.16 c-0.83-1.77-2.05-3.33-3.57-4.57c-1.52-1.24-3.29-2.12-5.19-2.58c-4.79-1.17-8.64-1-11.13,0.53c-1.24,0.7-2.17,1.84-2.59,3.2 c-0.02,0.06-0.04,0.13-0.07,0.19c-2.49,5.15-3.73,7.24-4.54,7.74c-0.71,0.38-1.45,0.71-2.22,0.97c-0.58,0.2-1.15,0.44-1.69,0.72 c-0.07,0.3,0.08,1.48,1.36,2.67c0.14,0.13,0.23,0.3,0.26,0.48c0.03,0.18,0.01,0.37-0.07,0.54c-1.75,3.71-4.21,10.29-3.2,12.2 c1.01,1.9,8.11,4.12,12.34,5.06c0.16,0.04,0.31,0.12,0.43,0.24c0.12,0.12,0.2,0.27,0.24,0.43 C335.7,100.21,337.99,111.01,331.82,116.01z"></path> <path class="st1" d="M354.07,59.19c-3.3-0.95-7.17-0.76-8.76-1.46c-2.56-1.13-2.23-4.15-5.93-4.77c-3.24-0.55-6.34-0.2-8.18,2.16 c-0.33,0.42-0.61,0.87-0.83,1.35c-3.19,6.85,0.08,10.57,1.55,11.82c0,0,9.56,5.65,11.16,7.17c1.49,1.43,3.12,4.67,1.71,9 c-0.09,0.27-0.09,0.56,0,0.83c0.09,0.27,0.26,0.5,0.5,0.66c0.28,0.19,0.61,0.27,0.95,0.23c0.33-0.05,0.64-0.21,0.85-0.47 c1.39-1.68,4.4-4.9,6.34-3.93c2.34,1.17,2.58,7.65-2.52,8.29c-0.21,0.03-0.42,0.1-0.6,0.23c-0.18,0.12-0.33,0.28-0.43,0.47 c-0.11,0.19-0.17,0.4-0.17,0.61c-0.01,0.22,0.03,0.43,0.12,0.63c0.31,0.87,0.93,1.59,1.73,2.03c0.81,0.44,1.75,0.57,2.65,0.36 c0,0,11.39-6.72,13.52-16.68S358.45,60.46,354.07,59.19z"></path> <path class="st1" d="M331.82,82.75c-0.48,0-0.96-0.11-1.38-0.33c-1.06-0.54-1.72-1.66-1.84-3.15c-0.05-1.47,0.27-2.94,0.93-4.26 c0.67-1.32,1.66-2.44,2.88-3.27c1.28-0.78,2.56-0.91,3.63-0.37c0.56,0.32,1.02,0.78,1.34,1.33c0.32,0.55,0.5,1.18,0.5,1.82 c0.05,1.48-0.27,2.94-0.94,4.26c-0.67,1.32-1.66,2.44-2.89,3.27C333.38,82.49,332.61,82.73,331.82,82.75z M334.66,72.82 c-0.47,0.03-0.93,0.18-1.33,0.44c-0.96,0.64-1.74,1.52-2.24,2.56c-0.54,1.02-0.8,2.17-0.75,3.32c0.04,0.5,0.21,1.38,0.89,1.75 c0.68,0.37,1.49-0.04,1.92-0.3c0.95-0.66,1.72-1.54,2.24-2.57c0.52-1.03,0.78-2.17,0.75-3.32c-0.04-0.5-0.21-1.39-0.89-1.75 c-0.18-0.1-0.38-0.16-0.58-0.16L334.66,72.82z"></path> <path class="st1" d="M330.42,75.92c-0.17,0-0.33-0.05-0.48-0.14c-0.14-0.09-0.26-0.22-0.33-0.37c0,0-0.32-0.66-0.72-0.66h-0.05 c-0.23,0-0.46-0.08-0.62-0.24c-0.17-0.16-0.27-0.38-0.27-0.61c0-0.23,0.08-0.46,0.24-0.62c0.16-0.17,0.38-0.26,0.61-0.27 c0.52,0.01,1.02,0.18,1.45,0.47c0.43,0.29,0.76,0.7,0.96,1.18c0.06,0.13,0.08,0.28,0.07,0.43c-0.01,0.15-0.06,0.29-0.14,0.41 c-0.08,0.12-0.19,0.22-0.32,0.29c-0.13,0.07-0.27,0.11-0.42,0.11V75.92z"></path> <path class="st1" d="M348.04,82.13c-0.13,0-0.25-0.03-0.37-0.08l-11.04-5.09c-0.2-0.1-0.36-0.28-0.43-0.49 c-0.07-0.21-0.06-0.45,0.03-0.65c0.1-0.21,0.27-0.37,0.48-0.45c0.21-0.08,0.45-0.08,0.65,0.01l11.04,5.08 c0.18,0.09,0.32,0.23,0.41,0.41c0.09,0.18,0.11,0.38,0.07,0.58c-0.04,0.19-0.15,0.37-0.3,0.49 C348.43,82.05,348.24,82.12,348.04,82.13z"></path> <path class="st1" d="M424.53,408.81c-0.18,0.01-0.37-0.04-0.52-0.15c-0.15-0.1-0.27-0.25-0.34-0.42c-0.07-0.17-0.07-0.36-0.02-0.54 c0.05-0.18,0.15-0.34,0.3-0.45c17.13-13.87,28.9-28.1,30.7-37.12c1-5.16,1.45-10.41,1.32-15.66c-0.71-7.52-3.54-14.02-6.82-21.53 c-1.75-4.09-3.78-8.68-5.67-13.96c-0.05-0.11-0.07-0.23-0.07-0.35c0-0.12,0.02-0.24,0.07-0.35c0.05-0.11,0.12-0.21,0.21-0.29 c0.09-0.08,0.19-0.15,0.31-0.19c0.11-0.04,0.23-0.06,0.35-0.05c0.12,0.01,0.24,0.04,0.34,0.1s0.2,0.13,0.28,0.23 c0.08,0.09,0.13,0.2,0.16,0.32c1.87,5.22,3.87,9.8,5.63,13.84c3.34,7.66,6.22,14.27,6.96,22.1c0.15,5.41-0.3,10.82-1.34,16.12 c-1.89,9.41-13.89,24.03-31.32,38.15C424.91,408.74,424.72,408.8,424.53,408.81z"></path> <path class="st1" d="M270.98,463.87c-3.2,0-6.43-0.07-9.58-0.21c-0.23-0.01-0.45-0.11-0.61-0.28c-0.16-0.17-0.24-0.4-0.23-0.63 c0.01-0.23,0.11-0.45,0.28-0.61c0.17-0.16,0.4-0.24,0.63-0.23c4.18,0.19,8.44,0.25,12.65,0.19c0.23,0,0.45,0.09,0.62,0.26 c0.17,0.16,0.26,0.39,0.26,0.62c0,0.23-0.09,0.45-0.26,0.62c-0.16,0.17-0.39,0.26-0.62,0.26 C273.09,463.86,272.03,463.87,270.98,463.87z"></path> <path class="st1" d="M240.38,461.71h-0.13c-9.43-1.36-18.77-3.3-27.97-5.8c-0.11-0.03-0.22-0.08-0.31-0.15 c-0.09-0.07-0.17-0.16-0.23-0.26c-0.06-0.1-0.09-0.21-0.11-0.32c-0.01-0.11-0.01-0.23,0.02-0.34c0.03-0.11,0.08-0.22,0.15-0.31 c0.07-0.09,0.16-0.17,0.26-0.23c0.1-0.06,0.21-0.09,0.32-0.11c0.11-0.02,0.23-0.01,0.34,0.02c9.13,2.48,18.4,4.41,27.76,5.76 c0.23,0.02,0.45,0.12,0.6,0.3c0.15,0.18,0.23,0.4,0.21,0.64c-0.02,0.23-0.12,0.45-0.3,0.6c-0.18,0.15-0.41,0.23-0.64,0.21V461.71z"></path> <path class="st1" d="M116.29,405.96c-0.21,0-0.42-0.07-0.58-0.21c-24.49-20.79-42.96-45.44-54.91-73.27 c-0.05-0.11-0.07-0.22-0.07-0.34c0-0.12,0.02-0.23,0.06-0.34c0.04-0.11,0.11-0.21,0.19-0.29c0.08-0.08,0.18-0.15,0.29-0.2 c0.11-0.05,0.22-0.07,0.34-0.07c0.12,0,0.23,0.02,0.34,0.06c0.11,0.04,0.21,0.11,0.29,0.19c0.08,0.08,0.15,0.18,0.2,0.29 c11.83,27.58,30.15,52.02,54.43,72.63c0.14,0.12,0.24,0.27,0.29,0.45c0.05,0.17,0.04,0.36-0.03,0.53c-0.06,0.17-0.18,0.32-0.33,0.42 c-0.15,0.1-0.33,0.15-0.51,0.15L116.29,405.96z"></path> <path class="st1" d="M427.69,383.02c-0.17,0.01-0.35-0.04-0.49-0.13s-0.27-0.23-0.34-0.39c-0.07-0.16-0.09-0.34-0.06-0.51 c0.03-0.17,0.11-0.33,0.23-0.45c7.68-8.11,12.48-15.46,13.53-20.71c0.02-0.12,0.06-0.23,0.12-0.33c0.06-0.1,0.14-0.19,0.24-0.26 c0.1-0.07,0.21-0.12,0.32-0.14c0.12-0.02,0.24-0.03,0.35,0c0.12,0.02,0.23,0.07,0.33,0.14c0.1,0.07,0.18,0.15,0.24,0.25 c0.06,0.1,0.11,0.21,0.13,0.33c0.02,0.12,0.01,0.24-0.01,0.35c-1.11,5.57-6.08,13.23-13.97,21.57c-0.08,0.08-0.17,0.15-0.28,0.2 C427.92,382.99,427.81,383.02,427.69,383.02z"></path> <path class="st1" d="M270.51,447.75c-9.53,0-19.06-0.67-28.49-2.02c-7.25-1.05-14.45-2.46-21.55-4.25c-0.22-0.06-0.4-0.21-0.51-0.4 c-0.11-0.2-0.15-0.43-0.09-0.65c0.05-0.22,0.19-0.41,0.38-0.53c0.19-0.12,0.42-0.16,0.64-0.12c7.05,1.77,14.19,3.17,21.38,4.21 c10.74,1.53,21.59,2.18,32.43,1.95c0.11-0.01,0.23,0.01,0.34,0.05c0.11,0.04,0.21,0.1,0.29,0.18c0.08,0.08,0.15,0.18,0.19,0.28 c0.05,0.11,0.07,0.22,0.07,0.34c0,0.12-0.02,0.23-0.06,0.34c-0.04,0.11-0.1,0.21-0.18,0.29c-0.08,0.08-0.18,0.15-0.28,0.2 c-0.11,0.05-0.22,0.07-0.33,0.07C273.33,447.74,271.92,447.75,270.51,447.75z"></path> <path class="st1" d="M100.72,366.85c-0.13,0-0.26-0.03-0.38-0.09c-0.12-0.06-0.22-0.14-0.31-0.24 c-6.92-8.71-13.03-18.04-18.23-27.87c-0.05-0.1-0.09-0.21-0.1-0.33c-0.01-0.11,0-0.23,0.04-0.34c0.03-0.11,0.09-0.21,0.16-0.3 c0.07-0.09,0.16-0.16,0.27-0.22c0.1-0.05,0.21-0.09,0.33-0.1c0.11-0.01,0.23,0,0.34,0.04c0.11,0.03,0.21,0.09,0.3,0.16 c0.09,0.07,0.16,0.16,0.22,0.27c5.15,9.74,11.19,18.98,18.05,27.6c0.07,0.09,0.13,0.19,0.16,0.3c0.03,0.11,0.04,0.23,0.03,0.34 c-0.01,0.11-0.05,0.23-0.1,0.33c-0.06,0.1-0.13,0.19-0.22,0.26C101.11,366.79,100.92,366.85,100.72,366.85z"></path> <path class="st1" d="M232.86,175.38c-5.67,0-12.32-2.06-14.6-8.51c-0.83-2.2-0.95-4.61-0.35-6.88c-2.43-2.34-4.22-5.27-5.18-8.51 c-3.31-10.23,4.43-21.29,4.76-21.76c0.06-0.1,0.15-0.18,0.25-0.25c0.1-0.07,0.21-0.11,0.32-0.13c0.12-0.02,0.24-0.02,0.35,0.01 c0.12,0.02,0.23,0.07,0.32,0.14c0.1,0.07,0.18,0.16,0.24,0.26c0.06,0.1,0.1,0.21,0.12,0.33c0.02,0.12,0.01,0.24-0.02,0.35 c-0.03,0.11-0.08,0.22-0.16,0.32c-0.08,0.1-7.56,10.82-4.51,20.21c0.81,2.71,2.25,5.2,4.2,7.26c0.6-1.18,1.43-2.23,2.43-3.1 c2.66-2.34,6.22-3.04,8.67-1.75c1.32,0.62,2.33,1.73,2.83,3.1c0.23,0.67,0.32,1.39,0.24,2.1c-0.08,0.71-0.32,1.39-0.7,1.99 c-0.43,0.7-1.01,1.29-1.69,1.74c-0.68,0.45-1.46,0.75-2.26,0.88c-3.04,0.5-6.16-0.2-8.7-1.95c-0.3,1.71-0.13,3.47,0.47,5.09 c3.06,8.58,14.64,7.81,18.51,6.56c0.22-0.07,0.46-0.05,0.67,0.06c0.21,0.11,0.36,0.29,0.43,0.51c0.07,0.22,0.05,0.46-0.05,0.67 c-0.11,0.21-0.29,0.36-0.51,0.43C236.97,175.11,234.92,175.4,232.86,175.38z M219.97,159.4c1.11,0.85,2.38,1.46,3.73,1.8 c1.35,0.34,2.76,0.4,4.14,0.18c0.56-0.08,1.09-0.29,1.56-0.6c0.47-0.31,0.87-0.72,1.16-1.19c0.24-0.38,0.39-0.81,0.45-1.26 c0.05-0.45,0-0.9-0.14-1.33c-0.36-0.93-1.07-1.69-1.98-2.1c-1.83-0.95-4.59-0.32-6.71,1.54 C221.23,157.24,220.47,158.26,219.97,159.4z"></path> <path class="st1" d="M267.43,143.49c-0.23,0-0.46-0.08-0.62-0.24c-0.17-0.16-0.27-0.38-0.27-0.61c-0.01-0.23,0.08-0.46,0.24-0.62 c0.16-0.17,0.38-0.27,0.61-0.27c3.43-0.15,8.52-5.76,8.68-14.22c0-0.27,0-0.54,0-0.79c-1.19,0.73-2.43,1.38-3.7,1.94 c-2.73,1.2-6.59,1.6-8.44-1.23c-0.39-0.56-0.66-1.19-0.78-1.87c-0.12-0.67-0.09-1.36,0.09-2.02c0.48-1.72,2-3.26,4.27-4.33 c1.09-0.52,2.29-0.75,3.5-0.69s2.38,0.43,3.4,1.07c1.44,0.96,2.47,2.42,2.92,4.09c3.88-2.97,6.48-7.31,7.27-12.13 c0.51-3.49,0.15-7.05-1.03-10.38c-1.19-3.32-3.17-6.3-5.77-8.69c-0.79-0.7-1.64-1.34-2.54-1.89c-0.33,4.44-1.72,8.73-4.04,12.53 c-1.17,1.99-2.67,3.77-4.45,5.26c-4.99,4-12.17,5.4-17.07,3.36c-2.34-0.97-5.26-3.18-5.76-8.18c-0.62-5.84,2.92-11.33,9.5-14.69 c5.49-2.8,13.37-3.92,20.14-1.09c-0.1-3.95-1.1-7.82-2.92-11.32c-7.51-14.35-23.86-19.6-36.22-21.48c-0.23-0.03-0.44-0.16-0.58-0.35 c-0.14-0.19-0.2-0.43-0.16-0.66c0.04-0.23,0.16-0.44,0.35-0.58c0.19-0.14,0.43-0.2,0.66-0.16c12.79,1.94,29.68,7.4,37.53,22.4 c2.09,4,3.16,8.46,3.13,12.97c1.31,0.7,2.52,1.56,3.63,2.55c2.82,2.58,4.97,5.8,6.25,9.4c1.28,3.6,1.66,7.46,1.11,11.24 c-0.45,2.75-1.45,5.39-2.93,7.75c-1.48,2.36-3.42,4.41-5.69,6.02c0.07,0.65,0.1,1.31,0.09,1.96c-0.16,8.87-5.6,15.72-10.35,15.94 L267.43,143.49z M270.62,120.27c-0.82,0-1.64,0.18-2.38,0.53c-1.8,0.85-2.99,2-3.33,3.22c-0.11,0.42-0.12,0.85-0.04,1.28 c0.08,0.42,0.26,0.83,0.51,1.17c1.65,2.51,5.81,0.78,6.28,0.58c1.45-0.63,2.85-1.39,4.16-2.27c-0.13-0.75-0.4-1.46-0.81-2.1 c-0.41-0.64-0.94-1.19-1.56-1.62C272.6,120.54,271.62,120.26,270.62,120.27z M265.03,87.89c-3.74,0-7.44,0.88-10.79,2.55 c-5.89,3-9.1,7.86-8.56,12.93c0.35,3.32,1.93,5.58,4.67,6.74c4.28,1.79,10.85,0.45,15.3-3.11c1.62-1.36,2.98-2.98,4.05-4.8 c2.31-3.78,3.63-8.09,3.83-12.52C270.86,88.47,267.96,87.86,265.03,87.89z"></path> <path class="st1" d="M229.9,54.42h-0.08c-2.35-0.24-4.72-0.36-7.09-0.34c-0.12,0-0.23-0.02-0.34-0.06c-0.11-0.04-0.21-0.1-0.29-0.18 c-0.17-0.16-0.27-0.38-0.27-0.61c-0.01-0.23,0.08-0.46,0.24-0.63c0.16-0.17,0.38-0.27,0.61-0.27c2.44-0.02,4.87,0.1,7.3,0.35 c0.11,0.01,0.23,0.03,0.33,0.08c0.1,0.05,0.2,0.12,0.27,0.2c0.08,0.09,0.14,0.18,0.18,0.29c0.04,0.11,0.06,0.22,0.05,0.34 c0,0.12-0.03,0.23-0.08,0.33c-0.05,0.1-0.12,0.2-0.2,0.28c-0.08,0.08-0.18,0.14-0.29,0.18C230.13,54.42,230.01,54.43,229.9,54.42 L229.9,54.42z"></path> <path class="st1" d="M418.58,64.98c-0.27,0-0.53-0.11-0.72-0.3l-2.51-2.53c-0.18-0.19-0.29-0.45-0.29-0.71 c0-0.27,0.1-0.52,0.29-0.71c0.09-0.1,0.21-0.17,0.33-0.22c0.12-0.05,0.26-0.08,0.39-0.08c0.13,0,0.27,0.03,0.39,0.08 c0.12,0.05,0.24,0.13,0.33,0.22l2.53,2.52c0.15,0.14,0.25,0.33,0.29,0.53c0.04,0.2,0.02,0.41-0.06,0.6s-0.21,0.35-0.38,0.46 c-0.17,0.11-0.37,0.17-0.57,0.17L418.58,64.98z"></path> <path class="st1" d="M429.22,75.61c-0.14,0-0.27-0.03-0.39-0.08c-0.12-0.05-0.24-0.13-0.33-0.23l-2.52-2.52 c-0.17-0.19-0.26-0.45-0.25-0.71c0.01-0.26,0.11-0.51,0.3-0.69c0.18-0.18,0.43-0.29,0.69-0.3c0.26-0.01,0.51,0.08,0.71,0.25 l2.53,2.52c0.19,0.19,0.3,0.45,0.3,0.72s-0.11,0.53-0.3,0.72c-0.09,0.1-0.21,0.17-0.33,0.23C429.48,75.59,429.35,75.61,429.22,75.61 z"></path> <path class="st1" d="M416.06,75.61c-0.26,0-0.52-0.1-0.71-0.28c-0.19-0.19-0.3-0.45-0.3-0.72c0-0.27,0.11-0.53,0.3-0.72l2.52-2.52 c0.19-0.19,0.45-0.3,0.72-0.3c0.27,0,0.53,0.11,0.72,0.3c0.19,0.19,0.3,0.45,0.3,0.72c0,0.27-0.11,0.53-0.3,0.72l-2.55,2.52 c-0.1,0.09-0.21,0.16-0.33,0.21C416.33,75.59,416.19,75.62,416.06,75.61z"></path> <path class="st1" d="M426.69,64.98c-0.2,0-0.4-0.06-0.57-0.17c-0.17-0.11-0.3-0.27-0.38-0.46c-0.08-0.19-0.1-0.4-0.06-0.6 c0.04-0.2,0.14-0.38,0.29-0.53l2.52-2.5c0.19-0.19,0.45-0.3,0.72-0.3c0.27,0,0.53,0.11,0.72,0.3c0.19,0.19,0.3,0.45,0.3,0.72 c0,0.27-0.11,0.53-0.3,0.72l-2.53,2.53C427.21,64.89,426.96,64.99,426.69,64.98z"></path> <path class="st1" d="M467.69,438.37c-0.13,0-0.27-0.02-0.39-0.08c-0.12-0.05-0.24-0.13-0.33-0.22l-2.54-2.52 c-0.19-0.19-0.3-0.45-0.3-0.72c0-0.27,0.11-0.53,0.3-0.73c0.19-0.19,0.45-0.3,0.73-0.3c0.27,0,0.53,0.11,0.72,0.3l2.52,2.52 c0.15,0.14,0.24,0.32,0.29,0.52c0.04,0.2,0.02,0.41-0.05,0.59s-0.21,0.35-0.38,0.46s-0.37,0.17-0.57,0.17L467.69,438.37z"></path> <path class="st1" d="M478.31,449c-0.27,0-0.53-0.11-0.72-0.3l-2.53-2.53c-0.19-0.19-0.3-0.45-0.3-0.72c0-0.27,0.11-0.53,0.3-0.72 c0.19-0.19,0.45-0.3,0.72-0.3c0.27,0,0.53,0.11,0.72,0.3l2.52,2.52c0.15,0.14,0.25,0.33,0.29,0.53c0.04,0.2,0.02,0.41-0.06,0.6 c-0.08,0.19-0.21,0.35-0.38,0.46C478.72,448.95,478.52,449.01,478.31,449L478.31,449z"></path> <path class="st1" d="M465.16,449c-0.2,0-0.4-0.06-0.57-0.17c-0.17-0.11-0.3-0.27-0.38-0.46c-0.08-0.19-0.1-0.4-0.06-0.6 c0.04-0.2,0.14-0.38,0.29-0.53l2.53-2.52c0.19-0.19,0.45-0.3,0.72-0.3c0.27,0,0.53,0.11,0.72,0.3c0.1,0.09,0.17,0.21,0.22,0.33 s0.08,0.26,0.08,0.39c0,0.14-0.03,0.27-0.08,0.39c-0.05,0.12-0.13,0.24-0.22,0.33l-2.52,2.53c-0.1,0.1-0.21,0.17-0.33,0.22 C465.43,448.97,465.29,449,465.16,449z"></path> <path class="st1" d="M475.79,438.37c-0.2,0-0.4-0.06-0.57-0.17c-0.17-0.11-0.3-0.27-0.38-0.46c-0.08-0.19-0.1-0.4-0.06-0.6 c0.04-0.2,0.14-0.38,0.29-0.52l2.53-2.52c0.19-0.19,0.45-0.3,0.72-0.3c0.27,0,0.53,0.11,0.72,0.3c0.19,0.19,0.3,0.45,0.3,0.72 c0,0.27-0.11,0.53-0.3,0.72l-2.52,2.55C476.32,438.27,476.06,438.38,475.79,438.37z"></path> <path class="st1" d="M261.39,388.48c-0.92,0-1.83-0.27-2.6-0.79c-0.77-0.51-1.37-1.24-1.72-2.1c-0.35-0.85-0.45-1.79-0.27-2.7 c0.18-0.91,0.62-1.74,1.28-2.39c0.65-0.65,1.49-1.1,2.39-1.28c0.91-0.18,1.85-0.09,2.7,0.27c0.85,0.35,1.58,0.95,2.1,1.72 c0.51,0.77,0.79,1.67,0.79,2.6c0,1.24-0.49,2.43-1.37,3.3C263.81,387.99,262.63,388.48,261.39,388.48z M261.39,380.88 c-0.58,0-1.14,0.17-1.62,0.49c-0.48,0.32-0.86,0.78-1.08,1.31c-0.22,0.53-0.28,1.12-0.17,1.69c0.11,0.57,0.39,1.09,0.8,1.49 c0.41,0.41,0.93,0.69,1.5,0.8c0.57,0.11,1.15,0.05,1.69-0.17c0.53-0.22,0.99-0.6,1.31-1.07c0.32-0.48,0.49-1.05,0.49-1.62 c0.01-0.39-0.07-0.77-0.21-1.13c-0.15-0.36-0.36-0.69-0.63-0.96c-0.27-0.28-0.6-0.49-0.95-0.64c-0.36-0.15-0.74-0.23-1.13-0.23 V380.88z"></path> <path class="st1" d="M36.06,400.46c-0.89,0-1.75-0.26-2.49-0.76s-1.31-1.19-1.65-2.01c-0.34-0.82-0.43-1.72-0.26-2.59 c0.17-0.87,0.6-1.67,1.23-2.3c0.63-0.63,1.43-1.05,2.3-1.23c0.87-0.17,1.77-0.08,2.59,0.26c0.82,0.34,1.52,0.92,2.01,1.65 c0.49,0.74,0.76,1.61,0.76,2.49c0,1.19-0.47,2.33-1.32,3.17S37.25,400.46,36.06,400.46z M36.06,393.24c-0.54,0-1.07,0.16-1.52,0.46 c-0.45,0.3-0.8,0.73-1.01,1.23c-0.21,0.5-0.26,1.05-0.16,1.58c0.11,0.53,0.37,1.02,0.75,1.4c0.38,0.38,0.87,0.64,1.4,0.75 c0.53,0.11,1.08,0.05,1.58-0.15c0.5-0.21,0.93-0.56,1.23-1.01c0.3-0.45,0.46-0.98,0.46-1.52c0-0.72-0.29-1.42-0.8-1.93 C37.48,393.53,36.78,393.24,36.06,393.24z"></path> <path class="st1" d="M84.78,193.22c-0.92,0-1.83-0.27-2.6-0.79c-0.77-0.51-1.37-1.24-1.72-2.1s-0.45-1.79-0.27-2.7 c0.18-0.91,0.63-1.74,1.28-2.39c0.65-0.65,1.49-1.1,2.39-1.28c0.91-0.18,1.85-0.09,2.7,0.27c0.85,0.35,1.58,0.95,2.1,1.72 c0.51,0.77,0.79,1.67,0.79,2.6c0,1.24-0.49,2.43-1.37,3.31C87.2,192.72,86.02,193.22,84.78,193.22z M84.78,185.62 c-0.58,0-1.14,0.17-1.62,0.49c-0.48,0.32-0.85,0.78-1.08,1.31c-0.22,0.53-0.28,1.12-0.17,1.69c0.11,0.57,0.39,1.09,0.8,1.5 c0.41,0.41,0.93,0.69,1.5,0.8c0.57,0.11,1.15,0.05,1.69-0.17c0.53-0.22,0.99-0.6,1.31-1.08c0.32-0.48,0.49-1.04,0.49-1.62 c0-0.38-0.07-0.77-0.22-1.12c-0.15-0.36-0.36-0.68-0.63-0.95c-0.27-0.27-0.59-0.49-0.95-0.64c-0.36-0.15-0.74-0.22-1.12-0.22V185.62 z"></path> <path class="st0" d="M52.21,424.16c0.55-3.42-1.77-6.64-5.18-7.19c-3.42-0.55-6.64,1.77-7.19,5.18c-0.55,3.42,1.77,6.64,5.18,7.19 C48.43,429.9,51.65,427.58,52.21,424.16z"></path> <path class="st1" d="M58.79,451.04c-0.13,0-0.27-0.03-0.39-0.08c-0.12-0.05-0.24-0.13-0.33-0.22l-2.55-2.52 c-0.1-0.1-0.17-0.21-0.22-0.33c-0.05-0.12-0.08-0.26-0.08-0.39c0-0.27,0.11-0.53,0.3-0.73c0.19-0.19,0.45-0.3,0.72-0.3 c0.27,0,0.53,0.11,0.72,0.3l2.52,2.53c0.15,0.14,0.24,0.33,0.29,0.52c0.04,0.2,0.02,0.41-0.06,0.59c-0.08,0.19-0.21,0.35-0.38,0.46 c-0.17,0.11-0.37,0.17-0.57,0.17L58.79,451.04z"></path> <path class="st1" d="M69.41,461.67c-0.27,0-0.53-0.11-0.72-0.3l-2.53-2.52c-0.1-0.1-0.17-0.21-0.22-0.33 c-0.05-0.12-0.08-0.26-0.08-0.39c0-0.27,0.11-0.53,0.3-0.72c0.19-0.19,0.45-0.3,0.72-0.3c0.27,0,0.53,0.11,0.72,0.3l2.52,2.53 c0.15,0.14,0.25,0.33,0.29,0.53c0.04,0.2,0.02,0.41-0.06,0.6c-0.08,0.19-0.21,0.35-0.38,0.46c-0.17,0.11-0.37,0.17-0.57,0.17V461.67 z"></path> <path class="st1" d="M56.26,461.67c-0.2,0-0.4-0.06-0.57-0.17c-0.17-0.11-0.3-0.27-0.38-0.46c-0.08-0.19-0.1-0.4-0.06-0.6 c0.04-0.2,0.14-0.38,0.29-0.52l2.53-2.53c0.19-0.19,0.45-0.3,0.72-0.3c0.27,0,0.53,0.11,0.72,0.3c0.19,0.19,0.3,0.45,0.3,0.72 c0,0.27-0.11,0.53-0.3,0.72l-2.52,2.52c-0.09,0.1-0.21,0.17-0.33,0.23C56.53,461.64,56.4,461.67,56.26,461.67z"></path> <path class="st1" d="M66.89,451.04c-0.2,0-0.4-0.06-0.57-0.17c-0.17-0.11-0.3-0.27-0.38-0.46c-0.08-0.19-0.1-0.4-0.06-0.6 c0.04-0.2,0.14-0.38,0.29-0.52l2.53-2.53c0.19-0.19,0.45-0.3,0.72-0.3c0.27,0,0.53,0.11,0.72,0.3c0.19,0.19,0.3,0.45,0.3,0.72 c0,0.27-0.11,0.53-0.3,0.72l-2.52,2.52c-0.09,0.1-0.21,0.17-0.33,0.23C67.16,451.01,67.02,451.04,66.89,451.04z"></path> </svg> 