<?xml version="1.0" encoding="UTF-8"?> <svg xmlns="http://www.w3.org/2000/svg" xmlns:xlink="http://www.w3.org/1999/xlink" version="1.1" id="Layer_1" x="0px" y="0px" viewBox="0 0 48 48" style="enable-background:new 0 0 48 48;" xml:space="preserve"> <style type="text/css"> .st0{fill:#F89D35;} .st1{fill:#FFFFFF;} </style> <g> <circle class="st0" cx="24.09" cy="23.91" r="22.91"></circle> <path class="st1" d="M33.09,11.93c-1.72-1.92-3.47-2.69-4.92-2.16c-0.28,0.11-0.53,0.27-0.76,0.46l-4.19,3.52l0,0l-10.97,9.23l0,0 l-2.36,1.98C9.1,25.63,8.8,26.73,9.16,27.7l0.47,1.29l0,0l0.47,1.29c0.36,0.97,1.29,1.63,2.32,1.63l22.87-0.01 c0.3,0,0.89-0.16,0.89-0.16c1.45-0.53,2.29-2.24,2.37-4.82c0.07-2.31-0.45-5.13-1.48-7.95C36.05,16.15,34.63,13.65,33.09,11.93z M32.4,23.27l-1.67-4.57c1.26-0.46,2.66,0.19,3.12,1.45C34.31,21.41,33.66,22.81,32.4,23.27z M28,10.8 c-0.03,0.03-0.07,0.05-0.1,0.08c-1.72,1.45-1.7,6.25,0.16,11.37c1.32,3.61,3.24,6.51,5.04,7.9l-20.68,0.01 c-0.31,0-0.59-0.2-0.7-0.49l-0.47-1.29l0,0l0,0l15.4-5.62c0,0,0-0.01,0-0.01C24.72,17.45,25.34,12.29,28,10.8z"></path> <path class="st1" d="M28.7,31.69c-0.14,2.4-2.12,4.09-4.56,4.11c-0.02,0-0.03,0-0.05,0c-2.45,0-4.47-1.7-4.61-4.13l1.75,0 c0.18,1.42,1.39,2.41,2.86,2.41c0.01,0,0.02,0,0.03,0c1.43,0,2.61-1.03,2.82-2.41"></path> </g> </svg> 