<?xml version="1.0" encoding="UTF-8"?> <svg xmlns="http://www.w3.org/2000/svg" width="334" height="70" viewBox="0 0 334 70" fill="none"><path d="M68.2856 50.5907C68.2856 50.5907 73.364 56.2527 82.5867 56.2527C91.2257 56.2527 96.2457 50.7074 96.2457 44.1114C96.2457 30.8611 76.7495 32.6706 76.7495 25.3158C76.7495 22.3972 79.493 20.3542 82.9953 20.3542C88.1904 20.3542 92.1596 23.9732 92.1596 23.9732L95.4285 17.8442C95.4285 17.8442 91.2257 13.408 83.0537 13.408C75.1151 13.408 69.1612 18.5447 69.1612 25.4325C69.1612 38.1575 88.7157 36.8734 88.7157 44.2866C88.7157 47.6721 85.8555 49.3065 82.7034 49.3065C76.8663 49.3065 72.3717 44.9286 72.3717 44.9286L68.2856 50.5907Z" fill="#09092C"></path><path d="M98.7388 40.6675C98.7388 49.1314 104.868 56.2527 114.733 56.2527C122.146 56.2527 126.699 51.9916 126.699 51.9916L123.839 46.6798C123.839 46.6798 120.044 49.9486 115.258 49.9486C110.822 49.9486 106.794 47.2635 106.327 42.0684H126.874C126.874 42.0684 127.049 40.0838 127.049 39.2082C127.049 31.3281 122.438 25.0823 113.857 25.0823C104.985 25.0823 98.7388 31.5032 98.7388 40.6675ZM106.561 36.9901C107.261 33.1376 109.888 30.8027 113.682 30.8027C116.951 30.8027 119.461 32.9625 119.577 36.9901H106.561Z" fill="#09092C"></path><path d="M131.41 55.5523H138.823V41.8933C138.823 40.4924 138.94 39.1499 139.349 37.924C140.458 34.3634 143.376 31.8534 147.345 31.8534C151.14 31.8534 152.074 34.305 152.074 37.924V55.5523H159.428V36.4064C159.428 28.5262 155.693 25.0823 149.097 25.0823C143.084 25.0823 139.816 28.7597 138.531 31.2697H138.415C138.415 31.2697 138.531 30.3357 138.531 29.2267V25.7827H131.41V55.5523Z" fill="#09092C"></path><path d="M162.414 40.6675C162.414 49.8902 167.551 56.2527 175.606 56.2527C182.436 56.2527 184.945 51.1744 184.945 51.1744H185.062C185.062 51.1744 184.945 51.9916 184.945 53.1007V55.5523H191.95V14.1084H184.537V27.1837C184.537 28.1176 184.595 28.8764 184.595 28.8764H184.479C184.479 28.8764 182.436 25.0823 175.898 25.0823C168.018 25.0823 162.414 31.2113 162.414 40.6675ZM169.886 40.6675C169.886 34.772 173.271 31.4448 177.357 31.4448C182.319 31.4448 184.77 35.9978 184.77 40.6091C184.77 47.2051 181.151 50.007 177.299 50.007C172.921 50.007 169.886 46.3296 169.886 40.6675Z" fill="#09092C"></path><path d="M199.558 55.5523H225.008V49.073H207.087V14.1084H199.558V55.5523Z" fill="#09092C"></path><path d="M226.595 46.9716C226.595 52.9256 231.381 56.2527 236.693 56.2527C243.464 56.2527 245.799 50.9993 245.741 50.9993H245.858C245.858 50.9993 245.741 51.9332 245.741 53.1007V55.5523H252.57V36.9317C252.57 29.4018 248.017 25.0823 240.196 25.0823C233.133 25.0823 228.521 28.7597 228.521 28.7597L231.323 34.0715C231.323 34.0715 235.234 31.2113 239.495 31.2113C242.764 31.2113 245.215 32.5539 245.215 36.4648V36.8734H244.223C239.378 36.8734 226.595 37.5154 226.595 46.9716ZM234.067 46.6214C234.067 42.477 240.196 41.9517 243.99 41.9517H245.274V42.6521C245.274 46.2712 242.472 50.4739 238.561 50.4739C235.526 50.4739 234.067 48.6061 234.067 46.6214Z" fill="#09092C"></path><path d="M253.507 65.8841C253.507 65.8841 256.134 67.8103 259.694 67.8103C264.189 67.8103 268.333 65.4755 270.435 60.0469L283.744 25.7827H275.63L269.793 43.0607C269.267 44.6368 268.8 46.9716 268.8 46.9716H268.684C268.684 46.9716 268.158 44.52 267.575 42.944L261.329 25.7827H252.982L265.532 55.0853L264.423 57.712C263.314 60.3388 261.329 61.5646 259.286 61.5646C257.593 61.5646 255.959 60.3387 255.959 60.3387L253.507 65.8841Z" fill="#09092C"></path><path d="M283.122 40.6675C283.122 49.1314 289.251 56.2527 299.116 56.2527C306.529 56.2527 311.082 51.9916 311.082 51.9916L308.222 46.6798C308.222 46.6798 304.428 49.9486 299.641 49.9486C295.205 49.9486 291.177 47.2635 290.71 42.0684H311.257C311.257 42.0684 311.432 40.0838 311.432 39.2082C311.432 31.3281 306.821 25.0823 298.24 25.0823C289.368 25.0823 283.122 31.5032 283.122 40.6675ZM290.944 36.9901C291.644 33.1376 294.271 30.8027 298.065 30.8027C301.334 30.8027 303.844 32.9625 303.961 36.9901H290.944Z" fill="#09092C"></path><path d="M315.793 55.5523H323.207V43.7612C323.207 42.0101 323.382 40.3757 323.849 38.9164C325.25 34.4801 328.81 32.6706 331.962 32.6706C332.955 32.6706 333.713 32.7873 333.713 32.7873V25.4909C333.713 25.4909 333.071 25.3741 332.371 25.3741C327.818 25.3741 324.257 28.7597 322.915 33.0208H322.798C322.798 33.0208 322.915 32.0285 322.915 30.9195V25.7827H315.793V55.5523Z" fill="#09092C"></path><path d="M41.8953 7.26574C43.9286 8.38983 45.1906 10.5297 45.1906 12.853L45.1906 57.1469C45.1906 59.4702 43.9286 61.61 41.8953 62.7341L31.5685 68.4435C27.3134 70.7959 22.0952 67.7183 22.0952 62.8562L22.0952 7.14366C22.0952 2.28157 27.3134 -0.796054 31.5685 1.55642L41.8953 7.26574Z" fill="#211FA6"></path><path d="M16.7842 12.48C17.0275 12.9315 17.1548 13.4362 17.1548 13.9491V56.0136C17.1548 56.5264 17.0275 57.0312 16.7842 57.4826C15.2583 60.3142 10.9614 59.2302 10.9614 56.0136L10.9614 13.949C10.9614 10.7324 15.2583 9.64839 16.7842 12.48Z" fill="#211FA6"></path><path d="M5.82277 20.8526C6.06604 21.304 6.19339 21.8088 6.19339 22.3216L6.19339 47.7104C6.19339 48.2232 6.06604 48.728 5.82277 49.1794C4.29686 52.0111 -1.40603e-07 50.927 0 47.7104L1.27309e-06 22.3216C1.41369e-06 19.105 4.29686 18.0209 5.82277 20.8526Z" fill="#211FA6"></path></svg> 