<?xml version="1.0" encoding="UTF-8"?> <svg xmlns="http://www.w3.org/2000/svg" width="89" height="133" viewBox="0 0 89 133" fill="none"><path d="M81.5858 12.6506C85.5452 14.8332 88.0029 18.988 88.0029 23.499L88.0029 109.501C88.0029 114.012 85.5452 118.167 81.5858 120.349L61.4756 131.435C53.1894 136.002 43.0278 130.027 43.0278 120.586L43.0278 12.4136C43.0278 2.97325 53.1895 -3.00233 61.4756 1.56529L81.5858 12.6506Z" fill="#211F9A"></path><path d="M32.6837 22.7748C33.1575 23.6513 33.4055 24.6314 33.4055 25.6271V107.3C33.4055 108.296 33.1575 109.276 32.6837 110.153C29.7123 115.651 21.3447 113.546 21.3447 107.3L21.3447 25.6271C21.3447 19.3816 29.7123 17.2768 32.6837 22.7748Z" fill="#211F9A"></path><path d="M11.339 39.0312C11.8127 39.9077 12.0607 40.8877 12.0607 41.8834L12.0607 91.1788C12.0607 92.1745 11.8127 93.1546 11.339 94.0311C8.36753 99.5291 -2.73804e-07 97.4243 0 91.1788L2.47916e-06 41.8834C2.75296e-06 35.6379 8.36753 33.5332 11.339 39.0312Z" fill="#211F9A"></path></svg> 