<?xml version="1.0" encoding="UTF-8"?> <svg xmlns="http://www.w3.org/2000/svg" width="593" height="117" viewBox="0 0 593 117" fill="none"><path d="M148.203 37.5127C142.217 33.0608 136.538 32.4468 133.008 32.4468C128.25 32.4468 123.952 33.4446 120.345 37.1289C117.276 40.2759 115.894 44.1137 115.894 48.6423C115.894 51.0985 116.278 54.706 118.964 57.546C120.959 59.6952 123.722 60.7698 126.101 61.6141L130.322 63.0725C131.78 63.6098 134.927 64.7611 136.308 65.9124C137.382 66.8335 138.073 67.9081 138.073 69.5967C138.073 71.5156 137.229 72.8972 136.231 73.7416C134.543 75.1999 132.394 75.5069 130.859 75.5069C128.48 75.5069 126.408 74.8929 124.413 73.6648C123.031 72.8205 120.959 71.0551 119.655 69.7502L113.515 78.1934C115.434 80.1123 118.427 82.4918 121.036 83.7966C124.259 85.4085 127.483 85.9458 131.166 85.9458C134.543 85.9458 141.143 85.4853 145.671 80.7264C148.357 77.9632 150.199 73.3578 150.199 68.0616C150.199 65.0681 149.431 61.3838 146.438 58.5439C144.443 56.625 141.68 55.4736 139.455 54.6293L135.617 53.1709C132.164 51.8661 130.399 51.4055 129.171 50.2542C128.403 49.5634 128.02 48.6423 128.02 47.4142C128.02 46.1094 128.557 44.958 129.324 44.1905C130.706 42.6553 132.701 42.4251 134.313 42.4251C135.771 42.4251 139.071 42.6553 142.908 46.1094L148.203 37.5127Z" fill="#141B38"></path><path d="M155.095 84.7944H166.146V67.294C166.146 66.1427 166.223 62.3049 168.295 60.3092C169.37 59.3114 170.674 58.9276 172.132 58.9276C173.284 58.9276 174.665 59.1579 175.816 60.3092C177.505 61.9979 177.581 64.6843 177.581 66.987V84.7944H188.632V67.7546C188.632 65.5287 188.863 62.8422 190.321 61C191.242 59.7719 192.777 58.9276 194.618 58.9276C196.23 58.9276 197.688 59.6184 198.609 60.7698C200.067 62.6119 200.067 65.6822 200.067 67.4476V84.7944H211.118V63.1492C211.118 60.693 210.888 56.0877 207.588 52.9407C205.516 50.945 202.139 49.7169 197.995 49.7169C195.309 49.7169 193.084 50.1774 190.704 51.6358C188.479 53.0174 187.174 54.6293 186.33 56.0109C185.409 53.9385 183.951 52.2498 182.186 51.252C179.884 49.8704 177.198 49.7169 175.739 49.7169C173.13 49.7169 168.986 50.2542 166.146 54.5525V50.5612H155.095V84.7944Z" fill="#141B38"></path><path d="M243.717 54.399C240.571 50.1007 235.889 49.4099 232.973 49.4099C228.215 49.4099 224.071 51.0985 221.078 54.092C217.931 57.239 215.782 62.1514 215.782 67.9081C215.782 72.4367 217.164 76.8886 220.771 80.7264C224.531 84.7177 228.675 85.9458 233.587 85.9458C236.426 85.9458 240.724 85.255 243.717 80.6496V84.7944H254.768V50.5612H243.717V54.399ZM235.736 58.9276C237.731 58.9276 240.187 59.6952 241.875 61.3071C243.487 62.8422 244.408 65.1449 244.408 67.6011C244.408 70.5178 243.18 72.667 241.722 74.0486C240.264 75.507 238.192 76.428 235.966 76.428C233.357 76.428 230.978 75.3534 229.443 73.7416C228.445 72.667 227.14 70.6713 227.14 67.6011C227.14 64.5308 228.522 62.5352 229.673 61.3838C231.131 59.9255 233.357 58.9276 235.736 58.9276Z" fill="#141B38"></path><path d="M286.36 52.3266C283.597 50.7147 280.067 49.4099 275.002 49.4099C271.856 49.4099 267.712 50.0239 264.642 52.8639C262.646 54.706 261.342 57.4693 261.342 60.7698C261.342 63.3795 262.186 65.2984 263.798 66.987C265.256 68.4454 267.328 69.52 269.323 70.134L272.086 70.9783C273.698 71.4389 274.695 71.7459 275.463 72.2064C276.46 72.8205 276.691 73.588 276.691 74.2021C276.691 75.0464 276.23 75.8907 275.539 76.428C274.542 77.1956 272.777 77.1956 272.086 77.1956C270.628 77.1956 269.016 76.8886 267.481 76.121C266.33 75.5837 264.795 74.5091 263.721 73.588L259.039 81.0334C263.491 84.9479 268.479 85.9458 273.084 85.9458C276.691 85.9458 280.835 85.4085 284.211 82.0312C285.746 80.4961 287.742 77.5794 287.742 73.0508C287.742 70.441 287.051 68.3686 285.056 66.5265C283.291 64.9146 281.295 64.147 279.377 63.533L276.46 62.6119C275.079 62.1514 273.928 61.9211 273.16 61.4606C272.623 61.1536 272.086 60.693 272.086 59.9255C272.086 59.3882 272.393 58.7741 272.777 58.3903C273.467 57.6995 274.772 57.3925 275.923 57.3925C278.072 57.3925 280.298 58.3136 281.986 59.3114L286.36 52.3266Z" fill="#141B38"></path><path d="M292.315 84.7944H303.366V67.6778C303.366 65.9892 303.443 62.6887 305.669 60.5395C306.283 59.9255 307.664 58.8509 310.043 58.8509C311.655 58.8509 313.343 59.3882 314.341 60.386C316.106 62.0746 316.182 64.8378 316.182 67.2173V84.7944H327.234V63.0725C327.234 60.4628 327.003 56.2412 323.857 53.0942C320.864 50.0239 316.873 49.6401 314.187 49.6401C311.731 49.6401 309.813 49.8704 307.51 51.0985C306.206 51.7893 304.748 52.9407 303.366 54.6293V28.8392H292.315V84.7944Z" fill="#141B38"></path><path d="M350.463 33.5981V84.7944H369.726C372.872 84.7944 379.012 84.4874 383.233 80.4193C385.228 78.4237 387.223 75.1999 387.223 70.0573C387.223 65.5287 385.612 62.6119 383.923 60.9233C382.081 59.0811 379.319 57.853 376.863 57.4693C378.091 56.932 379.856 55.8574 381.161 53.7082C382.542 51.4823 382.849 49.1796 382.849 47.1839C382.849 44.958 382.465 40.6597 379.165 37.5127C375.174 33.7516 368.882 33.5981 366.119 33.5981H350.463ZM362.128 42.8088H363.97C366.119 42.8088 368.421 42.8088 370.109 44.1137C371.03 44.8045 372.105 46.1861 372.105 48.412C372.105 50.638 371.107 52.1731 370.033 52.9407C368.344 54.1688 365.658 54.399 364.047 54.399H362.128V42.8088ZM362.128 63.1492H365.351C367.73 63.1492 371.721 63.1492 373.793 65.0681C374.561 65.7589 375.405 67.1405 375.405 69.2129C375.405 71.0551 374.791 72.5135 373.716 73.5113C371.568 75.507 367.961 75.5837 364.968 75.5837H362.128V63.1492Z" fill="#141B38"></path><path d="M418.669 54.399C415.523 50.1007 410.841 49.4099 407.925 49.4099C403.167 49.4099 399.023 51.0985 396.03 54.092C392.883 57.239 390.734 62.1514 390.734 67.9081C390.734 72.4367 392.116 76.8886 395.723 80.7264C399.483 84.7177 403.627 85.9458 408.539 85.9458C411.378 85.9458 415.676 85.255 418.669 80.6496V84.7944H429.72V50.5612H418.669V54.399ZM410.688 58.9276C412.683 58.9276 415.139 59.6952 416.827 61.3071C418.439 62.8422 419.36 65.1449 419.36 67.6011C419.36 70.5178 418.132 72.667 416.674 74.0486C415.216 75.507 413.144 76.428 410.918 76.428C408.309 76.428 405.93 75.3534 404.395 73.7416C403.397 72.667 402.092 70.6713 402.092 67.6011C402.092 64.5308 403.474 62.5352 404.625 61.3838C406.083 59.9255 408.309 58.9276 410.688 58.9276Z" fill="#141B38"></path><path d="M436.294 28.8392V84.7944H447.345V28.8392H436.294Z" fill="#141B38"></path><path d="M454.227 28.8392V84.7944H465.278V28.8392H454.227Z" fill="#141B38"></path><path d="M510.378 67.6778C510.378 63.3027 508.69 58.3903 505.236 54.9363C502.166 51.8661 496.948 49.4099 490.271 49.4099C483.594 49.4099 478.376 51.8661 475.306 54.9363C471.853 58.3903 470.164 63.3027 470.164 67.6778C470.164 72.0529 471.853 76.9653 475.306 80.4193C478.376 83.4896 483.594 85.9458 490.271 85.9458C496.948 85.9458 502.166 83.4896 505.236 80.4193C508.69 76.9653 510.378 72.0529 510.378 67.6778ZM490.271 58.7741C492.804 58.7741 494.876 59.6184 496.487 61.2303C498.099 62.8422 499.02 64.9146 499.02 67.6778C499.02 70.441 498.099 72.5135 496.487 74.1253C494.876 75.7372 492.804 76.5815 490.348 76.5815C487.432 76.5815 485.436 75.507 484.055 74.1253C482.75 72.8205 481.522 70.8248 481.522 67.6778C481.522 64.9146 482.443 62.8422 484.055 61.2303C485.667 59.6184 487.739 58.7741 490.271 58.7741Z" fill="#141B38"></path><path d="M553.492 67.6778C553.492 63.3027 551.804 58.3903 548.351 54.9363C545.281 51.8661 540.062 49.4099 533.386 49.4099C526.709 49.4099 521.49 51.8661 518.42 54.9363C514.967 58.3903 513.279 63.3027 513.279 67.6778C513.279 72.0529 514.967 76.9653 518.42 80.4193C521.49 83.4896 526.709 85.9458 533.386 85.9458C540.062 85.9458 545.281 83.4896 548.351 80.4193C551.804 76.9653 553.492 72.0529 553.492 67.6778ZM533.386 58.7741C535.918 58.7741 537.99 59.6184 539.602 61.2303C541.213 62.8422 542.134 64.9146 542.134 67.6778C542.134 70.441 541.213 72.5135 539.602 74.1253C537.99 75.7372 535.918 76.5815 533.462 76.5815C530.546 76.5815 528.551 75.507 527.169 74.1253C525.865 72.8205 524.637 70.8248 524.637 67.6778C524.637 64.9146 525.558 62.8422 527.169 61.2303C528.781 59.6184 530.853 58.7741 533.386 58.7741Z" fill="#141B38"></path><path d="M558.081 84.7944H569.133V67.2173C569.133 64.9914 569.44 62.5352 571.281 60.693C572.126 59.7719 573.584 58.8509 575.886 58.8509C577.881 58.8509 579.263 59.5417 580.107 60.386C581.872 62.1514 581.949 64.9914 581.949 67.2173V84.7944H593V63.1492C593 60.386 592.77 56.3179 589.547 53.0942C586.63 50.1774 582.716 49.6401 579.723 49.6401C576.5 49.6401 572.509 50.3309 569.133 54.6293V50.5612H558.081V84.7944Z" fill="#141B38"></path><path fill-rule="evenodd" clip-rule="evenodd" d="M88.4621 54.6947C88.4621 24.4877 68.6651 0 44.2356 0C19.806 0 0 24.4877 0 54.6947C0 83.6529 18.1412 107.281 41.114 109.263L38.6711 117L53.9893 115.697L48.6148 109.127C70.9814 106.412 88.4621 83.0828 88.4621 54.6947Z" fill="#FE544F"></path><path fill-rule="evenodd" clip-rule="evenodd" d="M54.7821 19.2288L56.9106 41.1942L78.9646 41.8278L63.0111 56.6637L75.6116 74.8915L54.3841 70.9006L47.9487 92.1319L38.1776 73.1193L18.4482 82.1611L26.0378 61.7791L6.7959 52.0722L27.3938 45.4468L21.71 25.1522L41.1971 36.2637L54.7821 19.2288Z" fill="white"></path></svg> 