<?xml version="1.0" encoding="UTF-8" standalone="no"?> <svg xmlns="http://www.w3.org/2000/svg" xmlns:xlink="http://www.w3.org/1999/xlink" xmlns:serif="http://www.serif.com/" width="100%" height="100%" viewBox="0 0 790 169" version="1.1" xml:space="preserve" style="fill-rule:evenodd;clip-rule:evenodd;stroke-linejoin:round;stroke-miterlimit:1.41421;"> <g id="text" transform="matrix(1.17228,0,0,1.17228,-916.785,-1732.13)"> <path d="M954.565,1584.84C963.013,1584.84 967.109,1583.17 971.205,1581L966.853,1567.56C964.037,1568.97 960.965,1569.74 958.917,1569.74C955.077,1569.74 953.413,1567.17 953.413,1561.8L953.413,1535.17L970.437,1535.17L970.437,1521.35L953.413,1521.35L953.413,1499.08L936.773,1500.87L936.773,1521.35L929.349,1521.35L929.349,1535.17L936.773,1535.17L936.773,1564.1C936.773,1578.18 943.813,1584.84 954.565,1584.84Z" style="fill:rgb(29,88,191);fill-rule:nonzero;"></path> <path d="M1012.29,1520.33C1004.87,1520.33 998.085,1523.91 993.349,1530.57L993.221,1530.57L993.221,1521.35L976.453,1521.35L976.453,1583.82L993.221,1583.82L993.221,1554.76C993.221,1545.54 998.853,1538.5 1009.22,1538.5C1010.12,1538.5 1011.91,1538.5 1013.57,1538.63L1013.57,1520.45C1013.32,1520.33 1012.81,1520.33 1012.29,1520.33Z" style="fill:rgb(29,88,191);fill-rule:nonzero;"></path> <path d="M1058.76,1521.35L1058.76,1551.69C1058.76,1563.72 1052.23,1569.86 1044.93,1569.86C1037.12,1569.86 1033.67,1566.02 1033.67,1554.5L1033.67,1521.35L1017.03,1521.35L1017.03,1558.98C1017.03,1578.06 1026.5,1584.84 1039.94,1584.84C1046.98,1584.84 1053.77,1581.89 1058.5,1576.13L1058.76,1576.13L1058.76,1583.82L1075.53,1583.82L1075.53,1521.35L1058.76,1521.35Z" style="fill:rgb(29,88,191);fill-rule:nonzero;"></path> <path d="M1105.73,1584.84C1122.12,1584.84 1130.05,1576.52 1130.05,1565.38C1130.05,1553.1 1122.12,1550.15 1108.55,1545.16C1102.4,1542.86 1099.08,1541.06 1099.08,1538.5C1099.08,1535.17 1102.53,1533.77 1105.22,1533.77C1109.83,1533.77 1115.33,1535.82 1120.2,1540.42L1128.26,1528.13C1121.22,1522.63 1114.18,1520.33 1105.48,1520.33C1092.68,1520.33 1082.95,1527.75 1082.95,1539.02C1082.95,1551.05 1091.91,1555.91 1102.15,1559.37C1110.34,1561.93 1113.54,1563.34 1113.54,1566.28C1113.54,1569.35 1110.73,1571.4 1105.86,1571.4C1099.08,1571.4 1093.7,1568.97 1088.58,1564.1L1080.39,1575.75C1087.3,1581.64 1095.75,1584.84 1105.73,1584.84Z" style="fill:rgb(29,88,191);fill-rule:nonzero;"></path> <path d="M1155.91,1584.84C1164.36,1584.84 1168.45,1583.17 1172.55,1581L1168.2,1567.56C1165.38,1568.97 1162.31,1569.74 1160.26,1569.74C1156.42,1569.74 1154.76,1567.17 1154.76,1561.8L1154.76,1535.17L1171.78,1535.17L1171.78,1521.35L1154.76,1521.35L1154.76,1499.08L1138.12,1500.87L1138.12,1521.35L1130.69,1521.35L1130.69,1535.17L1138.12,1535.17L1138.12,1564.1C1138.12,1578.18 1145.16,1584.84 1155.91,1584.84Z" style="fill:rgb(29,88,191);fill-rule:nonzero;"></path> <path d="M1213.77,1520.33C1206.09,1520.33 1199.56,1523.14 1194.82,1528.52L1194.57,1528.52L1194.57,1521.35L1177.8,1521.35L1177.8,1609.16L1194.57,1609.16L1194.57,1576.78L1194.82,1576.78C1199.17,1581.89 1205.32,1584.84 1213.25,1584.84C1230.66,1584.84 1243.2,1572.04 1243.2,1552.71C1243.2,1533.77 1230.53,1520.33 1213.77,1520.33ZM1210.18,1569.86C1201.09,1569.86 1193.92,1563.08 1193.92,1552.84C1193.92,1542.86 1200.58,1535.3 1210.18,1535.3C1219.14,1535.3 1226.18,1542.09 1226.18,1552.84C1226.18,1562.95 1219.65,1569.86 1210.18,1569.86Z" style="fill:rgb(0,173,237);fill-rule:nonzero;"></path> <path d="M1291.08,1521.35L1291.08,1551.69C1291.08,1563.72 1284.55,1569.86 1277.25,1569.86C1269.44,1569.86 1265.99,1566.02 1265.99,1554.5L1265.99,1521.35L1249.35,1521.35L1249.35,1558.98C1249.35,1578.06 1258.82,1584.84 1272.26,1584.84C1279.3,1584.84 1286.09,1581.89 1290.82,1576.13L1291.08,1576.13L1291.08,1583.82L1307.85,1583.82L1307.85,1521.35L1291.08,1521.35Z" style="fill:rgb(0,173,237);fill-rule:nonzero;"></path> <rect x="1318.6" y="1489.61" width="16.768" height="94.208" style="fill:rgb(0,173,237);fill-rule:nonzero;"></rect> <path d="M1366.85,1584.84C1383.24,1584.84 1391.17,1576.52 1391.17,1565.38C1391.17,1553.1 1383.24,1550.15 1369.67,1545.16C1363.53,1542.86 1360.2,1541.06 1360.2,1538.5C1360.2,1535.17 1363.65,1533.77 1366.34,1533.77C1370.95,1533.77 1376.45,1535.82 1381.32,1540.42L1389.38,1528.13C1382.34,1522.63 1375.3,1520.33 1366.6,1520.33C1353.8,1520.33 1344.07,1527.75 1344.07,1539.02C1344.07,1551.05 1353.03,1555.91 1363.27,1559.37C1371.46,1561.93 1374.66,1563.34 1374.66,1566.28C1374.66,1569.35 1371.85,1571.4 1366.98,1571.4C1360.2,1571.4 1354.82,1568.97 1349.7,1564.1L1341.51,1575.75C1348.42,1581.64 1356.87,1584.84 1366.85,1584.84Z" style="fill:rgb(0,173,237);fill-rule:nonzero;"></path> <path d="M1455.3,1551.94C1455.3,1533.64 1443.01,1520.33 1424.71,1520.33C1406.92,1520.33 1393.73,1533.51 1393.73,1552.45C1393.73,1572.04 1407.56,1584.84 1425.86,1584.84C1438.4,1584.84 1447.49,1579.85 1452.87,1573.06L1441.99,1562.95C1438.53,1567.17 1433.67,1570.12 1427.01,1569.99C1418.95,1569.99 1413.06,1565.38 1411.01,1557.96L1454.92,1557.96C1455.3,1556.93 1455.3,1553.99 1455.3,1551.94ZM1425.22,1535.05C1432.52,1535.05 1437,1539.4 1438.66,1545.93L1411.14,1545.93C1413.06,1538.76 1418.44,1535.05 1425.22,1535.05Z" style="fill:rgb(0,173,237);fill-rule:nonzero;"></path> </g> <g id="mark" transform="matrix(0.461143,0,0,0.461143,-106.253,-1411.44)"> <g transform="matrix(2.16852,0,0,2.16852,230.412,3060.73)"> <path d="M103.188,26.561C96.662,24.799 90.29,22.455 84.167,19.45C78.972,16.901 73.961,13.997 69.051,10.94C68.956,10.999 68.861,11.058 68.765,11.117C55.841,19.137 42.1,25.615 26.835,28.481C21.327,29.515 15.756,30.164 10.174,30.64L9.996,30.655C8.621,61.384 10.671,93.057 26.99,119.407C36.937,135.468 52.327,147.495 68.626,157.492L69.051,157.751C75.721,153.675 82.272,149.328 88.368,144.473L102.206,144.473C92.398,153.704 80.957,161.44 69.326,168.346C68.781,167.973 68.776,168.346 68.776,168.346C54.105,159.635 39.822,150.006 28.706,137.221C21.155,128.537 15.176,118.558 10.867,107.757C0.039,80.614 -0.647,50.397 1.241,22.026C13.241,21.311 25.428,20.158 36.915,16.454C48.244,12.801 58.678,6.735 68.756,0.192L69.051,0C69.247,0.128 69.443,0.255 69.64,0.383C82.351,8.617 95.916,15.884 110.854,18.998C111.709,19.176 112.566,19.344 113.425,19.502L103.188,26.561ZM100.152,132.347L81.156,132.347C77.981,132.212 77.767,130.604 77.7,129.035C77.621,127.169 78.831,125.529 81.156,125.43L97.514,125.43L102.685,106.579C102.685,106.579 103.683,104.245 105.689,104.052C107.293,103.897 108.672,104.574 109.337,106.514L117.15,132.951L121.936,117.91C121.936,117.91 123.484,115.168 125.942,115.574C127.282,115.917 127.336,115.979 128.113,117.047L133.676,125.43L146.996,125.43C147.012,125.432 149.468,125.764 150.205,127.599C151.058,129.721 149.708,132.232 146.996,132.347L131.82,132.347C130.17,132.279 129.699,131.85 128.939,130.801L126.339,126.884L120.324,145.791C120.324,145.791 119.264,148.043 117.286,148.191C115.705,148.309 114.365,147.633 113.711,145.722L106.144,120.117L103.487,129.804C103.487,129.804 102.28,132.254 100.152,132.347ZM137.379,31.586C138.051,47.952 137.548,64.343 134.744,80.522C133.466,87.9 130.68,98.081 128.24,105.175L119.46,102.321C126.914,82.657 128.717,61.266 128.394,40.33L137.379,31.586Z" style="fill:rgb(0,173,237);fill-rule:nonzero;"></path> </g> <g transform="matrix(0.746317,0,0,0.746317,244.486,3011.77)"> <path d="M171.699,279.729C173.221,277.994 173.616,276.855 175.885,273.555C188.97,254.516 227.729,203.188 276.979,163.708C298.41,146.527 321.573,130.908 342.063,120.67C376.211,103.607 387.207,101.527 403.066,97.832C406.078,97.131 416.986,95.184 418.796,99.482C420.542,103.631 413.738,108.003 411.185,110.009C408.315,112.264 342.682,161.344 287.465,234.232C239.418,297.651 207.976,380.862 207.976,380.862C207.01,382.71 196.083,402.237 181.423,403.188C167.874,404.069 150.473,386.445 150.473,386.445C147.128,383.324 130.815,363.964 117.241,340.019C99.929,309.489 85.022,273.299 85.022,273.299C85.022,273.299 69.547,242.857 98.721,226.115C127.486,209.606 140.299,226.367 146.542,236.262C151.877,244.719 162.626,265.262 167.821,275.31C169.631,278.81 170.801,280.751 171.699,279.729Z" style="fill:rgb(29,88,191);fill-rule:nonzero;"></path> </g> </g> </svg> 