<?xml version="1.0" encoding="UTF-8"?> <svg xmlns="http://www.w3.org/2000/svg" xmlns:xlink="http://www.w3.org/1999/xlink" viewBox="0 0 238.91 53.18"><clipPath id="a"><path d="m26.59 0c14.68 0 26.59 11.9 26.59 26.59 0 14.68-11.9 26.59-26.59 26.59s-26.59-11.91-26.59-26.59c0-14.69 11.9-26.59 26.59-26.59z"></path></clipPath><path clip-rule="evenodd" d="m26.59 0c14.68 0 26.59 11.9 26.59 26.59 0 14.68-11.9 26.59-26.59 26.59s-26.59-11.91-26.59-26.59c0-14.69 11.9-26.59 26.59-26.59z" fill="#46bf93" fill-rule="evenodd"></path><path clip-path="url(#a)" clip-rule="evenodd" d="m40.39 8.78 16.87 9.74c.52 2.23.8 4.56.8 6.95 0 15.17-11.17 27.72-25.73 29.9l-23.46-13.55 28.58-8.3.79-18.45z" fill="#23996e" fill-rule="evenodd"></path><path clip-path="url(#a)" clip-rule="evenodd" d="m32.24 9.27 7.26-.1s1.67.59 1.57 1.67.1 4.12.1 4.12h-3.73l.2 15.8s-.59 4.42-1.77 5.79-3.14 1.86-3.14 1.86h-4.81s0 2.06-1.47 2.26-17.47.39-17.47.39 1.96-1.18 2.06-3.34-.1-3.44-.1-3.44-.1-2.06 1.37-1.96 8.05.2 8.05.2l-.2-16.59.2-4.32s.29-1.96 1.67-2.06c1.37-.1 3.44-.49 3.44-.49z" fill="#46bf93" fill-rule="evenodd"></path><path clip-path="url(#a)" d="m28.72 37.6h1.8c-.3-.69-.29-1.51-.28-2.34 0-.18 0-.36 0-.54-.01-.58-.03-1.46-.75-1.45-.35 0-.55.22-.65.56-.06.28-.08.63-.08.96 0 .97-.01 1.79-.03 2.51zm9.76-23.59h1.66v-3.27c0-.19-.08-.36-.2-.49-.13-.13-.3-.2-.49-.2h-.27c-.19 0-.36.08-.49.2-.13.13-.2.3-.2.49v3.27zm2.45 1.57h-2.45v13.1.03c-.11 2.92-.51 5.63-1.37 7.52-.82 1.81-2.05 2.93-3.81 2.93h-.28c-1.21.02-2.62.01-3.92.01h-.53c-.05.31-.12.58-.2.81-.45 1.32-1.24 1.73-2.7 1.73h-17.13l-.01-1.57h.01.08c1.42-.07 1.58-1.26 1.54-3.43-.01-.4-.02-.87-.04-1.37l-.03-.82c-.03-.91.12-1.57.52-2.06.43-.53 1.06-.76 1.95-.76 4.15 0 1.92 0 7.06.01v-17.78c0-5.45 1.52-5.45 5.34-5.45h.16 13.72c.11-.02.22-.02.33-.02h.27c.63 0 1.19.26 1.61.67.41.41.67.98.67 1.61v4.85h-.79zm-4.03 0v-4.85c0-.23.04-.46.1-.67h-3.73-8.3c-2.69 0-3.76 0-3.76 3.88v17.76h7.23c.25 0 .53 0 .78.05.16-.02.33-.03.51-.02.69.02 1.23.39 1.6 1 .31.52.48 1.22.49 1.98v.57c-.01 1-.02 1.97.97 2.28.02.01.13.01.24.02l.15.01h.12c1.04 0 1.81-.76 2.37-2 .77-1.69 1.13-4.18 1.24-6.9v-13.11zm-16.62 17.7c-.58 0 1.27 0-7.72 0-.4 0-.63.06-.73.18-.13.16-.18.5-.17 1.02l.03.81c.02.49.03.94.04 1.4.03 1.46-.03 2.62-.36 3.45h14.31c.68 0 1.04-.16 1.21-.66.16-.48.24-1.21.28-2.24l.01-2.74c0-.4.05-.82.18-1.22z" fill="#fff"></path><path clip-path="url(#a)" clip-rule="evenodd" d="m23.31 13.78h5.25v1.23h-5.25z" fill="#fff" fill-rule="evenodd"></path><path clip-path="url(#a)" clip-rule="evenodd" d="m23.31 16.33h11.73v1.23h-11.73z" fill="#fff" fill-rule="evenodd"></path><path clip-path="url(#a)" clip-rule="evenodd" d="m23.31 18.79h9.87v1.23h-9.87z" fill="#fff" fill-rule="evenodd"></path><path clip-path="url(#a)" clip-rule="evenodd" d="m23.31 21.24h10.95v1.23h-10.95z" fill="#fff" fill-rule="evenodd"></path><path clip-path="url(#a)" clip-rule="evenodd" d="m23.31 23.7h6.38v1.22h-6.38z" fill="#fff" fill-rule="evenodd"></path><path clip-path="url(#a)" clip-rule="evenodd" d="m23.31 26.15h11.34v1.23h-11.34z" fill="#fff" fill-rule="evenodd"></path><path clip-path="url(#a)" clip-rule="evenodd" d="m23.31 28.6h9.23v1.23h-9.23z" fill="#fff" fill-rule="evenodd"></path><g fill="#46bf93"><path d="m63.22 17.8h1.71l3.48 12.16 4.9-12.16h.29l4.78 12.16 3.5-12.16h1.71l-4.86 16.88h-.27l-5.02-12.77-5.14 12.77h-.25z"></path><path d="m86.48 17.38h1.6v7.07c.65-.85 1.37-1.5 2.15-1.92.78-.43 1.63-.64 2.54-.64.94 0 1.77.23 2.49.71.73.47 1.26 1.11 1.61 1.91.34.8.52 2.05.52 3.75v6.42h-1.6v-5.95c0-1.43-.06-2.39-.17-2.88-.2-.82-.56-1.44-1.09-1.86s-1.22-.62-2.07-.62c-.98 0-1.85.32-2.62.96s-1.28 1.43-1.53 2.38c-.15.61-.23 1.74-.23 3.39v4.57h-1.6z"></path><path d="m106.75 21.89c1.92 0 3.52.69 4.79 2.09 1.15 1.27 1.73 2.77 1.73 4.5 0 1.74-.61 3.26-1.83 4.56s-2.78 1.95-4.69 1.95c-1.92 0-3.49-.65-4.71-1.95s-1.83-2.82-1.83-4.56c0-1.72.58-3.22 1.73-4.49 1.27-1.4 2.87-2.1 4.81-2.1zm-.01 1.58c-1.34 0-2.48.49-3.44 1.47s-1.44 2.18-1.44 3.57c0 .9.22 1.74.65 2.52.44.78 1.03 1.38 1.78 1.8.74.42 1.56.64 2.45.64s1.71-.21 2.45-.64c.74-.42 1.34-1.02 1.78-1.8.43-.78.65-1.62.65-2.52 0-1.4-.48-2.59-1.45-3.57-.96-.98-2.1-1.47-3.43-1.47z"></path><path d="m115.99 17.38h1.6v17.3h-1.6z"></path><path d="m131.47 30.55 1.36.71c-.45.87-.96 1.57-1.54 2.1s-1.24.94-1.97 1.22-1.56.42-2.48.42c-2.05 0-3.64-.67-4.79-2s-1.73-2.84-1.73-4.52c0-1.58.49-2.99 1.47-4.23 1.23-1.57 2.89-2.36 4.97-2.36 2.14 0 3.84.81 5.12 2.42.91 1.14 1.37 2.56 1.38 4.26h-11.29c.03 1.45.5 2.63 1.4 3.55s2.01 1.39 3.34 1.39c.64 0 1.26-.11 1.87-.33.6-.22 1.12-.51 1.54-.87.4-.37.86-.95 1.35-1.76zm.02-3.37c-.22-.86-.53-1.54-.94-2.05-.42-.51-.96-.92-1.64-1.24-.68-.31-1.39-.47-2.14-.47-1.23 0-2.29.39-3.18 1.18-.65.58-1.14 1.43-1.47 2.58z"></path><path d="m142.51 23.55-1.03 1.07c-.86-.83-1.7-1.25-2.52-1.25-.52 0-.97.17-1.34.52-.37.34-.56.74-.56 1.2 0 .4.15.79.46 1.16.31.38.95.82 1.93 1.32 1.19.62 2 1.21 2.43 1.79.42.58.63 1.23.63 1.96 0 1.03-.36 1.89-1.08 2.61-.72.71-1.62 1.07-2.7 1.07-.72 0-1.41-.16-2.07-.47-.65-.31-1.2-.74-1.63-1.3l1.01-1.15c.82.92 1.69 1.39 2.61 1.39.64 0 1.19-.21 1.65-.62.45-.41.68-.9.68-1.45 0-.46-.15-.87-.45-1.23-.3-.35-.98-.8-2.03-1.33-1.13-.58-1.9-1.15-2.3-1.72-.41-.56-.61-1.21-.61-1.93 0-.94.33-1.73.97-2.36.65-.62 1.47-.94 2.46-.94 1.17 0 2.33.55 3.49 1.66z"></path><path d="m157.78 22.2v12.49h-1.6v-2.15c-.67.82-1.43 1.43-2.27 1.84s-1.75.61-2.74.61c-1.76 0-3.27-.64-4.52-1.92s-1.87-2.83-1.87-4.67c0-1.79.63-3.33 1.89-4.6s2.78-1.91 4.55-1.91c1.02 0 1.95.22 2.78.65s1.56 1.08 2.18 1.96v-2.3zm-6.44 1.24c-.89 0-1.72.22-2.47.66-.76.44-1.36 1.05-1.8 1.84-.45.79-.67 1.63-.67 2.52 0 .87.22 1.71.67 2.51s1.05 1.42 1.81 1.87 1.58.67 2.45.67 1.71-.22 2.49-.66c.79-.44 1.39-1.04 1.81-1.8.42-.75.63-1.6.63-2.55 0-1.44-.47-2.64-1.43-3.61-.93-.96-2.1-1.45-3.49-1.45z"></path><path d="m161.17 17.38h1.6v17.3h-1.6z"></path><path d="m176.66 30.55 1.36.71c-.45.87-.96 1.57-1.54 2.1s-1.24.94-1.97 1.22-1.56.42-2.48.42c-2.05 0-3.64-.67-4.79-2s-1.73-2.84-1.73-4.52c0-1.58.49-2.99 1.47-4.23 1.23-1.57 2.89-2.36 4.97-2.36 2.14 0 3.84.81 5.12 2.42.91 1.14 1.37 2.56 1.38 4.26h-11.29c.03 1.45.5 2.63 1.4 3.55s2.01 1.39 3.34 1.39c.64 0 1.26-.11 1.87-.33.6-.22 1.12-.51 1.54-.87.4-.37.86-.95 1.35-1.76zm.01-3.37c-.22-.86-.53-1.54-.94-2.05-.42-.51-.96-.92-1.64-1.24-.68-.31-1.39-.47-2.14-.47-1.23 0-2.29.39-3.18 1.18-.65.58-1.14 1.43-1.47 2.58z"></path><path d="m186.42 31.52 1.43-.86c1.01 1.87 2.18 2.8 3.5 2.8.57 0 1.1-.13 1.6-.4.5-.26.88-.62 1.14-1.06s.39-.91.39-1.41c0-.56-.19-1.12-.58-1.66-.53-.75-1.49-1.65-2.9-2.71-1.41-1.07-2.29-1.83-2.63-2.31-.6-.8-.9-1.66-.9-2.58 0-.73.18-1.4.53-2.01.35-.6.85-1.08 1.49-1.43s1.34-.52 2.09-.52c.8 0 1.55.2 2.24.59s1.43 1.12 2.21 2.17l-1.38 1.05c-.64-.84-1.18-1.4-1.63-1.67s-.94-.4-1.47-.4c-.69 0-1.25.21-1.68.62-.44.42-.65.92-.65 1.53 0 .36.08.72.23 1.07s.44.72.84 1.13c.22.21.95.78 2.19 1.69 1.47 1.08 2.47 2.04 3.02 2.88.54.84.82 1.69.82 2.54 0 1.22-.47 2.29-1.4 3.19-.93.91-2.07 1.36-3.4 1.36-1.03 0-1.96-.27-2.79-.82-.83-.56-1.6-1.49-2.31-2.78z"></path><path d="m199.4 22.2h1.6v5.83c0 1.42.08 2.4.23 2.94.23.76.67 1.37 1.32 1.81s1.42.67 2.32.67 1.66-.22 2.29-.65c.62-.44 1.06-1 1.29-1.71.16-.48.24-1.5.24-3.06v-5.83h1.65v6.12c0 1.72-.2 3.01-.6 3.88s-1.01 1.56-1.81 2.05c-.81.49-1.82.74-3.04.74s-2.23-.25-3.05-.74-1.43-1.18-1.83-2.06-.6-2.21-.6-3.98v-6.01z"></path><path d="m214.47 17.07c.36 0 .67.13.93.39s.39.58.39.94-.13.67-.39.93-.57.39-.93.39-.67-.13-.92-.39c-.26-.26-.39-.57-.39-.93s.13-.68.39-.94.56-.39.92-.39zm-.79 5.13h1.6v12.49h-1.6z"></path><path d="m220.01 17.54h1.59v4.66h2.54v1.38h-2.54v11.1h-1.59v-11.1h-2.19v-1.38h2.19z"></path><path d="m237.13 30.55 1.36.71c-.45.87-.96 1.57-1.54 2.1s-1.24.94-1.97 1.22-1.56.42-2.48.42c-2.05 0-3.64-.67-4.79-2s-1.73-2.84-1.73-4.52c0-1.58.49-2.99 1.47-4.23 1.23-1.57 2.89-2.36 4.97-2.36 2.14 0 3.84.81 5.12 2.42.91 1.14 1.37 2.56 1.38 4.26h-11.29c.03 1.45.5 2.63 1.4 3.55s2.01 1.39 3.34 1.39c.64 0 1.26-.11 1.87-.33.6-.22 1.12-.51 1.54-.87.4-.37.86-.95 1.35-1.76zm.02-3.37c-.22-.86-.53-1.54-.94-2.05-.42-.51-.96-.92-1.64-1.24-.68-.31-1.39-.47-2.14-.47-1.23 0-2.29.39-3.18 1.18-.65.58-1.14 1.43-1.47 2.58z"></path></g></svg> 