<?xml version="1.0" encoding="UTF-8"?> <svg xmlns="http://www.w3.org/2000/svg" width="252" height="36" viewBox="0 0 252 36" fill="none"><path fill-rule="evenodd" clip-rule="evenodd" d="M2.06953 0C0.926562 0 0 0.89735 0 2.00429V8.01715V29.0622C0 30.1691 0.926563 31.0665 2.06953 31.0665H2.58692H26.9039H27.4213C28.2786 31.0665 28.9735 30.3934 28.9735 29.5632C28.9735 28.733 28.2786 28.06 27.4213 28.06H4.65645C3.79922 28.06 3.1043 27.387 3.1043 26.5568V11.5247C3.1043 10.6945 3.79922 10.0214 4.65645 10.0214H43.4602C44.6032 10.0214 45.5298 9.12409 45.5298 8.01715V2.00429C45.5298 0.89735 44.6032 0 43.4602 0H2.06953ZM50.7036 21.2955H49.4101V19.5418C49.4101 15.9442 46.3988 13.0279 42.6842 13.0279C38.9695 13.0279 35.9582 15.9442 35.9582 19.5418V21.2955H34.1473C33.0044 21.2955 32.0778 22.1929 32.0778 23.2998V33.3213C32.0778 34.4282 33.0044 35.3256 34.1473 35.3256H50.7036C51.8466 35.3256 52.7731 34.4282 52.7731 33.3213V23.2998C52.7731 22.1929 51.8466 21.2955 50.7036 21.2955ZM46.3058 19.5418V21.2955H39.0625V19.5418C39.0625 17.6046 40.684 16.0343 42.6842 16.0343C44.6844 16.0343 46.3058 17.6046 46.3058 19.5418ZM7.24344 18.0386C7.24344 17.4851 7.70673 17.0364 8.27821 17.0364L24.8345 17.0364C25.406 17.0364 25.8693 17.4851 25.8693 18.0386C25.8693 18.5921 25.406 19.0407 24.8345 19.0407L8.27821 19.0407C7.70672 19.0407 7.24344 18.592 7.24344 18.0386ZM7.24344 22.5482C7.24344 21.9947 7.70673 21.5461 8.27821 21.5461H14.4868C15.0583 21.5461 15.5216 21.9947 15.5216 22.5482C15.5216 23.1017 15.0583 23.5504 14.4868 23.5504H8.27821C7.70672 23.5504 7.24344 23.1017 7.24344 22.5482ZM34.6647 32.8202V23.8009H50.1862V32.8202H34.6647Z" fill="#428BCA"></path><path d="M71.32 27L64.51 5.82H69.19L74.17 22.11H72.34L77.2 5.82H80.89L85.75 22.11H83.95L88.9 5.82H93.55L86.74 27H83.05L78.16 10.71H79.9L75.01 27H71.32ZM98.1986 19.29V15.63H102.759C103.339 15.63 103.869 15.51 104.349 15.27C104.829 15.03 105.209 14.68 105.489 14.22C105.769 13.76 105.909 13.2 105.909 12.54C105.909 11.9 105.769 11.35 105.489 10.89C105.209 10.43 104.829 10.08 104.349 9.84C103.869 9.6 103.339 9.48 102.759 9.48H98.1986V5.82H103.449C104.789 5.82 105.999 6.09 107.079 6.63C108.159 7.17 109.009 7.95 109.629 8.97C110.269 9.97 110.589 11.16 110.589 12.54C110.589 13.92 110.269 15.12 109.629 16.14C109.009 17.14 108.159 17.92 107.079 18.48C105.999 19.02 104.789 19.29 103.449 19.29H98.1986ZM94.5986 27V5.82H99.3086V27H94.5986ZM121.982 27.33C120.242 27.33 118.742 27.05 117.482 26.49C116.242 25.91 115.102 25.04 114.062 23.88L117.122 20.85C117.802 21.63 118.552 22.24 119.372 22.68C120.212 23.1 121.182 23.31 122.282 23.31C123.282 23.31 124.052 23.13 124.592 22.77C125.152 22.41 125.432 21.91 125.432 21.27C125.432 20.69 125.252 20.22 124.892 19.86C124.532 19.5 124.052 19.19 123.452 18.93C122.872 18.67 122.222 18.42 121.502 18.18C120.802 17.94 120.102 17.67 119.402 17.37C118.702 17.05 118.052 16.66 117.452 16.2C116.872 15.72 116.402 15.13 116.042 14.43C115.682 13.71 115.502 12.81 115.502 11.73C115.502 10.43 115.812 9.31 116.432 8.37C117.072 7.43 117.952 6.72 119.072 6.24C120.192 5.74 121.482 5.49 122.942 5.49C124.422 5.49 125.772 5.75 126.992 6.27C128.232 6.79 129.252 7.5 130.052 8.4L126.992 11.43C126.352 10.77 125.702 10.28 125.042 9.96C124.402 9.64 123.672 9.48 122.852 9.48C122.032 9.48 121.382 9.64 120.902 9.96C120.422 10.26 120.182 10.7 120.182 11.28C120.182 11.82 120.362 12.26 120.722 12.6C121.082 12.92 121.552 13.2 122.132 13.44C122.732 13.68 123.382 13.92 124.082 14.16C124.802 14.4 125.512 14.68 126.212 15C126.912 15.32 127.552 15.73 128.132 16.23C128.732 16.71 129.212 17.33 129.572 18.09C129.932 18.83 130.112 19.75 130.112 20.85C130.112 22.87 129.392 24.46 127.952 25.62C126.512 26.76 124.522 27.33 121.982 27.33ZM131.192 27V12.42H135.782V27H131.192ZM133.502 10.41C132.782 10.41 132.182 10.17 131.702 9.69C131.242 9.19 131.012 8.59 131.012 7.89C131.012 7.17 131.242 6.57 131.702 6.09C132.182 5.61 132.782 5.37 133.502 5.37C134.222 5.37 134.812 5.61 135.272 6.09C135.732 6.57 135.962 7.17 135.962 7.89C135.962 8.59 135.732 9.19 135.272 9.69C134.812 10.17 134.222 10.41 133.502 10.41ZM137.515 27V12.42H142.105V27H137.515ZM146.845 27V18.48C146.845 17.74 146.615 17.17 146.155 16.77C145.715 16.35 145.165 16.14 144.505 16.14C144.045 16.14 143.635 16.24 143.275 16.44C142.915 16.62 142.625 16.88 142.405 17.22C142.205 17.56 142.105 17.98 142.105 18.48L140.335 17.7C140.335 16.54 140.585 15.55 141.085 14.73C141.585 13.89 142.265 13.25 143.125 12.81C143.985 12.35 144.955 12.12 146.035 12.12C147.055 12.12 147.965 12.35 148.765 12.81C149.585 13.27 150.235 13.91 150.715 14.73C151.195 15.55 151.435 16.53 151.435 17.67V27H146.845ZM156.175 27V18.48C156.175 17.74 155.945 17.17 155.485 16.77C155.045 16.35 154.495 16.14 153.835 16.14C153.375 16.14 152.965 16.24 152.605 16.44C152.245 16.62 151.955 16.88 151.735 17.22C151.535 17.56 151.435 17.98 151.435 18.48L148.795 18.12C148.835 16.88 149.125 15.82 149.665 14.94C150.225 14.04 150.955 13.35 151.855 12.87C152.775 12.37 153.805 12.12 154.945 12.12C156.065 12.12 157.055 12.36 157.915 12.84C158.795 13.3 159.485 13.97 159.985 14.85C160.505 15.71 160.765 16.75 160.765 17.97V27H156.175ZM170.606 27.3C169.626 27.3 168.726 27.11 167.906 26.73C167.086 26.35 166.416 25.83 165.896 25.17C165.376 24.49 165.076 23.72 164.996 22.86V16.71C165.076 15.85 165.376 15.07 165.896 14.37C166.416 13.67 167.086 13.12 167.906 12.72C168.726 12.32 169.626 12.12 170.606 12.12C171.986 12.12 173.206 12.45 174.266 13.11C175.346 13.77 176.186 14.67 176.786 15.81C177.406 16.95 177.716 18.25 177.716 19.71C177.716 21.17 177.406 22.47 176.786 23.61C176.186 24.75 175.346 25.65 174.266 26.31C173.206 26.97 171.986 27.3 170.606 27.3ZM169.766 23.16C170.426 23.16 170.996 23.01 171.476 22.71C171.976 22.41 172.366 22 172.646 21.48C172.926 20.96 173.066 20.37 173.066 19.71C173.066 19.03 172.926 18.43 172.646 17.91C172.366 17.39 171.976 16.99 171.476 16.71C170.996 16.41 170.436 16.26 169.796 16.26C169.156 16.26 168.586 16.41 168.086 16.71C167.606 16.99 167.226 17.39 166.946 17.91C166.666 18.43 166.526 19.03 166.526 19.71C166.526 20.37 166.656 20.96 166.916 21.48C167.196 22 167.586 22.41 168.086 22.71C168.586 23.01 169.146 23.16 169.766 23.16ZM162.206 33.15V12.42H166.796V16.17L166.046 19.71L166.736 23.25V33.15H162.206ZM178.548 27V5.22H183.138V27H178.548ZM192.07 27.33C190.49 27.33 189.08 27.01 187.84 26.37C186.62 25.71 185.66 24.8 184.96 23.64C184.26 22.48 183.91 21.17 183.91 19.71C183.91 18.25 184.25 16.95 184.93 15.81C185.63 14.65 186.57 13.74 187.75 13.08C188.93 12.42 190.26 12.09 191.74 12.09C193.18 12.09 194.45 12.4 195.55 13.02C196.65 13.64 197.51 14.5 198.13 15.6C198.77 16.7 199.09 17.96 199.09 19.38C199.09 19.64 199.07 19.92 199.03 20.22C199.01 20.5 198.96 20.83 198.88 21.21L186.31 21.24V18.09L196.93 18.06L194.95 19.38C194.93 18.54 194.8 17.85 194.56 17.31C194.32 16.75 193.96 16.33 193.48 16.05C193.02 15.75 192.45 15.6 191.77 15.6C191.05 15.6 190.42 15.77 189.88 16.11C189.36 16.43 188.95 16.89 188.65 17.49C188.37 18.09 188.23 18.82 188.23 19.68C188.23 20.54 188.38 21.28 188.68 21.9C189 22.5 189.44 22.97 190 23.31C190.58 23.63 191.26 23.79 192.04 23.79C192.76 23.79 193.41 23.67 193.99 23.43C194.57 23.17 195.08 22.79 195.52 22.29L198.04 24.81C197.32 25.65 196.45 26.28 195.43 26.7C194.41 27.12 193.29 27.33 192.07 27.33ZM208.038 19.29V15.63H212.598C213.178 15.63 213.708 15.51 214.188 15.27C214.668 15.03 215.048 14.68 215.328 14.22C215.608 13.76 215.748 13.2 215.748 12.54C215.748 11.9 215.608 11.35 215.328 10.89C215.048 10.43 214.668 10.08 214.188 9.84C213.708 9.6 213.178 9.48 212.598 9.48H208.038V5.82H213.288C214.628 5.82 215.838 6.09 216.918 6.63C217.998 7.17 218.848 7.95 219.468 8.97C220.108 9.97 220.428 11.16 220.428 12.54C220.428 13.92 220.108 15.12 219.468 16.14C218.848 17.14 217.998 17.92 216.918 18.48C215.838 19.02 214.628 19.29 213.288 19.29H208.038ZM204.438 27V5.82H209.148V27H204.438ZM226.86 27.3C225.52 27.3 224.32 26.97 223.26 26.31C222.22 25.65 221.39 24.75 220.77 23.61C220.17 22.47 219.87 21.17 219.87 19.71C219.87 18.25 220.17 16.95 220.77 15.81C221.39 14.67 222.22 13.77 223.26 13.11C224.32 12.45 225.52 12.12 226.86 12.12C227.84 12.12 228.72 12.31 229.5 12.69C230.3 13.07 230.95 13.6 231.45 14.28C231.95 14.94 232.23 15.7 232.29 16.56V22.86C232.23 23.72 231.95 24.49 231.45 25.17C230.97 25.83 230.33 26.35 229.53 26.73C228.73 27.11 227.84 27.3 226.86 27.3ZM227.79 23.16C228.77 23.16 229.56 22.84 230.16 22.2C230.76 21.54 231.06 20.71 231.06 19.71C231.06 19.03 230.92 18.43 230.64 17.91C230.38 17.39 230 16.99 229.5 16.71C229.02 16.41 228.46 16.26 227.82 16.26C227.18 16.26 226.61 16.41 226.11 16.71C225.63 16.99 225.24 17.39 224.94 17.91C224.66 18.43 224.52 19.03 224.52 19.71C224.52 20.37 224.66 20.96 224.94 21.48C225.22 22 225.61 22.41 226.11 22.71C226.61 23.01 227.17 23.16 227.79 23.16ZM230.88 27V23.07L231.57 19.53L230.88 15.99V12.42H235.38V27H230.88ZM241.612 27.06L235.612 12.42H240.562L244.372 24.03H242.542L246.442 12.42H251.392L245.152 27.06H241.612ZM237.862 33.15L242.242 23.7L245.152 27.06L242.572 33.15H237.862Z" fill="#428BCA"></path></svg> 