<?xml version="1.0" encoding="UTF-8"?> <svg xmlns="http://www.w3.org/2000/svg" id="wpmailsmtp" viewBox="0 0 232.72 60"><defs><style>.cls-1{fill:#999;}.cls-2{fill:#5f5e5e;}.cls-10,.cls-11,.cls-12,.cls-13,.cls-14,.cls-2,.cls-3,.cls-4,.cls-5,.cls-7,.cls-8{fill-rule:evenodd;}.cls-3{fill:#b85a1b;}.cls-4{fill:#23282c;}.cls-5{fill:#395360;}.cls-6{fill:#fbaa6f;}.cls-7{fill:#dc7f3c;}.cls-8{fill:#bdcfc8;}.cls-9{fill:none;}.cls-10{fill:#809eb0;}.cls-11{fill:#738e9e;}.cls-12{fill:#86a196;}.cls-13{fill:#fff;}.cls-14{fill:#f4f8ff;}</style></defs><g id="product"><path class="cls-1" d="M129.58,53.79V44.44h1.47v.93a2.7,2.7,0,0,1,2.18-1.09c1.75,0,3,1.31,3,3.54s-1.24,3.56-3,3.56a2.7,2.7,0,0,1-2.18-1.11v3.52Zm3.21-8.21a2.23,2.23,0,0,0-1.74.91v2.68a2.26,2.26,0,0,0,1.74.91A2,2,0,0,0,134.72,48h0v-.19A2,2,0,0,0,133,45.59Z"></path><path class="cls-1" d="M137.7,44.44h1.47v1a2.89,2.89,0,0,1,2.2-1.15v1.46a1.77,1.77,0,0,0-.46,0,2.36,2.36,0,0,0-1.74.89v4.61H137.7Z"></path><path class="cls-1" d="M142.14,47.82a3.48,3.48,0,1,1,3.47,3.56,3.38,3.38,0,0,1-3.47-3.28A1.31,1.31,0,0,1,142.14,47.82Zm5.44,0a2,2,0,1,0,0,.28A1.31,1.31,0,0,0,147.58,47.82Z"></path><path class="cls-1" d="M155.34,50.29a2.73,2.73,0,0,1-2.17,1.09c-1.73,0-3-1.32-3-3.55s1.26-3.55,3-3.55a2.7,2.7,0,0,1,2.17,1.1V41.87h1.48v9.34h-1.48Zm0-3.8a2.22,2.22,0,0,0-1.75-.91,2,2,0,0,0-1.91,2.08v.17a2,2,0,0,0,1.73,2.24h.17a2.21,2.21,0,0,0,1.75-.9Z"></path><path class="cls-1" d="M163.28,50.31a3.21,3.21,0,0,1-2.39,1.07,1.93,1.93,0,0,1-2.17-1.64,2.09,2.09,0,0,1,0-.5v-4.8h1.47V48.7a1.21,1.21,0,0,0,1,1.38,1.29,1.29,0,0,0,.34,0,2.2,2.2,0,0,0,1.73-.89V44.44h1.47v6.77h-1.47Z"></path><path class="cls-1" d="M169.74,44.28a3.07,3.07,0,0,1,2.59,1.2l-1,.9a1.78,1.78,0,0,0-1.55-.8,2.26,2.26,0,0,0,0,4.5,1.84,1.84,0,0,0,1.55-.8l1,.89a3,3,0,0,1-2.59,1.21,3.55,3.55,0,0,1,0-7.1Z"></path><path class="cls-1" d="M173.91,49.64V45.73h-1.12V44.44h1.12V42.59h1.47v1.85h1.37v1.29h-1.37v3.55c0,.46.22.8.64.8a1,1,0,0,0,.66-.24l.35,1.1a2,2,0,0,1-1.39.44A1.56,1.56,0,0,1,173.91,50h0A1.09,1.09,0,0,1,173.91,49.64Z"></path></g><g id="wpforms"><path class="cls-2" d="M94.18,38.09a.66.66,0,0,1,.09.19.67.67,0,0,1,0,.2v.18a2.25,2.25,0,0,1-.08.24,1.36,1.36,0,0,1-.21.37.61.61,0,0,1-.46,0,.25.25,0,0,0-.17,0,2,2,0,0,0-.34-.06h-.35a1.7,1.7,0,0,0-.55.08,1.2,1.2,0,0,0-.47.29,1.7,1.7,0,0,0-.34.6,3.37,3.37,0,0,0-.16,1v1.13h2.1a3.36,3.36,0,0,1-.06.63,1.8,1.8,0,0,1-.1.4.54.54,0,0,1-.15.22,1.71,1.71,0,0,1-.23.13H91.11V50.8a1,1,0,0,1,0,.24.27.27,0,0,1-.2.21,4.93,4.93,0,0,1-.66.07h-.53a3.15,3.15,0,0,1-.61-.06.89.89,0,0,1,0-.23V43.7a2.18,2.18,0,0,1-1.17-.31.81.81,0,0,1,.08-.46.63.63,0,0,1,.1-.27.61.61,0,0,1,.17-.15.77.77,0,0,1,.25-.1l.22-.06.35-.07v-.73a2.39,2.39,0,0,1,.06-.65h0a3.79,3.79,0,0,1,.43-1.61,2.85,2.85,0,0,1,1.94-1.49,4.11,4.11,0,0,1,1.1-.15,3.06,3.06,0,0,1,1,.13,1.34,1.34,0,0,1,.53.27ZM104,43.77a2.16,2.16,0,0,0-.71.12,1.62,1.62,0,0,0-.59.38v6a2.81,2.81,0,0,1,0,.41.87.87,0,0,1-.16.37,1,1,0,0,1-.24.15l-.33.06H100.7v-7a3.7,3.7,0,0,0-.07-.81q-.07-.31-.18-.63a1.39,1.39,0,0,1,.31-.23,3.54,3.54,0,0,1,.52-.25.38.38,0,0,1,.15,0h.12a.87.87,0,0,1,.45.09.78.78,0,0,1,.24.3,2.84,2.84,0,0,1,.56-.33c.2-.09.39-.17.57-.23a3.41,3.41,0,0,1,.55-.14,1.75,1.75,0,0,1,.56,0c.58.06.9.24,1,.53a2.78,2.78,0,0,1-.07.57,1.51,1.51,0,0,1-.27.64h-.87a.38.38,0,0,0-.15,0Zm7.91,7.56h-1.67V45.44A3.24,3.24,0,0,0,110,44a.9.9,0,0,0-.86-.43,1.72,1.72,0,0,0-.8.2,2.32,2.32,0,0,0-.63.49V50.4a2.81,2.81,0,0,1,0,.41.64.64,0,0,1-.43.47,1.65,1.65,0,0,1-.32.07h-1.25v-7a4.43,4.43,0,0,0-.07-.81,4.85,4.85,0,0,0-.16-.63,2.23,2.23,0,0,1,.83-.48h.24a.79.79,0,0,1,.45.13.77.77,0,0,1,.26.28,4.38,4.38,0,0,1,1.14-.58,3.74,3.74,0,0,1,1.24-.19H110a2.66,2.66,0,0,1,1,.27,2.19,2.19,0,0,1,.68.53,2.51,2.51,0,0,1,.61-.36c.23-.1.44-.19.63-.25a3.56,3.56,0,0,1,1.21-.19h.4a2.92,2.92,0,0,1,1.12.3,1.9,1.9,0,0,1,.69.69,3,3,0,0,1,.34,1,8.42,8.42,0,0,1,.1,1.33V51a.82.82,0,0,1-.25.16,1.37,1.37,0,0,1-.35.08h-1.3a3.05,3.05,0,0,1-.13-.32,1.27,1.27,0,0,1,0-.39V45.46a3.57,3.57,0,0,0-.23-1.48.89.89,0,0,0-.85-.42,1.67,1.67,0,0,0-.81.22,3.81,3.81,0,0,0-.67.53l.06-.06v6.68a.39.39,0,0,1-.35.4ZM120.6,42h.56a3.06,3.06,0,0,1,1.36.36c.29.19.46.36.5.5a1.31,1.31,0,0,1-.12.48,2.42,2.42,0,0,1-.27.5h-.38a1.65,1.65,0,0,0-.32-.06,1.58,1.58,0,0,1-.31-.09,2.36,2.36,0,0,0-.87-.17,1.12,1.12,0,0,0-.79.25.77.77,0,0,0-.3.63,1,1,0,0,0,.1.44,1.54,1.54,0,0,0,.42.46l.36.27.44.31.57.42.55.4a3.44,3.44,0,0,1,.9,1,2.26,2.26,0,0,1,.28,1.13A2.62,2.62,0,0,1,123,50a2.56,2.56,0,0,1-.72.85,3.09,3.09,0,0,1-1.08.52,4.38,4.38,0,0,1-1.3.17,4.69,4.69,0,0,1-1.66-.26,1.39,1.39,0,0,1-.89-.66,1.49,1.49,0,0,1,.1-.51,2,2,0,0,1,.28-.52H118a1.34,1.34,0,0,1,.58.17h0a3.65,3.65,0,0,0,.66.22,2.74,2.74,0,0,0,.7.09h.34a1,1,0,0,0,.69-.32,1,1,0,0,0,.24-.72,1.16,1.16,0,0,0-.17-.6,1.84,1.84,0,0,0-.56-.55l-.17-.11c-.07-.05-.09-.07-.06,0-.22-.16-.45-.32-.69-.51l-.62-.51-.48-.38a2.67,2.67,0,0,1-.88-1.86,2.12,2.12,0,0,1,.84-1.79A3.63,3.63,0,0,1,120.6,42Zm-20.51,4.7a6.62,6.62,0,0,1-.29,2.12,4.19,4.19,0,0,1-.8,1.52,3.37,3.37,0,0,1-1.22.93,4,4,0,0,1-1.53.3,3.56,3.56,0,0,1-2.83-1.12,5.38,5.38,0,0,1-1-3.64,6.68,6.68,0,0,1,.29-2.13,4.15,4.15,0,0,1,.8-1.51,3.1,3.1,0,0,1,1.23-.88A4,4,0,0,1,96.31,42a3.39,3.39,0,0,1,2.84,1.19,5.51,5.51,0,0,1,.94,3.5Zm-5.54,0a7.89,7.89,0,0,0,.13,1.61,3.26,3.26,0,0,0,.37,1,1.44,1.44,0,0,0,.54.58,1.32,1.32,0,0,0,.7.17A1.23,1.23,0,0,0,97,50a1.41,1.41,0,0,0,.53-.58,3.26,3.26,0,0,0,.37-1,7.8,7.8,0,0,0,.13-1.6,5.09,5.09,0,0,0-.46-2.55,1.43,1.43,0,0,0-1.27-.75,1.25,1.25,0,0,0-.65.18,1.61,1.61,0,0,0-.53.57,3.28,3.28,0,0,0-.38,1,7.21,7.21,0,0,0-.19,1.46Z"></path><path class="cls-3" d="M87.83,44.28a3.66,3.66,0,0,0-.74-1.3,2.75,2.75,0,0,0-1.1-.74A4,4,0,0,0,84.66,42a3.18,3.18,0,0,0-.62.06q-.29.06-.57.15a5.64,5.64,0,0,0-1.15.58.9.9,0,0,0-.27-.28.76.76,0,0,0-.44-.13h-.25l-.51.24a.73.73,0,0,0-.29.26q.09.31.15.63a5.25,5.25,0,0,1,.06.79V55.13a3.14,3.14,0,0,0,1.43,0,1.21,1.21,0,0,0,.42-.13l.1-.06a2.41,2.41,0,0,0,0-.38V51.24a3,3,0,0,0,1.5.32,4.23,4.23,0,0,0,1-.14,2.92,2.92,0,0,0,1.06-.59,4.39,4.39,0,0,0,1.24-1.74A7.76,7.76,0,0,0,88,46.15,6.19,6.19,0,0,0,87.83,44.28Zm-1.93,2a7.5,7.5,0,0,1-.2,1.89,3.53,3.53,0,0,1-.48,1.17,1.63,1.63,0,0,1-.63.59,1.45,1.45,0,0,1-.65.16,1.56,1.56,0,0,1-.67-.15,2,2,0,0,1-.54-.36V44.2a3.79,3.79,0,0,1,.67-.46,1.76,1.76,0,0,1,.81-.2,1.4,1.4,0,0,1,1.24.64A3.77,3.77,0,0,1,85.9,46.29ZM73.52,50.66v.08a.09.09,0,0,1,0,.07h0a3.12,3.12,0,0,1-.15.39.53.53,0,0,1-.29.22h-.37a5.61,5.61,0,0,0-.82,0,2.22,2.22,0,0,1-.37-.44,1.54,1.54,0,0,1-.24-.5l-.28-1-.4-1.24c-.13-.45-.25-.9-.38-1.37s-.25-.91-.36-1.35c-.22-.8-.4-1.45-.53-1.94a5,5,0,0,0-.3-.92.91.91,0,0,1,.58-.35,4.89,4.89,0,0,1,1.32-.13.89.89,0,0,1,.24.3,1.55,1.55,0,0,1,.13.36c.16.74.35,1.52.55,2.34.07.25.12.51.17.76s.09.5.14.71.1.51.13.68.07.33.1.45,0,.24.07.34.05.21.08.34c.07-.25.14-.55.22-.92s.18-.77.28-1.18a4.77,4.77,0,0,1,.17-.65l.25-1c.08-.37.16-.71.23-1s.13-.54.16-.65a.43.43,0,0,0,0-.16v-.25a.83.83,0,0,1,.22-.08l.45-.12.51-.07a.86.86,0,0,1,.39,0,1,1,0,0,1,.22.31,2.54,2.54,0,0,1,.14.47l.36,1.52c.13.55.27,1.12.41,1.72a3.48,3.48,0,0,0,.14.64,5.61,5.61,0,0,0,.13.59l.09.37v.17a.24.24,0,0,1,0,.12v.19c.13-.46.25-1,.38-1.57s.25-1.19.39-1.83c.11-.47.22-.91.31-1.31s.16-.77.23-1.11a.29.29,0,0,0,0-.13.66.66,0,0,1,.09-.19.43.43,0,0,1,.21-.11h.53l.4.05h.36a.61.61,0,0,1,.19,0,.2.2,0,0,1,.09.09v.1a.53.53,0,0,1,0,.25A.62.62,0,0,1,80,43l-.08.19h0c-.12.38-.24.81-.36,1.28L79.39,46c-.21.79-.44,1.6-.66,2.42s-.44,1.57-.64,2.22v.15h0a2,2,0,0,1-.13.39.58.58,0,0,1-.29.22h-.39a5.29,5.29,0,0,0-.8.05A2.06,2.06,0,0,1,76.1,51a1.8,1.8,0,0,1-.25-.5,1.86,1.86,0,0,0-.13-.46q-.07-.24-.12-.45c0-.14,0-.19-.07-.27a1.55,1.55,0,0,0-.07-.23c-.11-.48-.24-1-.36-1.57s-.25-1.09-.35-1.57c-.11.51-.25,1.06-.4,1.66s-.3,1.15-.44,1.68Z"></path></g><path id="a" class="cls-1" d="M62.2,50.48a2.87,2.87,0,0,1-2.19.9,2.26,2.26,0,0,1-2.35-2.15v-.09a2.19,2.19,0,0,1,2.15-2.21H60a2.81,2.81,0,0,1,2.19.86v-1c0-.79-.64-1.26-1.58-1.26a2.79,2.79,0,0,0-2,.85l-.6-1a4.05,4.05,0,0,1,2.85-1.09c1.49,0,2.81.63,2.81,2.45v4.48H62.2Zm0-1.83a2,2,0,0,0-1.61-.7,1.23,1.23,0,0,0-.44,2.42,1.09,1.09,0,0,0,.44,0,2,2,0,0,0,1.61-.7Z"></path><path id="wp_mail_smtp" data-name="wp mail smtp" class="cls-4" d="M69.06,11.11,64.7,23.49h-.06l-1.89-6.55-2-6.14H57.62v.44l6,17.89h1.66l4.39-11.67h.06l4.39,11.67h1.56l6.06-17.89V10.8h-3.2l-1.92,6.14L74.8,23.46h-.06L70.42,11.11ZM87.68,29h-3V10.8h7.54a6.17,6.17,0,0,1,6.42,5.91h0a4.34,4.34,0,0,1,0,.51,6.14,6.14,0,0,1-6,6.32h0a3.69,3.69,0,0,1-.47,0h-4.5Zm-.05-8.11h4.55a3.53,3.53,0,0,0,3.52-3.56h0v-.19a3.49,3.49,0,0,0-3.26-3.7h-4.8Zm29-.73-7.41-9.41h-1.11V29h3V17.61l5.28,6.74h.41l5.25-6.74V29h3V10.75h-1Zm24.11-2.78v7.88c0,1.14,0,1.87,1.35,1.74v1.92c-1.8.34-3.64.13-3.64-2V26.4a4.56,4.56,0,0,1-4.32,2.73c-3.82,0-5.67-3.07-5.67-6.6.08-4.16,3-6.45,7.13-6.37a12.61,12.61,0,0,1,5.16,1.22ZM138,22.71V19a6.6,6.6,0,0,0-2.63-.52c-2.39,0-4,1.37-4.08,4.08,0,2.29,1.12,4.08,3.43,4.08C136.85,26.66,137.94,25,138,22.71Zm6.57-10.12a1.65,1.65,0,0,0,1.61,1.69h.14A1.61,1.61,0,0,0,148,12.74h0v-.15a1.71,1.71,0,0,0-3.41,0Zm3.12,4h-2.83V29h2.83ZM151.3,10V24.53c0,4.18,1.77,5.17,5.62,4.55l-.11-2.19c-2.15.34-2.7-.31-2.7-2.39V10Zm13.47,13.86c.08,3.82,3.8,5.59,7.36,5.51,3.4,0,7.17-1.51,7.17-5.51,0-4.19-3.38-4.92-7.07-5.33-2.1-.29-4.16-.55-4.16-2.6s2.16-2.73,3.82-2.73,3.85.62,4,2.57h2.86c-.08-3.72-3.35-5.28-6.81-5.28S165.1,12.26,165.1,16s3.3,4.71,6.63,5c2.11.2,4.58.44,4.58,2.83s-2.29,2.83-4.21,2.83-4.22-.75-4.35-2.8Zm26.44-3.67-7.41-9.41h-1.12V29h3V17.61L191,24.35h.42l5.25-6.74V29h3V10.75H198.6Zm16.54-6.68V29h3V13.48H216V10.8H202.47v2.68Zm14,15.52h-3V10.8h7.54a6.17,6.17,0,0,1,6.42,5.91h0a4.34,4.34,0,0,1,0,.51,6.14,6.14,0,0,1-6,6.32h0a3.69,3.69,0,0,1-.47,0h-4.5Zm0-8.11h4.55a3.53,3.53,0,0,0,3.52-3.56h0v-.19a3.49,3.49,0,0,0-3.26-3.7h-4.8Z"></path><g id="mascot"><path class="cls-5" d="M16.66,8.14A15.46,15.46,0,0,0,8.75,18.31a23.51,23.51,0,1,0,30,0A15.4,15.4,0,0,0,29.38,7.48,3.41,3.41,0,0,0,27.3,4.79a4.63,4.63,0,0,0-8.86-1.65A24.6,24.6,0,0,0,16.66,8.14Z"></path><rect class="cls-6" x="18" y="26" width="12" height="14"></rect><path class="cls-7" d="M25.87,33.18l-.12-.08a1.42,1.42,0,0,1,1.67-2.3h0a2,2,0,0,0-1.55,2.36Zm-4.48,0A1.79,1.79,0,0,0,21,31.64a2,2,0,0,0-1.23-.81h0a1.42,1.42,0,1,1,1.67,2.3h0ZM28.61,30h.53l-1.07,4.82-2.14,6.43H21.64l-3.21-5.36,1.07-3.21c1.07,1.43,1.79,2.32,2.14,2.68.54.53,2.68.53,3.75-.54A26,26,0,0,0,28.61,30Z"></path><path class="cls-8" d="M9.74,29H15V20H10.94a13,13,0,0,1,7.5-10q1.14-5,2.71-6.75l.18-.17.11-.1h0a2.24,2.24,0,0,1,1.08-.47,2.32,2.32,0,0,1,2.15,3.77h-.06a1.64,1.64,0,0,1-.3.29A15.14,15.14,0,0,0,23,8.14a5,5,0,0,1,3-1.5,1.37,1.37,0,0,1,.66.16,1.32,1.32,0,0,1,.51,1.79,1.21,1.21,0,0,1-.6.56,13,13,0,0,1,10.14,11l.12.87H33v8h4.83l1.79,13.43q-6.33,3.93-15.85,3.93T8,42.44Zm15.13,9.39q3.87-6.39,3.87-7.61c0-2.23-3.25-4.06-4.87-4.06S19,28.54,19,30.78Q19,32,22.81,38.4a1.23,1.23,0,0,0,1.06.57,1.09,1.09,0,0,0,1-.56Z"></path><polygon class="cls-9" points="18.96 31.07 28.61 31.07 27 47.14 20.57 47.14 18.96 31.07"></polygon><path class="cls-10" d="M39.81,48.82a20,20,0,0,1-32.09,0l.84-6.11a2.65,2.65,0,0,0,1,.19,2.83,2.83,0,0,0,2.81-2.43h0v1.22a2.84,2.84,0,1,0,5.68,0h0v1.62a2.85,2.85,0,0,0,5.69,0h0a2.84,2.84,0,1,0,5.68,0V41.74a2.84,2.84,0,0,0,5.68,0V40.52h0A2.93,2.93,0,0,0,38.43,43a3,3,0,0,0,.57-.15Z"></path><path class="cls-11" d="M8.3,44.65l.26-1.89a2.65,2.65,0,0,0,1,.19,2.83,2.83,0,0,0,2.81-2.43h0v1.22a2.84,2.84,0,0,0,5.68,0v1.62a2.85,2.85,0,0,0,5.69,0h0a2.84,2.84,0,0,0,5.68,0h0V41.74a2.84,2.84,0,0,0,5.68,0V40.52h0A2.93,2.93,0,0,0,38.43,43a3,3,0,0,0,.57-.15l.25,1.89a2.85,2.85,0,0,1-3.81-1.31,2.68,2.68,0,0,1-.26-.83h0v1.22a2.84,2.84,0,0,1-5.68,0v1.62a2.84,2.84,0,0,1-5.68,0h0a2.85,2.85,0,0,1-5.69,0V43.74a2.84,2.84,0,0,1-5.68,0h0V42.52h0A2.83,2.83,0,0,1,9.58,45a2.86,2.86,0,0,1-1.28-.3Z"></path><path class="cls-12" d="M37.78,22.39c-1-2.87-3-4.69-4.72-4.51-2.2.23-2.74,3.76-2.29,8s1.7,7.56,3.9,7.33,4-3.89,3.68-8c-.08,1.23-.52,2.28-1.39,2.35-1.12.1-1.44-1.19-1.59-2.82s-.14-3,1-3.08A1.51,1.51,0,0,1,37.78,22.39Z"></path><path class="cls-13" d="M37,21.75c-.63-1.21-1.5-1.95-2.39-1.85-1.51.15-1.87,2.57-1.57,5.47s1.17,5.18,2.67,5c1.11-.12,1.93-1.5,2.16-3.38a1.18,1.18,0,0,1-.89.57c-1.12.1-1.44-1.19-1.59-2.82s-.14-3,1-3.08A1.59,1.59,0,0,1,37,21.75Z"></path><path class="cls-12" d="M9.6,22.39c1-2.87,3-4.69,4.72-4.51,2.2.23,2.74,3.76,2.29,8s-1.7,7.56-3.9,7.33-4-3.89-3.68-8c.08,1.23.51,2.28,1.39,2.35,1.12.1,1.44-1.19,1.58-2.82s.15-3-1-3.08a1.5,1.5,0,0,0-1.43.71Z"></path><path class="cls-13" d="M10.37,21.75c.63-1.21,1.51-1.95,2.4-1.85,1.5.15,1.87,2.57,1.56,5.47s-1.16,5.18-2.67,5c-1.11-.12-1.93-1.5-2.16-3.38a1.2,1.2,0,0,0,.9.57c1.11.1,1.44-1.19,1.58-2.82s.14-3-1-3.08a1.73,1.73,0,0,0-.64.07Z"></path><path class="cls-14" d="M19,28.63v-.69c0-2.47,1.21-5.28,4.87-5.28s4.87,2.81,4.87,5.28a4.22,4.22,0,0,1-.13,1c-.8-1.35-2.3-2.18-4.8-2.18S19.9,27.48,19,28.63Z"></path><path class="cls-12" d="M26.52,9.16,23.34,9l3.93-1.16A1.35,1.35,0,0,1,26.52,9.16ZM23,8.14l-1.32,1a16.89,16.89,0,0,0,2-3.72A6.55,6.55,0,0,0,24,2.75,2.37,2.37,0,0,1,25.21,5a2.43,2.43,0,0,1-.75,1.51A15,15,0,0,0,23,8.14Z"></path></g></svg> 