<?xml version="1.0" encoding="UTF-8"?> <svg xmlns="http://www.w3.org/2000/svg" xmlns:xlink="http://www.w3.org/1999/xlink" fill="none" height="315" viewBox="0 0 315 315" width="315"><clipPath id="a"><path d="m0 .151367h314.27v314.698h-314.27z"></path></clipPath><g clip-path="url(#a)"><path d="m4.2772 256.429c9.185 22.347 30.6532 32.903 44.3757 39.656 54.0871 26.616 153.0201 22.726 212.1631-25.827 13.844-11.363 65.329-70.132 49.451-150.748-14.556-73.9678-89.134-111.33267-144.153-118.07462-52.992-6.49955-126.6877 11.62042-143.3495 55.41282-1.8477 4.8962-2.9879 10.0308-3.3861 15.2489-4.1891 16.817-1.5529 29.6689.053 44.0799 0 0 1.1363 10.079 1.4659 40.119.6211 54.56-27.92235 72.646-16.6201 100.133z" fill="#164fc2"></path><path d="m155.955 290.873c67.298 0 121.855-54.926 121.855-122.68 0-67.755-54.557-122.6813-121.855-122.6813-67.299 0-121.8554 54.9263-121.8554 122.6813 0 67.754 54.5564 122.68 121.8554 122.68z" fill="#fff"></path><path d="m132.541 56.4844c-.5.7575.988 3.227 3.946 3.227s4.443-.4962 5.682 2.7309c1.238 3.227-.493 14.1581 1.235 18.1313 1.727 3.9732 4.685 6.4389 6.904 4.2194 2.22-2.2196 1.974-8.1926 4.689-9.6849 2.716-1.4924 12.579-7.4503 13.071-12.4158.493-4.9656-2.958-8.6926-11.593-9.685-8.636-.9923-20.222-1.9885-23.934 3.4771z" fill="#164fc2"></path><path d="m92.9678 166.651c-.6103.284-1.1245.74-1.4797 1.312-.3552.571-.5359 1.234-.5202 1.907.197 4.167-1.5567 14.545-5.2383 17.859-4.689 4.219-2.9581 11.829-3.0301 14.9-.1477 6.235.5227 9.011 7.954 11.992s10.3595 3.147 10.9125 9.109 1.409 28.983 3.617 34.945c2.208 5.961 6.893 15.643 9.374 17.877 2.481 2.235 8.276 3.477 4.689-4.965-3.587-8.443-5.791-12.416-1.655-17.136 4.136-4.719 11.033-15.646 11.583-19.866.549-4.219 3.03-6.707 5.242-7.196s6.893-1.985 8.272-3.477c1.378-1.492-1.379-5.712-2.205-9.435-.825-3.723-.829-5.962 6.061-8.939 6.889-2.977 3.583-11.423-5.792-13.658-9.374-2.235-15.15-6.954-14.067-11.673 1.083-4.72-6.344-4.224-10.757-6.439-4.412-2.216-4.28-5.746-9.188-7.416-6.621-2.288-11.28-.955-13.7722.299z" fill="#a3bef4"></path><path d="m244.677 161.443c-2.075-3.14-1.818-8.109 3.379-14.912 4.083-5.34-1.776-10.685-4.477-12.73-.109-.083-.191-.197-.235-.328-.043-.13-.047-.27-.009-.403.037-.132.113-.25.218-.338.105-.089.234-.144.371-.158 3.348-.379 11.113.757 14.525 18.143 4.417 22.498 6.235 14.65 8.575 12.033 2.341-2.617-2.037-7.5 2.337-12.556 2.758-3.186 4.167-7.833 4.871-11.624-4.303-17.431-12.376-33.706-23.651-47.6775-11.275-13.9719-25.477-25.3008-41.606-33.1884.046 3.9164-.89 17.5632-16.764 11.9348 0 0-9.874-4.708-7.537 14.3929 2.337 19.1012 10.393-1.3067 11.954-2.0908 1.56-.784 5.715-1.8294 3.897 10.9841 0 0-.261 4.4505-8.314 3.6627-8.052-.7879-9.613 3.1399-9.613 5.2342 0 2.095.758 7.575-3.639 11.507-4.398 3.932-3.118 14.128 2.859 10.727 5.977-3.402 10.132-14.124 15.59-15.174 5.458-1.049 10.393 6.019 15.586 4.186 5.193-1.834 2.86-10.723 5.458-10.723s8.056 5.231 7.276 9.155-8.836 5.753-6.757 10.461 6.496 3.14 7.795 6.28-6.496 6.818-12.73 2.878c-6.235-3.939-7.276 1.83-10.394-.787-3.117-2.618-3.378-8.125-7.81-6.295-4.431 1.829-7.014 5.492-12.73 8.109-5.715 2.617-10.393 6.015-10.393 9.677 0 3.663 2.079 7.575 1.038 13.34-1.042 5.765-2.856 21.449 15.851 18.313s16.366 6.538 16.366 7.576c0 1.037-.257 14.65 1.561 17.006s5.977 9.155 0 18.048-3.636 28.786 1.818 26.157c5.454-2.628 10.912-12.817 17.669-18.048 6.757-5.23 16.109-27.99 12.211-35.054-3.897-7.064 5.454-12.817 6.754-17.525 1.299-4.708.78-7.053-1.3-10.193z" fill="#a3bef4"></path><path d="m68.7068 82.2288c.1099 4.3596-.284 10.1811-3.0793 14.624-8.4426 13.4122-8.1699 20.1162-8.988 33.5282s17.7639 37.046 22.3924 39.531c4.6284 2.485 5.3443-3.409 5.3443-8.139 0-4.731-1.9772-10.379-4.7004-15.844-2.7233-5.466-2.7233-8.939-1.8939-11.174.8295-2.234 4.0831-2.98 6.261-.757s7.4161 4.219 9.9311 2.822c3.0907-1.716 1.8938-8.439 2.9771-10.674 1.0832-2.234 7.0789-3.723 9.5299-8.442 2.45-4.72 6.537-6.704 11.438-8.939s9.257-3.231 10.075-4.72c.818-1.488-.272-4.9651 1.087-8.9383 1.36-3.9732 4.629-8.6926 3.269-10.6811s-5.446-5.2155-13.071-.2462c-7.624 4.9694-9.541 4.9618-11.719 1.25-2.178-3.7119 2.451-13.4082 11.98-13.4082 9.53 0 11.435-2.9809 11.708-5.2156.273-2.2346-2.723-4.7193-5.981-5.2155-3.257-.4962-3.814 1.2423-17.423 6.2079-9.09 3.318-17.5288 1.4582-21.8429.5719-6.1414 4.129-11.9264 8.7648-17.2943 13.8589z" fill="#a3bef4"></path><path d="m272.068 190.293c-1.841-.413-1.432 4.117-3.886 4.943-2.455.826-3.477 2.057-2.864 6.59.614 4.534-.409 10.5-2.863 12.768-2.455 2.269-5.932 3.913-6.136 9.469-.205 5.557-5.303 10.916-8.386 12.769-3.083 1.852-7.776 4.734-7.776 9.469 0 3.03-.08 6.95.625 9.946 16.541-16.139 28.189-36.62 33.604-59.087-.481-3.038-1.265-6.632-2.318-6.867z" fill="#a3bef4"></path><path d="m155.947 291.438c-25.363.051-50.102-7.866-70.7224-22.635-.0645-.042-.1199-.096-.1628-.16-.0429-.063-.0725-.135-.0869-.21-.0144-.076-.0133-.153.0031-.228s.0478-.146.0924-.209c.0446-.062.1014-.115.167-.155s.1386-.066.2146-.077.1534-.007.2276.013.1436.055.2041.102c18.4803 13.178 40.3023 20.879 62.9603 22.218 22.659 1.34 45.236-3.735 65.141-14.643.065-.036.136-.058.21-.066.074-.009.149-.002.22.019.072.02.138.055.196.102.058.046.107.103.142.169.036.065.059.136.067.21s.002.149-.019.22c-.021.072-.055.138-.102.196-.046.058-.104.107-.169.143-17.958 9.838-38.106 14.994-58.583 14.991z" fill="#5d8deb"></path><path d="m34.5351 179.162c-.1431 0-.2812-.053-.3865-.15s-.1702-.23-.1817-.373c-.2878-3.451-.4317-6.965-.4317-10.45 0-32.918 12.7339-63.871 35.8535-87.1455 23.1196-23.2749 53.8673-36.1036 86.5583-36.1036 28.973.0175 56.994 10.3451 79.048 29.1344 21.806 18.6002 36.471 44.1997 41.485 72.4187.013.075.011.152-.005.225-.017.074-.048.144-.091.206-.088.125-.223.21-.373.236-.075.013-.151.011-.225-.005-.074-.017-.144-.048-.206-.092-.125-.088-.21-.222-.236-.373-10.257-58.3061-60.477-100.6138-119.397-100.6138-66.8778 0-121.2869 54.7808-121.2869 122.1128 0 3.45.1439 6.935.428 10.355.0067.075-.0014.15-.0239.221s-.059.137-.1073.195c-.0482.057-.1074.104-.1739.138-.0666.034-.1393.054-.2138.06z" fill="#5d8deb"></path><path d="m100.268 72.0588c0 7.0601-11.2488 24.0249-13.9456 27.9872-.0644.09-.1496.164-.2485.215-.0988.051-.2084.078-.3196.078-.1113 0-.2209-.027-.3197-.078-.0989-.051-.1841-.125-.2485-.215-1.9317-2.8412-8.2456-12.3405-11.6772-20.1014-1.3598-3.0793-2.2726-5.8821-2.2726-7.8858 0-3.8514 1.53-7.545 4.2533-10.2684 2.7234-2.7233 6.417-4.2533 10.2684-4.2533s7.5451 1.53 10.2684 4.2533c2.7234 2.7234 4.2536 6.417 4.2536 10.2684z" fill="#5d8deb"></path><path d="m90.4247 76.7555c2.593-2.5929 2.593-6.797.0001-9.3899-2.593-2.593-6.797-2.593-9.39 0-2.5929 2.5929-2.5929 6.797 0 9.3899 2.593 2.593 6.797 2.593 9.3899 0z" fill="#fff"></path><path d="m87.013 78.498c-1.7549.0006-3.4495-.6401-4.765-1.8015-1.3156-1.1614-2.1614-2.7635-2.3785-4.5049-.0092-.0746-.0036-.1503.0165-.2227.02-.0725.0541-.1403.1004-.1995.0462-.0593.1037-.1089.1691-.1459.0654-.0371.1375-.0609.2121-.0701s.1503-.0036.2228.0165c.0724.02.1402.0541.1995.1004.0592.0462.1088.1037.1459.1691.037.0654.0608.1375.07.2121.1454 1.1475.6161 2.2294 1.3565 3.1179.7405.8886 1.7197 1.5467 2.8222 1.8967 1.1024.3499 2.2819.3771 3.3993.0782s2.1259-.9112 2.9064-1.7648 1.3005-1.9127 1.4985-3.0522c.198-1.1396.0657-2.312-.3812-3.3788-.4468-1.0669-1.1897-1.9835-2.1408-2.6417-.951-.6583-2.0706-1.0306-3.2265-1.073-.0746-.0025-.148-.0196-.216-.0504-.068-.0309-.1292-.0748-.1802-.1293-.0511-.0545-.0908-.1186-.1171-.1885-.0262-.0699-.0384-.1443-.0359-.2189.0009-.0751.017-.1492.0473-.2179.0304-.0688.0743-.1306.1291-.1819.0549-.0513.1195-.091.1901-.1167s.1456-.0368.2206-.0327c1.5144.0499 2.9737.5805 4.1664 1.5151 1.1881.9204 2.0582 2.1896 2.4882 3.6297.4301 1.44.3985 2.9785-.0902 4.3997-.4888 1.4212-1.4102 2.6537-2.6351 3.5246-1.2248.8709-2.6915 1.3365-4.1944 1.3314z" fill="#0e1b3c"></path><path d="m193.749 95.4252c0 7.0598-11.253 24.0248-13.95 27.9868-.064.091-.149.166-.248.218-.099.051-.209.078-.32.078-.112 0-.222-.027-.321-.078-.098-.052-.183-.127-.247-.218-1.928-2.837-8.246-12.34-11.678-20.101-1.359-3.075-2.272-5.8821-2.272-7.8858.061-3.8113 1.619-7.4456 4.336-10.1191s6.376-4.1718 10.187-4.1718c3.812 0 7.471 1.4983 10.188 4.1718s4.275 6.3078 4.336 10.1191z" fill="#5d8deb"></path><path d="m185.676 96.9413c.842-3.569-1.368-7.145-4.937-7.9873-3.569-.8424-7.145 1.3679-7.987 4.9369-.843 3.5689 1.368 7.1451 4.937 7.9871 3.569.843 7.145-1.368 7.987-4.9367z" fill="#fff"></path><path d="m180.511 101.868c-1.755-.001-3.449-.642-4.764-1.804-1.314-1.1623-2.159-2.7648-2.376-4.5062-.018-.1507.024-.3025.117-.4222.094-.1197.231-.1974.382-.216.15-.0186.302.0235.422.1169s.197.2305.216.3812c.145 1.1476.616 2.2297 1.357 3.1183.74.8887 1.72 1.547 2.822 1.897 1.103.349 2.283.376 3.4.077 1.118-.299 2.126-.9116 2.906-1.7655.781-.8539 1.3-1.9134 1.498-3.0532s.065-2.3123-.383-3.3791c-.447-1.0668-1.19-1.9832-2.142-2.641s-2.072-1.0295-3.228-1.0712c-.074-.0025-.148-.0197-.216-.0505-.068-.0309-.129-.0748-.18-.1293s-.091-.1186-.117-.1884c-.026-.0699-.038-.1443-.036-.2189.003-.0746.02-.148.051-.216s.074-.1292.129-.1802.119-.0908.188-.117c.07-.0263.145-.0385.219-.036 1.845.011 3.614.7298 4.944 2.0079 1.33 1.278 2.118 3.0179 2.202 4.8604.084 1.8424-.542 3.6469-1.75 5.0407-1.208 1.3943-2.905 2.2713-4.74 2.4503-.306.034-.613.049-.921.045z" fill="#0e1b3c"></path><path d="m148.046 177.359c0 7.06-11.249 24.024-13.946 27.986-.065.091-.15.165-.249.216s-.208.078-.319.078c-.112 0-.221-.027-.32-.078s-.184-.125-.249-.216c-1.931-2.837-8.245-12.34-11.677-20.101-1.363-3.079-2.272-5.882-2.272-7.885 0-3.852 1.53-7.545 4.253-10.269 2.723-2.723 6.417-4.253 10.268-4.253 3.852 0 7.545 1.53 10.269 4.253 2.723 2.724 4.253 6.417 4.253 10.269z" fill="#5d8deb"></path><path d="m138.22 182.052c2.593-2.593 2.593-6.797 0-9.39s-6.797-2.592-9.39 0c-2.593 2.593-2.593 6.797 0 9.39s6.797 2.593 9.39 0z" fill="#fff"></path><path d="m134.812 183.801c-1.753-.005-3.444-.649-4.757-1.81s-2.159-2.761-2.379-4.5c-.009-.074-.003-.15.017-.223.02-.072.054-.14.1-.199s.104-.109.169-.146c.066-.037.138-.061.212-.07.075-.009.151-.004.223.016.072.021.14.055.2.101.059.046.108.104.145.169s.061.137.07.212c.146 1.148.617 2.23 1.357 3.118.741.889 1.72 1.547 2.823 1.897s2.282.377 3.4.078c1.117-.299 2.126-.912 2.906-1.766s1.3-1.913 1.498-3.053c.197-1.14.065-2.313-.383-3.379-.447-1.067-1.191-1.984-2.142-2.641-.952-.658-2.072-1.03-3.228-1.072-.15-.006-.292-.07-.395-.18s-.158-.256-.154-.407c.001-.075.018-.149.048-.217.031-.068.075-.13.129-.181.055-.052.12-.091.19-.117s.145-.037.22-.034c1.838.019 3.6.741 4.923 2.018s2.107 3.011 2.191 4.848c.085 1.837-.537 3.636-1.738 5.029-1.2 1.392-2.888 2.273-4.717 2.46-.308.038-.618.054-.928.049z" fill="#0e1b3c"></path><path d="m222.272 209.391c0 7.06-11.253 24.028-13.95 27.99-.063.091-.149.166-.247.218-.099.051-.209.078-.321.078-.111 0-.221-.027-.32-.078-.099-.052-.184-.127-.248-.218-1.932-2.841-8.246-12.34-11.677-20.101-1.364-3.079-2.273-5.882-2.273-7.889.062-3.812 1.619-7.446 4.336-10.12 2.717-2.673 6.376-4.171 10.188-4.171s7.471 1.498 10.188 4.171c2.717 2.674 4.274 6.308 4.336 10.12z" fill="#5d8deb"></path><path d="m207.749 216.034c3.667 0 6.64-2.973 6.64-6.64s-2.973-6.64-6.64-6.64-6.64 2.973-6.64 6.64 2.973 6.64 6.64 6.64z" fill="#fff"></path><path d="m209.035 215.833c-1.754-.001-3.446-.642-4.76-1.804-1.314-1.161-2.159-2.762-2.376-4.502-.009-.075-.004-.15.016-.223.02-.072.054-.14.1-.2.046-.059.103-.109.168-.146.066-.038.138-.062.212-.071.075-.009.151-.004.223.016.073.02.141.053.2.1.06.046.109.103.147.168.037.066.061.138.07.212.146 1.148.616 2.23 1.357 3.119.741.888 1.72 1.546 2.823 1.896 1.102.35 2.282.377 3.4.078 1.117-.299 2.126-.912 2.906-1.766s1.3-1.913 1.498-3.053c.197-1.14.064-2.313-.383-3.379-.447-1.067-1.191-1.984-2.142-2.641-.952-.658-2.072-1.03-3.228-1.072-.075-.002-.148-.019-.216-.05s-.129-.075-.18-.129c-.051-.055-.091-.119-.117-.189-.027-.07-.039-.144-.036-.219.002-.074.019-.148.049-.216.031-.069.075-.13.129-.181.055-.051.119-.091.189-.117.071-.026.145-.038.22-.035 1.514.05 2.974.581 4.166 1.515 1.131.872 1.977 2.06 2.431 3.413.454 1.354.495 2.812.118 4.189-.378 1.377-1.156 2.611-2.236 3.544-1.081.934-2.414 1.525-3.831 1.698-.305.034-.611.049-.917.045z" fill="#0e1b3c"></path><path d="m207.671 236.48c-.416 0-.833 0-1.253 0-.075-.003-.148-.02-.216-.05-.068-.031-.13-.075-.181-.129s-.091-.118-.118-.188c-.026-.07-.039-.144-.036-.219.002-.074.019-.148.049-.216.031-.068.075-.129.129-.18.054-.052.118-.092.188-.118.07-.027.144-.039.219-.037 1.494.042 2.99.008 4.481-.102.074-.007.149.002.221.024.071.023.137.06.194.109.057.048.103.108.137.175.033.067.053.14.057.215.006.074-.003.149-.026.22-.024.072-.061.137-.11.194s-.109.103-.176.137c-.066.033-.139.053-.214.058-1.121.076-2.246.107-3.345.107zm-5.764-.379h-.08c-1.522-.212-3.031-.513-4.518-.902-.076-.015-.148-.045-.212-.089-.063-.044-.117-.101-.158-.166s-.068-.139-.08-.215-.008-.154.011-.229.054-.145.101-.206c.048-.061.107-.112.175-.149.067-.037.142-.061.219-.068.076-.008.154 0 .228.024 1.446.375 2.913.667 4.393.875.151.01.291.08.39.194s.149.263.139.414c-.011.15-.081.291-.195.39s-.263.149-.413.138zm13.578-.273c-.15.013-.3-.035-.415-.133-.116-.098-.188-.237-.2-.388-.013-.15.035-.3.133-.415.097-.116.237-.188.388-.2 1.447-.246 2.927-.561 4.397-.94.146-.037.301-.015.431.061.13.077.225.202.262.348.038.147.016.302-.061.432-.076.13-.202.224-.348.262-1.515.378-3.011.708-4.492.958zm-22.347-2.019c-.071-.001-.142-.015-.208-.041-1.424-.563-2.815-1.207-4.166-1.928-.066-.035-.125-.083-.172-.141-.047-.057-.083-.124-.105-.195-.022-.072-.029-.147-.022-.221s.029-.146.064-.212.083-.124.14-.172c.058-.047.124-.083.196-.105.071-.022.146-.029.22-.022.075.007.147.029.213.064 1.31.695 2.66 1.315 4.041 1.856.124.048.228.137.293.254.064.116.086.251.061.382-.024.131-.094.249-.197.333-.103.085-.232.13-.365.129zm-8.026-4.261c-.113.001-.225-.033-.318-.098-1.268-.863-2.492-1.79-3.666-2.777-.057-.048-.105-.106-.139-.173-.034-.066-.056-.138-.062-.213-.007-.074.002-.149.024-.22.023-.071.059-.138.107-.195s.107-.104.173-.139c.066-.034.138-.055.213-.062.074-.006.149.002.22.025.072.022.138.058.195.106 1.144.963 2.336 1.867 3.572 2.708.1.069.176.167.216.282.04.114.043.239.007.355-.035.116-.107.217-.205.289-.097.073-.215.112-.337.112zm-6.957-5.821c-.076 0-.151-.015-.22-.044-.07-.03-.133-.073-.186-.127-1.056-1.068-2.094-2.212-3.087-3.409-.047-.057-.083-.123-.105-.195-.023-.071-.03-.146-.024-.221.007-.074.029-.146.064-.212.034-.066.082-.125.139-.173.058-.048.124-.083.195-.106.072-.022.147-.03.221-.023.075.007.147.029.213.063.066.035.125.083.172.14.97 1.163 1.985 2.273 3.03 3.329.078.081.13.182.151.291.021.11.01.223-.033.326s-.115.191-.207.254-.201.097-.312.099zm-5.822-6.973c-.091 0-.181-.022-.262-.063-.081-.042-.151-.102-.204-.176-.871-1.227-1.716-2.519-2.511-3.837-.039-.064-.064-.135-.075-.208-.011-.074-.008-.15.01-.222s.05-.141.094-.201c.045-.06.1-.111.164-.149.064-.039.135-.064.209-.075.074-.012.149-.008.221.01.073.018.141.05.201.094s.111.1.149.164c.784 1.292 1.61 2.56 2.466 3.769.061.084.097.184.105.288.007.104-.014.208-.062.3-.048.093-.12.17-.209.224s-.192.082-.296.082zm-4.7-7.776c-.105 0-.207-.028-.296-.082s-.161-.132-.208-.225c-.689-1.341-1.349-2.739-1.955-4.167-.035-.069-.056-.145-.062-.223-.005-.077.006-.156.033-.229.026-.073.067-.141.121-.197.053-.057.118-.102.189-.133.072-.031.149-.046.227-.046s.155.017.227.048c.071.032.135.078.188.135s.093.125.119.199c.598 1.382 1.246 2.757 1.924 4.075.066.133.077.287.031.429-.046.141-.146.259-.277.329-.076.047-.161.077-.25.087zm-3.606-8.333c-.117 0-.232-.037-.327-.105-.096-.068-.168-.163-.207-.274-.512-1.432-.985-2.901-1.405-4.359-.025-.073-.034-.15-.028-.226.006-.077.027-.151.063-.219s.085-.128.144-.176c.06-.049.128-.085.202-.106s.151-.027.227-.018.149.034.216.073c.066.038.124.09.17.151.045.062.078.132.096.206.413 1.439.879 2.883 1.383 4.292.032.085.043.177.031.268-.012.09-.045.177-.098.252-.052.074-.123.135-.204.176-.081.042-.172.063-.263.061zm-2.511-8.712c-.13.001-.255-.044-.356-.125s-.17-.195-.197-.322c-.33-1.496-.61-3.011-.837-4.507-.012-.074-.008-.151.01-.224s.051-.142.096-.203c.045-.06.101-.111.166-.15.064-.039.136-.065.21-.076.075-.011.151-.008.224.01.074.019.143.051.203.096.061.045.112.101.151.166.039.064.065.136.076.211.223 1.469.5 2.962.822 4.435.016.073.017.148.004.222-.013.073-.041.143-.081.206-.041.063-.093.117-.155.159-.061.042-.131.072-.204.087-.041.002-.081-.002-.121-.011zm-1.353-8.984c-.142 0-.279-.054-.384-.151-.104-.097-.169-.23-.18-.372-.125-1.541-.193-3.083-.201-4.586 0-.151.06-.296.167-.402.106-.107.251-.166.401-.166.075-.001.149.013.218.041.069.029.131.07.184.122.053.053.095.115.123.184.029.069.044.142.044.217 0 1.473.075 2.985.197 4.5.011.15-.038.298-.136.413-.098.114-.237.185-.387.196zm-57.571-3.484c-.138.003-.273-.045-.379-.133-1.163-.985-2.3067-2.019-3.4089-3.072-.1055-.107-.1646-.251-.1646-.401 0-.151.0591-.295.1646-.402.0525-.053.115-.095.1839-.124s.1429-.043.2176-.043c.0746 0 .1486.014.2175.043s.1314.071.1839.124c1.076 1.034 2.201 2.053 3.345 3.03.088.076.152.178.181.291.029.114.022.233-.019.342-.042.11-.116.204-.213.269-.097.066-.211.1-.328.098zm57.571-5.595h-.049c-.074-.006-.147-.028-.213-.062-.066-.035-.125-.082-.172-.14-.048-.057-.084-.123-.107-.195-.022-.071-.03-.146-.023-.22.146-1.525.368-3.042.667-4.545.012-.075.04-.147.081-.211s.094-.119.157-.163c.063-.043.133-.073.208-.088.074-.015.151-.015.226-.001.074.015.145.045.208.088s.116.098.158.162c.041.064.069.135.082.21s.01.152-.007.226c-.29 1.465-.506 2.945-.647 4.432-.021.133-.088.254-.19.343-.102.088-.232.137-.367.138zm-64.0974-.738c-.0794-.001-.158-.018-.2304-.05-.0725-.033-.1372-.08-.19-.14-1.0227-1.136-2.0226-2.303-2.9657-3.492-.0503-.058-.0883-.125-.1117-.199-.0234-.073-.0318-.15-.0246-.226.0071-.077.0297-.151.0663-.218.0366-.068.0865-.127.1467-.175.0602-.047.1294-.082.2034-.102.0741-.02.1515-.025.2275-.015.076.011.1491.037.2148.076.0657.04.1228.092.1677.155.9279 1.17 1.8938 2.325 2.9164 3.435.0742.081.1231.183.1408.291.0177.109.0033.221-.0412.321-.0446.101-.1174.187-.2097.247s-.2001.092-.3103.092zm-5.6435-7.102c-.0918 0-.1821-.023-.2632-.066-.0812-.043-.1507-.105-.2027-.18-.8636-1.254-1.6969-2.553-2.4733-3.86-.0452-.064-.0766-.137-.0924-.213-.0157-.077-.0155-.156.0008-.233.0163-.076.0483-.149.0939-.212.0456-.064.1039-.118.1712-.158s.1422-.066.2199-.075c.0777-.01.1566-.004.2317.019.0751.022.1448.059.2048.11.0599.05.1088.112.1435.183.7575 1.284 1.5832 2.56 2.4354 3.787.0425.062.0723.131.0879.204.0155.074.0165.149.0027.223-.0137.073-.0418.143-.0827.206s-.0938.117-.1556.159c-.0938.068-.2062.105-.3219.106zm71.5099-1.064c-.055 0-.11-.009-.163-.027-.144-.044-.265-.143-.336-.276s-.086-.288-.042-.432c.428-1.417.935-2.875 1.515-4.333.058-.137.166-.245.303-.302.137-.058.29-.059.428-.005s.249.16.31.296c.061.135.066.288.015.427-.564 1.428-1.06 2.856-1.481 4.246-.037.116-.111.216-.21.286-.098.071-.217.107-.339.104zm-76.1535-6.742c-.1052 0-.2084-.028-.2981-.083-.0896-.055-.1622-.134-.2095-.228-.6893-1.356-1.3446-2.754-1.943-4.166-.0593-.139-.0611-.295-.005-.435.0562-.14.1656-.252.3042-.312.1386-.059.2951-.061.435-.004.14.056.2519.165.3112.304.5908 1.375 1.2309 2.749 1.8938 4.083.0662.134.077.288.0303.43-.0468.142-.1475.259-.2803.327-.0734.041-.155.064-.2386.068zm79.4645-1.712c-.084-.002-.166-.02-.243-.053-.135-.066-.239-.182-.29-.324-.05-.142-.043-.298.021-.434.618-1.299 1.296-2.629 2.076-4.075.033-.069.081-.13.138-.181.058-.05.125-.088.198-.111s.15-.032.226-.025.15.029.218.065c.067.037.126.086.174.146s.083.128.104.202c.02.074.026.151.016.227-.01.075-.035.149-.074.214-.758 1.428-1.439 2.746-2.049 4.027-.049.093-.123.172-.214.226s-.196.082-.301.08zm-83.0363-6.655c-.1177 0-.2325-.037-.3288-.105-.0963-.067-.1692-.163-.209-.274-.5038-1.439-.9659-2.909-1.3711-4.371-.0225-.073-.0301-.149-.0225-.225.0076-.075.0304-.149.0668-.215.0365-.067.086-.126.1456-.173s.1281-.082.2013-.102c.0733-.02.1499-.026.2253-.016s.148.035.2136.073c.0656.039.1228.09.1682.151.0455.061.0782.13.0963.204.4015 1.439.8522 2.882 1.3484 4.299.0251.07.036.145.032.22-.004.074-.0227.147-.0551.215-.0324.067-.0779.127-.1337.177-.0559.049-.121.087-.1917.111-.0596.021-.1224.032-.1856.031zm87.3233-1.375c-.1.001-.198-.025-.284-.076-.065-.037-.122-.086-.168-.145-.046-.06-.079-.127-.098-.2-.02-.072-.025-.147-.015-.221s.035-.146.073-.21c.553-.959 1.11-1.894 1.659-2.849l.632-1.083c.077-.13.202-.224.348-.262.145-.038.301-.017.431.059.13.077.224.202.262.348s.017.301-.06.431l-.632 1.083c-.548.937-1.1 1.884-1.655 2.841-.05.086-.122.158-.209.208-.086.05-.184.076-.284.076zm-89.7473-7.382c-.1305 0-.257-.046-.3578-.129-.1008-.082-.1698-.198-.1952-.326-.3068-1.515-.5644-3.03-.7575-4.518-.0097-.075-.0047-.151.0149-.223.0196-.073.0533-.141.0992-.201.0459-.059.1031-.109.1683-.147.0653-.037.1372-.062.2118-.071.0746-.01.1504-.005.2231.015.0726.019.1407.053.2003.099s.1096.103.1471.168.0618.137.0715.212c.197 1.47.447 2.966.7576 4.439.0149.073.0153.148.0011.222-.0142.073-.0427.143-.0838.205-.0412.062-.0942.116-.1561.158-.0618.041-.1313.071-.2044.085zm94.3113-.489c-.097.001-.192-.024-.276-.072-.128-.073-.222-.193-.263-.334-.041-.142-.025-.293.043-.423.822-1.477 1.515-2.784 2.095-3.996.065-.136.182-.24.325-.289.142-.049.298-.04.434.026.136.065.24.182.289.325.049.142.04.298-.026.434-.598 1.231-1.291 2.557-2.125 4.053-.052.088-.127.16-.217.209s-.192.072-.294.067zm3.917-8.192c-.068 0-.135-.013-.197-.038-.141-.053-.256-.16-.318-.297-.063-.137-.068-.293-.016-.434.523-1.386.947-2.808 1.269-4.254.033-.147.123-.275.25-.356s.281-.108.428-.076c.147.033.276.123.357.25s.108.281.075.428c-.34 1.504-.784 2.982-1.329 4.424-.044.106-.118.195-.214.258-.095.063-.206.096-.32.095zm-99.3911-.322c-.1453-.001-.2849-.057-.3904-.157-.1056-.1-.1691-.236-.1778-.381-.0644-1.114-.0947-2.235-.0947-3.333 0-.421 0-.841 0-1.258.0005-.075.016-.148.0456-.217s.0727-.131.1268-.182c.0541-.052.118-.092.188-.118.0699-.027.1444-.039.2191-.036.0745.002.1479.018.2161.048.0681.03.1297.073.1811.127s.0916.117.1184.187c.0267.069.0394.143.0374.218v1.231c0 1.075.0303 2.178.0947 3.268.0041.075-.0066.15-.0314.22-.0248.071-.0634.136-.1133.191-.05.056-.1104.101-.1779.133-.0674.032-.1406.051-.2152.055zm101.2961-8.511h-.023c-.15-.006-.292-.071-.394-.181s-.156-.256-.151-.406c0-.303 0-.61 0-.917-.001-1.173-.092-2.344-.273-3.503-.023-.151.015-.305.105-.428s.225-.205.376-.228.304.015.427.105.205.226.228.376c.192 1.217.289 2.447.288 3.678v.962c-.008.151-.075.293-.187.395-.112.101-.26.154-.411.147zm-101.0802-.568h-.0644c-.15-.017-.287-.093-.3814-.211s-.1383-.268-.1224-.418c.1705-1.553.4129-3.083.7235-4.545.0115-.077.0386-.15.0796-.216.0409-.065.0948-.122.1585-.166.0636-.044.1355-.075.2114-.09s.1541-.015.2298.001c.0758.016.1474.047.2106.092s.1166.102.1569.168.0666.14.0775.216c.0108.077.0058.155-.0146.23-.2992 1.424-.5378 2.912-.7045 4.431-.0143.142-.0815.273-.1883.367-.1067.094-.2451.144-.3874.141zm44.6942-4.924h-.091c-.151 0-.295-.06-.402-.167-.107-.106-.166-.251-.166-.401 0-.151.059-.296.166-.402.107-.107.251-.166.402-.166h.083c1.402-.028 2.778-.382 4.019-1.034.134-.069.291-.081.434-.034s.262.149.331.283c.068.135.08.291.033.435-.047.143-.149.262-.283.331-1.399.732-2.948 1.128-4.526 1.159zm-4.383-1.303c-.103 0-.204-.029-.291-.083-1.349-.834-2.543-1.897-3.527-3.14-.094-.118-.138-.269-.121-.419.017-.151.092-.288.21-.382.118-.095.269-.139.419-.122.151.017.288.093.383.211.897 1.14 1.988 2.114 3.223 2.878.107.064.191.161.237.277.047.116.054.244.02.365-.034.12-.106.226-.206.301s-.222.115-.347.114zm59.383-2.14c-.118 0-.232-.036-.328-.104s-.168-.164-.206-.275c-.491-1.401-1.091-2.761-1.796-4.068-.072-.132-.088-.288-.045-.433.043-.144.142-.266.274-.338.133-.071.289-.088.433-.045.145.043.266.142.338.275.73 1.361 1.349 2.778 1.852 4.238.025.07.035.145.03.219-.004.074-.023.147-.056.214s-.078.127-.134.176-.121.087-.192.111c-.054.02-.112.032-.17.034zm-47.202-.47c-.106-.001-.21-.032-.3-.09-.09-.057-.162-.138-.208-.234s-.064-.204-.053-.309c.012-.106.053-.207.118-.291.746-.848 1.186-1.921 1.25-3.049v-.068c-.005-.203-.031-.405-.076-.602-.022-.075-.028-.153-.019-.23.01-.077.035-.152.074-.219s.092-.125.155-.171.134-.078.21-.096c.076-.017.154-.018.231-.004.076.015.149.045.213.088.064.044.119.1.161.166.041.065.069.139.081.216.063.272.098.55.106.829v.091c0 1.223-.519 2.523-1.496 3.757-.054.067-.122.121-.199.159-.077.037-.162.057-.248.057zm-50.6098-.041c-.0619.001-.1236-.01-.1818-.031-.0704-.025-.1352-.063-.1905-.114-.0554-.05-.1002-.11-.1319-.178s-.0497-.141-.0529-.216c-.0031-.074.0086-.149.0344-.219.4883-1.464 1.082-2.89 1.7764-4.269.0315-.07.077-.133.1336-.185.0567-.052.1233-.092.1959-.118.0725-.025.1495-.036.2263-.031s.1517.026.2203.061.1293.083.1786.142c.0493.06.086.128.108.202s.0288.151.0199.227c-.0088.077-.0331.151-.0713.217-.6746 1.334-1.2519 2.715-1.7272 4.133-.0388.111-.1115.208-.208.276s-.2118.104-.3298.103zm32.8088-4.288c-.117-.002-.23-.039-.325-.107-.095-.067-.166-.162-.206-.272-.504-1.29-.773-2.66-.795-4.045 0-.212 0-.42.023-.629.01-.15.08-.291.194-.39s.263-.149.413-.138c.151.01.291.08.391.194.099.114.148.263.138.414v.549c.017 1.254.261 2.495.72 3.663.052.141.047.297-.016.434-.062.137-.177.244-.318.297-.07.025-.145.036-.219.03zm60.734-3.178c-.089.001-.176-.02-.255-.06s-.148-.099-.2-.171c-.891-1.197-1.859-2.336-2.897-3.409-.105-.108-.163-.254-.16-.405.002-.151.065-.295.173-.4.109-.105.254-.162.405-.16.151.003.295.065.4.174 1.072 1.107 2.071 2.282 2.992 3.518.062.085.1.186.108.291.009.105-.012.21-.059.304s-.12.173-.209.228c-.09.056-.193.086-.298.086zm-44.069-.488c-.142-.005-.278-.063-.379-.163-1.06-1.029-2.224-1.945-3.473-2.735-.067-.038-.125-.09-.172-.151-.046-.062-.08-.132-.098-.207-.019-.075-.022-.153-.009-.229s.041-.149.083-.214c.041-.065.096-.12.16-.163.064-.044.136-.073.212-.088.075-.014.153-.013.229.004.075.017.146.048.209.094 1.316.831 2.542 1.797 3.658 2.882.081.081.136.183.157.295s.008.228-.037.333c-.045.104-.121.193-.217.254-.097.061-.209.091-.323.088zm-45.3377-.099c-.1065 0-.211-.029-.3015-.085s-.1634-.137-.2104-.232c-.0469-.096-.0661-.203-.0553-.309s.0511-.206.1164-.291c.9478-1.242 2.0443-2.364 3.265-3.34.1186-.086.2657-.122.4106-.102s.2765.095.3672.21c.0908.115.1339.26.1202.406-.0137.145-.083.28-.1935.376-1.1468.919-2.1771 1.975-3.068 3.144-.05.07-.1156.129-.1918.17-.0762.042-.1609.065-.2476.068zm37.7927-4.901c-.084.001-.167-.017-.242-.053-1.357-.633-2.748-1.1896-4.167-1.6667-.142-.0502-.259-.155-.325-.2914-.065-.1364-.073-.2932-.023-.4358s.155-.2595.291-.3248c.137-.0654.293-.0739.436-.0237 1.458.4903 2.887 1.0618 4.28 1.7124.118.054.213.148.27.264s.073.248.045.375c-.028.126-.099.239-.2.32-.102.081-.228.125-.357.124zm-8.363-.015c-.11-.001-.217-.033-.311-.091-.126-.083-.214-.212-.245-.36-.031-.147-.003-.301.079-.428.879-1.3073 1.949-2.4755 3.174-3.4656.117-.0742.258-.1027.395-.0802.137.0224.261.0943.349.202.087.1077.133.2438.127.3826-.006.1387-.063.2705-.159.3705-1.137.9169-2.129 1.9997-2.943 3.2117-.051.078-.12.142-.201.186-.081.045-.172.07-.265.072zm-22.4037-.712c-.1277-.001-.2516-.044-.3517-.123-.1-.08-.1704-.191-.1997-.315-.0293-.1243-.0159-.2549.0381-.3707.054-.1157.1454-.2099.2595-.2673 1.3806-.6968 2.8158-1.2796 4.2914-1.7423.142-.0394.2937-.0222.4232.0482.1294.0703.2265.1881.2708.3287.0442.1405.0321.2928-.0338.4245-.0659.1318-.1804.2329-.3193.2818-1.4173.444-2.7956 1.004-4.1209 1.6741-.08.04-.1682.061-.2576.061zm76.0897-.334c-.138.005-.273-.041-.379-.1284-1.158-.9478-2.365-1.8328-3.617-2.6513-.121-.0848-.204-.213-.231-.3577-.028-.1447.001-.2946.082-.4179.08-.1234.206-.2106.349-.2433.144-.0326.295-.0082.421.0682 1.287.8391 2.528 1.7482 3.716 2.7233.058.0469.106.105.141.1707.036.0658.058.1379.065.2122.008.0744 0 .1494-.022.2209-.021.0714-.057.1379-.105.1954-.051.0624-.115.1129-.188.1489-.072.036-.151.056-.232.059zm-53.909-1.8442c-.041.0037-.081.0037-.122 0-1.46-.3237-2.937-.5652-4.424-.7234-.074-.008-.146-.0306-.212-.0665s-.124-.0844-.172-.1428c-.047-.0584-.082-.1255-.103-.1974-.021-.072-.028-.1475-.02-.2221s.03-.1469.066-.2128.085-.124.143-.1712c.059-.0471.126-.0823.198-.1035s.147-.028.222-.02c1.528.1677 3.045.4206 4.545.7575.15.0161.289.0914.384.2093s.139.2688.123.4194c-.016.1507-.091.2889-.209.384-.118.0952-.269.1397-.419.1236zm-13.549-.5643c-.15.0115-.3-.0373-.414-.1357-.1149-.0983-.1859-.2383-.1974-.3889-.0116-.1507.0372-.2998.1354-.4145.099-.1148.238-.1857.389-.1972 1.524-.229 3.061-.3556 4.602-.3788.151 0 .295.0599.402.1664.106.1066.166.2511.166.4017 0 .1507-.06.2952-.166.4018-.107.1065-.251.1664-.402.1664-1.489.0234-2.975.15-4.447.3788zm20.59-2.4279c-.126-.0001-.248-.0419-.348-.1188-.099-.077-.17-.1848-.202-.3065-.031-.1217-.022-.2505.028-.3661.049-.1157.135-.2117.245-.2729 1.345-.748 2.737-1.4084 4.167-1.9772.14-.0567.298-.0553.437.004.14.0593.25.1717.307.3123s.055.298-.004.4376-.172.2499-.312.3067c-1.386.5447-2.736 1.1772-4.042 1.8938-.083.0529-.178.083-.276.0871zm39.277-.1364c-.091-.001-.18-.0231-.261-.0644-1.326-.6893-2.697-1.3143-4.079-1.8673-.14-.0557-.253-.1648-.312-.3034-.06-.1385-.062-.295-.006-.4351.055-.1402.164-.2524.303-.3121.138-.0596.295-.0618.435-.0061 1.417.5681 2.826 1.212 4.167 1.8938.111.0599.2.1552.251.2708.052.1156.064.245.034.3681-.03.123-.1.2326-.199.3117-.099.079-.221.123-.348.1251zm-30.861-3.2611c-.139.0025-.274-.046-.38-.1362-.105-.0903-.174-.2161-.193-.3536-.019-.1376.013-.2774.09-.393s.193-.1991.328-.2346c1.469-.4128 2.98-.7575 4.488-1.0188.075-.0176.153-.0196.229-.006s.149.0425.213.0851c.065.0425.12.0978.162.1624.042.0645.071.137.085.2131.013.0761.011.1541-.007.2292-.018.0752-.051.146-.097.208s-.104.114-.171.1528-.14.0635-.217.0727c-1.47.2614-2.943.5947-4.379.9962-.049.0149-.1.0225-.151.0227zm22.43-.0985c-.052-.0004-.105-.008-.155-.0227-1.439-.4101-2.898-.7438-4.371-.9999-.075-.0127-.146-.04-.21-.0803-.064-.0402-.12-.0927-.164-.1544-.043-.0618-.075-.1315-.091-.2053-.017-.0738-.019-.1502-.007-.2248.013-.0746.04-.146.081-.21.04-.0641.092-.1196.154-.1634s.132-.075.205-.0918c.074-.0169.15-.019.225-.0063 1.515.2626 3.014.6065 4.492 1.0302.131.0383.245.1227.319.2376.074.115.104.2528.085.3882-.02.1354-.087.2592-.191.3488-.103.0896-.235.139-.372.139zm-13.488-1.4696c-.074.0025-.149-.0097-.218-.036-.07-.0262-.134-.066-.189-.117-.054-.051-.098-.1122-.129-.1802s-.048-.1414-.051-.216c-.002-.0746.01-.149.036-.2188.027-.0699.066-.134.117-.1885s.113-.0984.181-.1293c.068-.0308.141-.048.216-.0505.935-.0681 1.867-.1022 2.768-.1022.402 0 .799 0 1.193.0189l.648.0303c.075.0034.148.0215.216.0532.067.0318.128.0766.178.1318.051.0552.089.1198.115.1901.025.0703.036.1449.033.2196-.01.15-.078.2903-.19.3908s-.259.1533-.409.147l-.625-.0265c-.378 0-.757-.0265-1.159-.0189-.875 0-1.78.034-2.689.0984z" fill="#5d8deb"></path><path d="m212.005 286.325c-13.101-12.079-6.322-19.866-6.322-19.866s5.856-9.47 26.393 2.912c20.536 12.382 40.421 7.788 44.917 5.928s20.203-13.537 29.058-14.192c4.924-.379 10.822 3.337 5.648 13.347-10.696 20.703-39.744 23.067-39.744 23.067s-14.082 2.651-28.547.083c0 0-18.302.795-31.403-11.279z" fill="#5d8deb"></path><path d="m256.922 299.282c-4.542.022-9.078-.349-13.556-1.109-1.223.034-19.018.303-31.748-11.431-5.556-5.125-8.333-10.132-8.253-14.89.057-3.408 1.617-5.439 1.863-5.734.247-.295 1.853-2.598 5.837-3.409 5.492-1.136 12.662.958 21.306 6.174 8.5 5.196 18.23 8.037 28.191 8.23 7.954.16 13.927-1.393 16.211-2.337 1.318-.545 3.753-2.037 6.575-3.761 6.897-4.223 16.347-10.007 22.661-10.476 2.356-.174 5.481.545 7.163 3.091 1.216 1.844 2.041 5.264-.97 11.086-5.606 10.859-16.249 16.635-24.188 19.57-5.155 1.904-10.522 3.176-15.983 3.788-4.995.815-10.048 1.219-15.109 1.208zm-13.514-2.246h.098c14.192 2.515 28.203-.053 28.343-.079h.06c.288-.027 28.862-2.583 39.286-22.76 2.181-4.223 2.533-7.659 1.026-9.943-1.409-2.132-4.091-2.734-6.128-2.583-6.061.451-15.352 6.151-22.154 10.31-2.977 1.826-5.329 3.265-6.731 3.845-2.367.977-8.541 2.594-16.665 2.424-10.16-.198-20.085-3.095-28.756-8.394-10.374-6.261-16.809-6.749-20.381-6.06-3.788.758-5.223 2.936-5.234 2.958l-.053.072c-.262.303-6.227 7.553 6.276 19.075 12.768 11.772 30.812 11.143 30.994 11.131z" fill="#0e1b3c"></path><path d="m246.13 288.086 8.227 4.833-6.03 3.288-3.841-2.459z" fill="#fff"></path><path d="m248.328 296.775c-.109-.001-.216-.032-.307-.091l-3.822-2.459c-.103-.065-.183-.163-.226-.278s-.047-.24-.012-.358l1.643-5.662c.023-.085.065-.163.122-.229.058-.066.131-.117.212-.15.081-.032.168-.045.254-.038.087.007.171.032.246.076l8.23 4.837c.086.051.157.125.207.212.049.088.074.187.074.288-.003.1-.031.198-.084.284s-.127.156-.216.204l-6.049 3.292c-.083.047-.177.072-.272.072zm-3.178-3.277 3.216 2.068 4.855-2.651-6.749-3.969z" fill="#0e1b3c"></path><path d="m248.364 294.051 1.231-1.246c.215-.217.497-.356.801-.394s.611.028.873.186l.875.53.459-.678c.09-.219.262-.394.479-.488s.462-.1.683-.016c5.216 2.504 11.856 4.42 14.973 6.731 3.689 2.731 1.072 8.81-5.36 8.189-5.098-.493-12.063-6.174-14.734-8.511-.12-.106-.212-.241-.267-.391-.054-.151-.07-.313-.046-.472.025-.159.089-.308.187-.436.098-.127.226-.227.373-.292l-.678-.981c-.181-.261-.265-.577-.237-.893s.165-.612.388-.838z" fill="#fff"></path><path d="m264.296 307.459c-.329 0-.658-.016-.985-.049-5.242-.504-12.272-6.216-15.052-8.651-.192-.168-.339-.382-.426-.621-.087-.24-.113-.498-.074-.75.043-.281.165-.544.352-.758l-.378-.534c-.258-.37-.378-.818-.339-1.267s.233-.871.551-1.191l1.227-1.242c.304-.311.704-.509 1.136-.563.431-.054.868.041 1.239.267l.409.25.136-.197c.181-.358.491-.635.867-.776.167-.062.344-.091.522-.083s.352.052.512.128c2.031.974 4.284 1.86 6.462 2.72 3.409 1.344 6.651 2.617 8.606 4.064.834.591 1.445 1.447 1.733 2.429.288.981.236 2.031-.146 2.98-.694 1.837-2.773 3.844-6.352 3.844zm-15.552-13.029c-.131.131-.211.305-.227.49-.016.184.033.369.14.521l.681.977c.049.071.081.151.094.236.013.084.007.171-.018.253-.022.085-.064.163-.121.229-.058.066-.131.117-.212.15-.057.026-.107.066-.144.116-.038.051-.063.109-.072.171-.011.064-.005.13.017.191s.059.115.108.158c2.697 2.36 9.503 7.901 14.416 8.374 3.552.345 5.545-1.447 6.173-3.079.295-.717.336-1.513.117-2.257s-.685-1.39-1.321-1.834c-1.833-1.356-4.996-2.602-8.333-3.92-2.197-.867-4.469-1.761-6.533-2.753-.052-.02-.108-.02-.159 0-.109.043-.197.125-.247.231-.01.029-.026.055-.045.079l-.458.682c-.083.118-.206.2-.347.231-.14.031-.287.008-.411-.064l-.875-.531c-.151-.094-.33-.133-.507-.112s-.342.102-.466.23z" fill="#0e1b3c"></path><path d="m262.634 305.3c-.748-.004-1.491-.114-2.208-.325-.142-.046-.261-.145-.332-.276-.071-.132-.087-.285-.047-.429.044-.143.142-.263.274-.334s.287-.087.43-.045c2.943.845 4.924-.378 5.724-1.662.606-.985.602-2.057 0-2.731-.082-.114-.118-.253-.104-.392.015-.138.081-.267.184-.36.104-.094.238-.146.377-.147.14-.001.275.049.38.141.973 1.061 1.03 2.652.147 4.095-.525.79-1.245 1.432-2.09 1.864s-1.787.639-2.735.601z" fill="#0e1b3c"></path><path d="m259.49 302.418c-.104 0-.205-.029-.293-.083-.088-.053-.16-.13-.208-.222-.048-.091-.07-.194-.064-.297s.04-.203.099-.288l3.03-4.39c.041-.065.094-.122.157-.166.064-.044.135-.075.211-.091.075-.015.153-.015.229 0 .075.016.147.046.21.09s.117.101.158.166c.041.066.068.139.079.215.012.076.008.154-.011.228-.02.075-.054.145-.101.206l-3.03 4.386c-.053.075-.122.137-.203.18s-.172.065-.263.066z" fill="#0e1b3c"></path><path d="m256.353 301.248c-.096-.002-.189-.027-.272-.073-.083-.047-.153-.113-.204-.194-.051-.08-.08-.172-.087-.267-.006-.095.012-.19.051-.277l2.083-4.382c.033-.067.078-.128.133-.178s.12-.088.191-.113c.07-.025.144-.036.219-.032s.148.022.215.054.128.077.178.133c.05.055.088.12.113.19.025.071.036.145.032.22-.004.074-.022.147-.054.215l-2.083 4.378c-.046.098-.119.18-.21.238-.092.058-.197.088-.305.088z" fill="#0e1b3c"></path><path d="m266.009 288.98c-.081 0-.161-.017-.235-.05-.074-.034-.14-.083-.193-.144l-.682-.757c-.099-.116-.149-.265-.14-.417.015-.147.085-.282.197-.379l3.431-2.935c5.294-4.521 11.059-8.457 17.196-11.742l2.47-1.318c.066-.041.14-.068.217-.08.077-.011.155-.007.23.013.076.02.146.055.207.104.061.048.111.109.148.177.037.069.059.145.065.222.007.078-.003.156-.028.23-.025.073-.066.141-.118.199-.052.057-.116.103-.187.135l-2.47 1.322c-6.065 3.249-11.762 7.144-16.991 11.617l-2.992 2.56.299.341c.049.056.087.121.112.191.024.07.034.145.03.219-.005.074-.024.147-.057.214s-.078.126-.134.175c-.109.078-.242.115-.375.103z" fill="#0e1b3c"></path><path d="m266.75 289.764-12.9 5.355 2.977 4.231 14.385-4.231z" fill="#fff"></path><path d="m256.827 299.918c-.091 0-.18-.023-.26-.065-.081-.042-.15-.103-.202-.177l-2.977-4.231c-.049-.07-.082-.149-.095-.233-.014-.084-.009-.17.015-.252.021-.084.062-.162.118-.228.057-.066.128-.117.208-.151l12.912-5.344c.112-.046.237-.056.355-.026.117.029.223.095.3.189l4.458 5.356c.061.072.102.158.121.251.019.092.014.188-.013.278-.028.09-.077.172-.144.238-.067.067-.15.115-.24.142l-14.393 4.227c-.052.018-.108.027-.163.026zm-2.102-4.545 2.333 3.314 13.166-3.878-3.64-4.375z" fill="#0e1b3c"></path><path d="m259.148 296.127-1.007-1.432c-.177-.25-.433-.433-.726-.52-.294-.086-.608-.071-.892.043l-1.488.655-.118-.443c-.062-.226-.205-.421-.402-.548-.197-.128-.434-.178-.666-.141-2.92.462-12.12 1.821-15.559 3.586-4.087 2.087-2.504 8.511 3.939 8.962 5.109.352 12.185-3.439 15.12-5.428.966-.655.292-1.894.292-1.894l1.367-1.136c.215-.225.346-.517.372-.827.025-.31-.057-.62-.232-.877z" fill="#fff"></path><path d="m242.914 306.887c-.246 0-.485 0-.723-.026-4.197-.292-6.189-2.852-6.617-4.962-.221-.998-.098-2.042.348-2.963.446-.92 1.189-1.663 2.11-2.108 3.322-1.697 11.594-2.993 15.124-3.546l.606-.094c.334-.053.676.007.972.171s.528.422.66.734l.898-.398c.405-.166.854-.19 1.273-.068.42.123.786.385 1.038.742l1.007 1.428c.26.368.383.815.348 1.264s-.227.872-.541 1.195l-.046.041-1.049.864c.153.383.171.807.052 1.203-.119.395-.368.739-.707.975-2.916 1.977-9.579 5.548-14.753 5.548zm11.087-12.582h-.061l-.606.095c-3.182.496-11.624 1.818-14.772 3.431-.699.333-1.264.894-1.602 1.591-.338.696-.429 1.487-.257 2.242.348 1.716 2.022 3.811 5.582 4.057 4.587.31 11.341-3.03 14.772-5.333.511-.345.152-1.053.11-1.136-.062-.117-.083-.251-.058-.381.025-.129.093-.246.194-.331l1.345-1.106c.122-.134.194-.305.205-.486.012-.18-.04-.359-.144-.507l-1.008-1.428c-.102-.147-.251-.254-.422-.305-.172-.051-.355-.042-.521.025l-1.466.648c-.074.034-.155.052-.237.052-.081 0-.162-.018-.236-.052-.076-.037-.143-.09-.196-.156-.053-.065-.091-.141-.111-.223l-.118-.432c-.025-.082-.078-.154-.15-.202-.071-.048-.157-.07-.243-.063z" fill="#0e1b3c"></path><path d="m250.165 301.926c-.123 0-.243-.039-.342-.113-.098-.074-.17-.178-.204-.296l-1.333-4.667c-.026-.073-.036-.15-.031-.228.006-.077.027-.152.062-.221.036-.069.085-.13.145-.179.061-.049.13-.085.204-.107.075-.021.153-.027.23-.016.077.01.151.035.217.075.067.04.125.093.17.156s.077.134.094.21l1.333 4.662c.043.144.027.299-.044.431-.071.131-.191.23-.335.274-.054.014-.11.021-.166.019z" fill="#0e1b3c"></path><path d="m242.358 304.952c-.063 0-.126-.011-.186-.03-2.273-.776-3.575-1.894-3.909-3.265-.443-1.848 1.061-3.428 1.136-3.492.106-.103.248-.161.396-.162.147-.001.289.056.396.159.106.102.169.242.174.39s-.048.291-.147.401c0 0-1.137 1.204-.837 2.447.238.969 1.333 1.818 3.17 2.446.142.049.26.152.327.287.066.134.077.29.029.433-.04.114-.114.212-.213.282-.098.069-.216.106-.336.104z" fill="#0e1b3c"></path><path d="m246.442 287.419h-.113c-.148-.031-.277-.118-.361-.244-.083-.125-.114-.278-.086-.426l.17-.845c-2.253-1.644-17.078-12.253-25.354-13.48-.151-.022-.286-.103-.377-.225s-.13-.276-.108-.426c.022-.151.103-.287.225-.378.123-.091.276-.129.427-.107 9.211 1.363 25.471 13.393 26.157 13.904.086.065.153.152.192.253.038.1.048.21.028.315l-.247 1.205c-.025.128-.094.243-.195.326s-.227.128-.358.128z" fill="#0e1b3c"></path><path d="m289.369 256.485c-.674-3.03-4.693-12.162-7.954-20.351-2.587-6.537-9.685-12.37-17.135-13.321-5.749-.707-11.554-.834-17.328-.378-9.636.757-17.912 5.814-21.097 14.268-2.871 7.613-6 16.961-6.061 21.699-.075 5.045 2.974 9.848 6.299 13.609 4.309 4.765 10.265 7.718 16.666 8.264 9.234.856 23.646 1.712 30.191-.424 10.033-3.291 18.048-16.071 16.419-23.366z" fill="#0e1b3c"></path><path d="m279.327 245.732h-39.577c-1.795 0-3.25 1.455-3.25 3.25v26.169c0 1.795 1.455 3.25 3.25 3.25h39.577c1.794 0 3.249-1.455 3.249-3.25v-26.169c0-1.795-1.455-3.25-3.249-3.25z" fill="#a3bef4"></path><path d="m279.324 278.969h-39.573c-1.013 0-1.984-.402-2.701-1.118-.716-.716-1.119-1.687-1.12-2.7v-26.172c.001-1.013.404-1.984 1.12-2.7.717-.716 1.688-1.118 2.701-1.118h39.573c1.013.001 1.983.403 2.699 1.119s1.118 1.686 1.119 2.699v26.172c-.001 1.012-.403 1.983-1.119 2.699-.716.715-1.686 1.118-2.699 1.119zm-39.573-32.668c-.711.001-1.393.283-1.896.786s-.787 1.184-.789 1.895v26.169c.002.711.286 1.393.789 1.895.503.503 1.185.786 1.896.787h39.573c.711-.001 1.393-.284 1.895-.787.503-.503.786-1.184.787-1.895v-26.172c-.001-.711-.284-1.393-.787-1.896-.502-.502-1.184-.785-1.895-.786z" fill="#0e1b3c"></path><path d="m281.947 278.56h-45.493c-.543 0-1.063.215-1.447.599-.383.383-.599.903-.599 1.446 0 .542.216 1.063.599 1.446.384.384.904.599 1.447.599h45.493c.542 0 1.062-.215 1.446-.599.383-.383.599-.904.599-1.446 0-.543-.216-1.063-.599-1.446-.384-.384-.904-.599-1.446-.599z" fill="#a3bef4"></path><path d="m281.946 283.219h-45.493c-.693 0-1.358-.276-1.848-.766s-.765-1.155-.765-1.848.275-1.358.765-1.848 1.155-.765 1.848-.765h45.493c.693 0 1.358.275 1.848.765s.766 1.155.766 1.848-.276 1.358-.766 1.848-1.155.766-1.848.766zm-45.493-4.091c-.391 0-.767.156-1.044.433s-.433.652-.433 1.044.156.768.433 1.045.653.432 1.044.432h45.493c.392 0 .768-.155 1.045-.432s.433-.653.433-1.045-.156-.767-.433-1.044-.653-.433-1.045-.433z" fill="#0e1b3c"></path><path d="m261.244 260.671c0 .469-.139.927-.4 1.317-.26.39-.63.694-1.064.873-.433.18-.91.227-1.37.135-.46-.091-.882-.317-1.214-.649-.331-.331-.557-.754-.648-1.214-.092-.46-.045-.936.134-1.369.18-.434.484-.804.874-1.065.39-.26.848-.399 1.317-.399.312-.001.62.06.908.179s.549.294.77.514c.22.22.395.482.514.77s.18.596.179.908z" fill="#fff"></path><path d="m259.024 219.878c.549.055 1.102.002 1.63-.157s1.019-.421 1.445-.77c.427-.349.781-.778 1.041-1.264.261-.485.424-1.018.478-1.566l.637-6.325c.106-1.048-.206-2.095-.867-2.915-.662-.819-1.62-1.344-2.667-1.46l-.758-.087c-.63-.068-1.268.015-1.861.242-.592.226-1.123.59-1.547 1.061l-1.656 1.814c-.117.131-.273.219-.446.253-.172.033-.35.01-.508-.067-.432-.216-1.057-.425-1.549-.167-.837.443-1.799 3.788 1.261 4.663l-1.845 6.548c-.231.821-.632 1.585-1.176 2.241-.544.657-1.219 1.193-1.982 1.573-1.114.557-2.209 1.197-2.273 1.584-.261 2.094 5.947 2.859 7.715 2.901 3.277.076 7.871-1.235 8.22-3.102.155-.852-3.879-1.265-3.709-2.114.207-.951.346-1.915.417-2.886z" fill="#fff"></path><g fill="#0e1b3c"><path d="m254.389 228.525h-.288c-1.197-.026-6.356-.511-7.837-2.227-.162-.175-.284-.383-.358-.61-.075-.227-.1-.467-.074-.704.061-.474.519-.996 2.568-2.019.693-.345 1.306-.832 1.8-1.428s.857-1.289 1.068-2.034l1.7-6.033c-.535-.207-1.002-.56-1.347-1.018-.345-.459-.554-1.005-.603-1.577-.129-1.201.378-2.541 1.113-2.928.557-.295 1.273-.242 2.068.159.047.022.099.028.15.018.05-.011.096-.037.131-.075l1.617-1.795c.489-.538 1.098-.953 1.778-1.211s1.411-.352 2.134-.274l.758.088c1.192.136 2.284.735 3.039 1.668s1.114 2.125.999 3.32l-.637 6.325c-.115 1.158-.65 2.234-1.504 3.025-.854.79-1.968 1.241-3.132 1.266-.045.478-.144 1.247-.337 2.239.461.23.943.417 1.439.557 1.239.405 2.409.788 2.239 1.7-.405 2.269-5.117 3.568-8.484 3.568zm-7.432-3.344c.007.142.066.278.167.379.966 1.136 5.072 1.787 7.003 1.833 3.273.076 7.11-1.205 7.602-2.496-.459-.224-.939-.404-1.432-.538-1.242-.405-2.416-.788-2.231-1.708.191-.918.317-1.849.379-2.784l.027-.602.598.06c.958.095 1.914-.193 2.659-.803.745-.609 1.218-1.489 1.314-2.447l.633-6.325c.088-.897-.18-1.793-.747-2.494s-1.387-1.151-2.283-1.252l-.758-.087c-.545-.057-1.096.016-1.608.213-.512.198-.969.514-1.335.923l-1.625 1.777c-.201.221-.468.371-.762.427s-.598.015-.866-.117c-.15-.1-.319-.168-.497-.197s-.36-.02-.533.027c-.171.095-.625.905-.512 1.841.114.935.667 1.484 1.667 1.772l.541.156-2 7.075c-.254.896-.692 1.729-1.286 2.446s-1.331 1.303-2.164 1.72c-1.489.758-1.864 1.106-1.951 1.212z"></path><path d="m259.349 220.461h-.068c-.56-.068-3.409-.503-4.091-2.59-.05-.143-.041-.301.025-.437.065-.137.183-.242.326-.292.143-.051.3-.042.437.024s.242.183.292.326c.492 1.492 3.03 1.807 3.144 1.818.149.019.285.096.379.214.093.118.137.269.121.419-.013.141-.077.273-.182.369-.104.096-.241.149-.383.149z"></path><path d="m251.774 208.55-.822-4.988c-.017-1.067.328-2.108.979-2.953.65-.846 1.568-1.446 2.604-1.702l6.177-1.515c.146-.037.299-.039.446-.006.147.032.284.098.401.192.118.094.212.214.275.351.063.136.094.286.09.436 0 .149.034.295.099.429s.159.251.275.343c.117.093.253.157.398.189.145.033.296.032.441-.003l2.814-.704c.185-.046.379-.037.559.026.179.063.337.177.453.328s.186.333.2.523c.015.19-.026.38-.118.547l-.147.265c-.072.131-.113.276-.12.425-.007.148.019.297.078.434s.148.258.261.356c.113.097.246.167.39.205l2.205.61c.17.045.325.135.448.261.123.125.211.281.253.452s.038.35-.013.518c-.051.169-.146.32-.275.439l-5.704 4.796s-.906-4.14-5.008-3.534c-2.079.31-3.545 1.894-4.166 3.03-.243.439-.716 1.227-1.473.53-.012.019.484-1.678-2-.28z"></path><path d="m301.918 125.809c-.135 0-.266-.048-.368-.135-.103-.088-.171-.209-.193-.342-5.624-35.1906-32.819-58.4276-33.096-58.6586-.115-.0975-.188-.2368-.2-.3874-.013-.1506.034-.3001.132-.4156.097-.1155.237-.1876.387-.2004.151-.0128.3.0348.416.1322.068.0606 7.03 5.9617 14.59 16.1731 6.977 9.4236 15.908 24.5667 18.892 43.1787.013.074.01.149-.006.222-.017.073-.049.141-.092.202-.044.061-.099.112-.163.151s-.134.065-.208.077z"></path><path d="m307.995 126.033c-.141-.001-.277-.054-.381-.149-.105-.095-.17-.226-.183-.366-2.087-22.393-17.889-43.8685-18.048-44.0844-.045-.0595-.078-.1273-.096-.1994-.018-.0722-.022-.1474-.011-.2211s.036-.1445.075-.2082c.038-.0637.089-.1191.149-.163.121-.0904.273-.1292.422-.1079s.283.101.374.2216c.159.2197 16.15 21.9414 18.268 44.6564.006.074-.002.149-.024.22s-.058.138-.106.195-.107.105-.173.139c-.066.035-.138.056-.213.063z"></path><path d="m49.0623 59.6772c-.1381.003-.2726-.0441-.3787-.1326-.0576-.0475-.1051-.1059-.1399-.172-.0348-.066-.0562-.1382-.0629-.2126-.0067-.0743.0014-.1492.0239-.2204.0224-.0711.0588-.1371.1069-.1942 10.9612-13.0137 24.4979-23.6172 39.758-31.1429 15.2604-7.5258 31.9124-11.8107 48.9104-12.5851.075-.0051.15.0051.221.0301s.136.0642.192.1153c.055.051.099.1129.13.1816.03.0688.047.1432.048.2184.006.1501-.048.2965-.149.4073-.102.1107-.243.1767-.393.1836-16.833.7722-33.325 5.0194-48.4372 12.4745-15.1123 7.4551-28.5183 17.9568-39.375 30.8445-.0548.0668-.1244.12-.2032.1555-.0789.0355-.1649.0523-.2513.049z"></path><path d="m46.9566 62.2492c-.1279.0016-.2524-.0413-.3523-.1212-.1179-.0939-.1939-.2305-.2117-.3801-.0177-.1497.0244-.3003.117-.4191.6932-.8711 1.4052-1.7423 2.1173-2.5907.0463-.0616.1046-.1132.1715-.1515.0668-.0384.1408-.0627.2173-.0716.0766-.0089.1541-.0021.228.02.0738.022.1424.0588.2015.1082.0592.0494.1077.1103.1426.179.0348.0687.0554.1438.0603.2207.005.0769-.0058.154-.0316.2266-.0258.0727-.0661.1393-.1184.1958-.7045.8447-1.4128 1.7082-2.0984 2.5718-.0529.0667-.1203.1204-.1971.1572-.0767.0367-.1609.0555-.246.0549z"></path><path d="m33.2674 60.6848c-.1065.0003-.2109-.0292-.3014-.0854-.0905-.0561-.1634-.1365-.2104-.2321-.047-.0955-.0662-.2024-.0554-.3083.0108-.106.0512-.2067.1165-.2908 9.3988-12.2152 20.7762-22.7707 33.6605-31.2289 13.447-8.8339 28.3071-15.3006 43.9368-19.11991.146-.03551.301-.01165.43.06638.129.07804.222.20393.259.35026.018.07238.021.14763.01.22137-.011.0738-.037.1446-.075.2083-.039.0638-.09.1192-.15.1631-.061.044-.129.0755-.202.0928-30.6794 7.5449-57.9957 25.2861-76.9641 49.9548-.0547.0674-.1241.1212-.2029.1573s-.1649.0536-.2516.0511z"></path><path d="m148.324 17.2221c-.572.0009-1.136-.1288-1.649-.3792-.514-.2503-.963-.6147-1.314-1.0652-.351-.4506-.595-.9754-.713-1.5344-.117-.5591-.105-1.1376.035-1.6914s.405-1.0682.775-1.504c.369-.4358.833-.7814 1.356-1.0105.524-.22909 1.092-.33559 1.663-.31137s1.129.17853 1.631.45117c.732.3977 1.311 1.028 1.645 1.7914s.405 1.6164.2 2.4243c-.204.8078-.672 1.5245-1.33 2.0369-.657.5123-1.466.7911-2.299.7923zm.003-6.3821c-.256-.0017-.512.0353-.757.1098-.663.1982-1.22.6512-1.55 1.2597-.329.6085-.404 1.3228-.208 1.9863.12.414.341.7919.642 1.1.301.3082.674.537 1.085.6661.412.1292.848.1546 1.272.0741.423-.0805.82-.2644 1.155-.5355.335-.271.598-.6208.765-1.018.168-.3972.234-.8297.194-1.2588-.041-.429-.187-.8415-.425-1.2006-.238-.359-.562-.6536-.942-.8574-.378-.2036-.801-.3091-1.231-.3068z"></path><path d="m104.747 33.2933c-.065.0004-.131-.0111-.193-.034l-5.9614-2.159c-.1013-.0364-.1902-.1009-.2562-.1859-.0661-.085-.1067-.187-.117-.2942s.01-.2151.0587-.3111c.0486-.0961.1235-.1763.216-.2314l5.0489-2.996c.079-.047.168-.0739.26-.0785.092-.0047.183.0132.266.0519.083.0389.156.0969.212.1694s.094.1572.11.2473l.913 5.1549c.015.0816.012.1654-.009.2456s-.059.1548-.113.2185c-.053.0636-.119.1148-.194.1498-.076.035-.158.053-.241.0527zm-4.639-2.8596 3.908 1.4128-.602-3.3748z"></path><path d="m11.9236 125.786c-.1507 0-.2952-.06-.4017-.166-.1066-.107-.1664-.251-.1664-.402v-2.936c0-.15.0598-.295.1664-.401.1065-.107.251-.167.4017-.167s.2952.06.4018.167c.1065.106.1664.251.1664.401v2.936c0 .151-.0599.295-.1664.402-.1066.106-.2511.166-.4018.166z"></path><path d="m11.9236 132.631c-.1507 0-.2952-.06-.4017-.167-.1066-.106-.1664-.251-.1664-.401v-2.94c0-.15.0598-.295.1664-.401.1065-.107.251-.167.4017-.167s.2952.06.4018.167c.1065.106.1664.251.1664.401v2.94c0 .15-.0599.295-.1664.401-.1066.107-.2511.167-.4018.167z"></path><path d="m9.97413 127.741h-2.93919c-.15068 0-.29519-.06-.40174-.167-.10655-.106-.1664-.251-.1664-.401 0-.151.05985-.296.1664-.402.10655-.107.25106-.167.40174-.167h2.93919c.15067 0 .29517.06.40177.167.1065.106.1664.251.1664.402 0 .15-.0599.295-.1664.401-.1066.107-.2511.167-.40177.167z"></path><path d="m16.8121 127.741h-2.9354c-.1506 0-.2952-.06-.4017-.167-.1066-.106-.1664-.251-.1664-.401 0-.151.0598-.296.1664-.402.1065-.107.2511-.167.4017-.167h2.9354c.1507 0 .2952.06.4018.167.1065.106.1664.251.1664.402 0 .15-.0599.295-.1664.401-.1066.107-.2511.167-.4018.167z"></path><path d="m288.941 206.213c-.15 0-.295-.06-.402-.167-.106-.106-.166-.251-.166-.401v-2.94c0-.15.06-.295.166-.401.107-.107.252-.167.402-.167.151 0 .295.06.402.167.106.106.166.251.166.401v2.94c0 .15-.06.295-.166.401-.107.107-.251.167-.402.167z"></path><path d="m288.941 213.053c-.15 0-.295-.06-.402-.166-.106-.107-.166-.251-.166-.402v-2.935c0-.151.06-.296.166-.402.107-.107.252-.167.402-.167.151 0 .295.06.402.167.106.106.166.251.166.402v2.935c0 .151-.06.295-.166.402-.107.106-.251.166-.402.166z"></path><path d="m287 208.163h-2.936c-.15 0-.295-.06-.402-.166-.106-.107-.166-.251-.166-.402s.06-.295.166-.402c.107-.106.252-.166.402-.166h2.936c.15 0 .295.06.401.166.107.107.167.251.167.402s-.06.295-.167.402c-.106.106-.251.166-.401.166z"></path><path d="m293.816 208.163h-2.939c-.151 0-.295-.06-.402-.166-.107-.107-.166-.251-.166-.402s.059-.295.166-.402c.107-.106.251-.166.402-.166h2.939c.151 0 .295.06.402.166.106.107.166.251.166.402s-.06.295-.166.402c-.107.106-.251.166-.402.166z"></path><path d="m13.9713 146.489c-.6622 0-1.3096-.196-1.8602-.564s-.9798-.891-1.2332-1.502c-.2534-.612-.3197-1.285-.1905-1.935.1292-.649.4481-1.246.9163-1.714.4683-.469 1.0649-.788 1.7144-.917s1.3227-.063 1.9345.191c.6118.253 1.1348.682 1.5027 1.233s.5642 1.198.5642 1.86c-.001.888-.354 1.739-.9817 2.367-.6277.627-1.4788.98-2.3665.981zm0-5.556c-.4376 0-.8655.13-1.2293.373s-.6474.589-.8147.993c-.1673.405-.2108.85-.1252 1.279.0857.429.2967.823.6064 1.132.3098.31.7043.52 1.1336.605s.8742.041 1.2783-.127.7493-.453.9919-.817.3717-.792.371-1.23c-.001-.586-.2345-1.147-.6492-1.561-.4148-.414-.9768-.647-1.5628-.647z"></path><path d="m269.701 26.9677c-.151 0-.295-.0599-.402-.1664-.106-.1066-.166-.2511-.166-.4018v-2.9354c0-.1506.06-.2952.166-.4017.107-.1065.251-.1664.402-.1664s.295.0599.402.1664c.106.1065.166.2511.166.4017v2.9354c0 .1507-.06.2952-.166.4018-.107.1065-.251.1664-.402.1664z"></path><path d="m269.701 33.8118c-.151 0-.295-.0599-.402-.1664-.106-.1066-.166-.2511-.166-.4017v-2.9392c0-.1507.06-.2952.166-.4018.107-.1065.251-.1664.402-.1664s.295.0599.402.1664c.106.1066.166.2511.166.4018v2.9392c0 .1506-.06.2951-.166.4017-.107.1065-.251.1664-.402.1664z"></path><path d="m267.748 28.918h-2.936c-.15 0-.295-.0598-.401-.1664-.107-.1065-.167-.251-.167-.4017s.06-.2952.167-.4018c.106-.1065.251-.1664.401-.1664h2.936c.15 0 .295.0599.401.1664.107.1066.167.2511.167.4018s-.06.2952-.167.4017c-.106.1066-.251.1664-.401.1664z"></path><path d="m274.591 28.918h-2.939c-.151 0-.295-.0598-.402-.1664-.106-.1065-.166-.251-.166-.4017s.06-.2952.166-.4018c.107-.1065.251-.1664.402-.1664h2.939c.151 0 .296.0599.402.1664.107.1066.166.2511.166.4018s-.059.2952-.166.4017c-.106.1066-.251.1664-.402.1664z"></path></g><path d="m287.164 38.7762c.246-1.5135-.782-2.9396-2.296-3.1853-1.513-.2457-2.939.7821-3.185 2.2956s.782 2.9396 2.296 3.1853c1.513.2457 2.939-.7821 3.185-2.2956z" fill="#164fc2"></path><path d="m98.0879 253.047-5.3141 54.401-3.7914-.159 1.8825-57.193z" fill="#a3bef4"></path><path d="m26.8203 251.088 5.1853 56.496 3.9201-.295-1.8824-59.257z" fill="#a3bef4"></path><path d="m8.77148 237.793 1.52642 59.326 3.0604-.667 2.8066-61.48z" fill="#a3bef4"></path><path d="m68.5801 236.468 1.5264 59.322 3.1816.019 2.6854-62.163z" fill="#a3bef4"></path><path d="m53.216 190.134v13.803c0 13.502 10.647 24.445 23.7786 24.445 13.1317 0 23.7824 10.942 23.7824 24.445 0 .577-.229 1.13-.636 1.539-.4081.408-.9611.638-1.538.639h-62.9502c-19.6956 0-35.6528-16.408-35.6528-36.645v-29.453c0-8.048 6.35183-14.574 14.1808-14.574h23.6613c8.488 0 15.3739 7.075 15.3739 15.801z" fill="#a3bef4"></path><path d="m62.094 195.251s3.2308 29.388 24.9376 31.309l-24.9376.356s-9.238-18.734-9.613-26.04c-.375-7.307 9.613-5.625 9.613-5.625z" fill="#fff"></path><path d="m62.0933 227.484c-.1065 0-.2109-.03-.3013-.086s-.1632-.137-.2101-.232c-.3787-.758-9.291-18.938-9.666-26.249-.1022-1.935.4697-3.473 1.6969-4.567 2.8786-2.572 8.3327-1.697 8.5714-1.659.1228.021.2353.082.3207.172.0854.091.139.207.1527.331.7073 5.105 2.1488 10.08 4.28 14.772 4.583 9.848 11.3629 15.249 20.1312 16.025.1507.006.293.071.3956.182.1027.11.1572.257.1517.407-.0055.151-.0707.293-.1811.396-.1105.103-.2572.157-.4079.152l-24.9376.356zm-2.3143-31.816c-1.7006 0-3.9921.273-5.4125 1.545-.9545.852-1.3976 2.083-1.3181 3.655.3409 6.579 8.1813 22.98 9.3971 25.487l19.3509-.276c-6.6927-2.205-12.1203-7.526-15.9079-15.643-2.1138-4.665-3.5683-9.601-4.3217-14.666-.5934-.071-1.1902-.109-1.7878-.114z" fill="#0e1b3c"></path><path d="m31.1986 176.574c4.2118-.992 5.9655-1.003 21.275-.45 3.7422.136 8.1888 4.836 8.632 8.56-1.1893 3.568-6.6776 21.21 2.9013 34.971 1.6159 2.311 3.5503 4.381 5.7458 6.151-1.9484 1.6-4.1912 2.803-6.6018 3.541-4.9239 1.466-7.4199-.121-11.4007 0-10.5296.315-14.393 12.052-21.1879 10.579-1.8143-.379-4.2232-1.814-6.4769-6.568-1.4612-4.494-2.4836-9.118-3.0528-13.809-1.3123-11.268-.0801-22.686 3.6058-33.415.7273-2.34 1.5946-8.393 6.5602-9.56z" fill="#0e1b3c"></path><path d="m64.9471 198.543s-2.4771-19.87-9.6092-21.567l1.6362 26.135z" fill="#0e1b3c"></path><path d="m28.6822 193.24c-3.2573 1.379-7.0866 3.008-10.4576 4.458v.125l10.4576-4.522z" fill="#fff"></path><path d="m17.6426 198.694.0303-1.375.3333-.144c2.8748-1.234 6.3935-2.734 10.4614-4.458l.8333-.356-.0682 1.33z" fill="#0e1b3c"></path><path d="m16.4043 202.187s.6969-11.806 1.7158-16.367c2.1438-9.594 14.5634-9.696 14.5634-9.696l-2.1703 24.423z" fill="#0e1b3c"></path><path d="m43.3799 176.135.4204-5.973.5378-.03c1.6666-.019 2.2044-.561 2.3484-1.928.131-1.246.0308-2.506-.2955-3.716-.0459-.169-.0339-.349.0341-.511l.2841-.667c.0292-.107.0269-.221-.0067-.327s-.097-.2-.1827-.271l-.1515-.125c-.5427-.45-1.0017-.993-1.356-1.602-.3333-.561-.9014-1.606-1.2878-1.792-1.0946-.523-5.5299-2.848-8.007 1.212-1.9354 3.167 1.2234 7.522 2.3711 8.95.2802.345-1.8711 7.11-1.8711 7.11l-2.7839.67s2.1476 3.818 8.6661 2.238c4.6436-1.136 3.905-2.852 3.905-2.852z" fill="#fff"></path><path d="m39.0957 180.328c-4.4581 0-6.0602-2.772-6.1587-2.913-.0429-.076-.0672-.161-.0712-.249-.0039-.087.0127-.174.0485-.254.0329-.081.0843-.152.1502-.209.0658-.056.1442-.097.2286-.117l2.4695-.598c.8598-2.72 1.7044-5.682 1.7726-6.409-1.4545-1.841-4.3293-6.166-2.3105-9.469 1.7688-2.898 4.6702-3.409 8.6206-1.485l.1175.053c.4545.22.8597.871 1.3824 1.765l.1478.25c.3194.554.7349 1.046 1.2271 1.455l.1515.125c.1717.139.2989.325.3662.536.0672.21.0716.436.0126.649-.0072.025-.016.049-.0265.072l-.2841.667c-.0153.048-.0153.099 0 .147.3427 1.277.4454 2.606.303 3.921-.178 1.708-1.0188 2.412-2.9051 2.435l-.3484 4.947 2.1059.31c.0963.015.1873.054.2642.113.077.06.1373.138.1752.228.0745.209.1035.432.0853.654-.0183.221-.0836.436-.1914.63-.5038 1.008-1.9127 1.795-4.1891 2.345-1.0282.258-2.0836.393-3.1437.401zm-4.6664-2.848c.9053.916 3.1362 2.409 7.5374 1.341 2.4544-.591 3.1892-1.318 3.4088-1.697.022-.037.041-.075.0569-.114l-2.1363-.314c-.1415-.022-.2698-.096-.3595-.207-.0898-.111-.1345-.253-.1253-.395l.4205-5.97c.0097-.137.0689-.266.1664-.362.0974-.097.2267-.155.3638-.164.2992-.023.5076-.034.5682-.034 1.409-.019 1.6817-.379 1.7915-1.421.1213-1.177.0263-2.367-.2803-3.511-.0773-.291-.056-.6.0606-.878l.2538-.599-.1515-.129c-.5907-.493-1.0917-1.085-1.481-1.75l-.1515-.261c-.2475-.473-.55-.916-.9014-1.318l-.1099-.049c-1.2461-.602-5.0299-2.432-7.1586 1.053-1.693 2.768 1.0644 6.723 2.3294 8.298.2083.258.4697.58-1.7726 7.636-.0295.093-.0828.177-.1545.244-.0717.066-.1594.113-.2545.135z" fill="#0e1b3c"></path><path d="m37.0832 155.243c1.2007-.258 2.5832-.072 3.1665-.288.9393-.345.9658-1.474 2.2725-1.792 1.5757-.379 2.2309.288 2.8483 1.227.1076.167.1977.345.2689.531.9886 2.651-.2613 3.958-.8181 4.378 0 0-3.5452 1.837-4.1664 2.36-.6211.523-1.2234 1.651-.8105 3.318.0256.103.0178.212-.0224.311-.0401.098-.1105.182-.2011.238-.1047.062-.2292.081-.3477.053-.1185-.027-.2218-.099-.2886-.201-.4621-.666-1.4658-1.962-2.1854-1.655-.8977.379-.6174 3.087 1.3673 3.409.3101.06.5874.232.78.482.1925.25.2869.563.2654.878-.0452.257-.1659.494-.3466.683-.1808.188-.4135.318-.6685.373-.1793.028-.3622.019-.5379-.026s-.3405-.125-.4848-.235c-1.2953-.829-4.9504-4.341-5.4049-7.492-.5378-3.803 3.7308-6.208 5.314-6.552z" fill="#0e1b3c"></path><path d="m44.2468 170.632c-.9715-.057-1.9032-.406-2.6741-1-.0545-.045-.0994-.101-.1321-.163-.0327-.063-.0524-.132-.0581-.203-.0056-.07.003-.141.0252-.209.0223-.067.0578-.129.1044-.182.0455-.054.1013-.099.1642-.131.0628-.033.1315-.052.2019-.058.0705-.005.1414.003.2086.025s.1293.057.1829.103c.5874.444 1.2916.708 2.0263.758.1324.013.2549.076.3433.175.0884.1.1361.229.1337.362s-.0547.26-.1466.356c-.0918.097-.2165.155-.3493.164z" fill="#0e1b3c"></path><path d="m77.8699 226.696 9.719-28.638c.292-.445.6907-.81 1.1597-1.061.4691-.252.9936-.382 1.5257-.378h25.9037c.26-.006.518.052.751.168.233.117.434.288.586.499s.25.457.287.714c.036.258.009.521-.079.766-.151.402-.314.799-.451 1.205l-8.779 26.778c-.014.754-.323 1.472-.861 2-.537.528-1.26.825-2.014.826h-47.7959c-.3779 0-.752-.075-1.101-.22-.3491-.144-.6662-.356-.9332-.624-.267-.267-.4786-.585-.6229-.934-.1442-.349-.2182-.723-.2177-1.101z" fill="#164fc2"></path><path d="m105.614 230.143h-47.7922c-.9134-.001-1.7891-.365-2.4347-1.011s-1.0082-1.523-1.0082-2.436c0-.151.0599-.295.1664-.402.1066-.106.2511-.166.4017-.166h22.5174l9.5865-28.252c.014-.044.0344-.086.0606-.125.3428-.525.812-.956 1.3645-1.253.5525-.298 1.1708-.451 1.7981-.448h25.9039c.36-.003.715.081 1.035.247s.594.408.798.704c.196.285.321.612.364.955s.002.691-.118 1.015l-.133.337c-.113.288-.219.56-.31.841l-8.761 26.71c-.045.883-.427 1.715-1.066 2.326-.64.61-1.489.953-2.373.958zm-50.0382-2.879c.1263.498.415.94.8204 1.255.4054.316.9044.487 1.4181.487h47.7997c.605-.003 1.184-.243 1.615-.667.431-.425.679-1.001.692-1.605 0-.077.017-.153.049-.224l8.764-26.721c.103-.307.216-.606.33-.898l.129-.329c.057-.152.076-.315.056-.475-.021-.161-.08-.314-.174-.446-.101-.144-.235-.261-.392-.341-.156-.079-.33-.12-.505-.117h-25.9039c-.4271 0-.8478.104-1.2263.301-.3786.198-.7037.485-.9478.835l-9.6925 28.566c-.0393.112-.1121.208-.2085.276-.0964.067-.2114.104-.3293.103z" fill="#0e1b3c"></path><path d="m97.1231 211.296c-.3788 1.212.1931 2.454 1.2461 2.772 1.0529.319 2.2048-.409 2.5678-1.621.364-1.212-.193-2.454-1.2459-2.772-1.053-.318-2.2044.409-2.568 1.621z" fill="#a3bef4"></path><path d="m27.6082 198.694c3.5831 13.056 14.2301 21.389 29.6684 25.756l-2.3559 4.401c-21.453-.757-32.7023-10.082-37.2019-27.975z" fill="#fff"></path><path d="m55.2538 229.45h-.3523c-21.0591-.739-33.0507-9.764-37.7322-28.407l-.1439-.568 10.9841-2.443.1439.522c3.3672 12.276 13.2188 20.813 29.2745 25.377l.678.194zm-36.8383-28.127c4.6171 17.586 16.1276 26.165 36.1717 26.964l1.8559-3.469c-15.8398-4.659-25.6725-13.219-29.2366-25.453z" fill="#0e1b3c"></path><path d="m53.6097 224.105c.2174-.428.5878-.759 1.0378-.928.3241-.12.6393-.263.9431-.428l4.2043-2.231c.784-.378 1.8938.516 2.727.781 2.4658.81 7.5753 2.719 7.1511 4.511-.4546 1.931-4.8406 1.019-6.4011.628-.356-.09-3.5755 1.076-4.5982 1.137-1.4052.106-1.7309-.254-2.4203-.614-.3224-.164-.6798-.247-1.0416-.242-.289.005-.5755-.055-.8379-.177-.2625-.121-.4939-.3-.6771-.524-.196-.244-.3171-.541-.3487-.852-.0316-.312.0277-.626.1707-.905z" fill="#fff"></path><path d="m58.2276 228.181c-.684.024-1.3587-.164-1.9317-.538l-.2879-.159c-.2418-.122-.5096-.183-.7802-.178-.3703.002-.7364-.079-1.0714-.237s-.6302-.389-.8641-.676c-.2673-.331-.4332-.731-.4775-1.154-.0444-.423.0346-.85.2275-1.228l.0834-.163c.2798-.559.762-.99 1.3484-1.205.3003-.109.5916-.242.8711-.398l4.2005-2.227c.8219-.405 1.7271.05 2.4543.417.2327.124.4731.233.7197.326 5.386 1.769 7.9161 3.511 7.526 5.177-.0589.237-.1647.46-.3111.655s-.3304.359-.5411.482c-1.4658.894-4.4732.341-6.1776-.084-.25.031-1.0871.281-1.7045.462-.9102.307-1.8437.538-2.7914.694-.1844.022-.3485.034-.4924.034zm2.0226-7.197c-.0641-.003-.128.01-.1856.038l-4.1853 2.22c-.3285.178-.6689.334-1.0189.466-.3155.116-.5743.349-.7234.651l-.0834.159c-.0904.181-.1274.384-.1066.585.0208.202.0985.393.224.551.1295.157.2921.283.4762.369.1841.085.385.129.5882.128.4526-.004.8994.101 1.3029.306l.322.182c.5279.348 1.1679.483 1.7915.379.8599-.157 1.7078-.373 2.5377-.648 1.5567-.462 1.9468-.564 2.2423-.492 2.5111.629 4.5678.716 5.367.231.0837-.045.1571-.108.2158-.182.0586-.075.1012-.162.1251-.254.1667-.723-1.8938-2.234-6.776-3.84-.3-.106-.5924-.233-.875-.379-.3855-.234-.8125-.391-1.2575-.462z" fill="#0e1b3c"></path><path d="m72.6777 293.57c.6061-.617 4.1096-11.533 4.1096-11.533l6.9276 4.951-7.5942 10.226z" fill="#fff"></path><path d="m76.119 297.771c-.0773-.001-.1537-.016-.2247-.047-.0709-.031-.135-.075-.1882-.131l-3.4429-3.633c-.094-.103-.146-.238-.146-.378s.052-.275.146-.379c.4204-.591 2.3672-6.265 3.9883-11.325.028-.089.0771-.17.143-.236.066-.066.1468-.115.2358-.143.0845-.028.1746-.036.2629-.023.0882.013.172.047.2446.099l6.9276 4.946c.0619.045.1143.101.154.166s.0659.138.077.213c.0115.075.0081.151-.0101.225-.0182.073-.0508.142-.0959.203l-7.5942 10.227c-.0495.066-.1128.12-.1853.159-.0726.04-.1528.063-.2351.068zm-2.7423-4.296 2.6892 2.849 6.8443-9.212-5.8216-4.166c-1.0227 3.17-2.8786 8.783-3.7119 10.529z" fill="#0e1b3c"></path><path d="m85.1569 307.372-4.6058-.026c-1.502-.008-2.9786-.389-4.2969-1.109-1.3184-.72-2.4371-1.756-3.2556-3.016l-4.5451-7.223c-.2957-.471-.4914-.998-.5752-1.547-.0837-.55-.0536-1.111.0884-1.649.1421-.537.3931-1.04.7374-1.477s.7747-.798 1.2644-1.061c1.8938-1.012 3.8899-1.996 4.3596-1.951.9469.091 1.3294 4.579 1.3294 4.579l4.102.159s2.0302 8.439 3.8142 9.397c1.1446.637 2.113 1.548 2.8179 2.652.1435.222.2246.479.2346.743.01.265-.0514.527-.1777.759-.1264.233-.3129.427-.5402.563-.2273.135-.4868.207-.7514.207z" fill="#0e1b3c"></path><path d="m84.6965 306.141h-.0871l-6.3064-.958c-.7803-.118-1.5248-.407-2.1798-.847s-1.2041-1.02-1.6078-1.698l-5.5678-9.314c-.0738-.129-.0938-.283-.0556-.427.0381-.144.1313-.267.2594-.343s.281-.099.4257-.063c.1446.036.2695.127.3477.254l5.5678 9.309c.3182.536.7514.993 1.2682 1.341.5169.347 1.1044.575 1.7202.667l6.2988.947c.1507.011.2908.081.3895.196.0988.114.148.263.137.414-.0111.15-.0815.29-.1959.389s-.2632.148-.4139.137z" fill="#fff"></path><path d="m76.9142 299.138c-.1382.001-.2718-.049-.3759-.14s-.1715-.217-.1896-.354c-.0182-.137.0143-.275.0912-.39s.193-.198.3265-.233l3.5112-.959c.1456-.039.3011-.019.4321.056.1311.075.227.198.2667.344s.0199.301-.0551.432c-.0749.131-.1989.227-.3445.267l-3.5111.958c-.0497.012-.1005.018-.1515.019z" fill="#fff"></path><path d="m78.7438 300.941c-.1507.017-.3022-.026-.4212-.12s-.1957-.231-.2133-.382.0254-.302.1196-.421c.0941-.119.2316-.196.3823-.213l2.3521-.58c.1467-.036.3015-.011.4304.067s.2214.205.257.352c.0357.146.0116.301-.0668.43-.0785.129-.205.221-.3517.257l-2.3521.576c-.0438.017-.0896.028-.1363.034z" fill="#fff"></path><path d="m96.3066 291.487 8.0414 8.09 4.265-1.568-7.413-10.347z" fill="#fff"></path><path d="m104.353 300.145c-.153-.001-.298-.062-.406-.17l-8.0408-8.087c-.0564-.057-.1001-.126-.1281-.202-.0281-.076-.0399-.157-.0347-.237.005-.08.0269-.157.0641-.228.0372-.07.0889-.132.1518-.181l4.8937-3.829c.06-.048.13-.082.204-.101.074-.02.152-.024.228-.013.075.011.147.038.212.077.065.04.122.092.166.154l7.413 10.348c.052.071.087.153.101.24.015.087.008.176-.018.26-.025.085-.069.164-.13.23-.06.066-.135.116-.218.148l-4.261 1.557c-.063.024-.13.036-.197.034zm-7.1968-8.605 7.3328 7.378 3.223-1.185-6.636-9.261z" fill="#0e1b3c"></path><path d="m53.7421 231.764s36.7399-4.507 47.6819 5.466c10.943 9.972-17.2522 52.863-17.2522 52.863l-8.9008-6.969 8.4539-30.301-33.9749-10.173z" fill="#5d8deb"></path><path d="m33.5131 251.505c5.3406 1.788 14.8929 4.098 28.2443 3.905 1.8924-.008 3.7474.527 5.3456 1.541 1.5981 1.013 2.8726 2.463 3.6727 4.178 3.9542 8.178 12.4991 22.896 26.4565 32.441l6.6628-3.787-16.9992-40.331c-.7389-1.794-1.8318-3.421-3.2133-4.784-1.3816-1.363-3.0235-2.433-4.8278-3.147l-33.6833-13.022s-10.4462-3.079-15.5671 6.749c-.9128 1.758-2.6135-1.382-3.0301.035-1.3749 4.855 2.3559 14.688 6.9389 16.222z" fill="#5d8deb"></path><path d="m94.5875 269.549c-.1098 0-.2173-.032-.3093-.092-.0921-.059-.1649-.145-.2096-.245l-7.6813-17.309c-.7402-1.659-1.8043-3.153-3.1299-4.395-1.3256-1.241-2.8858-2.206-4.5892-2.836l-16.1428-5.92c-.1315-.058-.2362-.163-.2932-.295-.0569-.131-.062-.28-.014-.415s.1454-.248.2726-.314c.1273-.066.2749-.082.4133-.044l16.1542 5.924c1.8458.683 3.5364 1.728 4.9725 3.074 1.4362 1.346 2.5889 2.965 3.3906 4.762l7.6812 17.31c.0315.068.0491.142.0516.218.0026.075-.0099.15-.0367.221-.0268.07-.0673.135-.1193.189-.052.055-.1143.099-.1834.129-.0728.027-.1498.04-.2273.038z" fill="#fff"></path><path d="m85.6078 284.431c-.0765 0-.1521-.016-.2224-.046-.0704-.03-.1339-.073-.1867-.129-1.5491-1.617-3.0755-3.348-4.5451-5.155-.0526-.057-.0928-.124-.1183-.198-.0254-.073-.0356-.151-.0298-.228.0058-.078.0274-.153.0635-.222.036-.069.0858-.129.1463-.178.0604-.049.1302-.085.2051-.105.0748-.021.1531-.026.23-.016.077.011.1509.037.2172.078.0663.04.1237.094.1685.157 1.4393 1.777 2.943 3.489 4.4732 5.079.1039.109.1603.255.1567.406-.0035.15-.0667.293-.1757.397-.1025.1-.2394.157-.3825.16z" fill="#fff"></path><path d="m81.1075 279.313c-.085 0-.169-.019-.2457-.055-.0767-.037-.1442-.091-.1975-.157-.7158-.882-1.4279-1.803-2.121-2.734-.0503-.06-.0879-.128-.1105-.203-.0226-.074-.0297-.152-.021-.229.0088-.077.0332-.152.0719-.219.0387-.068.0907-.126.153-.173.0622-.046.1333-.079.2088-.097.0756-.018.154-.02.2304-.007.0765.014.1493.043.214.086.0648.043.12.099.1624.164.6856.92 1.3901 1.829 2.0946 2.7.0685.083.112.184.1252.29.0133.107-.0041.215-.0503.312-.0461.097-.1191.179-.2102.236s-.1966.087-.3041.086z" fill="#fff"></path><path d="m101.81 298.309c-.215 2.163-.123 4.346.273 6.484.175.787.615 1.49 1.245 1.992.631.503 1.414.774 2.221.769h19.737c.305-.006.601-.105.849-.282s.437-.426.542-.712c.104-.287.12-.598.045-.894-.075-.295-.238-.561-.467-.763-3.511-2.943-9.965-7.439-17.904-8.757l-2.215 3.102z" fill="#0e1b3c"></path><path d="m124.347 305.414h-20.453c-.15 0-.295-.06-.401-.166-.107-.107-.167-.251-.167-.402s.06-.295.167-.402c.106-.106.251-.166.401-.166h20.453c.151 0 .296.06.402.166.107.107.167.251.167.402s-.06.295-.167.402c-.106.106-.251.166-.402.166z" fill="#fff"></path><path d="m112.934 301.767c-.074-.001-.147-.015-.216-.042-.071-.028-.135-.07-.19-.124-.054-.054-.097-.118-.126-.189-.029-.07-.044-.146-.043-.223.001-.076.018-.152.049-.222l1.083-2.628c.025-.073.065-.14.118-.197.052-.057.115-.103.185-.134.071-.032.147-.049.224-.05.078-.002.154.013.226.042.071.03.136.073.19.129.054.055.096.121.124.193.027.072.04.149.037.226s-.022.153-.055.223l-1.083 2.628c-.039.107-.111.2-.204.266-.093.065-.205.101-.319.102z" fill="#fff"></path><path d="m116.495 302.46c-.061-.001-.123-.011-.181-.031-.073-.022-.14-.058-.198-.106-.059-.048-.107-.108-.142-.175-.035-.066-.057-.14-.064-.215-.006-.075.002-.151.025-.223l.784-2.371c.047-.144.149-.262.284-.33.134-.068.29-.079.434-.032.143.047.261.149.329.284.068.134.08.29.032.434l-.784 2.374c-.036.11-.106.207-.198.276-.093.07-.205.11-.321.115z" fill="#fff"></path><path d="m127.123 228.946h-122.62425c-2.27257 0-4.060319 2.147-3.787611 4.598l8.469111 80.267h6.11325l-5.3027-75.332c-.03293-.302-.00348-.608.0865-.898.09-.291.2387-.56.4368-.791.1981-.23.4414-.418.7149-.551.2736-.133.5715-.208.8753-.222h105.2467c1.848 0 3.303 1.697 3.162 3.682l-5.249 74.582h6.117l8.609-81.866c.201-1.848-1.144-3.469-2.867-3.469z" fill="#fff"></path><path d="m121.893 314.849h-7.231l5.303-75.188c.034-.411-.018-.826-.151-1.217-.134-.391-.347-.75-.626-1.055-.23-.254-.51-.458-.823-.598s-.652-.214-.995-.217h-105.2803c-.2031.002-.4037.046-.5889.13-.1852.083-.351.204-.4868.355-.167.184-.2948.4-.3756.636-.0807.235-.1128.484-.094.732l5.3443 75.941h-7.23436l-8.522133-80.774c-.0765753-.681-.00925-1.369.197599-2.022.20685-.652.5486-1.254 1.003074-1.766.39518-.451.88201-.813 1.42802-1.061s1.13866-.377 1.73843-.378h122.62367c.473.001.939.103 1.369.299s.813.481 1.124.837c.355.401.623.872.785 1.383s.214 1.05.154 1.583zm-6.019-1.136h4.992l8.568-81.358c.043-.374.006-.752-.107-1.111-.112-.359-.299-.69-.548-.972-.205-.236-.458-.426-.743-.556-.284-.131-.592-.2-.905-.202h-122.63167c-.44038.003-.8752.099-1.27553.282-.40033.184-.75699.451-1.04628.783-.34775.393-.60904.854-.76694 1.355-.1579.5-.20889 1.028-.14966 1.55l8.41608 79.759h4.9921l-5.25724-74.725c-.03193-.403.01881-.807.14909-1.189.13028-.381.33735-.732.60845-1.031.2401-.264.5323-.476.8582-.622s.6785-.223 1.0356-.226h105.2878c.499.002.993.107 1.449.309s.866.497 1.203.865c.382.419.674.911.859 1.447s.259 1.104.216 1.67z" fill="#0e1b3c"></path><path d="m187.587 8.63545c-1.606-.14772-3.087 1.58325-3.871 2.98845-.951 1.6984-1.467 3.6055-1.503 5.5516-.036 1.9462.41 3.871 1.299 5.603.888 1.732 2.19 3.2176 3.791 4.3245 1.602 1.1068 3.451 1.8007 5.386 2.0197 2.901.3484 5.628-.5379 8.51.4734 3.159 1.106 6.083 3.8899 9.469 4.0566 3.557.1742 7.079-1.9393 10.469-2.9089 4.47-1.2765 8.932-2.7385 12.916-5.1323 1.837-1.1059 3.617-2.4657 4.617-4.3633 2.099-3.9732-.288-5.6473-3.284-7.4578-3.961-2.3976-3.617-7.63205-9.329-7.54493-2.246.03409-4.469.70071-6.704.51133-4.859-.40149-9.2-4.7421-13.949-3.64369-4.864 1.13628-7.151 7.34799-12.25 7.86689-1.571.1591-3.03-.7803-4.264-1.77641-.368-.31532-.822-.51321-1.303-.56814z" fill="#0e1b3c"></path><path d="m219.201 75.1275s-6.397 2.3824-8.909.3788c-2.511-2.0037 3.89-5.3936 5.398-5.1436 1.507.25 3.511 4.7648 3.511 4.7648z" fill="#0e1b3c"></path><path d="m251.369 126.256-6.022 10.537-3.261-4.515 5.269-10.287z" fill="#fff"></path><path d="m245.335 137.361c-.089 0-.178-.021-.257-.062-.08-.041-.149-.1-.201-.173l-3.261-4.514c-.062-.086-.099-.186-.107-.291s.014-.21.061-.304l5.28-10.302c.041-.081.102-.151.175-.204.074-.053.16-.087.25-.1.09-.012.182-.003.267.027.086.031.163.081.225.148l4.007 4.295c.085.088.138.201.152.322.015.121-.011.243-.072.348l-6.023 10.541c-.047.083-.114.152-.194.201-.081.05-.173.078-.268.083zm-2.598-5.136 2.545 3.523 5.375-9.409-3.174-3.371z" fill="#0e1b3c"></path><path d="m247.432 135.187c-1.587 3.273-5.609 11.212-9.469 15.018-.215.213-.482.365-.774.442s-.6.076-.891-.004c-.292-.079-.558-.234-.771-.448-.213-.215-.365-.481-.443-.774-1.212-4.583-2.022-14.131 2.496-21.661 0 0 2.148-.25 6.163.504l-.894 3.765.492-.353c.361-.258.797-.388 1.24-.369.443.02.867.187 1.203.475l1.156.993c.337.291.568.686.657 1.122.089.437.031.89-.165 1.29z" fill="#0e1b3c"></path><path d="m237.322 149.406c-.117-.001-.231-.038-.327-.105-.095-.068-.168-.164-.207-.274-3.553-9.393 1.068-20.055 1.265-20.502.061-.138.174-.247.315-.301.14-.055.297-.052.435.009s.246.174.301.315c.055.14.051.297-.009.435-.046.106-4.629 10.689-1.243 19.643.053.14.048.296-.014.433-.061.137-.175.244-.315.298-.064.029-.132.045-.201.049z" fill="#fff"></path><path d="m245.096 140.32c-.11-.001-.217-.033-.31-.091l-3.012-1.955c-.126-.082-.215-.211-.246-.359s-.003-.302.08-.429c.082-.126.211-.215.359-.246s.302-.003.429.08l3.03 1.954c.103.067.182.165.224.28.043.115.047.241.012.359s-.107.221-.206.294c-.098.074-.218.113-.341.113z" fill="#fff"></path><path d="m243.591 142.993c-.125 0-.246-.041-.345-.117l-2.757-2.117c-.068-.041-.127-.096-.172-.162-.046-.065-.077-.139-.092-.217s-.013-.159.005-.236c.018-.078.052-.151.1-.214s.109-.116.178-.155c.07-.038.147-.061.226-.068s.159.003.234.029.144.067.203.121l2.761 2.118c.094.072.163.172.198.286.034.114.032.236-.007.348-.038.113-.111.21-.208.279s-.213.106-.332.105z" fill="#fff"></path><path d="m270.44 126.506c0 .25 5.519 12.295 5.519 12.295l-6.273.504-4.276-10.287z" fill="#fff"></path><path d="m269.686 139.873c-.112-.001-.222-.035-.315-.098-.094-.063-.167-.151-.211-.254l-4.265-10.288c-.055-.133-.058-.282-.007-.417.05-.135.15-.246.28-.31l5.015-2.507c.086-.044.183-.064.28-.059.096.004.19.034.273.085.067.041.125.096.169.162.045.065.075.139.088.217.216.629 3.386 7.602 5.481 12.181.039.083.056.174.052.265-.005.091-.032.179-.079.258-.046.078-.11.145-.187.194-.077.048-.165.078-.256.086l-6.272.5zm-3.518-10.583 3.905 9.416 5.049-.401c-3.273-7.151-4.5-9.912-4.958-11.011z" fill="#0e1b3c"></path><path d="m270.186 136.293s1.258-3.03 4.519-1.515c0 0 5.984 8.651 8.212 15.791.138.453.143.937.014 1.393s-.387.865-.742 1.179c-.356.313-.795.517-1.263.588-.469.07-.948.004-1.38-.191-4.515-2.037-11.587-6.314-15.632-14.241 0 0 1.254-3.265 3.261-4.769z" fill="#0e1b3c"></path><path d="m281.093 151.936c-1.727 0-8.015-.856-16.135-12.048-.044-.061-.076-.129-.093-.202-.017-.072-.02-.147-.008-.221s.038-.144.077-.208.09-.119.151-.163c.06-.043.128-.075.201-.092s.148-.02.222-.009c.073.012.144.038.207.078.064.039.119.09.163.15 8.912 12.283 15.453 11.571 15.529 11.564.151-.022.304.017.426.109.122.091.202.227.224.378.021.15-.018.303-.109.425s-.227.203-.378.224c-.158.015-.318.02-.477.015z" fill="#fff"></path><path d="m275.957 145.141c-.125.001-.247-.04-.347-.115-.1-.076-.173-.183-.205-.304-.033-.121-.025-.25.023-.366s.133-.213.242-.275l3.011-1.758c.13-.076.286-.097.432-.058s.27.134.346.265c.076.13.097.286.058.431-.039.146-.134.271-.264.347l-3.012 1.754c-.085.052-.183.079-.284.079z" fill="#fff"></path><path d="m274.454 142.884c-.127.001-.25-.041-.35-.119-.101-.077-.172-.186-.204-.309-.031-.122-.02-.252.031-.368.05-.116.139-.212.25-.272l3.261-1.758c.066-.035.138-.057.212-.065s.15-.001.221.02c.072.022.138.057.196.104s.106.105.142.171c.036.065.058.137.066.211.007.075 0 .15-.021.221-.021.072-.056.139-.103.197s-.105.106-.171.141l-3.261 1.758c-.083.044-.175.067-.269.068z" fill="#fff"></path><path d="m238.32 65.7871s16.355 2.9203 28.139 15.2792c1.464 1.534 2.491 3.4316 2.974 5.4962.484 2.0646.406 4.221-.225 6.2455-2.617 8.443-8.332 23.862-17.839 35.471l-7.276-6.272s1.757-14.552 6.522-23.5858c4.765-9.0335-23.082-28.6192-23.082-28.6192z" fill="#fff"></path><path d="m251.369 128.832c-.139.002-.274-.048-.379-.14l-7.276-6.272c-.07-.061-.125-.138-.159-.224-.034-.087-.045-.18-.034-.273 0-.147 1.826-14.771 6.587-23.782 1.818-3.443-1.515-9.3251-9.643-17.0102-4.187-3.8951-8.615-7.5232-13.257-10.8629-.085-.0593-.152-.1408-.194-.2356s-.058-.1993-.045-.3022c.014-.1043.057-.2025.124-.2835.067-.0811.155-.1417.255-.1748l10.791-4.0149c.095-.0371.199-.0463.299-.0265.163.0303 16.666 3.0945 28.449 15.4421 1.53 1.6064 2.604 3.592 3.111 5.7519.506 2.1599.428 4.4158-.229 6.5351-2.568 8.2835-8.332 23.9305-17.945 35.6645-.095.115-.231.188-.379.204zm-6.674-7.071 6.602 5.681c9.287-11.53 14.859-26.729 17.37-34.8272.597-1.9257.669-3.9757.209-5.9386-.46-1.9628-1.436-3.7673-2.826-5.2273-10.923-11.4499-26.021-14.7451-27.68-15.0785l-9.639 3.5869c4.81 3.4922 26.892 20.1653 22.388 28.7064-4.268 8.1353-6.139 20.9793-6.424 23.0973z" fill="#0e1b3c"></path><path d="m272.446 128.764-8.534 2.511s-15.556-32.8692-20.074-37.6378c-4.519-4.7686-13.298-12.5446-22.582-15.302-9.283-2.7573-9.283-9.7872-9.283-9.7872l15.805-4.5148s22.082 9.5334 29.358 20.3206c7.276 10.7871 15.31 44.4102 15.31 44.4102z" fill="#fff"></path><path d="m263.914 131.843c-.108-.001-.213-.032-.303-.089-.091-.058-.163-.14-.209-.237-.155-.33-15.571-32.8388-19.972-37.4976-2.651-2.7763-12.029-12.0862-22.347-15.1504-9.579-2.8483-9.688-10.2531-9.688-10.3288-.001-.1236.039-.2439.114-.3424.074-.0986.179-.1699.298-.2031l15.806-4.5186c.126-.0339.259-.0246.379.0265.905.3788 22.316 9.7228 29.6 20.5251s15.079 43.2283 15.393 44.6063c.034.14.015.287-.056.413-.07.125-.186.219-.323.262l-8.53 2.511c-.053.015-.107.022-.162.023zm-51.338-62.8748c.167 1.515 1.292 6.5753 8.848 8.8213 10.571 3.1437 20.146 12.6279 22.832 15.4573 4.291 4.5451 18.021 33.2592 19.964 37.3462l7.545-2.22c-1.053-4.31-8.454-33.8536-15.097-43.7014-6.75-10.0069-26.782-19.0896-28.926-20.0365z" fill="#0e1b3c"></path><path d="m199.18 42.7053c4.268-8.5297 11.309-9.7872 11.309-9.7872l12.045-1.0037c3.765-.2538 7.769 2.0718 9.257 5.5413l11.067 25.8239s-2.272 6.0223-12.294 7.0261c-10.022 1.0037-16.938.3787-20.199 4.3898-2.148 2.6513-2.08-15.0027-.845-28.9639z" fill="#5d8deb"></path><path d="m231.297 65.2792-5.522-2.5112-4.265 1.7537s-22.881-2.8975-12.651-19.2714c.046-.0682-8.041-1.7044-8.041-1.7044s-9.325 22.2295 20.192 22.7257c0 0 1.515.5 3.511-.5038 1.996-1.0037 5.518 1.0265 6.776-.4886z" fill="#fff"></path><path d="m222.014 66.9837c-.367.0035-.734-.0397-1.09-.1288-9.901-.178-16.579-2.8104-19.851-7.8176-4.432-6.7912-.928-15.3399-.758-15.6997.051-.1211.142-.2208.258-.2822.116-.0615.25-.0809.379-.0549 8.294 1.6779 8.294 1.6779 8.45 2.0377.037.0879.053.1837.044.279-.008.0952-.041.1868-.094.2664-2.598 4.1664-3.208 7.7609-1.814 10.7001 2.773 5.8405 12.598 7.4881 13.912 7.685l4.11-1.7195c.071-.031.148-.047.225-.047.078 0 .154.016.225.047l5.523 2.5074c.077.0361.146.0888.201.1542s.095.142.117.2245c.019.0856.019.1745-.002.2598-.02.0853-.06.1649-.115.2326-.872 1.0454-2.402.8181-3.879.5985-1.136-.1667-2.299-.3409-3.079.0492-.853.4488-1.798.6914-2.762.7083zm-20.831-22.7712c-.633 1.7878-2.72 8.7532.848 14.2074 3.06 4.6815 9.469 7.1396 18.987 7.3025.058.0006.116.0108.171.0303.049 0 1.329.4015 3.079-.4735 1.099-.5492 2.447-.3484 3.754-.1552.631.1211 1.273.1782 1.916.1704l-4.166-1.8938-4.038 1.6627c-.091.0372-.19.0503-.288.0379-.477-.0606-11.715-1.5567-14.938-8.3327-1.515-3.1475-.996-6.8897 1.477-11.1242-1.386-.3258-4.515-.9697-6.802-1.4318z" fill="#0e1b3c"></path><path d="m209.959 46.8485-11.211-3.1589.432-.9734s1.276-.9734 1.515-.9734 6.579-.2462 6.579-.2462l3.897 1.2196z" fill="#5d8deb"></path><path d="m252.43 66.9343h-21.76l16.131-24.8127c.254-.3848.599-.7003 1.005-.9179s.86-.3304 1.321-.3282h17.662c.25-.0066.497.055.716.1782.218.1232.398.3033.522.5211s.186.4652.18.7156-.08.4945-.214.7061z" fill="#0e1b3c"></path><path d="m256.77 49.576c-.708 1.0871-2.231 1.9696-3.409 1.9696s-1.545-.8825-.837-1.9696c.708-1.087 2.227-1.9696 3.409-1.9696s1.541.8826.837 1.9696z" fill="#fff"></path><path d="m253.373 52.1135c-1.004 0-1.424-.5038-1.587-.803-.307-.5643-.205-1.3067.272-2.0453.815-1.2499 2.515-2.2271 3.875-2.2271 1 0 1.424.5037 1.587.803.303.5605.205 1.3067-.276 2.0453-.811 1.2461-2.512 2.2271-3.871 2.2271zm2.56-3.9391c-.981 0-2.318.784-2.92 1.712-.284.4355-.303.7575-.227.8825.075.125.288.2083.587.2083.981 0 2.318-.784 2.92-1.712.284-.4356.299-.7575.227-.8825s-.291-.2083-.579-.2083z" fill="#0e1b3c"></path><path d="m215.81 66.7758h36.695v.0378c0 .5264-.209 1.0312-.582 1.4034-.372.3722-.877.5813-1.403.5813h-32.733c-.526 0-1.031-.2091-1.403-.5813s-.581-.877-.581-1.4034v-.0416z" fill="#0e1b3c"></path><path d="m218.499 31.1643c.224-.1136 3.243-3.6739 5.011-5.7723-.121-.542-.144-1.1013-.068-1.6514-.261-.2763-.449-.6143-.544-.9826s-.096-.7548-.001-1.1233c.424-1.3863 1.738-.2727 1.738-.2727s.61-1.0643 2.898.7575c2.288 1.8219 4.704-.3977 4.704-.3977s0 1.3749-1.208 3.0301c-.667.9204-.78 2.1362-.811 3.2725l-1.284-.1818c-.567.7408-1.329 1.3098-2.2 1.6438-.575-.1395-1.11-.412-1.561-.7954l-1.405 3.2006 1.435.7575s.322 2.0074-3.442 2.5112c-3.765.5037-6.773-2.5112-6.773-2.5112s2.008-.731 3.511-1.4848z" fill="#fff"></path><path d="m220.902 35.804c-3.537 0-6.192-2.6135-6.314-2.7347-.067-.0667-.117-.1494-.144-.2405-.028-.0911-.031-.1876-.011-.2806.02-.0929.063-.1793.125-.2511s.142-.1267.231-.1595c0 0 1.951-.7348 3.409-1.4545.167-.1553.954-.9961 4.704-5.4466-.067-.431-.078-.8689-.034-1.3029-.277-.3398-.468-.7413-.557-1.1704-.089-.4292-.073-.8735.046-1.2954.052-.2407.166-.4637.331-.647s.374-.3205.608-.3983c.452-.0996.924-.0166 1.314.231.128-.066.265-.1132.406-.1401.757-.144 1.727.2499 2.878 1.1741 1.894 1.5151 3.879-.2954 3.966-.3787.08-.0757.182-.1261.291-.1448.108-.0188.221-.0051.322.0392.101.0444.187.1176.247.2104s.092.2012.091.3118c0 .0644 0 1.5794-1.318 3.3786-.565.784-.671 1.8938-.701 2.9581-.003.08-.023.1586-.058.2305-.035.072-.085.1357-.147.1871-.061.0514-.133.0894-.21.1114s-.157.0276-.237.0164l-.973-.1401c-.594.6978-1.353 1.2356-2.208 1.5642-.102.0416-.214.0534-.322.0341-.43-.0971-.841-.2647-1.216-.4961l-.913 2.0831.962.5038c.078.0414.146.1002.198.1717.052.0716.086.1541.101.2411.054.5586-.111 1.1161-.458 1.5568-.625.8446-1.791 1.3824-3.469 1.6059-.312.0444-.625.0684-.94.072zm-4.817-2.9544c1.049.7954 3.181 2.0908 5.605 1.7651 2.314-.3068 2.818-1.178 2.924-1.6136l-1.106-.5833c-.128-.0659-.226-.1783-.274-.3143-.048-.1359-.042-.285.017-.4167l1.405-3.2005c.036-.0799.09-.1504.157-.2062.068-.0557.148-.0952.233-.1153s.174-.0204.259-.0008c.086.0197.165.0586.233.114.336.2828.721.5 1.137.6401.714-.3104 1.337-.798 1.81-1.4166.062-.0736.142-.1302.232-.1646.09-.0345.188-.0456.283-.0323l.659.0946c.013-1.0489.322-2.0729.89-2.9543.332-.4526.603-.9467.807-1.4696-.662.3511-1.412.5002-2.158.4288s-1.455-.3601-2.039-.8303c-1.23-.9848-1.806-.9734-1.954-.9431-.02.0019-.04.0019-.061 0-.005-.0027-.011-.004-.017-.004-.005 0-.011.0013-.017.004-.039.071-.093.1326-.158.1804-.066.0478-.141.0806-.22.0961-.082.0152-.167.0118-.247-.0098-.081-.0216-.156-.061-.219-.1152-.18-.1684-.413-.2677-.659-.2803-.042 0-.11.0947-.171.2879-.064.2699-.06.5514.011.8195.07.2682.206.5149.395.7183.056.0565.099.124.128.1984.029.0743.042.1538.038.2334v.1401c-.063.4506-.043.9091.061 1.3522.019.0864.018.1762-.003.2622-.021.0861-.061.1661-.118.234-4.826 5.7306-5.027 5.8329-5.189 5.9124-.894.4583-1.943.8977-2.674 1.1893z" fill="#0e1b3c"></path><path d="m225.175 28.7176-.413-.3787z" fill="#fff"></path><path d="m225.173 29.2971c-.141.0003-.276-.0525-.379-.1477l-.417-.3788c-.055-.0502-.1-.1108-.131-.1783-.032-.0676-.05-.1407-.054-.2153-.003-.0746.008-.1491.033-.2193.025-.0703.064-.1348.115-.19.049-.0559.109-.1013.176-.1337s.14-.051.214-.0549c.075-.0039.149.0071.219.0323s.135.0642.19.1146l.416.3788c.086.0766.147.1776.174.2896.028.1119.02.2295-.021.3372-.041.1076-.114.2002-.209.2655s-.207.1002-.322.1z" fill="#0e1b3c"></path><path d="m281.896 174.226.58 2.47 2.769-.027c.233.542.512 1.062.833 1.557l-1.549 2.273 1.735 1.844 2.386-1.405c.478.353.984.665 1.515.932l-.197 2.761 2.424.731 1.364-2.405c.585.066 1.176.082 1.765.049l1.208 2.489 2.465-.58-.022-2.765c.541-.234 1.061-.513 1.556-.833l2.273 1.549 1.845-1.735-1.406-2.386c.353-.477.664-.984.928-1.515l2.762.197.734-2.424-2.409-1.364c.067-.585.085-1.176.053-1.765l2.489-1.208-.58-2.469-2.768.026c-.231-.542-.509-1.063-.83-1.557l1.549-2.272-1.734-1.845-2.387 1.405c-.478-.351-.985-.663-1.515-.931l.197-2.761-2.428-.731-1.359 2.408c-.586-.069-1.177-.086-1.765-.053l-1.209-2.488-2.469.579.026 2.765c-.541.234-1.062.513-1.556.834l-2.273-1.549-1.848 1.734 1.405 2.386c-.35.479-.661.986-.928 1.516l-2.761-.197-.731 2.424 2.405 1.363c-.066.586-.082 1.177-.049 1.765zm11.56-8.113c1.256-.295 2.571-.211 3.78.241 1.208.452 2.255 1.252 3.008 2.299.754 1.047 1.18 2.294 1.224 3.584.045 1.289-.294 2.563-.973 3.659-.679 1.097-1.669 1.968-2.843 2.502-1.174.535-2.48.709-3.753.501-1.274-.208-2.456-.789-3.4-1.669-.943-.88-1.603-2.02-1.898-3.276-.395-1.684-.105-3.455.805-4.925.911-1.47 2.367-2.519 4.05-2.916z" fill="#a3bef4"></path><path d="m18.1777 91.3383.5795 2.4695 2.7688-.0265c.2337.5413.5125 1.062.8333 1.5567l-1.5492 2.2915 1.7348 1.8446 2.3861-1.4052c.4779.3527.9847.6644 1.5151.9317l-.197 2.7614 2.4241.731 1.3636-2.405c.5859.066 1.1763.082 1.765.049l1.2082 2.488 2.4658-.579-.0228-2.7651c.5409-.2345 1.0616-.5132 1.5568-.8333l2.2915 1.5492 1.8445-1.7348-1.4052-2.3862c.3529-.477.6634-.9839.928-1.515l2.7612.1969.7348-2.424-2.409-1.3636c.0671-.5858.0848-1.1762.0531-1.765l2.4884-1.2082-.5946-2.4431-2.765.0266c-.2337-.5413-.5125-1.0621-.8333-1.5568l1.5492-2.2915-1.7348-1.8597-2.3862 1.4052c-.4778-.3527-.9846-.6644-1.515-.9317l.197-2.7612-2.4128-.7424-1.3597 2.409c-.5857-.069-1.1763-.0867-1.765-.0531l-1.2083-2.4884-2.4695.5795.0265 2.7649c-.5413.2338-1.062.5125-1.5567.8333l-2.2915-1.5491-1.8484 1.7347 1.409 2.3862c-.3527.4779-.6644.9847-.9317 1.515l-2.7612-.1969-.731 2.4241 2.4165 1.3824c-.0658.586-.0823 1.1764-.0493 1.7651zm11.5636-8.1131c1.2557-.2977 2.5714-.2162 3.7807.2342 1.2093.4503 2.2579 1.2493 3.0129 2.2957.7551 1.0465 1.1828 2.2934 1.229 3.5831.0462 1.2896-.2912 2.5639-.9695 3.6617s-1.667 1.9697-2.841 2.5054-2.4805.7111-3.7543.504c-1.2737-.2071-2.4573-.7873-3.4012-1.6673-.9438-.8801-1.6054-2.0203-1.9009-3.2764-.3969-1.6821-.1095-3.4529.7989-4.9232.9084-1.4702 2.3635-2.5195 4.0454-2.9172z" fill="#a3bef4"></path></g></svg> 