<?xml version="1.0" encoding="UTF-8"?> <svg xmlns="http://www.w3.org/2000/svg" fill="none" height="163" viewBox="0 0 474 163" width="474"><path d="m93.17 143.11c-2.72-1.49-3.35-6.34-4.2-9s-2-2.54-2.85-4c-.4425-.589-.7405-1.274-.87-2l-1.45-.74c-1.45-.75-2.52-2.2-1.91-4.7.3559-1.583.3933-3.222.11-4.82-.9041-.359-1.7097-.928-2.35-1.66-.53-.91-1.1 0-3.22-3.47s4-6.36 6.23-8.82c.6432-.784 1.0731-1.72 1.2483-2.719.1752-.998.0897-2.0252-.2483-2.981-.7692-.3517-1.497-.7877-2.17-1.3 2 1 2-.31 2-.31s-.82-4.49-2.78-7-4.84-4.93-4.56-17.28 18-27.35 18-27.35c.0411-.6713.2736-1.3167.67-1.86 5.6-4.24 11.34-.27 9.77-2.55-10-9.94-21.35-4.65-31.93-12.91-9.57-7.48-20-2.19-20-2.19s-2.51-18.44-4-22.47-4.66-2.8999986-7.08 3.02c4.32 1.1 5.86 17.4 5.86 17.4s-.26 4.12-6 2.61c-24.04-6.39-43.35 10.68-40.440001 11.62 28.240001 8.65 32.780001 44.63 32.700001 48.37s-2.51 6.35-2.63 7.69c-.16 1.83 1.39 1.29 1.34 1.36-.1667.1962-.3816.3454-.6236.4331-.2421.0877-.5028.1108-.7564.0669 0 0 0 .8-.35 3.46-.14 6.14 9.28 13.28 8.35 17.8s-4.73 3.91-7.75 4.38c-.29.79 2.66 3.25 2.07 5.38s-3.33 2.6-3.33 2.6 2.14 1.91 2.09 4.05-2.49 1.55-3.9 3.12 2.78 9.43-.73 12.28c-5.74 4.68-13-1.34-8.77 3.74 16.23 19.64 25.48 6.07 38.29 6.07 13.4 0 25.37 12.62 36.22-15.32" fill="#f26722"></path><path d="m328.07 56.55 25.71-26.71c.186-.1905.311-.4321.359-.6939s.017-.532-.089-.7761c-.103-.2465-.277-.4569-.499-.6046-.223-.1478-.484-.2262-.751-.2254h-17.52c-.188-.001-.375.0376-.547.1135-.172.0758-.327.187-.453.3265l-23.78 25.81v-24.89c.001-.1781-.033-.3547-.1-.5197-.067-.1649-.166-.3149-.292-.4414-.125-.1264-.275-.2267-.439-.2952s-.341-.1037-.519-.1037h-14.28c-.361 0-.707.1433-.962.3983-.255.2551-.398.601-.398.9617v64.89c0 .1781.035.3545.104.519.068.1644.169.3137.295.4392s.276.2247.441.2919c.165.0673.342.1012.52.0999h14.28c.178.0013.354-.0327.518-.1.165-.0674.314-.1668.44-.2924.125-.1257.225-.275.292-.4394s.101-.3405.1-.5182v-19.29l6-6.23 19.16 26.32c.127.1722.293.3119.484.4075.191.0957.402.1445.616.1425h17.15c.251.0011.496-.0676.71-.1983s.387-.3182.5-.5417c.108-.2224.154-.4701.133-.7166-.021-.2464-.108-.4826-.253-.6834z" fill="#f26722"></path><path d="m382.56 27.54h-14.27c-.751 0-1.36.6089-1.36 1.36v64.88c0 .7511.609 1.36 1.36 1.36h14.27c.751 0 1.36-.6089 1.36-1.36v-64.88c0-.7511-.609-1.36-1.36-1.36z" fill="#f26722"></path><path d="m426.82 27.54h-25.31c-.361 0-.707.1433-.962.3983-.255.2551-.398.601-.398.9617v64.89c0 .1781.035.3545.104.5189.068.1645.168.3137.295.4392.126.1255.276.2247.441.292s.342.1012.52.0999h25.31c20.76 0 35.84-14.21 35.84-33.8v-.18c0-19.48-15.08-33.62-35.84-33.62zm-9.68 15.6h9.68c10.88 0 18.2 7.32 18.2 18.2v.19c0 10.77-7.32 18-18.2 18h-9.68z" fill="#f26722"></path><g fill="#a39c92"><path d="m185 27.54h-14.06c-.361 0-.707.1433-.962.3983-.255.2551-.398.601-.398.9617v35.92l-28-36.74c-.126-.1671-.289-.3028-.477-.3964-.187-.0937-.394-.1428-.603-.1436h-13.12c-.18-.0026-.359.0306-.527.0977-.167.0672-.319.167-.448.2935-.128.1266-.23.2774-.3.4437-.069.1663-.105.3448-.105.5251v64.89c0 .1781.035.3545.104.519.068.1644.169.3137.295.4392s.276.2247.441.2919c.165.0673.342.1012.52.0999h14.08c.178.0013.355-.0326.52-.0999.165-.0672.315-.1664.441-.2919s.227-.2748.295-.4392c.069-.1645.104-.3409.104-.519v-37.23l29 38.05c.126.167.289.302.477.3941.187.0921.394.1386.603.1359h12.12c.178.0013.355-.0326.52-.0999.165-.0672.315-.1664.441-.2919s.227-.2748.295-.4392c.069-.1645.104-.3409.104-.519v-64.89c0-.1786-.035-.3554-.104-.5204-.068-.165-.168-.315-.294-.4413-.127-.1262-.277-.2264-.442-.2948-.165-.0683-.341-.1035-.52-.1035z"></path><path d="m233.94 26.43c-20.15 0-35.93 15.34-35.93 34.91v.19c0 19.8 15.37 34.73 35.75 34.73 20.15 0 35.93-15.34 35.93-34.92v-.18c0-19.8-15.37-34.73-35.75-34.73zm-18.29 34.73c0-10.75 7.79-18.85 18.11-18.85s18.29 8.18 18.29 19v.19c0 10.74-7.78 18.85-18.11 18.85s-18.29-8.19-18.29-19z"></path><path d="m167.75 110.54h-10.41c-.351.003-.687.144-.934.393s-.386.586-.386.937v17.4h-16.55v-17.4c-.003-.352-.144-.689-.392-.938-.249-.248-.586-.389-.938-.392h-10.41c-.351.003-.687.144-.934.393s-.386.586-.386.937v47.31c0 .35.139.686.387.933.247.248.583.387.933.387h10.41c.351 0 .688-.139.937-.386s.39-.583.393-.934v-17.67h16.53v17.67c0 .35.139.686.387.933.247.248.583.387.933.387h10.41c.35 0 .686-.139.933-.387.248-.247.387-.583.387-.933v-47.31c0-.348-.136-.681-.379-.93s-.573-.392-.921-.4z"></path><path d="m225.75 110.54h-10.41c-.351.003-.687.144-.934.393s-.386.586-.386.937v27.13c0 6.57-3.07 10-8.88 10-7.35 0-8.89-5.64-8.89-10.38v-26.75c0-.351-.139-.688-.386-.937s-.583-.39-.934-.393h-10.41c-.351.003-.687.144-.934.393s-.386.586-.386.937v27c0 14.2 7.94 22.35 21.8 22.35 14 0 22.07-8.27 22.07-22.68v-26.7c-.008-.346-.15-.675-.396-.918-.247-.242-.578-.379-.924-.382z"></path><path d="m284.57 110.54h-10.28c-.351.003-.687.144-.934.393s-.386.586-.386.937v25.21l-19.8-26c-.123-.163-.281-.295-.463-.387s-.383-.141-.587-.143h-9.6c-.351.003-.687.144-.934.393s-.386.586-.386.937v47.31c0 .35.139.686.387.933.247.248.583.387.933.387h10.28c.35 0 .686-.139.933-.387.248-.247.387-.583.387-.933v-26.19l20.54 27c.118.155.269.282.442.372s.363.141.558.148h8.86c.35 0 .686-.139.933-.387.248-.247.387-.583.387-.933v-47.33c0-.343-.132-.672-.368-.92-.237-.248-.56-.395-.902-.41z"></path><path d="m344.53 130.62h-20.53c-.35 0-.686.139-.933.387-.248.247-.387.583-.387.933v9c0 .35.139.686.387.933.247.248.583.387.933.387h9.15v4.74c-2.556 1.527-5.493 2.297-8.47 2.22-7.54 0-13-5.76-13-13.69v-.13c0-7.4 5.5-13.41 12.26-13.41 5.13 0 8.11 1.64 11.52 4.49.139.113.298.198.47.25.172.051.352.068.53.05.174-.015.343-.064.497-.144.155-.081.292-.192.403-.326l6.56-7.91c.222-.267.33-.612.3-.958s-.195-.667-.46-.892c-5.69-4.84-11.33-6.81-19.45-6.81-14.65 0-26.13 11.33-26.13 25.79v.14c0 14.87 11 25.66 26.2 25.66 7.738.043 15.226-2.737 21.06-7.82.146-.122.264-.275.346-.448.081-.173.123-.361.124-.552v-20.57c0-.179-.036-.355-.106-.519-.07-.165-.173-.313-.302-.436-.129-.124-.281-.22-.448-.282-.168-.063-.346-.091-.524-.083z"></path><path d="m392.05 142.88c6.12-2.85 9.46-8.21 9.46-15.26v-.14c.08-2.156-.272-4.305-1.034-6.323s-1.92-3.863-3.406-5.427c-3.4-3.39-8.49-5.19-14.73-5.19h-21.63c-.351.003-.687.144-.934.393s-.386.586-.386.937v47.31c0 .35.139.686.387.933.247.248.583.387.933.387h10.41c.35 0 .686-.139.933-.387.248-.247.387-.583.387-.933v-13.82h6.15l9.75 14.56c.12.181.284.329.476.43s.407.153.624.15h12.17c.24 0 .476-.065.682-.189.206-.123.374-.3.488-.511.108-.213.158-.452.144-.691s-.091-.47-.224-.669zm-19.61-20.3h9c3.13 0 6.86.95 6.86 5.44v.14c0 3.36-2.49 5.37-6.66 5.37h-9.22z"></path><path d="m456.1 111.23c-.113-.209-.281-.383-.485-.504-.204-.122-.437-.186-.675-.186h-11.83c-.227.002-.45.062-.648.174-.197.112-.363.272-.482.466l-10.35 17.11-10.16-17.1c-.117-.196-.282-.359-.48-.473s-.422-.175-.65-.177h-12.17c-.237.001-.47.066-.674.187s-.372.295-.486.503c-.121.203-.184.434-.184.67s.063.467.184.67l18 28.34v18.27c0 .35.139.686.387.933.247.248.583.387.933.387h10.41c.35 0 .686-.139.933-.387.248-.247.387-.583.387-.933v-18.47l18-28.13c.129-.2.2-.432.207-.669.007-.238-.05-.474-.167-.681z"></path><path d="m460.66 116.46c-.035-.882.11-1.763.423-2.588.314-.825.792-1.579 1.404-2.215.612-.637 1.346-1.143 2.159-1.489.812-.346 1.686-.524 2.569-.524s1.757.178 2.569.524c.813.346 1.547.852 2.159 1.489.612.636 1.09 1.39 1.404 2.215.313.825.457 1.706.423 2.588.034.882-.11 1.763-.423 2.588-.314.825-.792 1.579-1.404 2.215-.612.637-1.346 1.143-2.159 1.489-.812.346-1.686.524-2.569.524s-1.757-.178-2.569-.524c-.813-.346-1.547-.852-2.159-1.489-.612-.636-1.09-1.39-1.404-2.215-.313-.825-.458-1.706-.423-2.588zm12.35 0c.011-.767-.132-1.527-.419-2.238s-.713-1.357-1.254-1.901c-.54-.544-1.183-.975-1.892-1.267s-1.468-.439-2.235-.434c-.767.004-1.526.159-2.233.457-.708.298-1.349.733-1.888 1.279s-.964 1.193-1.253 1.905c-.288.711-.433 1.472-.426 2.239 0 1.538.611 3.014 1.699 4.101 1.087 1.088 2.563 1.699 4.101 1.699s3.013-.611 4.101-1.699c1.088-1.087 1.699-2.563 1.699-4.101zm-8.36-3.46h3c1.47 0 2.57.72 2.57 2.11.012.461-.136.912-.419 1.276-.282.365-.682.62-1.131.724l1.77 2.52h-1.54l-1.58-2.3h-1.4v2.3h-1.28zm2.9 3.32c.87 0 1.36-.45 1.36-1.09s-.49-1.1-1.36-1.1h-1.62v2.19z"></path></g></svg> 