<?xml version="1.0" encoding="UTF-8"?> <svg xmlns="http://www.w3.org/2000/svg" width="360" height="84" viewBox="0 0 360 84" fill="none"><path d="M102.868 57.498C97.629 57.498 94.108 53.119 94.108 41.568C94.108 30.017 97.629 25.637 102.868 25.637C108.107 25.637 111.628 30.016 111.628 41.568C111.628 53.12 108.107 57.498 102.868 57.498ZM102.868 28.471C99.868 28.471 97.457 31.047 97.457 41.571C97.457 52.095 99.863 54.671 102.868 54.671C105.873 54.671 108.279 52.096 108.279 41.571C108.279 31.046 105.874 28.474 102.868 28.474V28.471Z" fill="black"></path><path d="M120.945 26.067L128.931 48.911H129.016V26.067H132.366V57.067H128.759L119.141 30.099H119.055V57.074H115.705V26.074L120.945 26.067Z" fill="black"></path><path d="M151.405 26.067V28.901H140.583V39.464H148.571V42.298H140.583V54.237H151.916V57.074H137.234V26.074L151.405 26.067Z" fill="black"></path><path d="M159.324 30.704H154.171V26.067H169.802V30.704H164.649V57.074H159.324V30.704Z" fill="black"></path><path d="M178.211 57.074H172.886V26.074H180.359C186.326 26.074 189.376 28.606 189.376 35.22C189.376 40.202 187.444 42.22 185.64 43.036L190.149 57.074H184.739L180.959 44.233C180.046 44.326 179.129 44.3694 178.211 44.363V57.074ZM178.211 39.982H180.1C182.978 39.982 184.051 38.909 184.051 35.216C184.051 31.523 182.978 30.45 180.1 30.45H178.211V39.982Z" fill="black"></path><path d="M193.756 57.074V26.074H208.016V30.711H199.084V38.699H205.955V43.335H199.084V52.44H208.616V57.074H193.756Z" fill="black"></path><path d="M212.209 57.074V26.074H226.467V30.711H217.535V38.699H224.407V43.335H217.535V52.44H227.069V57.074H212.209Z" fill="black"></path><path d="M230.582 26.067H237.882C242.863 26.067 246.126 29.416 246.126 34.567C246.126 39.718 242.863 43.067 237.882 43.067H233.931V57.067H230.581L230.582 26.067ZM233.932 40.238H237.451C240.801 40.238 242.778 38.438 242.778 34.57C242.778 30.702 240.801 28.901 237.451 28.901H233.932V40.238Z" fill="black"></path><path d="M252.895 26.067V54.237H262.944V57.074H249.544V26.074L252.895 26.067Z" fill="black"></path><path d="M276.36 26.067L283.188 57.067H279.838L277.993 47.876H270.093L268.244 57.074H264.895L271.721 26.074L276.36 26.067ZM270.56 45.046H277.516L274.082 28.385H273.996L270.56 45.046Z" fill="black"></path><path d="M291.316 26.067L299.302 48.911H299.386V26.067H302.738V57.067H299.13L289.516 30.103H289.43V57.074H286.082V26.074L291.316 26.067Z" fill="black"></path><path d="M321.651 26.067V28.901H315.293V57.074H311.944V28.904H305.588V26.07L321.651 26.067Z" fill="black"></path><path d="M338.873 26.067V28.901H328.053V39.464H336.039V42.298H328.053V54.237H339.391V57.074H324.703V26.074L338.873 26.067Z" fill="black"></path><path d="M343.016 26.067H348.772C355.297 26.067 359.248 29.673 359.248 41.567C359.248 53.461 355.297 57.067 348.772 57.067H343.016V26.067ZM346.366 54.237H348.166C353.066 54.237 355.897 52.174 355.897 41.568C355.897 30.962 353.063 28.901 348.166 28.901H346.366V54.237Z" fill="black"></path><path d="M41.584 0C30.5591 0.0127039 19.9895 4.39793 12.1937 12.1937C4.39794 19.9895 0.0127039 30.5591 0 41.584C0.0124398 52.6089 4.39759 63.1788 12.1934 70.9746C19.9892 78.7704 30.5591 83.1556 41.584 83.168C52.609 83.1558 63.179 78.7708 70.9749 70.9749C78.7708 63.179 83.1558 52.609 83.168 41.584C83.1556 30.5591 78.7704 19.9892 70.9746 12.1934C63.1788 4.39759 52.6089 0.0124398 41.584 0V0ZM60.916 72.481C60.708 72.405 60.525 72.315 60.525 72.247C60.5417 72.0732 60.4897 71.8997 60.3802 71.7637C60.2707 71.6277 60.1124 71.5399 59.939 71.519C59.616 71.519 58.255 70.978 57.901 70.978C57.7338 70.9803 57.5733 71.044 57.45 71.157C57.322 71.045 56.761 70.651 56.761 70.457C56.7835 70.225 56.7143 69.9935 56.5681 69.8119C56.4219 69.6304 56.2104 69.5134 55.979 69.486C55.551 69.486 54.551 69.036 54.122 69.036C53.693 69.036 49.816 67.074 49.383 67.074C49.2816 67.076 49.1819 67.1001 49.0907 67.1445C48.9996 67.1888 48.9191 67.2525 48.855 67.331C48.8008 67.1946 48.7085 67.0767 48.5892 66.9913C48.4699 66.9058 48.3286 66.8564 48.182 66.849C48.0974 66.8306 48.0216 66.7839 47.967 66.7167C47.9125 66.6494 47.8825 66.5656 47.882 66.479C47.9046 66.2479 47.836 66.0171 47.6909 65.8359C47.5457 65.6547 47.3355 65.5374 47.105 65.509C46.823 65.509 46.095 64.909 45.664 64.909C45.616 64.909 44.308 63.827 43.878 63.827C43.5135 63.7243 43.1649 63.5719 42.842 63.374C42.592 57.752 41.951 53.488 41.705 51.281C41.58 50.162 41.497 49.553 41.497 49.553C41.332 48.491 41.21 47.153 41.119 45.623C40.591 36.713 41.114 21.213 41.433 14.501C41.479 13.472 41.523 12.64 41.554 12.078C41.554 11.978 41.565 11.893 41.57 11.816C41.57 11.71 41.578 11.616 41.584 11.55C41.59 11.427 41.593 11.363 41.593 11.363C41.1189 12.2255 40.8384 13.181 40.771 14.163C39.784 19.9799 39.1644 25.8532 38.916 31.748C38.816 33.709 38.762 35.572 38.73 37.309C38.6149 41.1714 38.7234 45.0372 39.055 48.887C39.39 53.503 39.694 57.987 40.155 63.607C40.019 63.656 39.876 63.707 39.726 63.775C39.056 64.058 38.326 64.467 38.241 64.769C38.176 64.993 37.954 65.239 37.778 65.239C37.439 65.239 36.63 66.476 36.541 66.476C35.8102 66.752 35.2027 67.281 34.829 67.967C34.5904 68.3229 34.2241 68.5734 33.806 68.667C33.376 68.667 32.556 69.638 32.126 69.638C31.826 69.638 30.65 69.956 30.226 69.956C30.0685 69.9649 29.9173 70.0212 29.7924 70.1176C29.6674 70.214 29.5746 70.3459 29.526 70.496C29.2122 70.2335 28.8128 70.0958 28.404 70.109C27.648 70.109 26.663 70.831 26.467 70.831C26.3267 70.8322 26.1904 70.8781 26.078 70.962C25.965 70.8778 25.828 70.8318 25.687 70.831C25.6497 70.8315 25.6125 70.8356 25.576 70.843C25.5398 70.8356 25.503 70.8316 25.466 70.831C25.032 70.831 23.882 72.196 23.604 72.196C23.277 72.268 22.9614 72.3844 22.666 72.542H22.337C17.0723 69.2705 12.7283 64.7111 9.71515 59.2944C6.702 53.8777 5.11912 47.7824 5.116 41.584C5.12711 31.916 8.97263 22.6472 15.8089 15.8109C22.6452 8.97463 31.914 5.12911 41.582 5.118C51.2505 5.12832 60.5201 8.97348 67.357 15.8099C74.194 22.6462 78.0399 31.9155 78.051 41.584V41.584C78.0471 47.764 76.4726 53.8417 73.4753 59.2463C70.478 64.6508 66.1563 69.205 60.916 72.481Z" fill="black"></path><path d="M36.478 42.184C34.8232 39.6046 32.2735 37.7278 29.319 36.914C28.953 36.798 28.573 36.692 28.176 36.593C28.176 36.593 22.759 35.32 20.54 35.512C20.54 35.512 20.575 35.529 20.648 35.561C20.948 35.696 21.586 36.124 22.886 36.797C25.8654 38.3183 28.6975 40.1123 31.346 42.156C34.365 44.543 37.21 45.943 38.187 49.099C38.1671 47.5775 37.9729 46.0633 37.608 44.586C37.3207 43.7463 36.9417 42.9407 36.478 42.184V42.184Z" fill="black"></path><path d="M46.562 23.383C48.3494 22.2606 50.2372 21.3065 52.201 20.533C53.058 20.19 53.674 19.978 53.871 19.91C53.918 19.894 53.942 19.888 53.942 19.888C52.2558 19.7922 50.5643 19.8592 48.891 20.088C48.636 20.123 48.391 20.168 48.154 20.219C46.2486 20.5494 44.5328 21.5731 43.337 23.093C42.299 24.417 41.891 27.569 41.837 28.281C42.9058 26.2262 44.5469 24.525 46.562 23.383V23.383Z" fill="black"></path><path d="M43.735 49.074C44.093 48.589 44.444 48.06 44.855 47.548C45.285 47.055 45.69 46.512 46.185 46.035L46.908 45.292L47.68 44.592C48.046 44.243 48.447 43.935 48.843 43.625C48.982 43.515 49.12 43.406 49.261 43.298L49.283 43.281C49.2881 43.2753 49.2942 43.2706 49.301 43.267C49.486 43.127 49.669 42.986 49.857 42.853C50.381 42.49 50.907 42.144 51.44 41.848C51.54 41.789 51.646 41.737 51.748 41.681C51.7539 41.6786 51.7593 41.6752 51.764 41.671L51.81 41.648C51.992 41.548 52.173 41.453 52.353 41.364L52.574 41.246C53.014 41.024 53.443 40.839 53.852 40.672C51.7283 40.8512 49.6561 41.4218 47.74 42.355C47.2473 42.6502 46.7713 42.9724 46.314 43.32C44.8579 44.3488 43.6984 45.7429 42.952 47.362C42.812 47.6866 42.6953 48.0208 42.603 48.362C42.5283 48.635 42.4699 48.9121 42.428 49.192C42.476 49.883 42.541 50.492 42.622 51.003C42.699 50.85 42.772 50.697 42.853 50.535C43.127 50.074 43.416 49.588 43.735 49.074Z" fill="black"></path><path d="M56.016 40.209C55.875 40.231 55.733 40.255 55.575 40.287C55.433 40.321 55.275 40.361 55.124 40.4C54.771 40.509 54.399 40.661 53.993 40.829C53.528 41.041 53.028 41.284 52.52 41.574C52.2673 41.724 52.0087 41.8773 51.744 42.034C51.484 42.196 51.228 42.382 50.963 42.559C50.424 42.902 49.923 43.338 49.388 43.739C48.893 44.191 48.354 44.608 47.888 45.103L47.17 45.821C46.9473 46.075 46.726 46.3273 46.506 46.578C46.05 47.066 45.685 47.615 45.294 48.11C44.925 48.622 44.612 49.151 44.294 49.63C44.023 50.138 43.764 50.62 43.526 51.061L42.986 52.32C42.955 52.383 42.933 52.446 42.907 52.507C42.864 52.643 42.834 52.733 42.821 52.775C44.041 52.4574 45.2182 51.9937 46.327 51.394C47.9342 50.5411 49.4083 49.4584 50.703 48.18C52.439 46.4491 53.8389 44.4113 54.832 42.17C55.4151 41.1773 56.3633 40.452 57.474 40.149L57.383 40.143C56.9263 40.122 56.4686 40.1441 56.016 40.209V40.209Z" fill="black"></path><path d="M36.221 19.739C35.9142 19.5075 35.5954 19.2922 35.266 19.094C33.9839 18.4693 32.5972 18.0875 31.176 17.968C31.45 18.079 31.736 18.202 32.031 18.352L32.18 18.429C32.3 18.489 32.421 18.554 32.542 18.619C32.5517 18.6259 32.5621 18.632 32.573 18.637L32.584 18.643L32.784 18.753C33.142 18.953 33.493 19.184 33.844 19.426C33.969 19.516 34.092 19.609 34.216 19.704L34.229 19.713L34.243 19.723C34.343 19.795 34.43 19.869 34.522 19.944C34.7921 20.1464 35.0518 20.3623 35.3 20.591L35.819 21.057C35.98 21.225 36.141 21.39 36.3 21.557C36.632 21.876 36.9 22.241 37.192 22.57C37.465 22.913 37.701 23.265 37.94 23.592C38.077 23.816 38.34 24.331 38.516 24.636L38.675 23.136C38.604 22.888 38.511 22.556 38.464 22.446C37.967 21.3624 37.1934 20.4287 36.221 19.739V19.739Z" fill="black"></path><path d="M38.331 25.697C38.223 25.4437 38.1023 25.163 37.969 24.855L37.455 23.896C37.241 23.574 37.033 23.223 36.786 22.879C36.523 22.548 36.278 22.179 35.974 21.854L35.53 21.348L35.049 20.867C34.736 20.536 34.375 20.257 34.044 19.954C33.687 19.686 33.352 19.395 32.99 19.165C32.812 19.045 32.642 18.921 32.468 18.814C32.294 18.707 32.118 18.607 31.949 18.506C31.608 18.311 31.274 18.149 30.963 18.006C30.691 17.895 30.442 17.792 30.205 17.719C30.105 17.693 30.005 17.667 29.905 17.645C29.805 17.623 29.705 17.606 29.605 17.593C29.3035 17.5483 28.9984 17.5329 28.694 17.547C28.657 17.547 28.634 17.547 28.634 17.547C29.3773 17.7506 30.0115 18.2369 30.401 18.902C31.0664 20.4016 32.0043 21.7646 33.167 22.922C34.0316 23.7786 35.0175 24.5034 36.093 25.073C36.834 25.4761 37.622 25.7861 38.439 25.996C38.429 25.969 38.41 25.908 38.381 25.818C38.367 25.78 38.35 25.74 38.331 25.697Z" fill="black"></path></svg> 