<?xml version="1.0" encoding="UTF-8"?> <svg xmlns="http://www.w3.org/2000/svg" xmlns:xlink="http://www.w3.org/1999/xlink" version="1.1" id="Layer_1" x="0px" y="0px" viewBox="0 0 48 48" style="enable-background:new 0 0 48 48;" xml:space="preserve"> <style type="text/css"> .st0{fill-rule:evenodd;clip-rule:evenodd;fill:#008BF6;} .st1{fill-rule:evenodd;clip-rule:evenodd;fill:#57B6FF;} .st2{fill-rule:evenodd;clip-rule:evenodd;fill:#006CBF;} .st3{fill-rule:evenodd;clip-rule:evenodd;fill:#FFFFFF;} .st4{fill-rule:evenodd;clip-rule:evenodd;fill:#385661;} .st5{fill-rule:evenodd;clip-rule:evenodd;fill:#598291;} .st6{fill-rule:evenodd;clip-rule:evenodd;fill:#D3E8EF;} .st7{fill-rule:evenodd;clip-rule:evenodd;fill:#7EAABA;} .st8{fill-rule:evenodd;clip-rule:evenodd;fill:#0B87E8;} .st9{fill-rule:evenodd;clip-rule:evenodd;fill:#3C942C;} .st10{fill-rule:evenodd;clip-rule:evenodd;fill:#82E371;} .st11{fill-rule:evenodd;clip-rule:evenodd;fill:#BDD6DE;} .st12{fill-rule:evenodd;clip-rule:evenodd;fill:#1E2432;} .st13{fill-rule:evenodd;clip-rule:evenodd;fill:#2D3956;} </style> <g> <path class="st0" d="M23.23,12.55c9.08,0,16.45,7.36,16.44,16.45c0,9.08-7.36,16.45-16.45,16.44c-9.07,0-16.42-7.34-16.44-16.41 c-0.02-9.08,7.33-16.46,16.41-16.48C23.2,12.55,23.21,12.55,23.23,12.55z"></path> <path class="st1" d="M15.7,43.03c0.39-0.05,0.79-0.01,1.16,0.13c1.91,0.77,3.95,1.17,6.02,1.17c4.39,0,8.57-1.82,11.57-5.03 c0.33-0.31,0.77-0.48,1.22-0.47c-3,3.82-7.58,6.06-12.44,6.08C20.6,44.93,18.01,44.28,15.7,43.03z"></path> <path class="st2" d="M23.23,12.55c0.51,0,1.01,0,1.5,0.07c-0.39,0.08-0.8,0.08-1.19,0C23.44,12.6,23.33,12.58,23.23,12.55z M13.6,42.39c-2.75-1.97-4.83-4.73-5.96-7.92c0.11-0.01,0.23-0.01,0.34,0H8.5c0.03-0.63,0.29-1.23,0.72-1.69 c0.22-0.16,0.47-0.28,0.74-0.35C9.42,31.92,9.08,31.24,9,30.5c0-0.26-0.04-0.53-0.04-0.8l-1.71-0.86c-0.18-0.1-0.34-0.22-0.47-0.38 c0.08-2.49,0.71-4.92,1.87-7.12l1.47-0.13c0.32-1.23,0.72-2.44,1.22-3.6c1.04-1.08,2.21-2.01,3.5-2.78c0.4-0.07,0.8-0.12,1.16-0.16 c1.64-0.13,3.3-0.11,4.93,0.06c0.61,0.05,1.22,0.11,1.78,0.18c0.08-0.2,0.16-0.39,0.26-0.58c0.42-0.78,2.6-0.5,3.66-0.33 c-0.04-0.4-0.14-0.8-0.28-1.17c0.38,0.07,0.74,0.15,1.09,0.24c0.1,0.37,0.16,0.76,0.17,1.15c1.09,0.26,2.81,0.8,2.9,1.58 c0.01,0.2,0.01,0.41,0,0.61c0.57,0.16,1.15,0.32,1.72,0.5c1.15,0.34,2.27,0.75,3.37,1.22c4.12,4.7,5.22,11.33,2.85,17.12 l-0.77,0.06c-0.1,0.26-0.23,0.49-0.34,0.72c-0.61,1.25-2.16,1.74-3.42,1.97c-1.75,0.26-3.52,0.32-5.28,0.18 c-2.1-0.14-4.19-0.43-6.25-0.84c-2.06-0.39-4.1-0.92-6.09-1.59c-1.19-0.38-2.35-0.85-3.47-1.39v2.87c0.52,0.34,0.94,0.81,1.22,1.36 c0.97-0.09,1.89-0.48,2.63-1.12c0.42-0.34,1.57,0.16,1.08,1.54c-0.53,1.88-2.19,3.23-4.14,3.37L13.6,42.39L13.6,42.39z"></path> <path class="st3" d="M23.23,16.01c7.18,0,13,5.82,13,13s-5.82,13-13,13c-7.17,0-12.99-5.81-13-12.98 c-0.01-7.18,5.8-13.01,12.98-13.02C23.22,16.01,23.22,16.01,23.23,16.01L23.23,16.01z"></path> <path class="st4" d="M17.23,35.24c-1.5,1.46-3.77,1.81-5.64,0.86l-1.86,3.69c2.64,1.46,7.4,1.65,8.75-2.98 C18.9,35.32,17.65,34.87,17.23,35.24z"></path> <path class="st4" d="M17.6,35.72c-1.52,1.46-3.76,1.91-5.73,1.15l-1.35,2.67c0.95,0.42,1.97,0.62,3.01,0.61 c2.1,0.02,3.93-1.42,4.39-3.47c0.11-0.27,0.09-0.58-0.06-0.84C17.78,35.77,17.69,35.72,17.6,35.72L17.6,35.72z"></path> <path class="st5" d="M15.83,36.83c-1.28,0.5-2.69,0.5-3.97,0l-0.55,1.12c1.49,0.62,3.21,0.45,4.54-0.47 C16.19,37.18,16.12,36.84,15.83,36.83L15.83,36.83z"></path> <path class="st4" d="M27.16,37.46c1.18,0.96,2,2.3,2.32,3.79l3.14-0.86c-0.8-2.35-3.17-4.66-5.48-4.87L27.16,37.46L27.16,37.46z"></path> <path class="st4" d="M27.75,37.18c1.02,0.89,1.78,2.05,2.18,3.34l1.92-0.53c-0.76-1.63-2.17-3.34-4-3.97 C27.84,36.02,27.75,37.18,27.75,37.18z"></path> <path class="st5" d="M30.94,40.24L31.84,40c-0.58-1.27-1.47-2.38-2.58-3.22c-0.12,0.11-0.07,0.36,0.06,0.5 C30.11,38.11,30.67,39.13,30.94,40.24z"></path> <path class="st5" d="M18.52,41.11c0-0.27-0.05-0.55-0.06-0.82c-0.07-0.44,0.13-0.89,0.51-1.13c0.82-0.41,1.69-0.69,2.6-0.85 l0.69-0.16h0.21l0.69,0.15c0.9,0.16,1.77,0.44,2.6,0.85c0.39,0.24,0.59,0.69,0.52,1.15c0,0.32-0.04,0.61-0.07,0.94 c0,0.15,0,0.29-0.05,0.44C25.2,41.89,24.21,42,23.23,42C21.61,42,20.02,41.7,18.52,41.11L18.52,41.11z"></path> <path class="st6" d="M19.05,41.31c-0.04-0.34-0.06-0.67-0.09-1.05c-0.06-0.25,0.05-0.51,0.27-0.65c0.99-0.45,2.04-0.76,3.12-0.92 c1.07,0.16,2.12,0.47,3.11,0.92c0.21,0.14,0.32,0.4,0.26,0.65c-0.04,0.55-0.06,1.01-0.13,1.52C23.4,42.19,21.15,42.03,19.05,41.31z "></path> <path class="st3" d="M19.79,39.34c0.84-0.28,1.7-0.5,2.56-0.65v3.27c-0.8-0.05-1.6-0.19-2.38-0.38 C19.9,40.84,19.83,40.1,19.79,39.34z"></path> <path class="st5" d="M16.87,40.35c-0.13-0.69-0.23-1.39-0.31-2.09c-0.05-0.47-0.07-0.95-0.11-1.42c-0.12-0.68,0.18-1.36,0.77-1.72 c0.99-0.61,2.75-1.01,3.9-1.26c0.35-0.09,0.71-0.16,1.06-0.23l0.17-0.04l0.15,0.04c0.35,0.07,0.71,0.15,1.06,0.23 c1.15,0.26,2.91,0.61,3.9,1.26c0.57,0.36,0.87,1.03,0.77,1.7c-0.04,0.47-0.06,0.94-0.11,1.42c-0.1,1-0.26,2-0.49,2.98 c-1.42,0.52-2.91,0.79-4.42,0.79C21,42,18.82,41.43,16.87,40.35L16.87,40.35z"></path> <path class="st5" d="M17.78,40.8c-0.29-1.32-0.47-2.67-0.53-4.03c-0.08-0.38,0.08-0.77,0.4-0.99c0.91-0.57,2.92-1.02,4.71-1.39 c1.77,0.38,3.79,0.83,4.7,1.39c0.38,0.23,0.42,0.56,0.4,0.99c-0.07,1.55-0.28,3.1-0.65,4.61c0,0,0,0.07-0.05,0.12 c-1.15,0.32-2.33,0.48-3.52,0.48C21.36,42,19.49,41.59,17.78,40.8L17.78,40.8z"></path> <path class="st7" d="M18.88,41.25c-0.27-1.48-0.44-2.97-0.49-4.48c-0.08-0.36,0.04-0.73,0.31-0.99c0.7-0.57,2.27-1.02,3.66-1.39 c1.37,0.38,2.93,0.83,3.66,1.39c0.27,0.25,0.38,0.63,0.31,0.99c-0.05,1.55-0.22,3.09-0.51,4.61c-0.03,0.14-0.09,0.27-0.17,0.38 c-0.79,0.15-1.59,0.22-2.39,0.22C21.76,42,20.28,41.75,18.88,41.25L18.88,41.25z"></path> <path class="st6" d="M17.46,39.1c-0.11-0.79-0.16-1.49-0.22-2.33c-0.08-0.38,0.08-0.77,0.4-0.99c0.91-0.57,2.92-1.02,4.71-1.39 c1.77,0.38,3.79,0.83,4.7,1.39c0.38,0.23,0.42,0.56,0.4,0.99c-0.06,0.83-0.11,1.53-0.22,2.33c-0.82,0.18-1.64,0.31-2.47,0.39 c-0.09,0.01-0.15,0.07-0.17,0.16c-0.05,0.44-0.27,0.84-0.61,1.12c-0.47,0.35-1.04,0.52-1.62,0.49c-0.59,0.03-1.16-0.14-1.64-0.49 c-0.34-0.28-0.56-0.68-0.61-1.12c-0.01-0.09-0.08-0.15-0.17-0.16C19.12,39.41,18.29,39.28,17.46,39.1L17.46,39.1z"></path> <path class="st3" d="M22.35,34.39c1.37,0.38,2.93,0.83,3.66,1.39c0.27,0.25,0.38,0.63,0.31,0.99c-0.05,0.91-0.09,1.66-0.18,2.53 c-0.43,0.07-0.87,0.12-1.36,0.17c-0.09,0.01-0.15,0.07-0.17,0.16c-0.19,1.15-1.17,1.57-2.25,1.57c-1.08,0-2.08-0.45-2.26-1.59 c-0.01-0.09-0.08-0.15-0.17-0.16c-0.47-0.05-0.92-0.1-1.36-0.17c-0.1-0.87-0.15-1.63-0.18-2.53c-0.08-0.36,0.04-0.73,0.31-0.99 C19.41,35.23,20.96,34.78,22.35,34.39z"></path> <path class="st8" d="M20.79,37.43h0.8c0.1,0,0.18,0.08,0.18,0.18v1.58c-0.05,0.26,0.12,0.52,0.38,0.57c0.06,0.01,0.13,0.01,0.19,0 c0.15,0.01,0.3-0.03,0.42-0.12c0.1-0.13,0.14-0.29,0.12-0.45v-1.58c0-0.1,0.08-0.18,0.18-0.18h0.8c0.1,0,0.18,0.08,0.18,0.18 c0,0,0,0,0,0.01v1.66c0.03,0.4-0.13,0.79-0.45,1.04c-0.37,0.27-0.82,0.39-1.27,0.36c-0.46,0.03-0.92-0.1-1.29-0.36 c-0.3-0.26-0.47-0.65-0.45-1.04v-1.66c0.01-0.1,0.09-0.18,0.2-0.18L20.79,37.43z"></path> <path class="st1" d="M20.79,37.55c-0.05,0-0.09,0.03-0.1,0.09l0,0v1.66c-0.02,0.37,0.13,0.73,0.41,0.97 c0.36,0.24,0.79,0.36,1.22,0.34v-0.77c-0.18,0.01-0.36-0.05-0.5-0.16c-0.11-0.15-0.17-0.33-0.16-0.51v-1.58 c0-0.05-0.05-0.09-0.1-0.09l0,0H20.8L20.79,37.55L20.79,37.55z"></path> <path class="st9" d="M22.77,34.27l-0.39,1.61c0.34,0.57,1.72,1.35,2.39,1.6c0.29,0.12,0.54,0.15,0.74-0.07 c0.49-0.5,0.9-1.93,0.99-3.15h-3.71L22.77,34.27L22.77,34.27z"></path> <path class="st9" d="M26.06,34.27c0,0.26-0.06,0.5-0.1,0.73c-0.1,0.76-0.35,1.48-0.76,2.12l-0.05,0.04c-0.08,0-0.16-0.02-0.23-0.06 c-0.76-0.32-1.47-0.76-2.09-1.3l0.39-1.53C23.23,34.27,26.06,34.27,26.06,34.27z"></path> <path class="st10" d="M25.79,35.72c-0.1,0.5-0.31,0.97-0.61,1.38l-0.05,0.04c-0.08,0-0.16-0.02-0.23-0.06 c-0.72-0.31-1.39-0.72-1.99-1.22h0.32c0.33,0.22,0.69,0.37,1.08,0.46c-0.16-0.14-0.32-0.31-0.46-0.47 C24.5,35.85,25.16,35.81,25.79,35.72L25.79,35.72z"></path> <path class="st9" d="M21.86,34.27l0.4,1.61c-0.34,0.57-1.72,1.35-2.39,1.6c-0.29,0.12-0.53,0.15-0.74-0.07 c-0.49-0.5-0.9-1.93-0.99-3.15h3.71L21.86,34.27L21.86,34.27z"></path> <path class="st9" d="M18.59,34.27c0,0.26,0.06,0.5,0.1,0.73c0.1,0.76,0.35,1.48,0.76,2.12l0.05,0.04c0.08,0,0.16-0.02,0.23-0.06 c0.76-0.32,1.47-0.76,2.09-1.3l-0.42-1.53H18.59L18.59,34.27z"></path> <path class="st10" d="M18.84,35.72c0.1,0.5,0.31,0.97,0.61,1.38l0.05,0.04c0.08,0,0.16-0.02,0.23-0.06 c0.72-0.31,1.39-0.72,1.99-1.22H21.4c-0.33,0.21-0.69,0.37-1.08,0.46c0.16-0.15,0.32-0.31,0.46-0.47 C20.14,35.85,19.48,35.81,18.84,35.72L18.84,35.72z"></path> <path class="st9" d="M23.7,34.27c-0.02,0.71-0.13,1.41-0.31,2.09c-0.65,0.45-1.5,0.45-2.15,0c-0.18-0.68-0.28-1.38-0.31-2.09 C20.94,34.27,23.7,34.27,23.7,34.27z"></path> <path class="st9" d="M21.3,34.41c0.03,0.59,0.12,1.17,0.26,1.75c0.47,0.27,1.05,0.27,1.53,0c0.14-0.57,0.23-1.16,0.26-1.75 L21.3,34.41L21.3,34.41z"></path> <path class="st10" d="M21.46,35.72c0,0.15,0.06,0.28,0.1,0.43c0.47,0.27,1.05,0.27,1.53,0c0.04-0.15,0.06-0.29,0.1-0.44h-1.1 C21.86,35.72,21.66,35.72,21.46,35.72L21.46,35.72z"></path> <path class="st5" d="M7.9,19.01l3.9-0.41l-1.32,10.04l-3.7-1.78c-0.4-0.17-0.7-0.52-0.79-0.94c-0.37-2.14-0.06-4.34,0.89-6.3 C7.06,19.28,7.26,19.08,7.9,19.01L7.9,19.01z"></path> <path class="st6" d="M9.83,27.42l1.02-7.87c-0.34,0.04-3.04,0.29-3.18,0.38c-0.02,0.03-0.04,0.06-0.06,0.1 c-0.87,1.78-1.15,3.79-0.82,5.74c0.04,0.16,0.16,0.29,0.32,0.34L9.83,27.42L9.83,27.42z"></path> <path class="st3" d="M9.83,27.42l0.07-0.56l-2.8-1.14c-0.21-0.09-0.35-0.85-0.45-1.69c-0.02,0.58,0.02,1.16,0.13,1.72 c0.04,0.16,0.16,0.29,0.32,0.34L9.83,27.42z M10.26,24.09l0.61-4.55c-0.34,0.04-3.04,0.29-3.18,0.38c-0.02,0.03-0.04,0.06-0.06,0.1 c-0.41,0.87-0.7,1.78-0.85,2.73L10.26,24.09L10.26,24.09z"></path> <path class="st6" d="M7.06,21.45l1.08,0.93c0.15,0.13,0.23,0.33,0.21,0.53c-0.11,1.12-0.24,2.17-0.28,3.66 c-0.16-1.23-0.22-2.48-0.17-3.72c0-0.05,0-0.09-0.04-0.11l-0.74-0.68l-0.1-0.38C7.02,21.59,7.04,21.52,7.06,21.45L7.06,21.45z"></path> <path class="st7" d="M7,21.67l0.92,0.81C8.07,22.61,8.15,22.8,8.13,23C8.01,24.03,7.97,25.07,8,26.11v0.46l-0.47-0.23 c0.01-0.08,0.01-0.15,0-0.23c-0.03-1.06,0.02-2.12,0.14-3.17c0-0.05,0-0.09-0.04-0.11l-0.75-0.67C6.92,21.99,6.97,21.83,7,21.67 L7,21.67z"></path> <path class="st5" d="M24.96,6.13c2.66,2.39,2.84,5.48,1.63,8.66l-0.92-0.38c1.06-2.8,0.99-5.43-1.36-7.54 C24.31,6.86,24.96,6.13,24.96,6.13z"></path> <path class="st9" d="M24.1,2.89c1.69,0.3,2.82,1.91,2.53,3.6c-0.3,1.69-1.91,2.82-3.6,2.53c-1.69-0.3-2.82-1.91-2.53-3.6 c0,0,0-0.01,0-0.01C20.8,3.72,22.41,2.59,24.1,2.89L24.1,2.89L24.1,2.89z"></path> <path class="st9" d="M23.99,3.51c1.35,0.24,2.24,1.53,1.99,2.87c-0.24,1.35-1.53,2.24-2.87,1.99c-1.34-0.24-2.23-1.52-2-2.86 C21.36,4.17,22.64,3.27,23.99,3.51L23.99,3.51z"></path> <path class="st10" d="M25.74,4.77c0.65,1.2,0.21,2.71-1,3.36c-1.2,0.65-2.71,0.21-3.36-1c-0.08-0.14-0.14-0.3-0.19-0.46 c0.35,0.67,1,1.14,1.75,1.26c1.35,0.23,2.63-0.67,2.87-2.01C25.87,5.53,25.85,5.14,25.74,4.77L25.74,4.77z M23.39,3.71 c0.86-0.04,1.46,0.49,1.34,1.22c-0.23,0.79-0.95,1.34-1.77,1.35c-0.86,0.05-1.46-0.5-1.34-1.19C21.84,4.29,22.57,3.73,23.39,3.71z"></path> <path class="st2" d="M25.49,16.58c-0.85-0.16-3.66-0.74-3.77-1.83c-0.07-1.34,0.19-2.68,0.72-3.92c0.46-0.93,3.3-0.49,4.13-0.34 c0.83,0.15,3.66,0.72,3.74,1.74c0.09,1.34-0.13,2.69-0.65,3.93C29.2,17.14,26.34,16.73,25.49,16.58z"></path> <path class="st2" d="M29.6,12.31c-0.29-0.51-2.58-1.02-3.17-1.12c-0.62-0.11-1.24-0.18-1.87-0.22c-0.5-0.04-1.01,0.02-1.49,0.18 c-0.48,1.1-0.7,2.3-0.65,3.5c0.06,0.26,1.11,0.67,1.35,0.74c1.22,0.42,3.54,0.83,4.79,0.58c0.15-0.02,0.3-0.07,0.43-0.15 C29.46,14.72,29.67,13.51,29.6,12.31L29.6,12.31z"></path> <path class="st1" d="M26.44,11.19c-0.62-0.11-1.24-0.18-1.87-0.22c-0.5-0.04-1.01,0.02-1.49,0.18c-0.48,1.1-0.7,2.3-0.65,3.5 c0.04,0.1,0.27,0.26,0.34,0.31c0.89,0.45,1.84,0.75,2.82,0.9L26.44,11.19L26.44,11.19z"></path> <path class="st5" d="M41.18,24.89l-3.52-1.72l-2.19,9.89l4.09-0.42c0.44-0.01,0.84-0.24,1.07-0.61c1.09-1.88,1.55-4.06,1.32-6.22 C41.89,25.41,41.76,25.17,41.18,24.89L41.18,24.89z"></path> <path class="st6" d="M36.51,32.12l1.72-7.75c0.31,0.15,2.78,1.32,2.85,1.45v0.11c0.19,1.97-0.24,3.95-1.22,5.68 c-0.09,0.14-0.25,0.22-0.42,0.22L36.51,32.12L36.51,32.12z"></path> <path class="st3" d="M36.51,32.12l0.12-0.55l3.01-0.12c0.23,0,0.61-0.68,1.01-1.43c-0.18,0.55-0.43,1.07-0.73,1.57 c-0.09,0.14-0.25,0.22-0.42,0.22L36.51,32.12L36.51,32.12z M37.24,28.86l0.99-4.49c0.31,0.15,2.78,1.32,2.85,1.45v0.11 c0.09,0.95,0.04,1.91-0.15,2.85L37.24,28.86L37.24,28.86z"></path> <path class="st6" d="M41.14,27.47l-1.32,0.51c-0.18,0.07-0.32,0.23-0.36,0.42c-0.28,1.08-0.52,2.12-0.99,3.53 c0.57-1.11,1.06-2.26,1.45-3.45c0-0.05,0-0.07,0.07-0.1L40.89,28l0.22-0.33C41.13,27.61,41.14,27.52,41.14,27.47L41.14,27.47z"></path> <path class="st7" d="M41.12,27.69l-1.14,0.45c-0.19,0.08-0.32,0.23-0.36,0.43c-0.25,1.01-0.57,1.99-0.97,2.95l-0.18,0.43l0.53-0.06 c0.04-0.07,0.06-0.15,0.1-0.22c0.4-0.99,0.73-2.01,0.98-3.04c0-0.04,0-0.07,0.07-0.09l0.93-0.36 C41.09,28.02,41.1,27.86,41.12,27.69z"></path> <path class="st5" d="M22.18,35.38c-2.08-0.35-4.14-0.85-6.15-1.48c-1.71-0.5-3.34-1.22-4.87-2.12c-1.09-0.68-2.37-1.74-2.48-3.18 c-0.32-4.21,0.87-10.88,2.72-14.68c0.69-1.45,2.73-1.87,4.11-2.04c1.64-0.18,3.3-0.2,4.95-0.07c1.92,0.13,3.83,0.36,5.73,0.71 c1.9,0.32,3.78,0.76,5.63,1.29c1.6,0.45,3.15,1.03,4.63,1.76c1.25,0.61,3.01,1.74,3.18,3.34c0.44,4.21-0.72,10.86-2.47,14.73 c-0.61,1.31-2.15,1.87-3.41,2.13c-1.74,0.33-3.52,0.44-5.29,0.33C26.36,35.99,24.26,35.76,22.18,35.38L22.18,35.38z"></path> <path class="st11" d="M22.35,34.39c-4.22-0.74-8.32-2-10.7-3.48c-1.22-0.77-1.97-1.59-2.03-2.44c-0.28-3.9,0.81-10.41,2.64-14.14 c0.39-0.8,1.64-1.28,3.38-1.5c2.69-0.34,6.59-0.05,10.41,0.61c3.82,0.66,7.52,1.76,9.96,2.98c1.57,0.8,2.57,1.68,2.67,2.56 c0.44,4.13-0.78,10.63-2.39,14.2c-0.32,0.77-1.31,1.31-2.71,1.59C30.85,35.36,26.55,35.11,22.35,34.39L22.35,34.39z"></path> <path class="st3" d="M9.88,23.09c0.36-3.02,1.16-5.97,2.39-8.75c0.39-0.8,1.64-1.28,3.38-1.5c2.69-0.34,6.59-0.05,10.41,0.61 c3.82,0.66,7.57,1.75,10,2.97c1.57,0.8,2.57,1.68,2.67,2.56c0.2,3.03-0.07,6.08-0.77,9.03c-0.59,0.18-1.21,0.28-1.83,0.32 c-0.24,0-0.49,0.05-0.76,0.06c0.71-2.11,1.14-4.3,1.25-6.52c0-0.42-0.27-0.55-0.65-0.68c-2.04-0.77-4.13-1.39-6.26-1.87 c-0.16-0.04-0.32,0.04-0.39,0.18c-0.43,0.96-0.95,1.89-1.55,2.75c-0.68,0.74-5.96-0.2-6.33-1.12c-0.26-1.02-0.44-2.07-0.51-3.12 c-0.02-0.16-0.14-0.28-0.3-0.29c-2.16-0.28-4.34-0.41-6.51-0.38c-0.42,0-0.74,0-0.86,0.41c-0.66,2.13-1.02,4.35-1.07,6.58 l-0.7-0.32C10.91,23.76,10.38,23.45,9.88,23.09L9.88,23.09z M22.35,34.39c-4.22-0.74-8.32-2-10.7-3.48 c-1.22-0.77-1.97-1.59-2.03-2.44v-0.46c0.07,0.22,0.18,0.43,0.32,0.61c0.45,0.72,1.08,1.32,1.83,1.72 c2.37,1.46,6.48,2.69,10.69,3.44c4.21,0.74,8.53,0.98,11.22,0.42c0.85-0.13,1.65-0.47,2.33-0.99c0.19-0.13,0.35-0.28,0.49-0.45 c-0.06,0.14-0.12,0.29-0.2,0.43c-0.35,0.77-1.35,1.31-2.74,1.59C30.85,35.36,26.56,35.11,22.35,34.39L22.35,34.39z"></path> <path class="st11" d="M19.9,12.75c0.27,0.67,0.61,1.32,1,1.94c1.49,0.68,3.07,1.14,4.69,1.37c1.6,0.34,3.24,0.44,4.87,0.32 c0.5-0.4,1.12-1.01,1.59-1.48c-0.33,0.78-0.83,1.48-1.47,2.04c-1.71,0.15-3.43,0.04-5.11-0.31c-1.69-0.25-3.33-0.74-4.87-1.46 C20.24,14.4,20,13.59,19.9,12.75L19.9,12.75z"></path> <path class="st7" d="M19.9,12.75c0.15,0.77,0.43,1.51,0.8,2.19c1.54,0.69,3.17,1.16,4.84,1.41c1.65,0.34,3.35,0.45,5.04,0.33 c0.59-0.51,1.09-1.12,1.49-1.78l0.55,0.17c-0.4,0.61-1.31,1.93-1.91,2.17c-1.76,0.14-3.53,0.03-5.26-0.33 c-1.75-0.26-3.45-0.76-5.06-1.49c-0.49-0.44-0.89-1.96-1.05-2.69C19.51,12.74,19.7,12.75,19.9,12.75L19.9,12.75z"></path> <path class="st12" d="M24.31,23.26c1.3,0.23,3.12,0.3,3.46-0.22c0.6-1.17,1.1-2.4,1.5-3.66c0.04-0.17,0.22-0.27,0.39-0.23 c2.32,0.53,4.6,1.26,6.79,2.2c0.4,0.17,0.71,0.32,0.68,0.85c-0.23,3.55-1.02,7.04-2.33,10.35c-0.18,0.43-1.41,0.77-1.78,0.86 c-1.52,0.3-3.08,0.42-4.62,0.33c-1.96-0.06-3.92-0.27-5.85-0.61c-1.93-0.34-3.83-0.81-5.7-1.41c-1.49-0.45-2.92-1.08-4.26-1.88 c-0.32-0.21-1.33-0.94-1.35-1.42c-0.08-3.56,0.38-7.12,1.37-10.54c0.15-0.5,0.49-0.54,0.92-0.57c2.38-0.12,4.77-0.03,7.14,0.26 c0.18,0.02,0.3,0.18,0.28,0.35c-0.05,1.32,0,2.64,0.17,3.95C21.28,22.47,23.01,23.03,24.31,23.26L24.31,23.26z"></path> <path class="st13" d="M36.63,21.84c-0.11,1.92-0.4,3.82-0.87,5.68c-0.29,1.08-0.84,1.01-2,1.15c-4.87,0.61-15.79-1.32-20.14-3.56 c-1.04-0.53-1.6-0.97-1.49-1.75c0.25-1.9,0.62-3.78,1.12-5.63c0.03-0.13,0.2-0.18,0.32-0.2c2.37-0.12,4.75-0.03,7.1,0.27 c0.06,0.01,0.1,0.06,0.1,0.12l0,0c0,0.4-0.04,0.8,0,1.22c0.02,0.94,0.09,1.88,0.2,2.81c0.2,0.88,2.55,1.42,3.35,1.55 c0.8,0.13,3.19,0.45,3.69-0.31c0.06-0.1,0.12-0.22,0.17-0.32c0.54-1.09,0.99-2.22,1.36-3.38c0.01-0.06,0.07-0.1,0.13-0.09 c0,0,0,0,0.01,0c2.31,0.53,4.57,1.26,6.76,2.19C36.53,21.63,36.6,21.73,36.63,21.84L36.63,21.84z M11.45,27.93v0.46 c0,0.35,0.98,1.07,1.27,1.25c4.26,2.78,15.29,4.72,20.24,3.57c0.34-0.07,1.49-0.42,1.63-0.74c0.06-0.13,0.12-0.28,0.18-0.43 c-0.46,0.24-0.94,0.42-1.45,0.53c-5.08,1.15-16.34-0.83-20.71-3.66c-0.44-0.26-0.83-0.59-1.17-0.97L11.45,27.93L11.45,27.93z"></path> <path class="st10" d="M16.09,22.62c-0.36,1.01-0.55,2.08-0.56,3.15c0,1.58,2.84,2.1,3.29,0.61c0.31-1.03,0.49-2.08,0.55-3.15 C19.47,21.63,16.62,21.11,16.09,22.62z M32.25,25.47c-0.01,1.07-0.2,2.14-0.56,3.15c-0.54,1.49-3.38,1.01-3.28-0.58 c0.05-1.07,0.24-2.13,0.55-3.15C29.42,23.37,32.27,23.89,32.25,25.47z"></path> <path class="st10" d="M25.56,29.52c-0.61,2.63-4.65,1.93-4.3-0.76C22.6,29.38,24.08,29.64,25.56,29.52z"></path> <path class="st5" d="M11.05,34.57c1.98-0.01,3.6,1.59,3.61,3.57c0.01,1.98-1.59,3.6-3.57,3.61c-1.98,0.01-3.6-1.59-3.61-3.57 c0-0.01,0-0.02,0-0.02C7.47,36.18,9.07,34.58,11.05,34.57z"></path> <path class="st6" d="M11.05,35.18c1.65-0.01,3,1.32,3.01,2.98s-1.32,3-2.98,3.01c-1.65,0.01-3-1.32-3.01-2.98c0-0.01,0-0.02,0-0.04 C8.08,36.52,9.41,35.19,11.05,35.18L11.05,35.18z"></path> <path class="st3" d="M11.05,35.18c1.65-0.03,3.02,1.29,3.04,2.95c0,0.01,0,0.02,0,0.03c0,0.34-0.06,0.68-0.17,1.01 c-0.58,0.22-1.2,0.32-1.83,0.32c-1.83,0-3.39-0.91-3.89-2.16C8.58,36.06,9.73,35.2,11.05,35.18z"></path> <path class="st5" d="M8.47,32.15c0.04-0.65,0.31-1.27,0.75-1.75c0.47-0.33,1.03-0.49,1.6-0.49c0.88,0,2.16,0.34,2.19,1.42 c0.05,2.32,0,4.63,0,6.94c0.02,0.43-0.1,0.85-0.33,1.22c-1.02,1.62-4.33,1.71-5.89,0.88c-0.28-0.12-0.51-0.33-0.65-0.61 c-0.24-0.84-0.4-1.7-0.47-2.56c-0.1-0.95-0.12-1.9-0.04-2.85c0.05-0.69,0.23-1.75,1.01-1.98c0.42-0.12,0.86-0.19,1.3-0.21 C8.11,32.14,8.29,32.14,8.47,32.15L8.47,32.15z"></path> <path class="st5" d="M8.88,35.72c-0.47-1.22-0.49-4.47,0.44-5.19c1.03-0.8,3.46-0.55,3.49,0.77c0.05,2.32,0,4.63,0,6.95 c0.06,2.56-4.11,2.94-5.97,1.96c-0.24-0.1-0.44-0.28-0.56-0.51C6.29,39.71,8.88,35.72,8.88,35.72z"></path> <path class="st6" d="M9.53,35.81c-0.61-1.03-0.5-4.33,0.15-4.82c0.75-0.61,2.58-0.38,2.6,0.36c0.05,1.94,0,4.51,0.04,6.94 c0.05,2.06-4.09,2.33-5.48,1.26L9.53,35.81L9.53,35.81z"></path> <path class="st3" d="M9.09,33.22c0.04-0.98,0.23-1.89,0.54-2.15c0.65-0.38,1.43-0.44,2.13-0.16c0.04,0.72,0.03,1.45-0.03,2.17 C11.65,33.69,9.89,33.6,9.09,33.22L9.09,33.22z"></path> <path class="st5" d="M6.67,32.53c0.41-0.12,0.83-0.19,1.25-0.2c0.86-0.04,3.15,0.13,3.35,1.26c0.27,1.61,0.27,3.26,0,4.87 c-0.23,1.36-3.37,1.33-3.88,0.74l-0.58,0.34l-0.53,0.17c-0.24-0.83-0.4-1.68-0.47-2.54c-0.1-0.93-0.11-1.88-0.04-2.81 C5.85,33.77,5.98,32.72,6.67,32.53L6.67,32.53z"></path> <path class="st6" d="M6.82,33.06c1.58-0.46,3.81,0.04,3.92,0.61c0.26,1.55,0.26,3.14,0,4.7c-0.11,0.71-2.81,1.46-3.92,1.17 C6.13,37.31,6.09,33.29,6.82,33.06L6.82,33.06z"></path> <path class="st3" d="M6.82,33.06c1.07-0.27,2.19-0.24,3.24,0.11c0.21,1.51,0.19,3.03-0.05,4.54c-0.09,0.65-2.08,1.28-3.34,1.28 C6.13,36.7,6.18,33.25,6.82,33.06L6.82,33.06z"></path> <path class="st5" d="M6.03,36.05c1.73-0.46,3.55-0.46,5.28,0l-0.12,0.5c-1.64-0.45-3.37-0.45-5.01,0 C6.18,36.55,6.03,36.05,6.03,36.05z"></path> <path class="st5" d="M30.73,38.77c1.57,0,2.85,1.27,2.85,2.84s-1.27,2.85-2.84,2.85c-1.57,0-2.85-1.27-2.85-2.84c0,0,0,0,0-0.01 C27.89,40.04,29.16,38.77,30.73,38.77C30.72,38.77,30.73,38.77,30.73,38.77L30.73,38.77z"></path> <path class="st6" d="M30.73,39.22c1.31,0,2.37,1.05,2.38,2.36c0,1.31-1.05,2.37-2.36,2.38c-1.31,0-2.37-1.05-2.38-2.36 c0,0,0,0,0-0.01c-0.01-1.3,1.03-2.36,2.33-2.37C30.71,39.22,30.72,39.22,30.73,39.22L30.73,39.22z"></path> <path class="st3" d="M30.73,39.22c1.3,0,2.35,1.05,2.36,2.34c0,0.01,0,0.02,0,0.02c0,0.16-0.01,0.32-0.05,0.48 c-0.37,0.22-0.79,0.34-1.22,0.34c-1.3,0-2.36-1.05-2.36-2.35c0,0,0-0.01,0-0.01c0-0.16,0.01-0.33,0.05-0.49 C29.88,39.34,30.3,39.22,30.73,39.22L30.73,39.22z"></path> <path class="st5" d="M26.63,42.74c-0.44-0.07-0.88-0.24-0.96-0.69c-0.14-0.83-0.18-1.68-0.12-2.52c0.04-0.57,0.68-0.8,1.22-0.91 c0.43-0.5,1.01-0.85,1.65-1.01c1.02-0.03,2.04,0.14,2.98,0.53c0.94,0.33,0.91,2.11,0.88,2.92c-0.04,0.7-0.15,2.22-0.71,2.69 c-1.01,0.85-4.55,0.93-4.8-0.31C26.72,43.21,26.67,42.98,26.63,42.74z"></path> <path class="st5" d="M28.58,39.16c0.17,0.95,0.17,1.92,0,2.86c-0.13,0.51-0.91,0.57-1.35,0.57c-0.44,0-1.27-0.04-1.37-0.61 c-0.14-0.82-0.18-1.65-0.12-2.47c0.04-0.55,0.9-0.72,1.32-0.79C27.48,38.65,28.43,38.58,28.58,39.16L28.58,39.16z"></path> <path class="st6" d="M28.16,39.28c-0.09-0.34-1.97,0-1.99,0.28c-0.06,0.79-0.02,1.59,0.1,2.38c0.06,0.29,1.78,0.32,1.87,0 C28.31,41.06,28.32,40.16,28.16,39.28z"></path> <path class="st5" d="M31.33,38.31c0.83,0.28,0.8,2.06,0.76,2.75c-0.03,0.69-0.13,2.14-0.61,2.56c-0.61,0.38-1.31,0.58-2.03,0.57 c-0.61,0-2.32,0-2.49-0.78c-0.28-1.39-0.36-2.82-0.24-4.23c0.05-0.61,1.22-1.28,1.75-1.37C29.45,37.78,30.42,37.95,31.33,38.31z"></path> <path class="st6" d="M31.14,38.71c-0.84-0.34-1.75-0.5-2.66-0.48c-0.57,0.14-1.06,0.49-1.38,0.98c-0.12,1.37-0.04,2.76,0.23,4.11 c0.11,0.51,2.97,0.67,3.81-0.04C31.69,42.84,31.95,38.93,31.14,38.71L31.14,38.71z"></path> <path class="st3" d="M31.14,38.71c-0.82-0.32-1.7-0.49-2.59-0.49v4.77c0.96,0.13,1.95,0.03,2.87-0.29 C31.75,41.46,31.8,38.88,31.14,38.71z M27.28,38.91c-0.09,0.08-0.15,0.17-0.2,0.28c-0.12,1.37-0.04,2.76,0.23,4.11 c0.11,0.51,2.97,0.67,3.81-0.04c0.06-0.05,0.1-0.11,0.13-0.18c-0.89,0.66-3.66,0.5-3.78,0c-0.27-1.36-0.35-2.74-0.23-4.12 c0,0,0.04-0.04,0.05-0.06L27.28,38.91L27.28,38.91z"></path> <path class="st5" d="M26.84,40.97c0.62-0.25,1.27-0.39,1.94-0.42c0.15,0,0.12,0.46,0,0.46c-0.63,0.02-1.25,0.15-1.83,0.39 L26.84,40.97z"></path> <path class="st7" d="M31.44,42.68c-0.23-0.1-0.46-0.2-0.72-0.32c-0.06-0.02-0.09-0.09-0.07-0.15c0.1-0.89,0.1-1.78,0-2.67 c-0.01-0.06,0.03-0.12,0.09-0.15c0.24-0.12,0.49-0.22,0.74-0.32c0.06,0.08,0.09,0.18,0.08,0.28c-0.23,0.07-0.43,0.17-0.64,0.26 c0.09,0.84,0.09,1.68,0,2.52c0.2,0.1,0.39,0.18,0.61,0.27C31.54,42.51,31.5,42.61,31.44,42.68L31.44,42.68z"></path> </g> </svg> 