<?xml version="1.0" encoding="UTF-8"?> <svg xmlns="http://www.w3.org/2000/svg" xmlns:xlink="http://www.w3.org/1999/xlink" version="1.1" id="Layer_1" x="0px" y="0px" viewBox="0 0 48 48" style="enable-background:new 0 0 48 48;" xml:space="preserve"> <style type="text/css"> .st0{fill-rule:evenodd;clip-rule:evenodd;fill:#46BF93;} .st1{clip-path:url(#SVGID_00000018202412326582663080000010520154920151269029_);fill-rule:evenodd;clip-rule:evenodd;fill:#23996E;} .st2{clip-path:url(#SVGID_00000001658406298964844620000014056623430775171512_);fill-rule:evenodd;clip-rule:evenodd;fill:#46BF93;} .st3{clip-path:url(#SVGID_00000124883556048992610010000005423875911218272412_);fill:#FFFFFF;} .st4{clip-path:url(#SVGID_00000088849224880373843820000007689636070168407453_);fill-rule:evenodd;clip-rule:evenodd;fill:#FFFFFF;} .st5{clip-path:url(#SVGID_00000168829767838692733750000005306237228198193059_);fill-rule:evenodd;clip-rule:evenodd;fill:#FFFFFF;} .st6{clip-path:url(#SVGID_00000155128026552389843410000008119907067587496093_);fill-rule:evenodd;clip-rule:evenodd;fill:#FFFFFF;} .st7{clip-path:url(#SVGID_00000000196506541054767150000016757609366139834550_);fill-rule:evenodd;clip-rule:evenodd;fill:#FFFFFF;} .st8{clip-path:url(#SVGID_00000003083723768015458090000010478082322072509077_);fill-rule:evenodd;clip-rule:evenodd;fill:#FFFFFF;} .st9{clip-path:url(#SVGID_00000031904332337379846020000002163699752292454806_);fill-rule:evenodd;clip-rule:evenodd;fill:#FFFFFF;} .st10{clip-path:url(#SVGID_00000030462262005859330520000003490919353182496906_);fill-rule:evenodd;clip-rule:evenodd;fill:#FFFFFF;} </style> <path class="st0" d="M23.57,1.67C35.95,1.67,46,11.7,46,24.09c0,12.38-10.04,22.43-22.43,22.43S1.14,36.48,1.14,24.09 C1.14,11.7,11.18,1.67,23.57,1.67z"></path> <g> <defs> <circle id="SVGID_1_" cx="23.57" cy="24.09" r="22.43"></circle> </defs> <clipPath id="SVGID_00000109748585231254558730000008846701549706028440_"> <use xlink:href="#SVGID_1_" style="overflow:visible;"></use> </clipPath> <path style="clip-path:url(#SVGID_00000109748585231254558730000008846701549706028440_);fill-rule:evenodd;clip-rule:evenodd;fill:#23996E;" d=" M35.21,9.07l14.23,8.22c0.44,1.88,0.67,3.85,0.67,5.86c0,12.8-9.42,23.38-21.7,25.22L8.63,36.94l24.11-7l0.67-15.56L35.21,9.07z"></path> </g> <g> <defs> <circle id="SVGID_00000025432874199820097790000010612446979778552705_" cx="23.57" cy="24.09" r="22.43"></circle> </defs> <clipPath id="SVGID_00000181057917098308878790000012852559881866062235_"> <use xlink:href="#SVGID_00000025432874199820097790000010612446979778552705_" style="overflow:visible;"></use> </clipPath> <path style="clip-path:url(#SVGID_00000181057917098308878790000012852559881866062235_);fill-rule:evenodd;clip-rule:evenodd;fill:#46BF93;" d=" M28.34,9.49l6.12-0.08c0,0,1.41,0.5,1.32,1.41c-0.08,0.91,0.08,3.48,0.08,3.48h-3.15l0.17,13.33c0,0-0.5,3.73-1.49,4.88 c-1,1.16-2.65,1.57-2.65,1.57h-4.06c0,0,0,1.74-1.24,1.91C22.21,36.14,8.72,36.3,8.72,36.3s1.65-1,1.74-2.82 c0.08-1.82-0.08-2.9-0.08-2.9s-0.08-1.74,1.16-1.65s6.79,0.17,6.79,0.17L18.15,15.1l0.17-3.64c0,0,0.24-1.65,1.41-1.74 c1.16-0.08,2.9-0.41,2.9-0.41L28.34,9.49z"></path> </g> <g> <defs> <circle id="SVGID_00000098212945812290416810000015350846610407252616_" cx="23.57" cy="24.09" r="22.43"></circle> </defs> <clipPath id="SVGID_00000180348949717399737530000004147581183008659879_"> <use xlink:href="#SVGID_00000098212945812290416810000015350846610407252616_" style="overflow:visible;"></use> </clipPath> <path style="clip-path:url(#SVGID_00000180348949717399737530000004147581183008659879_);fill:#FFFFFF;" d="M25.37,33.38h1.52 c-0.25-0.58-0.24-1.27-0.24-1.97c0-0.15,0-0.3,0-0.46c-0.01-0.49-0.03-1.23-0.63-1.22c-0.3,0-0.46,0.19-0.55,0.47 c-0.05,0.24-0.07,0.53-0.07,0.81c0,0.82-0.01,1.51-0.03,2.12L25.37,33.38z M33.6,13.48H35v-2.76c0-0.16-0.07-0.3-0.17-0.41 c-0.11-0.11-0.25-0.17-0.41-0.17h-0.23c-0.16,0-0.3,0.07-0.41,0.17c-0.11,0.11-0.17,0.25-0.17,0.41L33.6,13.48L33.6,13.48z M35.67,14.81H33.6v11.05v0.03c-0.09,2.46-0.43,4.75-1.16,6.34c-0.69,1.53-1.73,2.47-3.21,2.47H29c-1.02,0.02-2.21,0.01-3.31,0.01 h-0.45c-0.04,0.26-0.1,0.49-0.17,0.68c-0.38,1.11-1.05,1.46-2.28,1.46H8.35l-0.01-1.32h0.01h0.07c1.2-0.06,1.33-1.06,1.3-2.89 c-0.01-0.34-0.02-0.73-0.03-1.16l-0.03-0.69c-0.03-0.77,0.1-1.32,0.44-1.74c0.36-0.45,0.89-0.64,1.64-0.64c3.5,0,1.62,0,5.95,0.01 v-15c0-4.6,1.28-4.6,4.5-4.6h0.13H33.9C34,8.8,34.09,8.8,34.18,8.8h0.23c0.53,0,1,0.22,1.36,0.57c0.35,0.35,0.57,0.83,0.57,1.36 v4.09L35.67,14.81L35.67,14.81z M32.27,14.81v-4.09c0-0.19,0.03-0.39,0.08-0.57h-3.15h-7c-2.27,0-3.17,0-3.17,3.27V28.4h6.1 c0.21,0,0.45,0,0.66,0.04c0.13-0.02,0.28-0.03,0.43-0.02c0.58,0.02,1.04,0.33,1.35,0.84c0.26,0.44,0.4,1.03,0.41,1.67v0.48 c-0.01,0.84-0.02,1.66,0.82,1.92c0.02,0.01,0.11,0.01,0.2,0.02l0.13,0.01h0.1c0.88,0,1.53-0.64,2-1.69 c0.65-1.43,0.95-3.53,1.05-5.82L32.27,14.81L32.27,14.81z M18.25,29.74c-0.49,0,1.07,0-6.51,0c-0.34,0-0.53,0.05-0.62,0.15 c-0.11,0.13-0.15,0.42-0.14,0.86L11,31.43c0.02,0.41,0.03,0.79,0.03,1.18c0.03,1.23-0.03,2.21-0.3,2.91H22.8 c0.57,0,0.88-0.13,1.02-0.56c0.13-0.4,0.2-1.02,0.24-1.89l0.01-2.31c0-0.34,0.04-0.69,0.15-1.03H18.25z"></path> </g> <g> <defs> <circle id="SVGID_00000147195679345973337350000017809762142664566459_" cx="23.57" cy="24.09" r="22.43"></circle> </defs> <clipPath id="SVGID_00000006675437236912180840000016547914730109390729_"> <use xlink:href="#SVGID_00000147195679345973337350000017809762142664566459_" style="overflow:visible;"></use> </clipPath> <path style="clip-path:url(#SVGID_00000006675437236912180840000016547914730109390729_);fill-rule:evenodd;clip-rule:evenodd;fill:#FFFFFF;" d=" M20.81,13.29h4.43v1.04h-4.43V13.29z"></path> </g> <g> <defs> <circle id="SVGID_00000099651829234905788190000007495282641672649092_" cx="23.57" cy="24.09" r="22.43"></circle> </defs> <clipPath id="SVGID_00000068665696200129779030000015629438451142031547_"> <use xlink:href="#SVGID_00000099651829234905788190000007495282641672649092_" style="overflow:visible;"></use> </clipPath> <path style="clip-path:url(#SVGID_00000068665696200129779030000015629438451142031547_);fill-rule:evenodd;clip-rule:evenodd;fill:#FFFFFF;" d=" M20.81,15.44h9.89v1.04h-9.89L20.81,15.44z"></path> </g> <g> <defs> <circle id="SVGID_00000145032673711799984500000014224444690947298990_" cx="23.57" cy="24.09" r="22.43"></circle> </defs> <clipPath id="SVGID_00000016788378837909061390000011443813632050655423_"> <use xlink:href="#SVGID_00000145032673711799984500000014224444690947298990_" style="overflow:visible;"></use> </clipPath> <path style="clip-path:url(#SVGID_00000016788378837909061390000011443813632050655423_);fill-rule:evenodd;clip-rule:evenodd;fill:#FFFFFF;" d=" M20.81,17.52h8.33v1.04h-8.33L20.81,17.52z"></path> </g> <g> <defs> <circle id="SVGID_00000183222769324613651620000018406552067436538538_" cx="23.57" cy="24.09" r="22.43"></circle> </defs> <clipPath id="SVGID_00000080916757420959468130000001648368948400979630_"> <use xlink:href="#SVGID_00000183222769324613651620000018406552067436538538_" style="overflow:visible;"></use> </clipPath> <path style="clip-path:url(#SVGID_00000080916757420959468130000001648368948400979630_);fill-rule:evenodd;clip-rule:evenodd;fill:#FFFFFF;" d=" M20.81,19.58h9.24v1.04h-9.24V19.58z"></path> </g> <g> <defs> <circle id="SVGID_00000030488713740701133170000012628678114517148342_" cx="23.57" cy="24.09" r="22.43"></circle> </defs> <clipPath id="SVGID_00000147181536552782006160000003860851107401010354_"> <use xlink:href="#SVGID_00000030488713740701133170000012628678114517148342_" style="overflow:visible;"></use> </clipPath> <path style="clip-path:url(#SVGID_00000147181536552782006160000003860851107401010354_);fill-rule:evenodd;clip-rule:evenodd;fill:#FFFFFF;" d=" M20.81,21.66h5.38v1.03h-5.38V21.66z"></path> </g> <g> <defs> <circle id="SVGID_00000176740132211161060520000013008215710849542296_" cx="23.57" cy="24.09" r="22.43"></circle> </defs> <clipPath id="SVGID_00000033359557389549678810000005527683176054912153_"> <use xlink:href="#SVGID_00000176740132211161060520000013008215710849542296_" style="overflow:visible;"></use> </clipPath> <path style="clip-path:url(#SVGID_00000033359557389549678810000005527683176054912153_);fill-rule:evenodd;clip-rule:evenodd;fill:#FFFFFF;" d=" M20.81,23.72h9.56v1.04h-9.56L20.81,23.72z"></path> </g> <g> <defs> <circle id="SVGID_00000183240279461725032890000017859168691440409482_" cx="23.57" cy="24.09" r="22.43"></circle> </defs> <clipPath id="SVGID_00000101082367940228293020000001725765517669175230_"> <use xlink:href="#SVGID_00000183240279461725032890000017859168691440409482_" style="overflow:visible;"></use> </clipPath> <path style="clip-path:url(#SVGID_00000101082367940228293020000001725765517669175230_);fill-rule:evenodd;clip-rule:evenodd;fill:#FFFFFF;" d=" M20.81,25.79h7.79v1.04h-7.79L20.81,25.79z"></path> </g> </svg> 