<svg fill="none" height="652" viewBox="0 0 600 652" width="600" xmlns="http://www.w3.org/2000/svg"><g fill="#185ce3"><path d="m116.215 68.7852h-37.8986c-3.553 0-6.3164 2.8621-6.3164 6.3164v28.4234c0 3.553 2.7634 6.317 6.3164 6.317h9.4746v8.29c0 .79.4935 1.184 1.1843 1.184.1974 0 .3948 0 .6909-.197l12.3368-9.277h14.212c3.454 0 6.316-2.764 6.316-6.317v-28.4234c0-3.4543-2.862-6.3164-6.316-6.3164zm3.158 34.7398c0 1.777-1.48 3.159-3.158 3.159h-15.298l-.888.69-9.0798 6.81v-7.5h-12.6328c-1.7765 0-3.1582-1.382-3.1582-3.159v-28.4234c0-1.6778 1.3817-3.1582 3.1582-3.1582h37.8986c1.678 0 3.158 1.4804 3.158 3.1582zm-14.705-11.2507c-1.777 2.1713-4.54 3.3556-7.4024 3.3556-2.9608 0-5.6255-1.1843-7.5007-3.3556-.5922-.6909-1.5791-.7896-2.27-.1974-.6908.5922-.6908 1.5791-.1974 2.27 2.4674 2.8621 6.1191 4.4412 9.9681 4.4412 3.7504 0 7.4024-1.5791 9.8694-4.4412.592-.6909.493-1.6778-.197-2.27-.691-.5922-1.678-.4935-2.27.1974zm-13.7188-5.3295c1.283 0 2.3687-.9869 2.3687-2.3686 0-1.283-1.0857-2.3687-2.3687-2.3687-1.3817 0-2.3686 1.0857-2.3686 2.3687 0 1.3817.9869 2.3686 2.3686 2.3686zm12.6328 0c1.283 0 2.369-.9869 2.369-2.3686 0-1.283-1.086-2.3687-2.369-2.3687-1.382 0-2.369 1.0857-2.369 2.3687 0 1.3817.987 2.3686 2.369 2.3686z" opacity=".15"/><path d="m138.397 413.088v1.253c0 .896-.627 1.523-1.523 1.523l-31.967.089 33.579 33.58c.627.626.627 1.522 0 2.149l-.895.895c-.537.537-1.522.627-2.149 0l-33.58-33.579v31.878c0 .895-.626 1.522-1.522 1.522h-1.2535c-.8955 0-1.5223-.627-1.5223-1.522v-37.788c0-.896.6268-1.522 1.5223-1.522h37.7875c.896 0 1.523.626 1.523 1.522z"/></g></svg>