<svg fill="none" height="275" viewBox="0 0 376 275" width="376" xmlns="http://www.w3.org/2000/svg" xmlns:xlink="http://www.w3.org/1999/xlink"><clipPath id="a"><path d="m0 0h376v275h-376z"/></clipPath><g clip-path="url(#a)"><path d="m258.82-15.0197-7.954-2.9771-3.148-2.5009-5.061 2.0235-.961 5.1275 2.07 4.84654-2.681 8.626491-4.547.421349-1.633-2.64144-.003-6.79428-104.255-12.53786-4.477-13.5775-102.2744-8.3452-2.1428 5.7552 4.0625 6.7061 3.2254 2.0908 1.3887 2.808-3.629 14.8179-2.4918.8068.874 1.01301 2.171-.22992 1.7464-1.37109 22.6221-1.4914 19.1039 2.51973 15.92 7.0182 15.55 13.53037 4.626 2.5656 3.754 4.9497-1.244 5.4991 4.933.9248 4.291-1.3188 5.1 1.1685 4.419-.8701 6.73-2.9844 7.488-4.7532 2.414-.3965 1.042 1.2567 2.877.5394 1.336-1.448-.567-2.6539-1.002-1.4618.719-1.5637 4.534-1.48536 10.432 1.10637 1.26 2.35929 2.017.5904 4.343 2.9373 5.475 4.8478 1.813 3.9491 1.8 2.885 5.217 3.9503-.923 4.9224 5.026 4.9759 2.017.5904 2.751 3.4879.823 3.5513 1.979.7955.837 4.6154 1.208 1.5003 2.479-1.8707 5.923 1.3226.489 3.064 1.915 2.2698-.499 2.6663 5.115 5.6296-3.28 19.7665-5.93 11.202 1.594 2.8461-1.718 6.897-2.183 2.563.978 2.731 3.843 5.603.04 3.192 1.26 2.359-.091-4.05 2.903-.73 3.028-7.075-5.705-3.618.436-1.192 5.498.182.851 5.679 2.03 1.655.975-4.064 2.146 1.04.925 1.871-.474 1.398-7.576 7.496-.835 2.179-4.224 3.242-.423 2.256 6.144 9.219 7.858 18.246 2.892 5-.692 3.692 3.987 10.514 4.498 2.116 1.9-2.191-4.432-.194-4.437-10.385.949-2.795 3.391-1.062.577-3.077-.733-2.897 2.196-1.499.476 2 1.247 1.295-1.538 8.204-2.236-1.693-1.991 1.537 2.263 3.821 1.056 5.718 2.697-.768 4.267 3.348 3.471 5.321 1.328 11.076 4.527 11.04 2.144-2.358 5.948.053 6.078 3.9-.037 3.602 5.323 9.065-.218 2.295 3.485 6.385-1.632.756-1.038 5.538 5.012 3.911 3.084.578 6.242-2.651 2.968 1.193 2.107 1.245 5.382-2.601.68-1.358 2.352 1.077 5.587-2.561 3.556-4.217-.208-6.832.088-2.744 3.799-7.78 1.311-.179.618 3.513 2.336-3.383 1.124-15.076 3.215-21.689.559-14.332-.785-3.757-9.3-25.309-7.19-20.667-3.254-7.616-1.288-7.8849.896-7.0503 1.966-.2685.346-1.8459-1.416-4.936-6.684-9.7453-11.893-22.8232-7.719-23.5266-4.725-23.60245.189-7.81977-2.082-2.5134.433-7.98638zm-32.801 279.4017 3.532.45-1.054-2.321zm15.428.557.27-1.436 3.365.206 8.875-5.342 3.314-.653 5.28-.921.117 2.782 3.187 2.296-5.807 1.459-4.933-.925-8.978 3.625zm38.279-8.96-6.705 1.716-2.555 2.28 2.222.629zm8.926-4.483-2.376.191-3.647 3.563 2.338.013 3.699-2.703zm23.098-29.002-5.647 10.83-2.029 1.743-3.056 4.947-3.081 2.819-2.093 3.217-4.751 3.78-.347 1.846 6.627-4.702 6.279-6.254 2.003-3.871 6.2-9.24z" fill="#185ce3" opacity=".05"/></g></svg>