<svg fill="none" height="602" viewBox="0 0 637 602" width="637" xmlns="http://www.w3.org/2000/svg"><g fill="#185ce3"><path d="m127.397 392.088v1.253c0 .896-.627 1.523-1.523 1.523l-31.9671.089 33.5791 33.58c.627.626.627 1.522 0 2.149l-.895.895c-.537.537-1.522.627-2.149 0l-33.5796-33.579v31.878c0 .895-.6268 1.522-1.5223 1.522h-1.2536c-.8955 0-1.5223-.627-1.5223-1.522v-37.788c0-.896.6268-1.522 1.5223-1.522h37.7875c.896 0 1.523.626 1.523 1.522z"/><path d="m527.46 70.3997h-5.79v-13.51c0-.9651-.965-1.9301-1.93-1.9301-1.085 0-1.93.965-1.93 1.9301v13.51h-19.3v-13.51c0-.9651-.965-1.9301-1.93-1.9301-1.086 0-1.93.965-1.93 1.9301v13.51h-5.79c-2.171 0-3.86 1.8094-3.86 3.8601v3.86c0 2.1713 1.689 3.86 3.86 3.86v3.86c0 10.012 7.599 18.2142 17.37 19.1792v11.701h3.86v-11.701c9.65-.965 17.37-9.1672 17.37-19.1792v-3.86c2.051 0 3.86-1.6887 3.86-3.86v-3.86c0-2.0507-1.809-3.8601-3.86-3.8601zm-3.86 15.4401c0 8.5645-6.996 15.4402-15.44 15.4402-8.564 0-15.44-6.8757-15.44-15.4402v-3.86h30.88zm3.86-7.72h-38.6v-3.86h38.6z" opacity=".15"/><path d="m528.145 527.42h1.93c.483 0 .965-.362.965-.965v-28.95c0-.483-.482-.965-.965-.965h-1.93c-.603 0-.965.482-.965.965v28.95c0 .603.362.965.965.965zm-11.58 0h1.93c.483 0 .965-.362.965-.965v-17.37c0-.483-.482-.965-.965-.965h-1.93c-.603 0-.965.482-.965.965v17.37c0 .603.362.965.965.965zm-23.16 0h1.93c.483 0 .965-.362.965-.965v-9.65c0-.483-.482-.965-.965-.965h-1.93c-.603 0-.965.482-.965.965v9.65c0 .603.362.965.965.965zm11.58 0h1.93c.483 0 .965-.362.965-.965v-25.09c0-.483-.482-.965-.965-.965h-1.93c-.603 0-.965.482-.965.965v25.09c0 .603.362.965.965.965zm32.81 7.72h-56.935v-41.495c0-.483-.482-.965-.965-.965h-1.93c-.603 0-.965.482-.965.965v43.425c0 1.086.844 1.93 1.93 1.93h58.865c.483 0 .965-.362.965-.965v-1.93c0-.483-.482-.965-.965-.965z" opacity=".15"/></g></svg>