<svg fill="none" height="247" viewBox="0 0 247 247" width="247" xmlns="http://www.w3.org/2000/svg" xmlns:xlink="http://www.w3.org/1999/xlink"><linearGradient id="a" gradientUnits="userSpaceOnUse" x1="82.2146" x2="226.118" y1="146.767" y2="148.002"><stop offset="0" stop-color="#42adfb"/><stop offset="1" stop-color="#42adfb" stop-opacity="0"/></linearGradient><clipPath id="b"><path d="m0 0h247v247h-247z"/></clipPath><g clip-path="url(#b)"><path d="m11.4864 206.621-31.2905 35.507c-6.4451 7.314-6.6038 18.232-.3741 25.73 3.7596 4.524 9.3065 7.142 15.18938 7.142h234.26282c1.246 0 1.798-86.797 1.718-155.104-.022-19.312-24.565-27.0832-35.818-11.389l-.43.6c-1.219 1.699-2.696 3.197-4.379 4.438l-24.054 17.75c-1.533 1.131-2.896 2.475-4.049 3.991l-27.984 36.822c-4.991 6.567-13.501 9.396-21.43 7.125l-16.8655-4.83c-7.1657-2.052-14.8781.05-20.0104 5.456l-15.0576 15.859c-4.3508 4.582-10.6113 6.839-16.8852 6.086l-15.1565-1.817c-6.5341-.784-13.0354 1.697-17.3864 6.634z" fill="url(#a)" opacity=".37"/><path d="m232.985 56.8283c-.095-.5441-.613-.9083-1.157-.8134l-8.866 1.5454c-.544.0949-.908.6128-.813 1.1569.094.5441.612.9083 1.156.8134l7.882-1.3737 1.373 7.8811c.095.5441.613.9083 1.157.8135.544-.0949.908-.6128.814-1.1569zm-41.35 55.8007-.595-.804zm4.468-4.576.818.575zm-33.724 27.296.803.596zm-49.403 43.679.311-.95zm22.293-7.098-.803-.596zm-58.4578 7.068.7175.697zm-34.4953 22.864-.1768.984zm17.8867-5.754-.7175-.697zm-29.9032 3.595.1768-.984zm-53.5392 48.947 35.5597-41.606-1.5204-1.3-35.5597 41.606zm53.3624-47.962 12.0165 2.158.3536-1.968-12.0165-2.159zm30.7976-3.884 16.6085-17.109-1.4351-1.393-16.6085 17.109zm36.1557-21.931 15.5881 5.105.623-1.9-15.5886-5.106zm38.9971-2.348 27.109-36.58-1.607-1.191-27.109 36.58zm31.077-40.544 25.08-18.548-1.19-1.608-25.08 18.548zm29.771-23.353 35.897-51.0528-1.636-1.1504-35.897 51.0522zm-4.691 4.805c1.811-1.339 3.395-2.962 4.691-4.805l-1.636-1.151c-1.172 1.668-2.605 3.136-4.245 4.348zm-29.048 22.512c1.119-1.51 2.456-2.846 3.968-3.964l-1.19-1.608c-1.67 1.236-3.148 2.712-4.385 4.381zm-50.518 44.033c8.594 2.815 18.025-.188 23.409-7.453l-1.607-1.191c-4.872 6.574-13.404 9.29-21.179 6.744zm-35.1353-.283c5.0586-5.211 12.6454-7.083 19.5472-4.822l.6225-1.901c-7.6283-2.499-16.0137-.43-21.6048 5.33zm-35.3896 23.151c6.8757 1.235 13.9154-1.029 18.7811-6.042l-1.4351-1.393c-4.4023 4.535-10.7716 6.584-16.9924 5.467zm-29.8192 4.198c4.3844-5.13 11.1608-7.549 17.8027-6.356l.3536-1.969c-7.341-1.318-14.8307 1.356-19.6767 7.025z" fill="#3d8fee"/></g></svg>