<svg fill="none" height="121" viewBox="0 0 327 121" width="327" xmlns="http://www.w3.org/2000/svg" xmlns:xlink="http://www.w3.org/1999/xlink"><clipPath id="a"><path d="m0 .830078h327v120h-327z"/></clipPath><g clip-path="url(#a)" fill="#a3bef4"><path d="m36.668 109.074-4.1172-4.15c-.5313-.498-1.1953-.764-1.8926-.764-.498 0-1.0293.133-1.4609.432l-2.8223-2.822v-2.4575l-4.25-3.1875-2.125 2.125 3.1875 4.25h2.4238l2.8223 2.855c-.6641 1.03-.5645 2.424.3652 3.354l4.1172 4.117c.1992.199.4981.332.7637.332s.5312-.133.7305-.332l2.2578-2.258c.4316-.398.4316-1.095 0-1.494zm-11.3555-7.67v.034h-1.5937l-2.3243-3.0884.8301-.7969 3.0879 2.2911zm8.3672 10.658-4.1504-4.117c-.2988-.299-.4648-.697-.4648-1.129 0-.431.166-.83.4648-1.128.2988-.299.6973-.465 1.1289-.465s.8301.166 1.1289.465l4.1504 4.15zm-11.5547-1.593c0 .299.2324.531.5312.531.2657 0 .5313-.232.5313-.531 0-.266-.2656-.531-.5313-.531-.2988 0-.5312.265-.5312.531zm7.0391-12.1194c.7636-.7305 1.7597-1.1621 2.789-1.1621.2324 0 .4649.0332.6973.0664l-2.291 2.3242.4316 2.7559 2.7559.432 2.3242-2.291c.1992 1.261-.1992 2.556-1.0957 3.486-.2988.299-.6309.531-.9961.697l.7637.797c.3652-.199.664-.465.9629-.764 1.2617-1.261 1.7597-3.021 1.3281-4.7476-.0664-.3321-.332-.5645-.6309-.6641-.332-.0664-.664 0-.8965.2324l-2.125 2.1253-1.4609-.233-.2324-1.4606 2.125-2.125c.1992-.2325.2988-.5645.2324-.8965-.0996-.2989-.3652-.5645-.6641-.6309-1.7265-.4316-3.4863.0664-4.748 1.3281-.4316.4317-.7637.9297-.9961 1.461v2.2579l.7305.73c-.3321-1.361.0332-2.7555.9961-3.7184zm-5.6114 13.3144c-.5644.531-1.5273.531-2.0918 0-.5644-.598-.5644-1.527 0-2.092l4.8477-4.847-.7305-.731-4.8476 4.848c-.9961.963-.9961 2.59 0 3.553.4648.498 1.0957.73 1.7597.73.6973 0 1.3282-.232 1.793-.73l3.3867-3.387c-.2324-.299-.3984-.631-.5312-.963z" opacity=".5"/><path d="m306.652 105.156-3.818-1.494c-.133-.066-.266-.1-.365-.1-.133 0-.266.034-.399.1l-3.818 1.494c-.332.133-.564.465-.564.797 0 3.719 2.257 6.276 4.382 7.106.133.066.266.066.399.066.099 0 .232 0 .365-.066 1.693-.664 4.416-2.955 4.416-7.106 0-.332-.232-.664-.598-.797zm-4.714 6.641c-1.627-.863-3.155-2.889-3.188-5.711l3.188-1.229zm.531.299v-.034zm.531-.266v-6.973l3.188 1.229c-.067 3.154-1.926 5.014-3.188 5.744zm-15.406.232c-.299 0-.532-.232-.532-.531v-1.361c0-1.893 1.495-3.42 3.387-3.42.664 0 1.295.531 2.989.531 1.66 0 2.324-.531 2.955-.531.099 0 .166.033.265.033-.033-.265-.033-.531-.033-.83 0-.066 0-.133.033-.232-.099 0-.166-.033-.265-.033-.963 0-1.395.531-2.955.531-1.594 0-2.026-.531-2.989-.531-2.457 0-4.449 2.025-4.449 4.482v1.361c0 .897.697 1.594 1.594 1.594h11.687c.199 0 .432-.033.631-.133-.365-.265-.664-.564-.996-.93zm5.844-7.437c2.324 0 4.25-1.893 4.25-4.25 0-2.3242-1.926-4.25-4.25-4.25-2.358 0-4.25 1.9258-4.25 4.25 0 2.357 1.892 4.25 4.25 4.25zm0-7.4375c1.726 0 3.187 1.4609 3.187 3.1875 0 1.76-1.461 3.187-3.187 3.187-1.76 0-3.188-1.427-3.188-3.187 0-1.7266 1.428-3.1875 3.188-3.1875z" opacity=".5"/><path d="m37.2949 12.25h-14.0117l-.2988-1.4609c-.0664-.3653-.3985-.6641-.7637-.6641h-2.8223c-.2324 0-.3984.1992-.3984.3984v.2657c0 .2324.166.3984.3984.3984h2.5899l2.3242 12.3848c-.332.3984-.5313.8965-.5313 1.4277 0 1.1953.9297 2.125 2.125 2.125 1.1622 0 2.125-.9297 2.125-2.125 0-.3652-.1328-.7305-.2988-1.0625h4.8145c-.166.332-.2657.6973-.2657 1.0625 0 1.1953.9297 2.125 2.125 2.125 1.1622 0 2.125-.9297 2.125-2.125 0-.5645-.2656-1.1289-.664-1.4941-.0664-.3653-.3984-.6309-.7637-.6309h-9.8281l-.3984-2.125h10.9902c.3984 0 .6973-.2324.7969-.6309l1.4277-6.9062c.0996-.4981-.2656-.9629-.7969-.9629zm-10.3261 12.75c0 .5977-.4981 1.0625-1.0626 1.0625-.5976 0-1.0624-.4648-1.0624-1.0625 0-.5645.4648-1.0625 1.0624-1.0625.5645 0 1.0626.498 1.0626 1.0625zm7.4374 1.0625c-.5976 0-1.0624-.4648-1.0624-1.0625 0-.5645.4648-1.0625 1.0624-1.0625.5645 0 1.0626.498 1.0626 1.0625 0 .5977-.4981 1.0625-1.0626 1.0625zm1.2618-6.375h-10.9903l-1.1953-6.375h13.5137z" opacity=".5"/><path d="m306.281 11.1875h-11.687c-.897 0-1.594.7305-1.594 1.5937v11.6876c0 .8964.697 1.5937 1.594 1.5937h11.687c.864 0 1.594-.6973 1.594-1.5937v-11.6876c0-.8632-.73-1.5937-1.594-1.5937zm.531 13.2813c0 .2988-.265.5312-.531.5312h-11.687c-.299 0-.532-.2324-.532-.5312v-11.6876c0-.2656.233-.5312.532-.5312h11.687c.266 0 .531.2656.531.5312zm-9.296-6.9063h-.532c-.166 0-.265.1328-.265.2656v4.7813c0 .166.099.2656.265.2656h.532c.132 0 .265-.0996.265-.2656v-4.7813c0-.1328-.133-.2656-.265-.2656zm3.187-3.1875h-.531c-.166 0-.266.1328-.266.2656v7.9688c0 .166.1.2656.266.2656h.531c.133 0 .266-.0996.266-.2656v-7.9688c0-.1328-.133-.2656-.266-.2656zm3.188 5.3125h-.532c-.166 0-.265.1328-.265.2656v2.6563c0 .166.099.2656.265.2656h.532c.132 0 .265-.0996.265-.2656v-2.6563c0-.1328-.133-.2656-.265-.2656z" opacity=".5"/><path d="m278.688 58.75c-.963 0-1.827.4316-2.391 1.0957l-3.188-1.9922c.332-.7637.332-1.6601 0-2.4238l3.188-1.9922c.564.6641 1.428 1.0625 2.391 1.0625 1.759 0 3.187-1.4277 3.187-3.1875s-1.428-3.1875-3.187-3.1875c-1.76 0-3.188 1.4277-3.188 3.1875 0 .4316.066.8633.232 1.2285l-3.187 1.9922c-.565-.6641-1.428-1.0957-2.357-1.0957-1.76 0-3.188 1.4277-3.188 3.1875s1.428 3.1875 3.188 3.1875c.929 0 1.792-.3984 2.357-1.0625l3.187 1.9922c-.166.3652-.232.7637-.232 1.1953 0 1.7598 1.428 3.1875 3.188 3.1875 1.759 0 3.187-1.4277 3.187-3.1875s-1.428-3.1875-3.187-3.1875zm0-9.5625c1.162 0 2.124.9629 2.124 2.125 0 1.1953-.962 2.125-2.124 2.125-1.196 0-2.126-.9297-2.126-2.125 0-1.1621.93-2.125 2.126-2.125zm-8.5 9.5625c-1.196 0-2.126-.9297-2.126-2.125 0-1.1621.93-2.125 2.126-2.125 1.162 0 2.124.9629 2.124 2.125 0 1.1953-.962 2.125-2.124 2.125zm8.5 5.3125c-1.196 0-2.126-.9297-2.126-2.125 0-1.1621.93-2.125 2.126-2.125 1.162 0 2.124.9629 2.124 2.125 0 1.1953-.962 2.125-2.124 2.125z" opacity=".5"/><path d="m50.7188 63.1289h1.0624c.5645 0 1.0626-.4648 1.0626-1.0625v-1.0625c0-.5644-.4981-1.0625-1.0626-1.0625h-1.0624c-.5977 0-1.0626.4981-1.0626 1.0625v1.0625c0 .5977.4649 1.0625 1.0626 1.0625zm0-2.125h1.0624v1.0625h-1.0624zm0-6.375h1.0624c.5645 0 1.0626-.4648 1.0626-1.0625v-1.0625c0-.5644-.4981-1.0625-1.0626-1.0625h-1.0624c-.5977 0-1.0626.4981-1.0626 1.0625v1.0625c0 .5977.4649 1.0625 1.0626 1.0625zm0-2.125h1.0624v1.0625h-1.0624zm10.0937-3.7187h-12.75c-.5977 0-1.0625.498-1.0625 1.0625v14.875c0 .5976.4648 1.0625 1.0625 1.0625h12.75c.5645 0 1.0625-.4649 1.0625-1.0625v-14.875c0-.5645-.498-1.0625-1.0625-1.0625zm0 15.9375h-12.75v-14.875h12.75zm-6.6406-11.1563h4.25c.1328 0 .2656-.0996.2656-.2656v-.5313c0-.1328-.1328-.2656-.2656-.2656h-4.25c-.166 0-.2657.1328-.2657.2656v.5313c0 .166.0997.2656.2657.2656zm0 4.25h4.25c.1328 0 .2656-.0996.2656-.2656v-.5313c0-.1328-.1328-.2656-.2656-.2656h-4.25c-.166 0-.2657.1328-.2657.2656v.5313c0 .166.0997.2656.2657.2656zm0 4.25h4.25c.1328 0 .2656-.0996.2656-.2656v-.5313c0-.1328-.1328-.2656-.2656-.2656h-4.25c-.166 0-.2657.1328-.2657.2656v.5313c0 .166.0997.2656.2657.2656zm-3.2539-3.7519c.0664.0664.1992.0664.2656 0l2.125-2.125c.0664-.0665.0664-.1661 0-.2325l-.4316-.4316c-.0665-.0664-.1661-.0664-.2325 0l-1.5937 1.5605-.6641-.6972c-.0996-.0664-.1992-.0664-.2656 0l-.4316.4316c-.0665.0664-.0665.166 0 .2324z" opacity=".5"/><path d="m84.5312 2.1875h-15.9374c-.8965 0-1.5938.73047-1.5938 1.59375v11.68755c0 .8964.6973 1.5937 1.5938 1.5937h15.9374c.8633 0 1.5938-.6973 1.5938-1.5937v-11.68755c0-.86328-.7305-1.59375-1.5938-1.59375zm-15.9374 1.0625h15.9374c.2657 0 .5313.26562.5313.53125v1.59375h-17v-1.59375c0-.26563.2324-.53125.5313-.53125zm15.9374 12.75h-15.9374c-.2989 0-.5313-.2324-.5313-.5312v-6.9063h17v6.9063c0 .2988-.2656.5312-.5313.5312zm-11.1562-2.7891c0-.1992-.1992-.3984-.3984-.3984h-2.3907c-.2324 0-.3984.1992-.3984.3984v.2657c0 .2324.166.3984.3984.3984h2.3907c.1992 0 .3984-.166.3984-.3984zm6.375 0c0-.1992-.1992-.3984-.3984-.3984h-4.5157c-.2324 0-.3984.1992-.3984.3984v.2657c0 .2324.166.3984.3984.3984h4.5157c.1992 0 .3984-.166.3984-.3984z" opacity=".5"/><path d="m255.002 9.12695-7.338 2.09185c-.498.1328-.564.8632-.066 1.0957l1.826.8632-2.026 2.0254c-.398.3985-.398 1.0957 0 1.4942l.764.7636c.199.1993.465.2989.731.2989.298 0 .564-.0996.763-.2989l2.026-2.0254.863 1.8262c.1.2324.332.3321.531.3321.233 0 .498-.1329.565-.3985l2.091-7.33788c.133-.43164-.298-.86328-.73-.73047zm-2.025 6.57425-.997-2.0586-3.087 3.0547-.731-.7305 3.055-3.0879-2.059-.9961 5.313-1.4941zm4.914-6.0762c0-1.46094-1.196-2.65625-2.657-2.65625-1.129 0-2.091.73047-2.49 1.69336 1.826-.49805 2.092-.63086 2.49-.63086.864 0 1.594.73047 1.594 1.59375 0 .3984-.133.6641-.631 2.4902.963-.3984 1.694-1.3613 1.694-2.4902zm-2.557 5.4453c2.955-.0664 5.346-2.457 5.346-5.4453 0-2.98828-2.457-5.44531-5.446-5.44531-2.988 0-5.379 2.39062-5.445 5.3457l1.096-.33203c.232-2.19141 2.058-3.95117 4.349-3.95117 2.391 0 4.383 1.99219 4.383 4.38281 0 2.291-1.76 4.1172-3.951 4.3496zm-.1-13.67968c-4.548 0-8.234 3.71876-8.234 8.23438 0 .26562 0 .498.033.7305.1-.0664.233-.1328.365-.166l.664-.19927c0-.09961 0-.23242 0-.36523 0-3.95117 3.188-7.17188 7.172-7.17188 3.952 0 7.172 3.22071 7.172 7.17188 0 3.9844-3.22 7.1719-7.172 7.1719-.132 0-.265 0-.365 0l-.199.664c-.033.1329-.1.2657-.166.3653.232.0332.465.0332.73.0332 4.516 0 8.235-3.6856 8.235-8.2344 0-4.51562-3.719-8.23438-8.235-8.23438z" opacity=".5"/></g></svg>