<svg fill="none" height="556" viewBox="0 0 637 556" width="637" xmlns="http://www.w3.org/2000/svg" xmlns:xlink="http://www.w3.org/1999/xlink"><linearGradient id="a" gradientUnits="userSpaceOnUse" x1="82.2146" x2="226.118" y1="396.767" y2="398.002"><stop offset="0" stop-color="#42adfb"/><stop offset="1" stop-color="#42adfb" stop-opacity="0"/></linearGradient><clipPath id="b"><path d="m0 250h247v247h-247z"/></clipPath><g clip-path="url(#b)"><path d="m11.4864 456.621-31.2905 35.507c-6.4451 7.314-6.6038 18.232-.3741 25.73 3.7596 4.524 9.3065 7.142 15.18938 7.142h234.26282c1.246 0 1.798-86.797 1.718-155.104-.022-19.312-24.565-27.083-35.818-11.389l-.43.6c-1.219 1.699-2.696 3.197-4.379 4.438l-24.054 17.75c-1.533 1.131-2.896 2.475-4.049 3.991l-27.984 36.822c-4.991 6.567-13.501 9.396-21.43 7.125l-16.8655-4.83c-7.1657-2.052-14.8781.05-20.0104 5.456l-15.0576 15.859c-4.3508 4.582-10.6113 6.839-16.8852 6.086l-15.1565-1.817c-6.5341-.784-13.0354 1.697-17.3864 6.634z" fill="url(#a)" opacity=".37"/><path d="m232.985 306.828c-.095-.544-.613-.908-1.157-.813l-8.866 1.545c-.544.095-.908.613-.813 1.157.094.544.612.908 1.156.814l7.882-1.374 1.373 7.881c.095.544.613.908 1.157.813.544-.094.908-.612.814-1.156zm-41.35 55.801-.595-.804zm4.468-4.576.818.575zm-33.724 27.296.803.596zm-49.403 43.679.311-.95zm22.293-7.098-.803-.596zm-58.4578 7.068.7175.697zm-34.4953 22.864-.1768.984zm17.8867-5.754-.7175-.697zm-29.9032 3.595.1768-.984zm-53.5392 48.947 35.5597-41.606-1.5204-1.3-35.5597 41.606zm53.3624-47.962 12.0165 2.158.3536-1.968-12.0165-2.159zm30.7976-3.884 16.6085-17.109-1.4351-1.393-16.6085 17.109zm36.1557-21.931 15.5881 5.105.623-1.9-15.5886-5.106zm38.9971-2.348 27.109-36.58-1.607-1.191-27.109 36.58zm31.077-40.544 25.08-18.548-1.19-1.608-25.08 18.548zm29.771-23.353 35.897-51.053-1.636-1.15-35.897 51.052zm-4.691 4.805c1.811-1.339 3.395-2.962 4.691-4.805l-1.636-1.151c-1.172 1.668-2.605 3.136-4.245 4.348zm-29.048 22.512c1.119-1.51 2.456-2.846 3.968-3.964l-1.19-1.608c-1.67 1.236-3.148 2.712-4.385 4.381zm-50.518 44.033c8.594 2.815 18.025-.188 23.409-7.453l-1.607-1.191c-4.872 6.574-13.404 9.29-21.179 6.744zm-35.1353-.283c5.0586-5.211 12.6454-7.083 19.5472-4.822l.6225-1.901c-7.6283-2.499-16.0137-.43-21.6048 5.33zm-35.3896 23.151c6.8757 1.235 13.9154-1.029 18.7811-6.042l-1.4351-1.393c-4.4023 4.535-10.7716 6.584-16.9924 5.467zm-29.8192 4.198c4.3844-5.13 11.1608-7.549 17.8027-6.356l.3536-1.969c-7.341-1.318-14.8307 1.356-19.6767 7.025z" fill="#3d8fee"/></g><path d="m533.489 466.254 8.192-7.501c.296-.296.691-.395 1.085-.395h9.968c.395 0 .79.099 1.086.395l6.02 5.922h12.535c.394 0 .789-.395.789-.79v-1.579c0-.493-.395-.789-.789-.789h-11.252l-5.033-4.935c-.888-.888-2.073-1.382-3.356-1.382h-9.968c-.987 0-1.974.296-2.763.987-.888-.691-1.875-1.085-2.961-1.085h-6.81c-1.283 0-2.467.493-3.355 1.381l-4.935 4.935h-11.152c-.494 0-.79.395-.79.79v1.579c0 .493.296.789.79.789h12.435l5.823-5.823c.296-.296.789-.493 1.184-.493h6.81c.099.296.099.098.099.296l-5.823 5.329c-2.764 2.566-2.862 6.909-.395 9.574 1.382 1.579 5.823 3.947 9.573.493l2.27-2.072 12.337 10.066c.691.494.79 1.481.296 2.172l-.987 1.184c-.493.592-1.48.789-2.171.197l-1.777-1.381-4.145 5.033c-.691.888-2.072.987-2.862.296l-3.059-2.566-.987 1.283c-1.678 1.974-4.639 2.27-6.613.79l-8.783-8.488h-13.225c-.494 0-.79.296-.79.789v1.58c0 .394.296.789.79.789h11.942l7.994 7.698c2.961 2.369 7.106 2.27 9.968-.098l.691.69c.987.691 2.171 1.086 3.355 1.086 1.579 0 3.06-.691 4.047-1.875l2.171-2.665c1.678.888 4.244.888 5.922-1.184l.987-1.185c.592-.69.888-1.579.986-2.467h13.522c.394 0 .789-.395.789-.789v-1.58c0-.493-.395-.789-.789-.789h-14.41c-.197-.395-.493-.691-.789-.987l-12.041-9.771 2.763-2.566c.691-.592.691-1.579.099-2.27-.592-.592-1.579-.691-2.27-.098l-7.402 6.809c-1.382 1.283-3.75 1.185-5.033-.197-1.382-1.48-1.283-3.75.197-5.132z" fill="#185ce3" opacity=".15"/></svg>