<svg fill="none" height="586" viewBox="0 0 376 586" width="376" xmlns="http://www.w3.org/2000/svg"><g fill="#a3bef4"><path d="m183.826 443.701-9.928 2.83c-.673.18-.763 1.168-.089 1.483l2.47 1.168-2.74 2.74c-.539.539-.539 1.482 0 2.021l1.033 1.034c.27.269.629.404.989.404.404 0 .763-.135 1.033-.404l2.74-2.741 1.168 2.471c.135.314.449.449.719.449.314 0 .674-.179.763-.539l2.83-9.928c.18-.584-.404-1.168-.988-.988zm-2.74 8.895-1.348-2.785-4.177 4.132-.989-.988 4.133-4.178-2.785-1.347 7.187-2.022zm6.648-8.221c0-1.977-1.617-3.594-3.593-3.594-1.528 0-2.83.989-3.37 2.291 2.471-.674 2.831-.853 3.37-.853 1.168 0 2.156.988 2.156 2.156 0 .539-.18.898-.854 3.369 1.303-.539 2.291-1.842 2.291-3.369zm-3.459 7.367c3.998-.09 7.233-3.324 7.233-7.367s-3.324-7.367-7.367-7.367-7.278 3.234-7.368 7.232l1.483-.449c.314-2.965 2.785-5.346 5.885-5.346 3.234 0 5.929 2.696 5.929 5.93 0 3.1-2.381 5.57-5.345 5.885zm-.134-18.508c-6.155 0-11.141 5.032-11.141 11.141 0 .359 0 .674.045.988.135-.09.314-.179.494-.224l.899-.27c0-.135 0-.314 0-.494 0-5.346 4.312-9.703 9.703-9.703 5.345 0 9.703 4.357 9.703 9.703 0 5.391-4.358 9.703-9.703 9.703-.18 0-.36 0-.495 0l-.269.899c-.045.179-.135.359-.225.494.315.045.629.045.989.045 6.109 0 11.14-4.987 11.14-11.141 0-6.109-5.031-11.141-11.14-11.141z" opacity=".5"/><path d="m78.5508 450.395-5.5703-5.616c-.7188-.674-1.6172-1.033-2.5606-1.033-.6738 0-1.3926.18-1.9765.584l-3.8184-3.818v-3.324l-5.75-4.313-2.875 2.875 4.3125 5.75h3.2793l3.8184 3.863c-.8985 1.393-.7637 3.28.4941 4.537l5.5703 5.571c.2695.269.6738.449 1.0332.449s.7188-.18.9883-.449l3.0547-3.055c.584-.539.584-1.482 0-2.021zm-15.3633-10.377v.044h-2.1563l-3.1445-4.177 1.1231-1.078 4.1777 3.099zm11.3203 14.42-5.6152-5.571c-.4043-.404-.6289-.943-.6289-1.527s.2246-1.123.6289-1.528c.4043-.404.9433-.628 1.5273-.628s1.1231.224 1.5274.628l5.6152 5.616zm-15.6328-2.157c0 .405.3145.719.7188.719.3593 0 .7187-.314.7187-.719 0-.359-.3594-.719-.7187-.719-.4043 0-.7188.36-.7188.719zm9.5234-16.396c1.0332-.989 2.3809-1.573 3.7735-1.573.3144 0 .6289.045.9433.09l-3.0996 3.145.584 3.728 3.7285.584 3.1446-3.099c.2695 1.707-.2696 3.459-1.4825 4.717-.4043.404-.8535.718-1.3476.943l1.0332 1.078c.4941-.269.8984-.629 1.3027-1.033 1.707-1.707 2.3809-4.088 1.7969-6.424-.0899-.449-.4492-.764-.8535-.898-.4492-.09-.8985 0-1.2129.314l-2.875 2.875-1.9766-.314-.3144-1.977 2.875-2.875c.2695-.314.4043-.764.3144-1.213-.1347-.404-.4941-.764-.8984-.853-2.336-.584-4.7168.089-6.4238 1.796-.584.584-1.0332 1.258-1.3477 1.977v3.055l.9883.988c-.4492-1.842.0449-3.728 1.3476-5.031zm-7.5918 18.013c-.7636.719-2.0664.719-2.83 0-.7637-.808-.7637-2.066 0-2.83l6.5586-6.558-.9883-.989-6.5586 6.559c-1.3477 1.303-1.3477 3.504 0 4.807.6289.674 1.4824.988 2.3808.988.9434 0 1.7969-.314 2.4258-.988l4.5821-4.582c-.3145-.405-.5391-.854-.7188-1.303z" opacity=".5"/><path d="m317.941 445.094-5.166-2.022c-.179-.09-.359-.134-.494-.134-.179 0-.359.044-.539.134l-5.166 2.022c-.449.179-.764.629-.764 1.078 0 5.031 3.055 8.49 5.93 9.613.18.09.36.09.539.09.135 0 .315 0 .494-.09 2.291-.898 5.975-3.998 5.975-9.613 0-.449-.314-.899-.809-1.078zm-6.379 8.984c-2.201-1.168-4.267-3.908-4.312-7.726l4.312-1.663zm.719.404v-.044zm.719-.359v-9.434l4.312 1.663c-.089 4.267-2.605 6.783-4.312 7.771zm-20.844.315c-.404 0-.718-.315-.718-.719v-1.842c0-2.561 2.021-4.627 4.582-4.627.898 0 1.751.719 4.042.719 2.247 0 3.145-.719 3.999-.719.134 0 .224.045.359.045-.045-.359-.045-.719-.045-1.123 0-.09 0-.18.045-.315-.135 0-.225-.045-.359-.045-1.303 0-1.887.719-3.999.719-2.156 0-2.74-.719-4.042-.719-3.325 0-6.02 2.741-6.02 6.065v1.842c0 1.213.943 2.156 2.156 2.156h15.813c.269 0 .584-.045.853-.18-.494-.359-.898-.763-1.347-1.257zm7.906-10.063c3.145 0 5.75-2.561 5.75-5.75 0-3.145-2.605-5.75-5.75-5.75-3.189 0-5.75 2.605-5.75 5.75 0 3.189 2.561 5.75 5.75 5.75zm0-10.063c2.336 0 4.313 1.977 4.313 4.313 0 2.381-1.977 4.313-4.313 4.313-2.38 0-4.312-1.932-4.312-4.313 0-2.336 1.932-4.313 4.312-4.313z" opacity=".5"/><path d="m134.752 75.75h-18.957l-.404-1.9766c-.09-.4941-.539-.8984-1.034-.8984h-3.818c-.314 0-.539.2695-.539.5391v.3593c0 .3145.225.5391.539.5391h3.504l3.145 16.7559c-.45.539-.719 1.2128-.719 1.9316 0 1.6172 1.258 2.875 2.875 2.875 1.572 0 2.875-1.2578 2.875-2.875 0-.4941-.18-.9883-.405-1.4375h6.514c-.224.4492-.359.9434-.359 1.4375 0 1.6172 1.258 2.875 2.875 2.875 1.572 0 2.875-1.2578 2.875-2.875 0-.7637-.36-1.5273-.899-2.0215-.09-.4941-.539-.8535-1.033-.8535h-13.297l-.539-2.875h14.869c.539 0 .944-.3145 1.078-.8535l1.932-9.3438c.135-.6738-.359-1.3027-1.078-1.3027zm-13.971 17.25c0 .8086-.674 1.4375-1.437 1.4375-.809 0-1.438-.6289-1.438-1.4375 0-.7637.629-1.4375 1.438-1.4375.763 0 1.437.6738 1.437 1.4375zm10.063 1.4375c-.809 0-1.438-.6289-1.438-1.4375 0-.7637.629-1.4375 1.438-1.4375.763 0 1.437.6738 1.437 1.4375 0 .8086-.674 1.4375-1.437 1.4375zm1.707-8.625h-14.869l-1.618-8.625h18.284z" opacity=".5"/><path d="m258.969 74.3125h-15.813c-1.213 0-2.156.9883-2.156 2.1563v15.8124c0 1.2129.943 2.1563 2.156 2.1563h15.813c1.168 0 2.156-.9434 2.156-2.1563v-15.8124c0-1.168-.988-2.1563-2.156-2.1563zm.719 17.9687c0 .4043-.36.7188-.719.7188h-15.813c-.404 0-.718-.3145-.718-.7188v-15.8124c0-.3594.314-.7188.718-.7188h15.813c.359 0 .719.3594.719.7188zm-12.579-9.3437h-.718c-.225 0-.36.1797-.36.3594v6.4687c0 .2246.135.3594.36.3594h.718c.18 0 .36-.1348.36-.3594v-6.4687c0-.1797-.18-.3594-.36-.3594zm4.313-4.3125h-.719c-.224 0-.359.1797-.359.3594v10.7812c0 .2246.135.3594.359.3594h.719c.18 0 .359-.1348.359-.3594v-10.7812c0-.1797-.179-.3594-.359-.3594zm4.312 7.1875h-.718c-.225 0-.36.1797-.36.3594v3.5937c0 .2246.135.3594.36.3594h.718c.18 0 .36-.1348.36-.3594v-3.5937c0-.1797-.18-.3594-.36-.3594z" opacity=".5"/><path d="m310.812 155.25c-1.302 0-2.47.584-3.234 1.482l-4.312-2.695c.449-1.033.449-2.246 0-3.279l4.312-2.696c.764.899 1.932 1.438 3.234 1.438 2.381 0 4.313-1.932 4.313-4.312 0-2.381-1.932-4.313-4.313-4.313-2.38 0-4.312 1.932-4.312 4.313 0 .583.09 1.167.314 1.662l-4.312 2.695c-.764-.899-1.932-1.483-3.19-1.483-2.38 0-4.312 1.932-4.312 4.313s1.932 4.313 4.312 4.313c1.258 0 2.426-.54 3.19-1.438l4.312 2.695c-.224.494-.314 1.034-.314 1.617 0 2.381 1.932 4.313 4.312 4.313 2.381 0 4.313-1.932 4.313-4.313 0-2.38-1.932-4.312-4.313-4.312zm0-12.938c1.573 0 2.876 1.303 2.876 2.876 0 1.617-1.303 2.874-2.876 2.874-1.617 0-2.874-1.257-2.874-2.874 0-1.573 1.257-2.876 2.874-2.876zm-11.5 12.938c-1.617 0-2.874-1.258-2.874-2.875 0-1.572 1.257-2.875 2.874-2.875 1.573 0 2.876 1.303 2.876 2.875 0 1.617-1.303 2.875-2.876 2.875zm11.5 7.188c-1.617 0-2.874-1.258-2.874-2.876 0-1.572 1.257-2.874 2.874-2.874 1.573 0 2.876 1.302 2.876 2.874 0 1.618-1.303 2.876-2.876 2.876z" opacity=".5"/><path d="m65.0312 159.823h1.4376c.7636 0 1.4374-.629 1.4374-1.438v-1.437c0-.764-.6738-1.438-1.4374-1.438h-1.4376c-.8085 0-1.4374.674-1.4374 1.438v1.437c0 .809.6289 1.438 1.4374 1.438zm0-2.875h1.4376v1.437h-1.4376zm0-8.625h1.4376c.7636 0 1.4374-.629 1.4374-1.438v-1.437c0-.764-.6738-1.438-1.4374-1.438h-1.4376c-.8085 0-1.4374.674-1.4374 1.438v1.437c0 .809.6289 1.438 1.4374 1.438zm0-2.875h1.4376v1.437h-1.4376zm13.6563-5.031h-17.25c-.8086 0-1.4375.673-1.4375 1.437v20.125c0 .809.6289 1.438 1.4375 1.438h17.25c.7637 0 1.4375-.629 1.4375-1.438v-20.125c0-.764-.6738-1.437-1.4375-1.437zm0 21.562h-17.25v-20.125h17.25zm-8.9844-15.094h5.75c.1797 0 .3594-.135.3594-.359v-.719c0-.18-.1797-.359-.3594-.359h-5.75c-.2246 0-.3593.179-.3593.359v.719c0 .224.1347.359.3593.359zm0 5.75h5.75c.1797 0 .3594-.135.3594-.359v-.719c0-.18-.1797-.359-.3594-.359h-5.75c-.2246 0-.3593.179-.3593.359v.719c0 .224.1347.359.3593.359zm0 5.75h5.75c.1797 0 .3594-.135.3594-.359v-.719c0-.18-.1797-.359-.3594-.359h-5.75c-.2246 0-.3593.179-.3593.359v.719c0 .224.1347.359.3593.359zm-4.4023-5.076c.0898.09.2695.09.3594 0l2.875-2.875c.0898-.09.0898-.225 0-.314l-.584-.584c-.0899-.09-.2246-.09-.3145 0l-2.1562 2.111-.8985-.943c-.1347-.09-.2695-.09-.3593 0l-.584.584c-.0899.089-.0899.224 0 .314z" opacity=".5"/><path d="m198.719 142.312h-21.563c-1.213 0-2.156.989-2.156 2.157v15.812c0 1.213.943 2.157 2.156 2.157h21.563c1.168 0 2.156-.944 2.156-2.157v-15.812c0-1.168-.988-2.157-2.156-2.157zm-21.563 1.438h21.563c.359 0 .719.359.719.719v2.156h-23v-2.156c0-.36.314-.719.718-.719zm21.563 17.25h-21.563c-.404 0-.718-.314-.718-.719v-9.343h23v9.343c0 .405-.36.719-.719.719zm-15.094-3.773c0-.27-.27-.539-.539-.539h-3.234c-.315 0-.54.269-.54.539v.359c0 .314.225.539.54.539h3.234c.269 0 .539-.225.539-.539zm8.625 0c0-.27-.27-.539-.539-.539h-6.109c-.315 0-.54.269-.54.539v.359c0 .314.225.539.54.539h6.109c.269 0 .539-.225.539-.539z" opacity=".5"/><path d="m132.82 522.527-5.795-5.795c-.089-.089-.224-.134-.359-.134h-.494c1.572-1.707 2.516-3.909 2.516-6.379 0-5.121-4.223-9.344-9.344-9.344-5.166 0-9.344 4.223-9.344 9.344 0 5.166 4.178 9.343 9.344 9.343 2.426 0 4.672-.943 6.334-2.47v.449c0 .18.045.314.134.404l5.795 5.795c.225.225.539.225.764 0l.449-.449c.225-.225.225-.539 0-.764zm-13.476-4.402c-4.403 0-7.906-3.504-7.906-7.906 0-4.358 3.503-7.907 7.906-7.907 4.357 0 7.906 3.549 7.906 7.907 0 4.402-3.549 7.906-7.906 7.906z" opacity=".5"/><path d="m252.949 514.139.494-.494c.135-.135.135-.359 0-.494l-2.111-2.156 2.111-2.112c.135-.134.135-.359 0-.494l-.494-.494c-.135-.135-.359-.135-.494 0l-2.875 2.875c-.18.135-.18.359 0 .494l2.875 2.875c.135.135.359.135.494 0zm4.313-.494.494.494c.135.135.359.135.494 0l2.875-2.875c.18-.135.18-.359 0-.494l-2.875-2.875c-.135-.135-.359-.135-.494 0l-.494.494c-.135.135-.135.36 0 .494l2.111 2.112-2.111 2.156c-.09.045-.09.135-.09.224 0 .09 0 .18.09.27zm11.769 4.537h-2.156v-12.219c0-1.572-1.303-2.875-2.875-2.875h-17.25c-1.617 0-2.875 1.303-2.875 2.875v12.219h-2.156c-.405 0-.719.36-.719.719v2.156c0 2.022 1.572 3.594 3.594 3.594h21.562c1.977 0 3.594-1.572 3.594-3.594v-2.156c0-.359-.359-.719-.719-.719zm-23.719-12.219c0-.763.629-1.437 1.438-1.437h17.25c.764 0 1.438.674 1.438 1.437v12.219h-6.874c-.179 0-.314.18-.359.36-.18.628-.719 1.078-1.393 1.078h-2.874c-.719 0-1.258-.45-1.438-1.078-.045-.18-.18-.36-.359-.36h-6.829zm23 15.094c0 1.213-.988 2.156-2.156 2.156h-21.562c-1.213 0-2.156-.943-2.156-2.156v-1.437h8.714c.315.853 1.123 1.437 2.067 1.437h4.312c.899 0 1.707-.584 2.022-1.437h8.759z" opacity=".5"/></g></svg>