<svg fill="none" height="275" viewBox="0 0 376 275" width="376" xmlns="http://www.w3.org/2000/svg"><g fill="#f3f7fe"><path d="m22 237h9v38h-9z"/><path d="m160 206h9v69h-9z"/><path d="m45 214h9v61h-9z" opacity=".5"/><path d="m183 173h9v102h-9z" opacity=".5"/><path d="m68 201h9v74h-9z"/><path d="m206 151h9v124h-9z"/><path d="m298 97h9v178h-9z"/><path d="m114 179h9v96h-9z"/><path d="m252 115h9v160h-9z"/><path d="m344 50h9v225h-9z"/><path d="m137 192h9v83h-9z" opacity=".5"/><path d="m275 137h9v138h-9z" opacity=".5"/><path d="m91 224h9v51h-9z" opacity=".5"/><path d="m229 190h9v85h-9z" opacity=".5"/><path d="m321 84h9v191h-9z" opacity=".5"/></g></svg>