<svg fill="none" height="140" viewBox="0 0 140 140" width="140" xmlns="http://www.w3.org/2000/svg"><path d="m69.591 49c-11.3749 0-20.591 9.2992-20.591 20.591 0 11.3748 9.2161 20.591 20.591 20.591 11.2918 0 20.591-9.2162 20.591-20.591 0-11.2918-9.2992-20.591-20.591-20.591zm17.851 21.0891-3.5702-.9133c-.166 0-.2491-.083-.3321-.249l-1.4945-2.2418c-.083-.083-.1661-.2491-.1661-.3321 0-.1661.0831-.3321.1661-.4152l1.5775-2.4078c.0831-.083.1661-.166.2491-.2491l1.9927-.9963c1.0794 2.2418 1.6606 4.7326 1.6606 7.3065 0 .166-.0831.3321-.0831.4981zm-35.7851-.4981c0-.9133.083-1.9097.2491-2.823.5812.8303 1.1624 1.7436 1.6605 2.4078.4152.7473.9964 1.4115 1.7436 1.9927.9133.8303 1.8267 1.4945 2.906 1.9927 1.1624.5812 2.823 1.4945 3.9854 2.1587.4151.2491.7472.6642.7472 1.1624v2.6569c0 1.0794.4152 2.0757 1.1624 2.823.9964 1.0793 1.4945 2.6569 1.4945 3.3211v1.8266c-8.0537-1.8266-13.9487-8.967-13.9487-17.5189zm16.5226 17.9341v-2.0757c.2491-1.4945-.7473-3.9024-2.2418-5.3138-.249-.2491-.4151-.6643-.4151-.9964v-2.6569c0-1.4115-.7473-2.7399-1.9927-3.4872-1.2454-.6642-2.906-1.5775-4.1514-2.1587-.8303-.4151-1.5775-.9963-2.4078-1.6606-.4151-.4981-.9133-.9133-1.2454-1.4945-.8303-1.1624-2.1588-3.155-2.906-4.3174 2.1587-5.729 7.1404-10.1295 13.2015-11.2919l4.3174 4.2345-1.2454 1.3284c-.7472.7473-.7472 1.9097-.083 2.6569h-.4982c-.4982 0-.9963.2491-1.4115.5812l-.7472.8303c-.6642.5812-.8303 1.4945-.4152 2.3248l.3322.6642c-.5812-.2491-1.2455-.2491-1.8267-.083l-2.5738.9133c-.9133.2491-1.6606 1.1624-1.6606 2.1587h.083c0 .9133.4152 1.6606 1.2455 2.0757l.9133.4982c.9133.4151 1.9096.6642 2.9059.6642.1661.2491.4982.6643.6643.9133.4981.6643.9963 1.3285 1.5775 1.6606l.3321.083h5.812c.3321 0 .7472.1661.9963.4152l1.0794 1.1624c.2491.2491.3321.4981.4151.8302 0 .6643-.3321 1.3285-.8302 1.8267l-.9134.9133c-.4151.4151-.6642.9133-.8302 1.4945l-.0831.3321c-.083.3321-.166.6642-.2491.9133l-2.2417 6.0611c-.4982 0-.9963.083-1.4945.083-.4982-.083-.9133-.083-1.4115-.083zm5.895-.5812 1.7436-4.4836c.083-.4151.2491-.8302.3321-1.2454l.083-.3321c0-.083.0831-.166.3321-.4151l.7473-.8303c.9963-.9133 1.5775-2.2418 1.5775-3.6533 0-.9963-.4151-1.9926-1.1624-2.7399l-1.1624-1.0793c-.7472-.7473-1.7435-1.2455-2.8229-1.2455h-5.0647c-.1661-.166-.3321-.4151-.4982-.6642-.6642-.9133-1.4115-1.9927-2.5739-1.9927-.6642 0-1.3284-.083-1.9926-.4151l-.1661-.083 1.8266-.5812.7473.6642c.4151.2491.8303.4151 1.3284.4151h.4982c.6642 0 1.3284-.3321 1.6606-.9133.3321-.5812.4151-1.3284.083-1.9096l-1.0794-2.1588.2491-.249h.4982c.5812 0 1.0793-.2491 1.4114-.6643l.6643-.6642c.7472-.7472.8303-1.9096.083-2.6569l.8303-.8303c.4982-.4981.7472-1.1624.7472-1.8266 0-.7472-.249-1.4115-.7472-1.9096l-2.823-2.74h.1661c6.3101 0 11.873 3.2381 15.0281 8.2198l-1.9097.9133c-.4981.2491-.9133.6643-1.2454 1.1624l-1.6606 2.4078c-.7472 1.1624-.7472 2.5739 0 3.7363l1.4946 2.2418c.4981.6642 1.1623 1.1624 1.9926 1.3284l3.9024.9964c-1.2455 6.8913-6.3932 12.4542-13.1185 14.1978z" fill="#fff"/></svg>