<svg fill="none" height="160" viewBox="0 0 161 160" width="161" xmlns="http://www.w3.org/2000/svg"><path d="m72.4891 72.1524 8.1916-7.5007c.2961-.2961.6909-.3948 1.0857-.3948h9.968c.3948 0 .7896.0987 1.0857.3948l6.0203 5.9216h12.5346c.394 0 .789-.3948.789-.7895v-1.5792c0-.4934-.395-.7895-.789-.7895h-11.252l-5.033-4.9347c-.8882-.8882-2.0725-1.3817-3.3556-1.3817h-9.968c-.987 0-1.9739.2961-2.7635.9869-.8882-.6908-1.8752-1.0856-2.9608-1.0856h-6.8099c-1.283 0-2.4673.4935-3.3556 1.3817l-4.9346 4.9347h-11.1524c-.4935 0-.7896.3948-.7896.7896v1.5791c0 .4934.2961.7895.7896.7895h12.4354l5.8229-5.8229c.2961-.2961.7896-.4935 1.1843-.4935h6.8099c.0987.2961.0987.0987.0987.2961l-5.8229 5.3295c-2.7635 2.566-2.8622 6.9085-.3948 9.5733 1.3817 1.5791 5.8229 3.9477 9.5733.4934l2.27-2.0725 12.3367 10.0667c.6908.4935.7895 1.4804.2961 2.1713l-.987 1.1843c-.4934.5922-1.4804.7896-2.1712.1974l-1.7765-1.3817-4.1452 5.0334c-.6908.8882-2.0725.9869-2.8621.2961l-3.0595-2.5661-.9869 1.283c-1.6778 1.9739-4.6386 2.27-6.6125.7896l-8.7838-8.4877h-13.2249c-.4935 0-.7896.2961-.7896.7896v1.5791c0 .3947.2961.7895.7896.7895h11.9419l7.9942 7.6981c2.9608 2.3687 7.106 2.27 9.9681-.0987l.6908.6909c.987.6909 2.1713 1.0856 3.3556 1.0856 1.5791 0 3.0595-.6908 4.0465-1.8751l2.1712-2.6648c1.6778.8883 4.2439.8883 5.9217-1.1843l.9869-1.1843c.5922-.6909.8883-1.5791.987-2.4674h13.5215c.394 0 .789-.3948.789-.7895v-1.5791c0-.4935-.395-.7896-.789-.7896h-14.4098c-.1974-.3948-.4935-.6908-.7895-.9869l-12.0407-9.7707 2.7634-2.5661c.6909-.5921.6909-1.5791.0987-2.2699-.5921-.5922-1.5791-.6909-2.2699-.0987l-7.4021 6.8099c-1.3817 1.283-3.7503 1.1843-5.0334-.1974-1.3817-1.4804-1.283-3.7504.1974-5.1321z" fill="#fff"/></svg>