<svg height="48" viewBox="0 0 48 48" width="48" xmlns="http://www.w3.org/2000/svg"><path d="m22.8647863 28.9701493c-.033845.2875636-.093073.4736314-.1776856.5582089-.6769009.6766203-1.5060921 1.1079593-2.4875985 1.2940299-.3046054.0507465-.6684342.0761194-1.0914973.0761194-1.3876469 0-2.3014494-.2452712-2.741435-.7358209-.1184577-.1353241-.1776857-.3721376-.1776857-.7104478 0-.8796064.313062-2.0298436.9391954-3.4507463.0846126-.1860705.0676903-.2791044-.0507673-.2791044-.0507676 0-.1099955.0507457-.1776856.1522388-.6430559 1.0825924-1.4976305 2.1059653-2.5637495 3.0701492-1.5061046 1.3701561-2.9021918 2.0552239-4.1883036 2.0552239-.71074597 0-1.37071448-.202983-1.97992533-.6089552-.77843607-.5243808-1.16764827-1.4208892-1.16764827-2.6895523 0-2.300509 1.15917546-4.8800852 3.4775612-7.7388059 1.4384145-1.7761283 3.2575584-3.2477554 5.4574865-4.4149254 1.9460901-1.031846 3.5960114-1.5477612 4.9498133-1.5477612.4230631 0 .7784307.1945254 1.0661136.5835821.2369154.3383101.3553713.5497508.3553713.6343283 0 .2199016-.3384454.3636813-1.0153464.4313433-2.589146.2706482-5.4151651 2.1313261-8.4781418 5.5820896-.3215279.3721411-.6388205.7865649-.9518872 1.2432836s-.6218981.9641763-.9265035 1.522388c-.7615135 1.4039871-1.14226461 2.5203939-1.14226461 3.3492538 0 .7781133.32998431 1.2771133.98996271 1.4970149.1523027.067662.3384476.1014925.5584404.1014925 1.387647 0 3.2067909-1.7338135 5.4574865-5.2014925.4230631-.6427893.9180395-1.4927808 1.484944-2.55.5669046-1.0572192 1.2311037-2.3300921 1.9926172-3.8186567.2538379-.5243808.7699671-.7273638 1.5484031-.6089553.5245983.0676621.7868935.296018.7868935.6850747 0 .1522395-.0507669.3298497-.152302.5328358-.1523027.3383101-.3680616.8288525-.6472833 1.4716418-.2792216.6427893-.6134364 1.4462638-1.0026545 2.4104477-.5076757 1.2686631-.9265018 2.3512393-1.2564911 3.2477612-.3299892.8965219-.5795926 1.6154202-.7488179 2.1567165-.1692252.5751272-.2538366 1.0318391-.2538366 1.3701492 0 .3383102.1099948.5666661.3299876.6850746.1184577.0676621.4061363.1268655.8630444.177612.389218.033831.8545804-.101491 1.3961012-.4059702.5584433-.2875636 1.0238057-.6850721 1.3961012-1.1925373.0846126-.101493.1523017-.0761202.2030692.0761194.1184577.2875636.1607634.6174111.1269183.9895523zm18.1239319 0c-.033845.2875636-.093073.4736314-.1776856.5582089-.710746.7104513-1.5399372 1.1417903-2.4875985 1.2940299-.5415207.101493-1.0661111.1522388-1.5737868.1522388-.744591 0-1.3791761-.0930339-1.9037743-.2791045-.9307388-.3552257-1.3961012-.9303443-1.3961012-1.7253731 0-.4736343.2115283-1.2855664.6345914-2.4358209.1861478-.4905498.3638316-.9345752.5330568-1.3320896.1692253-.3975144.3299868-.7485059.4822896-1.0529851.2199928-.4228877.3299875-.7273622.3299875-.9134328 0-.2537326-.126917-.380597-.3807549-.380597-.2369153 0-.5838218.2875593-1.0407299.8626865-.3046055.3890567-.6388203.8457686-1.0026545 1.3701493-.3638343.5243807-.7657382 1.1248722-1.2057238 1.8014925-.5415208.8288599-.9730386 1.5308429-1.2945666 2.1059702-.3215279.5751272-.5330563 1.0233815-.6345914 1.3447761-.1353802.3890567-.6176649.5835821-1.4468685.5835821-.9307388 0-1.3284122-.1945254-1.193032-.5835821.3892181-1.0318459.8122748-2.118651 1.2691829-3.2604478.4569082-1.1417967.9307317-2.3554662 1.4214849-3.6410447.1692252-.4736342.093075-.7358207-.2284529-.7865672-.355373-.0507465-.8376577.2875586-1.4468685 1.0149254-.4738307.5412962-1.2099494 1.725364-2.2083783 3.5522388-.8968937 1.6069732-1.4553286 2.6641766-1.6753214 3.1716418-.1353802.3383101-.6092038.5074627-1.4214849.5074627s-1.1761099-.2029831-1.0914973-.6089553c.4061406-1.4378181.8249667-2.9390469 1.2564911-4.5037313.4315243-1.5646844.884195-3.2096929 1.3580257-4.9350746.1184577-.5074653.5330533-.7611941 1.2437992-.7611941.3384505 0 .6345902.0592034.8884281.177612.3722955.1522395.5584405.3552226.5584405.6089552 0 .1184086-.0338446.2368153-.1015347.3552239-.1692252.3213946-.3722924.811937-.6092078 1.4716418-.2876829.8119443-.4315222 1.3024867-.4315222 1.4716418 0 .2537326.1438393.1606987.4315222-.2791045 1.4891821-2.2497625 2.8937305-3.3746269 4.2136873-3.3746269.0676901 0 .1353791.0042288.2030692.0126866.0676901.0084577.1438403.0211442.228453.0380597.8461261.1522396 1.2691829.6258667 1.2691829 1.4208955 0 .5243807-.1607616 1.1417875-.4822895 1.8522388-.1353802.2875636-.1607636.4313433-.076151.4313433.0169225 0 .2792177-.3213898.7868934-.9641791.6092108-.7781133 1.1676457-1.3786049 1.6753214-1.8014925.7953586-.6427893 1.5145551-.9641791 2.157611-.9641791.355373 0 .6938184.0845762 1.0153463.2537313.5415207.2537326.8122771.7104445.8122771 1.3701493 0 .2875636-.0507668.6089534-.152302.9641791-.1523027.5920427-.482287 1.5562122-.9899627 2.8925373-.2707603.7273668-.4738276 1.2771125-.6092078 1.6492537-.1353801.3721412-.2115304.5751242-.2284529.6089552-.0507675.1860706-.0761509.3298503-.0761509.4313433 0 .2537326.1184558.448258.3553712.5835821.3215279.2029861.8122737.2875624 1.4722521.2537313.321528-.0169155.7361236-.1691527 1.2437993-.4567164.6092108-.3383101 1.0745732-.7358186 1.3961012-1.1925373.0846126-.101493.1523017-.0761202.2030692.0761194.1184577.2875636.1607634.6174111.1269183.9895523z" fill="#fff"/></svg>