<svg fill="none" height="698" viewBox="0 0 697 698" width="697" xmlns="http://www.w3.org/2000/svg"><path d="m418.398 558.162h139.302v139.302h-139.302z" fill="#185ce3" opacity=".05"/><path d="m139.793 558.162h139.302v139.302h-139.302z" fill="#fff"/><path d="m187.354 614.923v1.394c0 .996.698 1.693 1.694 1.693l35.556.1-37.349 37.349c-.697.697-.697 1.693 0 2.39l.996.996c.597.598 1.693.697 2.39 0l37.349-37.349v35.457c0 .996.697 1.693 1.693 1.693h1.394c.996 0 1.694-.697 1.694-1.693v-42.03c0-.996-.698-1.693-1.694-1.693h-42.029c-.996 0-1.694.697-1.694 1.693z" fill="#185ce3"/><path d="m279.092 558.162h139.302v139.302h-139.302z" fill="#fff"/><path d="m279.092 418.86h139.302v139.302h-139.302z" fill="#185ce3" opacity=".05"/><path d="m418.398 279.558h139.302v139.302h-139.302z" fill="#fff"/><g fill="#185ce3"><path d="m456.595 358.109.986.986c.704.704 1.69.704 2.394 0l25.212-25.071v52.819c0 .986.705 1.69 1.691 1.69h1.408c.845 0 1.69-.704 1.69-1.69v-52.819l25.072 25.071c.704.704 1.69.704 2.394 0l.986-.986c.705-.704.705-1.69 0-2.394l-29.719-29.72c-.705-.704-1.691-.704-2.395 0l-29.719 29.72c-.705.704-.705 1.69 0 2.394z"/><path d="m418.398 418.86h-139.302l139.302-139.302z" opacity=".05"/><path d="m139.793 697.464h-139.30213l139.30213-139.303z" opacity=".05"/></g><path d="m697 140.255h-139.302l139.302-139.302109z" fill="#fff"/><path d="m557.697 279.558h139.302v139.302h-139.302z" fill="#185ce3" opacity=".05"/><path d="m557.697 140.255h139.302v139.302h-139.302z" fill="#fff"/><path d="m607.976 195.456v1.394c0 .996.697 1.693 1.693 1.693l35.556.1-37.349 37.349c-.697.697-.697 1.693 0 2.39l.996.996c.597.598 1.693.697 2.39 0l37.349-37.349v35.457c0 .996.697 1.693 1.693 1.693h1.395c.996 0 1.693-.697 1.693-1.693v-42.03c0-.996-.697-1.693-1.693-1.693h-42.03c-.996 0-1.693.697-1.693 1.693z" fill="#185ce3"/><path d="m557.697 418.86h139.302v139.302h-139.302z" fill="#fff"/><path d="m557.697 558.162h139.302v139.302h-139.302z" fill="#fff"/><path d="m697 558.162h-139.302l139.302 139.302z" fill="#185ce3" opacity=".05"/></svg>