<svg fill="none" height="585" viewBox="0 0 584 585" width="584" xmlns="http://www.w3.org/2000/svg"><path d="m0 0h116.718v116.718h-116.718z" fill="#185ce3" opacity=".05" transform="matrix(1 0 0 -1 350.568 117.457)"/><path d="m0 0h116.718v116.718h-116.718z" fill="#fff" transform="matrix(1 0 0 -1 117.129 117.457)"/><path d="m0 0h116.718v116.718h-116.718z" fill="#fff" transform="matrix(1 0 0 -1 233.846 117.457)"/><path d="m0 0h116.718v116.718h-116.718z" fill="#185ce3" opacity=".05" transform="matrix(1 0 0 -1 233.846 234.175)"/><path d="m0 0h116.718v116.718h-116.718z" fill="#fff" transform="matrix(1 0 0 -1 350.568 350.893)"/><path d="m350.568 234.175h-116.718l116.718 116.718z" fill="#185ce3" opacity=".05"/><path d="m117.129.739258h-116.718052l116.718052 116.717742z" fill="#185ce3" opacity=".05"/><path d="m584 467.611h-116.718l116.718 116.718z" fill="#fff"/><path d="m0 0h116.718v116.718h-116.718z" fill="#185ce3" opacity=".05" transform="matrix(1 0 0 -1 467.281 350.893)"/><path d="m0 0h116.718v116.718h-116.718z" fill="#185ce3" opacity=".05" transform="matrix(1 0 0 -1 467.281 467.611)"/><path d="m0 0h116.718v116.718h-116.718z" fill="#fff" transform="matrix(1 0 0 -1 467.281 234.175)"/><path d="m0 0h116.718v116.718h-116.718z" fill="#fff" transform="matrix(1 0 0 -1 467.281 117.457)"/><path d="m584 117.457h-116.718l116.718-116.717927z" fill="#185ce3" opacity=".05"/></svg>