<svg fill="none" height="92" viewBox="0 0 92 92" width="92" xmlns="http://www.w3.org/2000/svg"><path d="m0 0h92v92h-92z" fill="#185ce3"/><path d="m44.5312 31.2188c-8.0273 0-14.5312 6.5039-14.5312 14.5312s6.5039 14.5312 14.5312 14.5312c8.0274 0 14.5313-6.5039 14.5313-14.5312s-6.5039-14.5312-14.5313-14.5312zm8.9063 23.496c-1.1719 1.1719-2.5195 2.1094-3.9844 2.6954-1.582.7031-3.2226.996-4.9804.996-1.6993 0-3.3399-.2929-4.9219-.996-1.4649-.586-2.8125-1.5235-3.9844-2.6954-1.1719-1.1718-2.1094-2.5195-2.7539-4.0429-.6445-1.5235-.9961-3.1641-.9961-4.9219 0-1.6992.3516-3.3398.9961-4.9219.6445-1.4648 1.582-2.8711 2.7539-3.9843 1.1133-1.1719 2.5195-2.1094 3.9844-2.754 1.582-.6445 3.2226-.996 4.9219-.996 1.7578 0 3.3984.3515 4.9804.996 1.4649.6446 2.8125 1.5821 3.9844 2.754 1.1719 1.1132 2.1094 2.5195 2.7539 3.9843.6445 1.5821.9961 3.2227.9961 4.9219 0 1.7578-.3516 3.3984-.9961 4.9219-.6445 1.5234-1.582 2.8711-2.7539 4.0429zm-6.6211-10.6054.5274-.9961c.4687-.7617 1.1132-1.2305 1.875-1.2305.7031 0 1.3476.4688 1.8164 1.2305l.5859.9961c.2344.4687.8789.2344.8203-.2344-.1758-2.4609-1.875-4.2188-3.2812-4.2188-1.3477 0-3.0469 1.7579-3.2813 4.2188 0 .4688.6445.7031.9375.2344zm-9.375 0 .5274-.9961c.4687-.7617 1.1132-1.2305 1.875-1.2305.7031 0 1.3476.4688 1.8164 1.2305l.5859.9961c.2344.4687.8789.2344.8203-.2344-.1758-2.4609-1.875-4.2188-3.2812-4.2188-1.3477 0-3.0469 1.7579-3.2813 4.2188 0 .4688.6445.7031.9375.2344zm15 3.5156h-15.8203c-.5859 0-1.0547.5273-.9375 1.0547.4687 4.1601 4.043 7.3828 8.3789 7.3828h.9375c4.2773 0 7.8516-3.2227 8.3203-7.3828.1172-.5274-.3515-1.0547-.8789-1.0547zm-7.4414 6.5625h-.9375c-2.9883 0-5.5078-1.9336-6.3281-4.6875h13.5351c-.8203 2.7539-3.3398 4.6875-6.2695 4.6875z" fill="#fff"/></svg>