<svg fill="none" height="92" viewBox="0 0 92 92" width="92" xmlns="http://www.w3.org/2000/svg"><path d="m0 0h92v92h-92z" fill="#185ce3" transform="matrix(-1 0 0 1 92 0)"/><path d="m59.757 41.0563-8.5547-1.2305-3.8672-7.793c-.6445-1.3476-2.6367-1.4062-3.3398 0l-3.8086 7.793-8.6133 1.2305c-1.5234.2343-2.1094 2.1093-.9961 3.2226l6.1523 6.0352-1.4648 8.4961c-.2344 1.5234 1.4062 2.6953 2.7539 1.9922l7.6758-4.043 7.6172 4.043c1.3476.7031 2.9883-.4688 2.7539-1.9922l-1.4649-8.4961 6.1524-6.0352c1.1133-1.1133.5273-2.9883-.9961-3.2226zm-7.207 8.5547 1.6406 9.4921-8.4961-4.4531-8.5547 4.4531 1.6406-9.4921-6.914-6.6797 9.5507-1.4063 4.2774-8.6719 4.2187 8.6719 9.5508 1.4063z" fill="#fff"/></svg>