<svg fill="none" height="92" viewBox="0 0 92 92" width="92" xmlns="http://www.w3.org/2000/svg"><path d="m0 0h92v92h-92z" fill="#185ce3" transform="matrix(-1 0 0 1 92 0)"/><path d="m58.1147 34.7895c-3.2226-2.6953-7.9687-2.2851-10.957.8204l-1.1133 1.1718-1.1719-1.1718c-2.4023-2.461-7.207-3.9844-10.957-.8204-3.6914 3.1641-3.8672 8.7891-.5859 12.1875l11.3672 11.7188c.3515.3516.8203.5273 1.289.5273.5274 0 .9961-.1757 1.3477-.5273l11.3672-11.7188c3.2812-3.3984 3.1054-9.0234-.586-12.1875zm-.7617 10.8985-11.3086 11.7187-11.3672-11.7187c-2.2265-2.3438-2.6953-6.7383.4688-9.4336 3.2226-2.7539 6.9726-.7617 8.3789.6445l2.5195 2.5781 2.461-2.5781c1.3476-1.4062 5.1562-3.3984 8.3789-.6445 3.164 2.6953 2.6953 7.0898.4687 9.4336z" fill="#fff"/></svg>