<svg fill="none" height="92" viewBox="0 0 92 92" width="92" xmlns="http://www.w3.org/2000/svg"><path d="m0 0h92v92h-92z" fill="#fff"/><path d="m60.0625 47.7578c.5859-.7617.9375-1.7578.9375-2.9297-.0586-2.2265-1.9336-4.2773-4.2773-4.2773h-4.1016c.4687-.9961 1.1719-2.2852 1.1719-4.043 0-3.457-1.3477-5.5078-4.8633-5.5078-1.7578 0-2.4024 2.2266-2.6953 3.9844-.2344.9961-.4102 1.9922-.9961 2.5781-1.4063 1.3477-3.4571 4.6875-4.7461 5.3906-.1172.0586-.293.1172-.4688.1172-.3515-.4687-.9375-.8203-1.5234-.8203h-5.625c-1.0547 0-1.875.8789-1.875 1.875v15c0 1.0547.8203 1.875 1.875 1.875h5.625c.9961 0 1.875-.8203 1.875-1.875v-.4688c1.875 0 5.8594 2.4024 10.3711 2.3438.293 0 2.2266.0586 2.4023 0 3.4571 0 5.3907-2.0508 5.2735-5.2148.8789-1.0547 1.3476-2.5782 1.1133-3.9258.7031-1.1719.8789-2.7539.5273-4.1016zm-27.1875 11.3672v-15h5.625v15zm24.8438-11.8945c.9374.6445.9374 3.457-.3516 4.1601.7617 1.2891.0586 3.1055-.8789 3.6328.4687 3.0469-1.1133 4.1016-3.3399 4.1016-.2343.0586-2.2265 0-2.4023 0-4.2774 0-7.9102-2.3438-10.3711-2.3438v-11.9531c2.168 0 4.2188-3.9843 6.2109-5.9765 1.7579-1.7578 1.1719-4.7461 2.3438-5.9766 2.9883 0 2.9883 2.1094 2.9883 3.6328 0 2.461-1.7578 3.5742-1.7578 5.918h6.5625c1.3476 0 2.3437 1.2305 2.4023 2.4023 0 1.1719-.4688 2.1094-1.4062 2.4024zm-20.6251 9.082c.0001-.7617-.6445-1.4063-1.4062-1.4063-.8203 0-1.4063.6446-1.4063 1.4063 0 .8203.586 1.4063 1.4063 1.4063.7617 0 1.4062-.586 1.4062-1.4063z" fill="#a3bef4"/></svg>