<svg fill="none" height="92" viewBox="0 0 92 92" width="92" xmlns="http://www.w3.org/2000/svg"><path d="m0 0h92v92h-92z" fill="#fff" transform="matrix(-1 0 0 1 92 0)"/><path d="m52.957 32.1133c-1.9922-.7617-3.9843-1.1133-5.9765-1.1133-5.3321 0-10.3711 2.4609-13.711 6.6211-.3515.4687-.1172 1.2305.4688 1.4648l13.8281 4.9805-5.5078 15.0586h-14.5899c-.2929 0-.4687.2344-.4687.4688v.9374c0 .293.1758.4688.4687.4688h32.8125c.2344 0 .4688-.1758.4688-.4687v-.9375c0-.2344-.2344-.4688-.4688-.4688h-16.1718l5.2148-14.4141 13.8867 5.0977c.1172 0 .2344.0586.293.0586.5273 0 .9375-.4102.9375-.9375.1758-7.2656-4.2187-14.1797-11.4844-16.8164zm-17.2851 5.625c2.9297-3.0469 7.0312-4.8633 11.3086-4.8633.4687 0 .9375.0586 1.3476.1172-2.1679 1.3476-4.2773 3.8672-6.0351 7.207zm18.457 6.7383-10.0195-3.6328c2.3437-4.5118 5.3906-7.0899 7.5-7.0899.2344 0 .4687 0 .7031.1172 1.1719.4102 1.9922 2.0508 2.2852 4.3945.1757 1.8164 0 3.9844-.4688 6.211zm1.8164.6445c.8203-3.5742.7617-6.9141 0-9.3164 3.8672 2.6953 6.3281 6.9726 6.6211 11.7773z" fill="#a3bef4"/></svg>