<svg fill="none" height="92" viewBox="0 0 92 92" width="92" xmlns="http://www.w3.org/2000/svg"><path d="m0 0h92v92h-92z" fill="#fff" transform="matrix(-1 0 0 1 92 0)"/><path d="m0 0h92v92h-92z" fill="#fff"/><path d="m62.457 45.1211-3.3984-2.9883v-8.3789c0-.4687-.4688-.9375-.9375-.9375h-5.625c-.5273 0-.9375.4688-.9375.9375v1.8164l-5.0391-4.3945c-.1757-.1172-.3515-.1758-.5859-.1758-.293 0-.4688.0586-.6445.1758l-15.9375 13.9453c-.1758.1758-.3516.4687-.3516.7617 0 .4688.4687.9375.9375.9375.293 0 .4687-.1172.6445-.2344l2.2266-1.9336v13.4766c0 1.582 1.2305 2.8125 2.8125 2.8125h20.625c1.5234 0 2.7539-1.2305 2.8125-2.8125v-13.4766l2.168 1.9336c.1757.1172.3515.1758.5859.1758.5273 0 .9375-.4101.9375-.9375 0-.2344-.1172-.5273-.293-.7031zm-5.2734 13.0078c0 .5273-.4688.9375-.9375.9375h-20.625c-.5274 0-.9375-.4102-.9375-.9375v-15.1172l11.25-9.8437 11.25 9.8437zm0-17.6367-3.75-3.2813v-2.5195h3.75zm-15.9375 3.2812v6.2696c0 .8789.6445 1.5234 1.5234 1.5234h6.2696c.8789 0 1.5234-.6445 1.582-1.5234v-6.2696c-.0586-.8789-.7031-1.5234-1.582-1.582h-6.2696c-.8789.0586-1.5234.7031-1.5234 1.582zm1.875.293h5.625v5.625h-5.625z" fill="#a3bef4"/></svg>