<svg fill="none" height="92" viewBox="0 0 92 92" width="92" xmlns="http://www.w3.org/2000/svg"><path d="m0 0h92v92h-92z" fill="#1a5cde" transform="matrix(-1 0 0 1 92 0)"/><path d="m45.5312 31c-8.0273 0-14.5312 6.5625-14.5312 14.5312 0 8.0274 6.5039 14.5313 14.5312 14.5313 7.9688 0 14.5313-6.5039 14.5313-14.5312 0-7.9688-6.5625-14.5313-14.5313-14.5313zm4.8047 20.9766c-.2343.2343-.4687.4687-.7031.6445-.1758.1758-.293.4101-.3516.6445-.0585.3516-.1171.6446-.2343.9961l-1.0547 2.7539c-.8203.1758-1.6406.2344-2.461.2344v-1.582c.0586-.7618-.4687-2.1094-1.3476-2.9883-.3516-.3516-.5274-.8203-.5274-1.3477v-1.875c0-.6445-.4101-1.289-.996-1.6406-.8204-.4687-2.0508-1.1133-2.8711-1.5234-.6446-.3516-1.2891-.7618-1.8164-1.2891h-.0586c-.4102-.4101-.7618-.7617-1.0547-1.2305-.586-.8203-1.4649-2.1093-2.0508-2.9882 1.2305-2.6954 3.3398-4.8047 6.0352-5.9766l1.4062.7031c.6445.293 1.4062-.1172 1.4062-.8203v-.7031c.4102-.0586.9376-.1172 1.4063-.1172l1.6406 1.6406c.3516.3516.3516.9961 0 1.3477l-.2343.2344-.6446.6445c-.1758.1758-.1758.4687 0 .6445l.293.293c.1758.1758.1758.4687 0 .6445l-.4688.4688c-.1172.1171-.2343.1171-.3515.1171h-.5274c-.1172 0-.2343.0586-.2929.1758l-.586.5274c-.1172.1172-.1758.2344-.1758.3515 0 .0586.0586.1758.0586.2344l.9375 1.8164c.1172.293-.0586.6445-.4101.6445h-.3516c-.1172 0-.2344 0-.293-.0585l-.5859-.5274c-.1172-.1172-.3515-.1758-.5859-.1758-.1172 0-.2344 0-.293 0l-1.8164.6446c-.293.0586-.4688.3515-.4688.6445s.1172.5273.3516.6445l.6445.293c.586.293 1.1719.4101 1.8165.4101.5859 0 1.289 1.6407 1.875 1.875h3.8671c.5274 0 .9961.2344 1.3477.586l.8203.8203c.293.293.5273.7617.5273 1.2305 0 .7617-.3515 1.4648-.8203 1.9336zm5.0977-5.3321c-.3516-.1172-.6445-.2929-.8789-.5859l-1.0547-1.582c-.1172-.2344-.2344-.5274-.2344-.7618 0-.2929.1172-.5859.2344-.8203l1.1719-1.6992c.1172-.2344.2929-.3515.5273-.4687l.7617-.4102c.8203 1.582 1.2891 3.3398 1.2891 5.2148 0 .5274-.0586 1.0547-.1172 1.5235z" fill="#fff"/></svg>