<svg fill="none" height="92" viewBox="0 0 92 92" width="92" xmlns="http://www.w3.org/2000/svg"><path d="m0 0h92v92h-92z" fill="#e8effc" transform="matrix(-1 0 0 1 92 0)"/><g fill="#a3bef4"><path d="m33.9375 60.5994h1.745l2.6598 4.6286h.1094l2.6598-4.6286h1.745l-3.6939 6.1847v3.9971h-1.5312v-3.9971z"/><path d="m45.8665 70.9354c-.7159 0-1.3407-.1641-1.8743-.4922s-.9479-.7872-1.2429-1.3772c-.295-.5899-.4425-1.2793-.4425-2.0681 0-.7922.1475-1.4849.4425-2.0782.295-.5932.7093-1.0539 1.2429-1.3821.5336-.3281 1.1584-.4922 1.8743-.4922s1.3407.1641 1.8743.4922c.5336.3282.9479.7889 1.2429 1.3821.295.5933.4424 1.286.4424 2.0782 0 .7888-.1474 1.4782-.4424 2.0681-.295.59-.7093 1.0491-1.2429 1.3772s-1.1584.4922-1.8743.4922zm.005-1.2479c.464 0 .8484-.1226 1.1534-.3679.3049-.2453.5303-.5717.6761-.9794.1491-.4077.2237-.8568.2237-1.3473 0-.4872-.0746-.9347-.2237-1.3423-.1458-.411-.3712-.7408-.6761-.9894-.305-.2486-.6894-.3729-1.1534-.3729-.4674 0-.8552.1243-1.1634.3729-.3049.2486-.532.5784-.6811.9894-.1458.4076-.2188.8551-.2188 1.3423 0 .4905.073.9396.2188 1.3473.1491.4077.3762.7341.6811.9794.3082.2453.696.3679 1.1634.3679z"/><path d="m55.6428 67.6143v-4.4694h1.4914v7.6363h-1.4616v-1.3224h-.0795c-.1757.4077-.4574.7474-.8452 1.0192-.3845.2684-.8634.4027-1.4368.4027-.4905 0-.9247-.1077-1.3026-.3232-.3745-.2187-.6695-.5419-.8849-.9694-.2121-.4276-.3182-.9562-.3182-1.586v-4.8572h1.4865v4.6782c0 .5204.1442.9347.4325 1.2429.2884.3083.6629.4624 1.1236.4624.2784 0 .5552-.0696.8303-.2088.2784-.1392.5087-.3497.691-.6314.1856-.2817.2768-.6397.2735-1.0739z"/><path d="m45.4688 21c-8.0274 0-14.5313 6.5039-14.5313 14.5312 0 8.0274 6.5039 14.5313 14.5312 14.5313 8.0274 0 14.5313-6.5039 14.5313-14.5312 0-8.0274-6.5039-14.5313-14.5312-14.5313zm7.5 24.7266c-2.1094 1.582-4.7461 2.4609-7.5 2.4609-2.8126 0-5.4493-.8789-7.5-2.4609v-.8204c0-2.0507 1.6406-3.75 3.75-3.75.6445 0 1.582.7032 3.75.7032 2.1093 0 3.0468-.7032 3.75-.7032 2.0507 0 3.75 1.6993 3.75 3.75zm1.7578-1.5821c-.4102-2.7539-2.6954-4.8633-5.5078-4.8633-1.2305 0-1.8165.7032-3.75.7032-1.9922 0-2.5782-.7032-3.75-.7032-2.8711 0-5.1563 2.1094-5.5665 4.8633-2.1093-2.2851-3.3398-5.2734-3.3398-8.6133 0-6.9726 5.625-12.6562 12.6563-12.6562 6.9726 0 12.6562 5.6836 12.6562 12.6562 0 3.3399-1.2891 6.3282-3.3984 8.6133zm-9.2578-16.582c-2.8711 0-5.1563 2.3437-5.1563 5.1563 0 2.871 2.2852 5.1562 5.1563 5.1562 2.8124 0 5.1562-2.2852 5.1562-5.1562 0-2.8125-2.3438-5.1563-5.1562-5.1563zm0 8.4375c-1.8165 0-3.2813-1.4648-3.2813-3.2812 0-1.7579 1.4648-3.2813 3.2813-3.2813 1.7578 0 3.2812 1.5234 3.2812 3.2813 0 1.8164-1.5234 3.2812-3.2812 3.2812z"/></g></svg>