<svg fill="none" height="92" viewBox="0 0 92 92" width="92" xmlns="http://www.w3.org/2000/svg"><path d="m0 0h92v92h-92z" fill="#fff" transform="matrix(-1 0 0 1 92 0)"/><path d="m52.5469 32.0547c-.8789-.7031-1.8164-1.0547-2.7539-1.0547-1.3477 0-2.5782.6445-3.3985 1.5234l-.6445.6446-.7031-.6446c-.7617-.8789-2.0508-1.5234-3.3985-1.5234-.9375 0-1.875.3516-2.7539 1.0547-2.0507 1.8164-2.1679 5.0391-.2929 6.9726l6.3867 6.6797c.4101.4102 1.0547.4102 1.4648 0l6.3867-6.6797c1.875-1.9335 1.7579-5.1562-.2929-6.9726zm-.9961 5.6836-5.8008 6.0351-5.8008-6.0351c-.9961-1.0547-1.2304-3.0469.1758-4.2774.4688-.4101.9961-.5273 1.5234-.5273.8204 0 1.6407.3516 2.1094.8789l1.9922 2.0508 1.9336-2.0508c.4687-.5273 1.2891-.9375 2.1094-.9375.5273 0 1.0547.1758 1.5234.5859 1.4063 1.2305 1.1719 3.2227.2344 4.2774zm-11.6602 7.8515c-.8203-1.1132-2.9297-1.8164-4.3945-.2343-.9375.9961-.9375 2.5195-.1172 3.6328l1.6406 2.2851c.4102.5274-.3515 1.1133-.7617.6446l-3.6328-4.336v-8.0273c0-1.5235-1.2891-2.8711-2.8125-2.8711-1.582-.0586-2.8125 1.2305-2.8125 2.7539v10.0195c0 .6446.1758 1.2305.5859 1.7578l6.2696 7.8516c.2929.3516.5273.9961.5859 1.582.0586.2344.2344.3516.4688.3516h.9375c.2929 0 .5273-.1758.4687-.4688-.0586-.9374-.4102-1.9921-.9961-2.6367l-6.2695-7.8515c-.1172-.1758-.1758-.4102-.1758-.586v-10.0195c0-1.2305 1.875-1.2305 1.875.0586v8.7891l3.75 4.5117c2.168 2.6367 5.6836-.1172 4.1602-2.461 0 0 0-.0586-.0586-.0586l-1.7578-2.4609c-.293-.4102-.2344-.9961.1757-1.2891.4102-.2929.9961-.2343 1.3477.1758l2.4609 3.4571c.7617.9375 1.1719 2.1679 1.1719 3.3984v7.0312c0 .2344.1758.4688.4687.4688h.9375c.2344 0 .4688-.2344.4688-.4688v-7.0312c0-1.6406-.5273-3.2227-1.5234-4.5117zm24.6094-6.1523c0-1.5234-1.2891-2.8125-2.8711-2.8125-1.5234.0586-2.7539 1.4063-2.7539 2.9297v8.0273l-3.6328 4.336c-.4688.4687-1.2305-.1172-.8203-.6446l1.6992-2.2851c.7617-1.1133.7617-2.6367-.1758-3.6328-1.4648-1.5821-3.5742-.8789-4.3359.2343l-2.5196 3.4571c-.9375 1.289-1.4648 2.8711-1.4648 4.4531v7.0312c0 .293.1758.4688.4688.4688h.9374c.2344 0 .4688-.1758.4688-.4688v-7.0312c0-1.1719.3516-2.4023 1.1133-3.3984l2.4609-3.3985c.3516-.4101.9375-.5273 1.3477-.1758.4687.293.4687.8789.1758 1.2891l-1.7579 2.4609-.0586.0586c-1.5234 2.3438 1.9922 5.0977 4.1602 2.461l3.8086-4.5117v-8.7891c0-1.2891 1.875-1.2891 1.875-.0586v10.0195c0 .1758-.1172.4102-.2344.586l-6.2695 7.7929c-.5273.7032-.8789 1.7579-.9961 2.6953 0 .2344.1758.4688.4688.4688h.9374c.2344 0 .4688-.1758.4688-.4102.0586-.5273.293-1.1718.5859-1.582l6.2696-7.793c.4101-.5273.6445-1.1132.6445-1.7578z" fill="#a3bef4"/></svg>