<?xml version="1.0" encoding="UTF-8"?> <svg xmlns="http://www.w3.org/2000/svg" xmlns:xlink="http://www.w3.org/1999/xlink" version="1.1" id="Layer_1" x="0px" y="0px" viewBox="0 0 500 500" style="enable-background:new 0 0 500 500;" xml:space="preserve"> <style type="text/css"> .st0{fill:#E34F43;} </style> <path id="logo_mark" class="st0" d="M398.1,287.9c-4.3,0-8.5,0.4-12.8,0.9L324,178.4c13.6-16.2,21.7-37.1,21.7-59.7 c0-51.6-41.8-93.4-93.4-93.4S159,67.5,159,118.7c0,22.2,7.7,42.6,20.9,58.8l-63.9,111.7c-4.7-0.9-9.4-1.3-14.1-1.3 c-51.6,0-93.4,41.8-93.4,93.4s41.8,93.4,93.4,93.4s93.4-41.8,93.4-93.4c0-22.2-7.7-42.6-20.9-58.8l63.9-111.7 c4.7,0.9,9.4,1.3,14.1,1.3c4.3,0,8.5-0.4,12.8-0.9l61.4,110.4c-13.6,16.2-21.7,37.1-21.7,59.7c0,51.6,41.8,93.4,93.4,93.4 c51.6,0,93.4-41.8,93.4-93.4S449.7,287.9,398.1,287.9z M252.3,86.7c17.5,0,32,14.5,32,32s-14.5,32-32,32s-32-14.5-32-32 S234.9,86.7,252.3,86.7z M101.9,413.3c-17.5,0-32-14.5-32-32c0-17.5,14.5-32,32-32s32,14.5,32,32 C133.8,398.8,119.3,413.3,101.9,413.3z M398.1,413.3c-17.5,0-32-14.5-32-32c0-17.5,14.5-32,32-32c17.5,0,32,14.5,32,32 C430.1,398.8,416,413.3,398.1,413.3z"></path> </svg> 