<?xml version="1.0" encoding="UTF-8"?> <svg xmlns="http://www.w3.org/2000/svg" width="26" height="25" viewBox="0 0 26 25" fill="none"><path fill-rule="evenodd" clip-rule="evenodd" d="M13.452 25C20.3552 25 25.952 19.404 25.952 12.5C25.952 5.596 20.3552 0 13.452 0C6.5488 0 0.951996 5.596 0.951996 12.5C0.951996 19.404 6.5488 25 13.452 25ZM11.4613 4.575C11.3829 4.4491 11.2642 4.35326 11.1243 4.30299C10.9845 4.25271 10.8317 4.25096 10.6907 4.298C10.3628 4.41376 10.0425 4.54969 9.7315 4.705C9.59864 4.77546 9.49253 4.88725 9.42931 5.02337C9.3661 5.15948 9.34924 5.31246 9.38131 5.459L9.59604 6.543C9.62094 6.68003 9.60857 6.8212 9.56022 6.95186C9.51188 7.08252 9.42932 7.19789 9.32111 7.286C8.97519 7.5734 8.66012 7.8958 8.38096 8.248C8.29774 8.3575 8.18572 8.44191 8.05732 8.49186C7.92893 8.54181 7.78916 8.55536 7.65351 8.531L6.59094 8.316C6.44532 8.28492 6.29344 8.30352 6.1597 8.36881C6.02595 8.4341 5.9181 8.54228 5.85346 8.676C5.70156 8.99424 5.56954 9.32153 5.45813 9.656C5.41159 9.79886 5.41316 9.95297 5.46261 10.0949C5.51205 10.2368 5.60668 10.3587 5.73206 10.442L6.63509 11.054C6.86687 11.212 6.98326 11.494 6.95516 11.777C6.91001 12.233 6.91202 12.688 6.95818 13.137C6.97489 13.275 6.95419 13.4149 6.89825 13.5423C6.84232 13.6696 6.75318 13.7796 6.64011 13.861L5.73908 14.476C5.61397 14.5598 5.51972 14.682 5.47064 14.824C5.42157 14.9661 5.42035 15.1202 5.46717 15.263C5.58055 15.597 5.71399 15.923 5.8665 16.241C5.93151 16.3745 6.03966 16.4824 6.17358 16.5474C6.30751 16.6123 6.45944 16.6305 6.60499 16.599L7.66857 16.38C7.80394 16.3552 7.94355 16.3682 8.07194 16.4176C8.20034 16.4671 8.31251 16.551 8.39601 16.66C8.67495 17.01 8.99 17.332 9.33817 17.62C9.44675 17.7077 9.52979 17.8227 9.57866 17.9532C9.62754 18.0837 9.64047 18.2249 9.6161 18.362L9.4054 19.447C9.37388 19.5936 9.39134 19.7464 9.45511 19.8822C9.51888 20.018 9.62545 20.1292 9.75858 20.199C10.0698 20.3536 10.3906 20.4885 10.7188 20.603C11.1944 20.769 11.8607 20.173 12.3533 19.732C12.4753 19.6248 12.5734 19.4934 12.6414 19.3461C12.7093 19.1989 12.7455 19.0391 12.7476 18.877V17.058C12.7476 17.038 12.7486 17.019 12.7506 17C11.2947 16.646 10.2131 15.31 10.2131 13.716V11.79C10.2131 11.643 10.3295 11.525 10.473 11.525H11.374V9.629C11.3729 9.50486 11.4212 9.38534 11.5082 9.29653C11.5953 9.20772 11.714 9.15684 11.8386 9.155C12.0954 9.155 12.3031 9.368 12.3031 9.629V11.525H14.7413V9.629C14.7413 9.368 14.949 9.155 15.2059 9.155C15.4627 9.155 15.6705 9.368 15.6705 9.629V11.525H16.5715C16.715 11.525 16.8314 11.643 16.8314 11.79V13.716C16.8314 15.36 15.6805 16.73 14.1554 17.031L14.1564 17.058V18.864C14.1564 19.2 14.3099 19.514 14.5607 19.732C15.0614 20.169 15.7397 20.76 16.2133 20.592C16.5404 20.477 16.8604 20.341 17.1725 20.185C17.3053 20.1147 17.4114 20.0031 17.4746 19.8672C17.5378 19.7312 17.5547 19.5784 17.5227 19.432L17.308 18.347C17.2832 18.2101 17.2957 18.0692 17.344 17.9387C17.3924 17.8082 17.4748 17.693 17.5829 17.605C17.925 17.32 18.2401 16.999 18.523 16.643C18.6061 16.5333 18.7181 16.4487 18.8465 16.3986C18.9749 16.3485 19.1147 16.3348 19.2505 16.359L20.3131 16.574C20.6121 16.634 20.9171 16.494 21.0505 16.214C21.2024 15.8958 21.3345 15.5685 21.4459 15.234C21.4922 15.0913 21.4905 14.9374 21.441 14.7957C21.3916 14.654 21.2971 14.5323 21.1719 14.449L20.2689 13.837C20.1553 13.756 20.0656 13.6461 20.0093 13.5187C19.953 13.3913 19.9321 13.2512 19.9488 13.113C19.9935 12.661 19.9925 12.2058 19.9458 11.754C19.9291 11.616 19.9498 11.4761 20.0057 11.3487C20.0617 11.2214 20.1508 11.1114 20.2639 11.03L21.1649 10.414C21.2898 10.3302 21.3838 10.2082 21.4327 10.0663C21.4816 9.92443 21.4827 9.77055 21.4358 9.628C21.323 9.29382 21.1896 8.96687 21.0365 8.649C20.9716 8.5156 20.8636 8.40784 20.7298 8.34308C20.5961 8.27832 20.4443 8.26033 20.299 8.292L19.2354 8.51C19.1001 8.5348 18.9604 8.52177 18.832 8.47235C18.7037 8.42293 18.5915 8.33905 18.508 8.23C18.2276 7.87883 17.9119 7.55716 17.5658 7.27C17.4572 7.18261 17.374 7.06774 17.3252 6.93739C17.2763 6.80704 17.2634 6.666 17.2879 6.529L17.4986 5.444C17.5301 5.29742 17.5126 5.14458 17.4489 5.00881C17.3851 4.87303 17.2785 4.76177 17.1454 4.692C16.8338 4.53815 16.5131 4.40323 16.1852 4.288C16.044 4.24149 15.8912 4.24383 15.7515 4.29464C15.6119 4.34546 15.4935 4.44178 15.4156 4.568L14.8156 5.488C14.7392 5.60262 14.6326 5.69393 14.5074 5.75183C14.3821 5.80972 14.2433 5.83193 14.1062 5.816C13.6635 5.77007 13.2172 5.77074 12.7747 5.818C12.638 5.83458 12.4993 5.81308 12.3741 5.75589C12.2489 5.6987 12.142 5.60805 12.0653 5.494L11.4613 4.575Z" fill="#005AE0"></path></svg> 