<?xml version="1.0" encoding="UTF-8" standalone="no"?> <svg xmlns="http://www.w3.org/2000/svg" xmlns:xlink="http://www.w3.org/1999/xlink" xmlns:serif="http://www.serif.com/" width="100%" height="100%" viewBox="0 0 115 115" version="1.1" xml:space="preserve" style="fill-rule:evenodd;clip-rule:evenodd;stroke-linejoin:round;stroke-miterlimit:2;"><g><path d="M95.567,19.552c-9.705,-9.827 -23.116,-15.905 -37.925,-15.905c-14.813,0 -28.224,6.078 -37.931,15.905c-9.708,9.827 -15.711,23.406 -15.711,38.401c-0,14.995 6.003,28.574 15.71,38.401c9.706,9.829 23.119,15.904 37.932,15.904c14.811,0 28.223,-6.08 37.927,-15.904c9.706,-9.829 15.709,-23.406 15.709,-38.401c0,-14.995 -6.005,-28.574 -15.711,-38.401Zm-1.77,75.007c-9.253,9.367 -22.037,15.162 -36.157,15.162c-14.121,0 -26.907,-5.795 -36.16,-15.162c-9.254,-9.368 -14.977,-22.31 -14.977,-36.606c0,-14.296 5.724,-27.239 14.977,-36.606c9.252,-9.367 22.036,-15.163 36.158,-15.163c14.12,-0 26.904,5.795 36.157,15.162c9.252,9.368 14.976,22.31 14.976,36.606c0.002,14.297 -5.722,27.239 -14.974,36.607Z" style="fill:#1d2428;fill-rule:nonzero;"></path><path d="M103.782,57.5c-0.241,-25.593 -20.805,-46.265 -46.14,-46.265c-25.339,-0 -45.905,20.674 -46.141,46.267l21.158,-21.421l7.096,7.184l-15.484,15.677l66.742,-0l-15.485,-15.676l7.096,-7.184l21.158,21.418Zm-46.142,-8.028l-19.662,-20.888l13.066,0l0,-10.294c0,-2.673 2.968,-4.863 6.596,-4.863c3.627,-0 6.595,2.188 6.595,4.863l0,10.295l13.066,0l-19.661,20.887Z" style="fill:#1d2428;fill-rule:nonzero;"></path><path d="M63.374,84.246c-1.048,-0.691 -2.376,-1.31 -3.978,-1.849c-1.224,-0.427 -2.233,-0.831 -3.02,-1.219c-0.78,-0.385 -1.356,-0.812 -1.724,-1.262c-0.378,-0.459 -0.555,-1.009 -0.555,-1.641c0,-0.504 0.151,-0.984 0.472,-1.439c0.315,-0.453 0.809,-0.831 1.479,-1.115c0.678,-0.29 1.54,-0.446 2.61,-0.45c0.863,0.005 1.65,0.075 2.363,0.199c0.704,0.129 1.328,0.286 1.862,0.464c0.54,0.185 0.979,0.359 1.322,0.525l1.191,-3.636c-0.719,-0.366 -1.623,-0.67 -2.717,-0.916c-0.931,-0.209 -1.994,-0.328 -3.203,-0.369l0,-3.763l-3.275,0l0,3.951c-0.525,0.085 -1.028,0.201 -1.504,0.341c-1.205,0.36 -2.24,0.86 -3.096,1.512c-0.849,0.65 -1.506,1.409 -1.958,2.281c-0.454,0.871 -0.677,1.831 -0.686,2.862c0.007,1.195 0.316,2.247 0.926,3.157c0.61,0.91 1.479,1.7 2.601,2.376c1.118,0.674 2.451,1.256 3.994,1.745c1.159,0.376 2.101,0.767 2.821,1.17c0.72,0.4 1.247,0.841 1.576,1.323c0.336,0.482 0.501,1.041 0.493,1.666c0,0.685 -0.199,1.28 -0.587,1.794c-0.385,0.506 -0.953,0.904 -1.699,1.188c-0.747,0.285 -1.659,0.425 -2.727,0.434c-0.869,-0.007 -1.712,-0.082 -2.535,-0.224c-0.815,-0.149 -1.582,-0.342 -2.288,-0.581c-0.713,-0.24 -1.336,-0.5 -1.878,-0.792l-1.151,3.788c0.521,0.289 1.171,0.549 1.967,0.789c0.795,0.243 1.672,0.435 2.63,0.582c0.952,0.142 1.931,0.215 2.925,0.224l0.174,-0.002l0,3.89l3.275,-0l0,-4.202c0.416,-0.08 0.811,-0.178 1.187,-0.291c1.314,-0.4 2.405,-0.946 3.267,-1.645c0.87,-0.692 1.513,-1.496 1.94,-2.401c0.424,-0.904 0.636,-1.862 0.636,-2.883c0,-1.195 -0.253,-2.251 -0.773,-3.16c-0.521,-0.923 -1.304,-1.727 -2.357,-2.421Z" style="fill:#1d2428;fill-rule:nonzero;"></path></g></svg> 