<?xml version="1.0" encoding="UTF-8"?> <svg xmlns="http://www.w3.org/2000/svg" xmlns:xlink="http://www.w3.org/1999/xlink" version="1.1" id="Layer_1" x="0px" y="0px" viewBox="0 0 489.5 466.6" style="enable-background:new 0 0 489.5 466.6;" xml:space="preserve"> <style type="text/css"> .st0{fill:#6F4BBB;} .st1{fill:#7D5DC2;} .st2{fill:#9478CF;} .st3{fill:#5F3EA7;} .st4{fill:#A58DD4;} .st5{fill:#D3E8EF;} .st6{fill:#FFFFFF;} .st7{fill:#EA4E64;} .st8{fill:#EC6277;} .st9{fill:#232323;} .st10{fill:#323232;} .st11{fill:#2B3039;} .st12{fill:#393F4C;} .st13{fill:#999999;} .st14{fill:#1EC185;} .st15{fill:#FF893A;} </style> <g> <path class="st0" d="M161.8,351.2h65.7v57.5H163c-10.2-4.5-18.6-10.9-24.7-18.4C140.7,377.9,149.6,361.7,161.8,351.2L161.8,351.2 L161.8,351.2z"></path> <path class="st1" d="M165.6,356c-8.7,9-17.3,19.9-20.2,32.3c5.2,6.2,12,11,19.3,14.5h55.2V356H165.6L165.6,356z"></path> <path class="st2" d="M150.4,375.6c-1.7,2.4-4.9,12.1-5.1,12.7c5.2,6.2,12,11,19.3,14.5H194v-25.1 C179.5,377.6,165,376.9,150.4,375.6L150.4,375.6L150.4,375.6z"></path> <path class="st3" d="M161.5,396.5c6.8,2.3,10,6.6,11,12.2h-23.7C150.4,403.9,154.9,398,161.5,396.5"></path> <path class="st0" d="M161.4,399.1c-3.7,1-6.8,3.9-8.8,7.2h8.9L161.4,399.1L161.4,399.1L161.4,399.1z"></path> <path class="st3" d="M184.9,395.1c9.1,2.5,13.5,8.6,14.6,13.6h-31.6C170,403.4,176.4,396.3,184.9,395.1"></path> <path class="st0" d="M184.7,397.6c-5,0.9-9.9,4.4-12.8,8.7h13v-8.7H184.7L184.7,397.6z"></path> <path class="st0" d="M306.3,351.2h-65.7v57.5h64.5c10.2-4.5,18.6-10.9,24.7-18.4C327.5,377.9,318.6,361.7,306.3,351.2L306.3,351.2 L306.3,351.2z"></path> <path class="st1" d="M302.6,356c8.7,9,17.3,19.9,20.2,32.3c-5.2,6.2-12,11-19.3,14.5h-55.2V356H302.6L302.6,356z"></path> <path class="st2" d="M317.7,375.6c1.7,2.4,4.9,12.1,5.1,12.7c-5.2,6.2-12,11-19.3,14.5h-29.4v-25.1 C288.6,377.6,303.2,376.9,317.7,375.6L317.7,375.6L317.7,375.6z"></path> <path class="st3" d="M306.7,396.5c-6.8,2.3-10,6.6-11,12.2h23.7C317.8,403.9,313.3,398,306.7,396.5"></path> <path class="st0" d="M306.8,399.1c3.7,1,6.8,3.9,8.8,7.2h-8.9v-7.2H306.8L306.8,399.1z"></path> <path class="st3" d="M283.3,395.1c-9.1,2.5-13.5,8.6-14.6,13.6h31.6C298.2,403.4,291.8,396.3,283.3,395.1"></path> <path class="st0" d="M283.4,397.6c5,0.9,9.9,4.4,12.8,8.7h-13v-8.7H283.4L283.4,397.6z"></path> <path class="st3" d="M58.4,368.9c0.4,10.5,2.8,18.7,7.4,23.8c7.2-0.6,13.3-8.6,16.1-15.5C77.7,369.9,69.5,366.6,58.4,368.9"></path> <path class="st0" d="M62.1,371.8c0.2,6.1,1.8,12.4,5.1,17l2.8-16.6C67.5,371.6,64.8,371.6,62.1,371.8"></path> <path class="st3" d="M76.6,374.5c0.7,9.4,1.9,17.7,7.8,26.1c10.6-2.3,18.9-8.2,22.4-17.6C101.6,371.1,89.2,369.5,76.6,374.5 L76.6,374.5L76.6,374.5z"></path> <path class="st0" d="M85.9,396.6l7.1-20.9c-4-0.8-8.5-0.2-12.8,1.2C80.9,384,82.1,390.3,85.9,396.6L85.9,396.6L85.9,396.6z"></path> <path class="st3" d="M111.4,382.2c1.8,10.7,11.9,16,17,15.7c2.3-3.9,4.6-9,4.6-15.1l-4.4-3.7C121.9,377.8,114.8,378.3,111.4,382.2 L111.4,382.2L111.4,382.2z"></path> <path class="st0" d="M126.6,394.3c2-3,3.3-7.6,3.5-12l-7.2-1.2L126.6,394.3L126.6,394.3z"></path> <path class="st0" d="M133.1,238.8v143.9c-24.9,3.1-53.9,2.1-74.7-13.9c0.4-13.4,1.7-26.5,4.1-39c4.5-22.6,13-43.2,27.7-60.1 C103.2,254.8,116.2,247.7,133.1,238.8L133.1,238.8L133.1,238.8z"></path> <path class="st2" d="M65.4,365.5c13,10,44.2,13.1,60.6,11V250.4C83.7,272.9,66.9,314.4,65.4,365.5"></path> <path class="st4" d="M65.4,365.5c6.6,5.1,17.8,8.3,29.5,10.1c1.7-32.1,1.5-80.4-5.7-93.2C73.5,304.7,66.4,333.2,65.4,365.5"></path> <path class="st2" d="M94.9,344.1c5.5,0,9.9,4.4,9.9,9.9s-4.4,9.9-9.9,9.9S85,359.5,85,354S89.4,344.1,94.9,344.1"></path> <path class="st0" d="M118.5,126.6c-2.9-18.7,0.3-28.4,4.1-45.5c11.9,9.9,19.5,17,34,24.3c2.9-18.1,9.3-35.2,18.6-51.2l5.5-9.4 c21.2,16,39.3,28.8,53.3,50c14-21.2,32.1-34,53.3-50l5.5,9.4c9.3,16,15.7,33.1,18.6,51.2c14.5-7.3,22.1-14.4,34-24.3 c3.9,17,7,26.7,4.1,45.5l26.2,7.2c-5.2,68.4-10.5,126.7-17.2,195.1c-0.9,9.4-1.9,18.9-2.9,28.3c-0.3,2.7-3.6,7.6-17.6,7.7 c-68.4,4.6-140,4.6-208.3,0c-14-0.2-17.3-5-17.6-7.7c-1-9.6-2-19.2-2.9-28.8c-0.4-3.9-0.8-7.8-1.2-11.8 c-5.7-61-11.3-121.8-16-182.9l26.2-7.2L118.5,126.6L118.5,126.6z"></path> <path class="st2" d="M183.6,59.1c-11.3,19.2-17.6,39.5-18.8,60.5c-11.6-4.4-24.8-11.6-36.2-20.9c-2.3,10.2-1.8,23.5,1.3,35.1 c-9.6,2.2-18.5,4.5-27.4,7.1c4.8,62.8,9.3,125.6,15.5,188.2c0.6,6.2,1.9,19.6,2.6,25.8c2.5,1.4,7.7,1.4,9.8,1.5 c68.8,4.6,138.4,4.6,207.2,0c2.2-0.2,7.3-0.2,9.8-1.5c0.7-6.1,2-19.8,2.6-25.8c6.1-62.7,10.7-125.5,15.5-188.2 c-8.9-2.6-17.8-4.9-27.4-7.1c3.1-11.6,3.6-24.9,1.3-35.1c-11.3,9.4-24.6,16.5-36.2,20.9c-1.2-20.9-7.5-41.3-18.8-60.5 c-23,17.4-38.1,30-50.4,55.2c-12.4-25.2-27.4-37.8-50.5-55.2L183.6,59.1L183.6,59.1z"></path> <path class="st4" d="M183.6,59.1c1.7,27.9,8.7,58.9,21.9,71.9c-17.6-1.9-27-4-40.6-11.4c-11.7-4.4-24.9-11.6-36.3-20.9 c6.1,18.4,12,31.5,24.1,44.3c-10.3-0.2-16.2-3.6-22.8-9.2c-9.6,2.2-18.5,4.5-27.4,7.1c4.8,62.8,9.3,125.6,15.5,188.2 c0.6,6.2,1.9,19.6,2.6,25.8c2.5,1.4,7.7,1.4,9.8,1.5c34.4,2.3,69,3.4,103.6,3.4v-37.4c-53.4,4.2-102.2-80-46.1-135.3l-11.2,6.2 c-1.4-8.9,1.4-20,5.1-29c7.3-17.5,26.7-30.5,52.2-33.6v-16.5C221.6,89,206.7,76.4,183.6,59.1L183.6,59.1L183.6,59.1z"></path> <path class="st1" d="M315.3,143c12-12.8,18-26,24.1-44.4c2.3,10.2,1.8,23.5-1.3,35.1C331.5,139.4,325.6,142.8,315.3,143 M295,137.8 c6,0,10.8,4.9,10.8,10.8c0,6-4.9,10.8-10.8,10.8c-6,0-10.8-4.9-10.8-10.8C284.2,142.7,289.1,137.8,295,137.8 M334.5,162.2 c4.1,0,7.5,3.4,7.5,7.5c0,4.1-3.4,7.5-7.5,7.5s-7.5-3.4-7.5-7.5C327,165.5,330.3,162.2,334.5,162.2 M262.6,130.9 C275.8,118,282.8,87,284.5,59c11.3,19.2,17.6,39.5,18.8,60.5C289.6,126.9,280.2,129,262.6,130.9"></path> <path class="st2" d="M136,153.5c9.8,0,17.8,8,17.8,17.8s-8,17.8-17.8,17.8s-17.8-8-17.8-17.8S126.2,153.5,136,153.5 M124.5,208.1 c3.9,0,7.1,3.2,7.1,7.1c0,3.9-3.2,7.1-7.1,7.1c-3.9,0-7.1-3.2-7.1-7.1C117.4,211.3,120.6,208.1,124.5,208.1"></path> <path class="st5" d="M235.2,163.2c42.3,0,76.6,34.3,76.6,76.6s-34.3,76.6-76.6,76.6s-76.6-34.3-76.6-76.6 C158.6,197.5,192.9,163.2,235.2,163.2"></path> <path class="st6" d="M160.6,222.4c6.7-28.8,29.7-51.4,58.7-57.5c31.6-2.4,57.2,19.7,57.2,49.8c0,30.3-26,57.2-57.9,60 c-32,2.8-57.9-19.4-57.9-49.8C160.6,224.1,160.6,223.2,160.6,222.4L160.6,222.4L160.6,222.4z"></path> <path class="st7" d="M258.8,210.4c23.9,0,43.2,19.3,43.2,43.2s-19.3,43.2-43.2,43.2c-23.9,0-43.2-19.3-43.2-43.2 C215.6,229.8,234.9,210.4,258.8,210.4"></path> <path class="st8" d="M258.8,210.4c6.3,0,12.3,1.3,17.7,3.8v0.5c0,29.5-24.6,55.8-55.6,59.8c-3.4-6.2-5.4-13.3-5.4-20.9 C215.5,229.7,234.8,210.4,258.8,210.4L258.8,210.4L258.8,210.4z"></path> <path class="st9" d="M258.8,225.6c15.5,0,28.1,12.5,28.1,28.1c0,15.5-12.5,28.1-28.1,28.1c-15.5,0-28.1-12.5-28.1-28.1 C230.7,238.2,243.2,225.6,258.8,225.6"></path> <path class="st10" d="M258.8,225.6c5.7,0,11,1.7,15.4,4.6c-5.4,17.9-19.6,33.1-37.8,40.3c-3.5-4.7-5.6-10.6-5.6-16.8 C230.7,238.2,243.2,225.6,258.8,225.6"></path> <path class="st6" d="M228.2,221.3c9.8,0,17.7,7.9,17.7,17.7s-7.9,17.7-17.7,17.7s-17.7-7.9-17.7-17.7S218.4,221.3,228.2,221.3"></path> <path class="st0" d="M145.1,274.9c21.8-12,54.6,9,52.2,43C176.5,311.5,154,291.9,145.1,274.9"></path> <path class="st4" d="M145.1,274.9c19.8,0.4,41.7,11.6,52.2,43C172.4,315.1,149.2,296.1,145.1,274.9"></path> <path class="st1" d="M155.4,303.3c2.9-1,16.5-0.7,17.6,0.8c1.3,1.8-2.3,11-6.1,17C161.9,317.1,157.8,311.6,155.4,303.3"></path> <path class="st6" d="M151.4,300c2.9-1,16.5-0.7,17.6,0.8c1.3,1.8-2.3,11-6.1,17C157.9,313.8,153.8,308.3,151.4,300"></path> <path class="st0" d="M155.5,295.3c0.9,19.3,26.1,37.9,50,31c1.3,5.6-2.5,8.9-6.4,9.7c-21.7,1.9-42.6-11.8-49.5-29.3 C147.6,301.9,149.8,295.9,155.5,295.3L155.5,295.3L155.5,295.3z"></path> <path class="st0" d="M151.4,331.5c6,11.3,15.4,16.6,25.7,18.3C162.4,356.4,149.4,347.6,151.4,331.5"></path> <path class="st2" d="M161.3,334.2c11.8,6.6,23,8.7,36,7.5C187.8,348,169.2,348.7,161.3,334.2"></path> <path class="st3" d="M261.7,141.5c-23.7-41-86.1-17.1-79.8,28.9C197.5,144.6,227.6,136.2,261.7,141.5"></path> <path class="st0" d="M261.7,141.5c-13.4-23.1-41.6-24.6-60.5-11.9c-0.1,5.4,1.5,9.3,4.4,12.4C220.9,134.6,240.9,131.6,261.7,141.5 L261.7,141.5L261.7,141.5z"></path> <path class="st0" d="M385.8,297.4c24.9,0,45.3,20,45.3,45s-20.4,45-45.3,45s-45.3-20-45.3-45S360.9,297.4,385.8,297.4"></path> <path class="st2" d="M385.8,304c21.4,0,38.7,17.2,38.7,38.3c0,21.2-17.3,38.3-38.7,38.3c-21.4,0-38.7-17.2-38.7-38.3 C347.1,321.2,364.5,304,385.8,304"></path> <path class="st4" d="M385.8,304c15.2,0,28.3,8.7,34.7,21.3c1.4,20-23,34.7-39.3,27.8c-12-6.5-20.3-19.2-20.3-33.7 c0-2.4,0.2-4.7,0.7-7C368.3,307.2,376.7,304,385.8,304L385.8,304L385.8,304z"></path> <path class="st11" d="M370,336.4c-1.8-5.5,18.8-12.4,20.7-6.9l20.4,61.1c1.8,5.5-18.8,12.4-20.7,6.9L370,336.4L370,336.4z"></path> <path class="st3" d="M399.6,330.2c-8.1,5-14.8,9.9-19.6,19c6.9,8.4,16,13,26,11.8C414.1,350.8,409.9,339.1,399.6,330.2L399.6,330.2 L399.6,330.2z"></path> <path class="st0" d="M405.9,344.2c-1.2-3.5-3.4-6.8-6.2-10c-6.2,4-11.3,8.3-15.2,14.5C388.8,349.1,395.5,348,405.9,344.2 L405.9,344.2L405.9,344.2z"></path> <path class="st3" d="M407.4,354.7c-8.1,5-14.8,9.9-19.6,19c6.9,8.4,16,13,26,11.8C421.9,375.3,417.7,363.6,407.4,354.7L407.4,354.7 L407.4,354.7z"></path> <path class="st0" d="M413.7,367.7c-1.2-3.5-3.4-6.8-6.2-10c-6.2,4-11.3,8.3-15.2,14.5C396.6,372.7,403.3,371.5,413.7,367.7 L413.7,367.7L413.7,367.7z"></path> <path class="st3" d="M365.2,357.1c7.7-1.9,14.5-3.1,22.8-0.7c1,9-1.5,17.2-8,22.4C369.2,377.9,364.6,368.5,365.2,357.1L365.2,357.1 L365.2,357.1z"></path> <path class="st0" d="M369.9,368c-1.4-2.8-2.1-6-2.4-9.5c6-1.4,11.5-2,17.6-0.7C382.9,360.7,378.3,364,369.9,368L369.9,368 L369.9,368z"></path> <path class="st12" d="M349.8,191.6c-40.9,2.3-72.2,37.4-69.9,78.3c2.3,40.9,37.4,72.2,78.3,69.9s72.2-37.4,69.9-78.3 S390.8,189.3,349.8,191.6"></path> <path class="st5" d="M350.4,200.8c-35.8,2-63.3,32.8-61.3,68.7c2,35.8,32.8,63.3,68.7,61.2c35.8-2,63.3-32.8,61.3-68.7 C417,226.2,386.3,198.7,350.4,200.8"></path> <path class="st6" d="M403.5,297.9c6.6-10.2,10.2-22.5,9.5-35.6c-1.5-25.9-19.4-47-43.1-53.5c-1.9,22.4-3.9,44.4-6,67 C371.8,279,392.2,289.2,403.5,297.9L403.5,297.9L403.5,297.9z"></path> <path class="st6" d="M349.4,208c-31.2,1.8-55.1,28.5-53.2,59.7c0.3,4.4,1,8.7,2.2,12.7c-0.1-0.9-0.2-1.8-0.2-2.8 c-2-36.2,25.6-67.2,61.8-69.3h0.3C356.8,208,353.1,207.8,349.4,208L349.4,208L349.4,208z"></path> <path class="st13" d="M298.4,299.4c1.2,2,2.5,3.9,3.9,5.7l19.2-26.6l44.2,18.4l25.6-52.9l25.7,4.9c-0.7-2.4-1.4-4.8-2.3-7.1 l-27-5.2l-25.1,51.9l-43.2-18L298.4,299.4L298.4,299.4L298.4,299.4z"></path> <path class="st14" d="M319.6,261.1c7.4-0.4,13.7,5.2,14.1,12.6c0.4,7.4-5.2,13.7-12.6,14.1c-7.4,0.4-13.7-5.2-14.1-12.6 C306.5,267.9,312.2,261.6,319.6,261.1"></path> <path class="st7" d="M388.7,227c7.4-0.4,13.7,5.2,14.1,12.6c0.4,7.4-5.2,13.7-12.6,14.1c-7.4,0.4-13.7-5.2-14.1-12.6 C375.6,233.7,381.3,227.4,388.7,227"></path> <path class="st15" d="M363.3,279.4c7.4-0.4,13.7,5.2,14.1,12.6s-5.2,13.7-12.6,14.1s-13.7-5.2-14.1-12.6 C350.2,286.1,355.9,279.8,363.3,279.4"></path> </g> </svg> 