<?xml version="1.0" encoding="UTF-8"?> <svg xmlns="http://www.w3.org/2000/svg" height="48" viewBox="0 0 48 48" width="48"><g fill="none" transform="matrix(1 0 0 -1 0 43.068966)"><path d="m23.8776235 5.11512773c13.1091949 0 23.7497661-1.1396484 23.7497661-2.55725985 0-1.41693349-10.6409106-2.5565819-23.7497661-2.5565819-13.1085159 0-23.74908728 1.13964841-23.74908728 2.5565819-.00033943 1.41761145 10.64057138 2.55725985 23.74908728 2.55725985" fill="#000" opacity=".15"></path><path d="m38.158235 25.4453096c.3088749.1847439.3703104 1.3247313.4015374 1.6633716.0923231.7701609 1.0484777 1.1088012 1.6655487.7084666 1.0797045-.7701609 1.6346611-2.2487887 1.7884197-3.5114866.1544373-1.2938839.0312268-3.0189496-.8940402-4.0352096-.987042-1.1091402-3.4855348-1.4481195-4.9657583-1.293884-.4008586.0308472-.7711692.1230495-1.1414795.1847438l-.7093942 6.3456926.7718479-.1538967c.7708296-.1542356 2.3440552-.3084712 3.0534491.0922023z" fill="#996"></path><path d="m40.5640312 26.6773978c-.1849856.2464379-.4008586.4928758-.647619.6467726-.2467605.1850827-.7093942.030847-.7409605-.2772852l-.0302085-.215252c.4629728.1538968.987042.0305082 1.418788-.1542354zm.8638315-4.3433419c.1849856.9857519.0923231 2.1257392-.2467604 3.1111521-.2467607.3081321-.4938605.5542311-.956494.7393138-.5861836.2464379-.8943797.1538965-1.1710093-.0925413-.031227-.2464379-.0936808-.4311817-.1544376-.6159255 1.6037737-.5237229 2.2822802-2.0637059 2.5290406-3.1725072v.0305081zm-4.6884498 2.2796358c-.5549566 0-1.14114.0616943-1.7269843.1847438l.5546173-5.1131638c.7412998-.1542356 1.604113-.1542356 2.3749427-.0620333.5552959 1.9715037 0 4.2816476-1.2331238 5.0209615zm1.7273235.3386404c-.2155334-.1230495-.5250872-.2155909-.8940401-.2769461 1.1099132-1.1708345 1.4493363-3.2962348 1.0474594-4.9596062.9256065.1847437 1.6964362.523723 2.0976342.9549047.0926624.0925413.1540979.2159298.2470997.3081322 0 1.7559128-.7093939 3.634875-2.40583 4.0043625-.031227-.0308471-.031227-.0308471-.0624538-.0308471z" fill="#c0c0a0"></path><path d="m38.158235 21.6258265c-.7402815-.1850827-1.5419986-.2159298-2.1285215-.1542356-.2464211.0308471-.4626337.0616942-.6785068.1233885l-.3699709 3.1725072c.585844-.1230494 1.1723669-.1847437 1.7273235-.1847437.8020567-.4928759 1.3271439-1.6633714 1.419467-2.9569164zm2.2520715 4.4663912c.0298694-.1850827.0610961-.3698263.0919838-.5542312.0617748-.3698263.0617748-.801008.0308874-1.2325286-.4015373.4928759-.9252672.9240575-1.6343218 1.1704954.0610962.1847438.1232106.3698265.154098.6162644.2457424.2155908.5851653.3389795 1.1713489.0922024.0624538-.0305081.1238893-.0613551.1860037-.0922024zm-.4629728 1.2013428c.0926625-.1542356.1537586-.3081322.215873-.4620289-.3394232.0922024-.6785067.1233886-1.0488171.0305081l.0308874.2155908c.0302088.3084714.4928422.4623679.7402816.2772852l.0621144-.0305081v-.0308471zm-1.4805631-2.3413301c-.2158731-.1230495-.5250875-.2152519-.8943798-.2769461.6785067-.7084667 1.0477988-1.7559128 1.1716883-2.8650531.4314067.1545746.8326047.3698264 1.0797044.6776197.2471001.2467769-.4011979 2.3104829-1.2952381 2.4952266-.0312268-.0308471-.0312268-.0308471-.0617748-.0308471z" fill="#fbfac4"></path><path d="m9.227075 25.4453096c-.30921436.1847439-.3703105 1.3247313-.40187684 1.6633716-.09232304.7701609-1.0484776 1.1088012-1.66520918.7084666-1.08004397-.7701609-1.63466113-2.2487887-1.78875917-3.5114866-.15409803-1.2938839-.03088748-3.0189496.89437957-4.0352096.98704208-1.1091402 3.48519531-1.4481195 4.96575842-1.293884.4008585.0308472.771169.1230495 1.1414795.1847438l.7090546 6.3456926-.7715084-.1538967c-.7708296-.1542356-2.34405523-.3084712-3.05344928.0922023z" fill="#996"></path><path d="m6.82127878 26.6773978c.18498552.2464379.40085854.4928758.64727964.6467726.24709993.1850827.70973347.030847.74129981-.2772852l.02986922-.215252c-.46263352.1538968-.98704205.0305082-1.41844867-.1542354zm-.86417094-4.3433419c-.18464611.9857519-.09198363 2.1257392.24709992 3.1111521.24676052.3081321.49352105.5542311.95615457.7393138.58618353.2464379.89471901.1538965 1.17134877-.0925413.0312269-.2464379.09368074-.4311817.15443745-.6159255-1.60377363-.5237229-2.2822802-2.0637059-2.52938013-3.1725072v.0305081zm4.68878916 2.2796358c.5549567 0 1.1411402.0616943 1.7269842.1847438l-.5549566-5.1131638c-.7409604-.1542356-1.604113-.1542356-2.37494263-.0620333-.55529602 1.9715037 0 4.2816476 1.23346313 5.0209615zm-1.72732357.3386404c.21553361-.1230495.52508739-.2155909.89404018-.2769461-1.11025262-1.1708345-1.44933617-3.2962348-1.04779877-4.9596062-.92526709.1847437-1.69609669.523723-2.0976341.9549047-.09266247.0925413-.15375861.2159298-.24676051.3081322 0 1.7559128.70939403 3.634875 2.40583016 4.0043625.03088749-.0308471.03088749-.0308471.06245383-.0308471z" fill="#c0c0a0"></path><path d="m9.227075 21.6258265c.74028154-.1850827 1.5419987-.2159298 2.1281822-.1542356.2467605.0308471.4626335.0616942.6785065.1233885l.3699711 3.1725072c-.5858441-.1230494-1.1720276-.1847437-1.7269842-.1847437-.80205654-.4928759-1.32646505-1.6633714-1.41946697-2.9569164zm-2.25207156 4.4663912c-.03020863-.1850827-.06109614-.3698263-.09232304-.5542312-.06143558-.3698263-.06143558-.801008-.03020866-1.2325286.40085855.4928759.92492767.9240575 1.63398229 1.1704954-.06109614.1847438-.12321055.3698265-.15443745.6162644-.24574225.2155908-.58482582.3389795-1.17100933.0922024-.06245382-.0305081-.1238894-.0613551-.18600381-.0922024zm.46297298 1.2013428c-.09266248-.1542356-.15375862-.3081322-.21587303-.4620289.33908355.0922024.67850655.1233886 1.04881705.0305081l-.03122693.2155908c-.02986921.3084714-.49250275.4623679-.73994212.2772852l-.06211441-.0305081v-.0308471zm1.48056308-2.3413301c.21587303-.1230495.52508736-.2152519.89437959-.2769461-.67850656-.7084667-1.04813821-1.7559128-1.17168818-2.8650531-.43140661.1545746-.83294401.3698264-1.08004397.6776197-.24642107.2467769.4015374 2.3104829 1.29557756 2.4952266.03088751-.0308471.03088751-.0308471.061775-.0308471z" fill="#fbfac4"></path><path d="m12.6504614 26.6773978c-1.0793652.0925414-2.1285216-.1230495-3.17699926-.2772851l.92526706.8935495c.894719.8623631 2.0976341 1.6325243 3.2394531 2.1870944 1.6960966.8623633 3.6396327 1.5091358 5.5818111 1.6938797-1.3573526.5854171-2.8993512.8627022-4.348348 1.2016814 5.5828294 1.1701567 12.737866 1.6016773 17.8584012-2.7416646 2.9305782-2.4952266 4.5343519-7.1158534 4.5343519-11.3049596 0-15.80287613-26.9576529-15.80287613-26.9576529 0 0 2.1254002.5244085 4.158259 1.5114506 6.0067132-.3699711-.0925414-.7093941-.2155909-1.080044-.3698264l-1.63398226-.6776197 1.17134876 1.3247311c.709394.8006691 1.5114506 1.4782888 2.4370571 2.0020118z" fill="#8ed41e"></path><path d="m24.7414211 31.5442591c2.6220427-.307793 5.1816314-1.1704955 7.3091346-2.9877636 2.5908157-2.1870944 3.979056-6.2531511 3.979056-9.9188733 0-6.714502-5.551942-10.19581941-11.28853-10.38056312v23.28720002z" fill="#70a91b"></path><path d="m14.8093273 28.1251783c2.0358592 1.3555783 5.3672958 1.7867599 9.3772391 1.5708302-.7093941.8315161-1.3570132 1.3555783-2.3131677 1.817607 1.8196466.061694 3.2689828-.3389792 6.877728-1.5711691-3.1145453 1.817607-6.9388242 2.6491233-10.5173608 2.2487886 1.2952382-.3694873 2.5290407-.9549047 3.6701808-1.7250656-3.6701808.4003347-7.8963364-1.3552394-9.5927726-2.8030198 1.1109315.1230495 2.0972947-.0922025 3.1467906-.5545701-1.4805631-.5233841-2.4370571-.985752-3.3626636-1.8789624 1.6037736.8010082 2.8684637 1.4786278 4.9043228 1.9098094-.8020565.2772852-1.2338025.770161-2.1902966.9857518" fill="#a1e141"></path><path d="m23.7539717 31.8524592c3.7020866 0 6.6934213-2.8955612 6.6934213-6.4995892 0-3.5731808-2.9913347-6.4995891-6.6934213-6.4995891-3.7007288 0-6.6920637 2.8955612-6.6920637 6.4995891-.0006788 3.5731807 2.9913349 6.4995892 6.6920637 6.4995892" fill="#70a91b"></path><path d="m13.1440163 19.2845642c.215873.4006736 20.5109921.5545702 20.91219 0 .7087153-.9240575.3085355-1.817268 0-2.587429h-20.91219c-.1849855.8318552-.493521 1.7250657 0 2.587429" fill="#70a91b"></path><path d="m13.4218001 18.6993165c.215873.523723 19.9862442.7393138 20.3874419 0 .6785067-1.2626979.2773088-2.4948877 0-3.5423337h-20.3874419c-.1853249 1.1399874-.4626335 2.340991 0 3.5423337" fill="#4b7113"></path><path d="m29.8615831 32.1295407c-.2776481 5.2673996-7.3719281 5.8219697-9.2224622 1.6942186 3.2693223 1.78676 6.6004195 1.1396485 9.2224622-1.6942186" fill="#70a91b"></path><path d="m25.9131432 36.503662c-2.0657283.3081322-4.3174604-.5854173-5.2427275-2.6487844 1.2334631.6776198 2.4984926.9854129 3.7010683.9854129.2470999.4620287.832944 1.3552393 1.5732256 1.6633715z" fill="#85c51f"></path><path d="m23.7539717 32.5300788c3.3310973 0 6.0149148-2.6799704 6.0149148-6.0067133 0-3.3267428-2.6838175-6.0067132-6.0149148-6.0067132-3.3304183 0-6.0135571 2.6799704-6.0135571 6.0067132 0 3.3267429 2.6827993 6.0067133 6.0135571 6.0067133" fill="#d3e8ef"></path><path d="m19.9606483 30.9897908c2.0046322 1.6633713 4.8116603 1.6633713 6.2301089-.0616944 1.4187881-1.6942186.9256066-4.4355441-1.079365-6.1297626-2.0053111-1.6633715-4.8116604-1.6633715-6.2311273.0616942-1.4181093 1.6942186-.9242488 4.4355442 1.0803834 6.1297628" fill="#fff"></path><path d="m23.9084432 28.55636c2.3440552 0 4.2258161-1.7559127 4.2258161-3.9426683 0-2.1870944-1.8824398-3.9430072-4.2258161-3.9430072-2.3433764 0-4.2254769 1.7559128-4.2254769 3.9430072 0 2.1867556 1.8817611 3.9426683 4.2254769 3.9426683" fill="#0d82df"></path><path d="m23.9084432 28.55636c1.1411401 0 2.189957-.4311817 2.9302386-1.1088013-.2773085-.9549047-.8634921-1.9098094-1.7273236-2.6491232-1.6655486-1.3860864-3.8857144-1.6020162-5.3975044-.6776197-.0308875.1538966-.0308875.3077932-.0308875.4928759 0 2.1867556 1.8817611 3.9426683 4.2254769 3.9426683" fill="#0399ed"></path><path d="m23.9084432 27.1393587c1.4805631 0 2.7143656-1.1396483 2.7143656-2.5257348 0-1.3864253-1.2029151-2.5257347-2.7143656-2.5257347-1.4802237 0-2.7140263 1.1393094-2.7140263 2.5257347 0 1.3860865 1.2025757 2.5257348 2.7140263 2.5257348" fill="#232323"></path><path d="m23.9084432 27.1393587c.9561545 0 1.7890986-.4620288 2.2826195-1.1396483-.2779874-.4311817-.6479584-.8315163-1.0797045-1.1704956-1.1109314-.9243966-2.4682839-1.3247311-3.6705202-1.2321898-.154098.3077932-.2464211.6776196-.2464211 1.0474461 0 1.3860863 1.2025757 2.5257349 2.7140263 2.5257349z" fill="#323232"></path><path d="m21.5334665 28.340837c1.1102526 0 2.0046322-.8318552 2.0046322-1.8789624 0-1.047446-.8943796-1.8793012-2.0046322-1.8793012s-2.0046322.8318552-2.0046322 1.8793012c0 1.0471072.8943796 1.8789624 2.0046322 1.8789624" fill="#fff"></path><path d="m9.72029055 17.2207566c9.31478515 1.3860863 18.66113675 1.2630368 27.97592175 0 .6785067-4.8667259.3081962-9.48803072 0-14.13848775-9.314785-.36982641-18.6611366-.43185962-27.97592175 0-.55529602 4.71249025-.61639216 9.42565845 0 14.13848775" fill="#9caeb3"></path><path d="m12.4038366 4.03697016c7.5569135-.27660712 15.0829396-.24677692 22.6391742 0-2.7140262 1.54066094-5.428392 3.0182717-8.4818412 3.8501269-.9877209-.46202879-2.0355197-.8318552-3.0843367-1.1396484-.1544375-.03050813-.1544375-.03050813-.3085355 0-.864171.27728506-1.7273236.61626436-2.5606071.98541283-2.9611262-.86202437-5.6442649-2.12506125-8.2350806-3.72707744zm-1.7890986 11.58224474c-.4008585-3.7274164-.339423-7.48534089.0621144-11.21241833 2.7143657 1.69387957 5.6133775 3.04945781 8.6664873 4.00402353-3.5160828 1.8481151-5.9836879 4.4975774-8.7286017 7.2083948zm25.4149755.7389749c-8.2347414.9864298-16.5010489 1.0786322-24.7361295 0 3.3925328-3.7880937 7.1255069-6.89992366 12.0912653-8.53177002 5.2736149 1.5084579 8.9129083 4.80469262 12.6448642 8.53177002zm.7097335-11.95139323c.2470998 3.72707744.4935209 7.45415483.0926625 11.18123223-2.775462-2.7416645-5.7369276-5.3596017-9.1915747-7.17653076 3.2078867-.95490469 6.2002397-2.37251612 9.1304785-4.00436248h-.0315663z" fill="#d3e8ef"></path><path d="m12.4038366 4.03697016c3.6389539-.12338846 7.2782472-.18474371 10.9494463-.18474371v2.89522221c-.0308875 0-.0614356 0-.154098.03118608-.8634921.27626815-1.7266448.61558642-2.5599282.98541283-2.9611262-.86236334-5.644265-2.12506123-8.2354201-3.72707741zm-1.7890986 11.58224474c-.4008585-3.7274164-.339423-7.48534089.0621144-11.21241833 2.7143657 1.69387957 5.6133775 3.04945781 8.6664873 4.00402353-3.5160828 1.8481151-5.9836879 4.4975774-8.7286017 7.2083948zm12.7385449 1.5094749c-4.0404913 0-8.0500951-.246438-12.0596989-.7708389 3.3623242-3.7884327 7.1255069-6.86907662 12.0596989-8.53177011z" fill="#fff"></path><path d="m18.1097408 14.9104431c-.0305481-.1230495-.0923231-.2467769-.1534192-.3698264-.0624539-.1847437-.1856644-.3688095-.339423-.4921979-.3703105-.2772851-.8326046-.1854217-1.2344815-.0308472-.8943795.3698265-1.5107717 1.2630369-1.8814216 2.1254003-.4314066.9864297-.4626335 1.6942185-.215873 2.7725117 6.2304484.3386403 12.6153344.4003345 18.6604578.0308471v-.0308471h.0930019c.0926624-1.0474461 0-1.4786277-.2464211-2.342008-.2779875-.9854128-.8645104-2.1860775-1.8508735-2.6481063-.3703106-.1854217-.8020566-.2776241-1.1414795-.0308471-.1537587.1230494-.2766299.3077932-.369971.4928759-.2158731.3386403-.2769692.8308382-.3390836 1.2010036-.1232106-.2464379-.2773088-.4003345-.5244085-.4616898-.4008587-.0925413-.8634922-.1535576-1.2646901-.1847437-.4008587-.0311861-.8319258-.0623722-1.2646901-.0623722-.6476191 0-1.3573526.0623722-1.9734053.246438-.0923231-.3698264-.2467606-.7077888-.6167316-.8308383-.4008586-.1233885-.894719-.1854217-1.3264651-.2166078-.4626335-.0301691-.925267-.0613552-1.3570131-.0613552-.7093941 0-1.5114506.0613552-2.1590696.3386403-.2471.0925413-.4018769.277624-.4935211.523723v.0308471z" fill="#996"></path><path d="m28.5659035 19.1306337c.2471001-1.3860863.1849857-3.1728462-.215873-3.2650486-.617071-.1542356-2.9920136-.4010125-4.1637017.0301692-.3092144.5850782-.3092144 2.0637059-.2779875 3.2650486 1.6041131.000339 3.2078868.000339 4.6575622-.0301692zm-9.9627435-.277285c-.2155336-.6471115-.4314067-1.3860864-.6472797-2.2799748-.12355-.5545702-.2162124-1.1088013-.3092143-1.5087969-.1232106-.5542311-.4008586-.6471115-.9252671-.4311817-1.3573526.5847393-2.0657283 2.8640362-2.0049716 4.2508005.9256065.0616942 2.3138465.1230495 3.8863932.1847437 1.51179.0308471 3.2082261.0616942 4.9046623.0616942.1534192-1.6942185.1534192-3.7274164-.215873-4.1582591-.6486374-.2166077-3.1769993-.5244009-4.4114807.0301692-.555296.246099-.339423 2.3101439-.3085355 3.8196188zm10.2098436.277285c.1843067-.7393138.400519-1.5094748.6160527-2.4952266.1232106-.6159254.1856643-1.2020206.2776481-1.6016772.1235499-.6159254.3703103-.7084668.8634919-.4623678 1.2035939.6166034 1.8821007 2.8962392 1.8505343 4.405036-.8937008.0616943-2.1583909.1233885-3.607727.1542356z" fill="#c0c0a0"></path><path d="m23.9084432 18.2987446c1.4496755 0 2.9000301 0 4.2258161-.0305081.215873-.7704999.215873-2.1565863-.7097335-2.4952267-.9867024-.0928803-2.40583-.1230494-3.2384346.1847438-.2155336.4315206-.277648 1.3864253-.277648 2.340991zm-5.3360689-.0922023c1.326465.0308471 2.8379156.0616942 4.3493662.0616942.1534192-1.1091403.4314066-3.3270819-.956494-3.4501313-1.0179295-.0925414-2.2822802-.0925414-3.0846761.2464379-.4616153.2155908-.4005192 1.7555738-.3390836 3.1111521zm-3.7933914-.1850827c.6476191.0616942 1.5107718.0928803 2.5283619.1233884.12355 0 .3703105-3.0494578.3703105-3.0494578-.12355-.5545701-.4008586-.6471115-.9252671-.4315206-1.0797045.4620288-1.7582111 2.0030287-1.943536 3.3270818zm14.9281627-2.9877636c.1232105-.6159254.3703106-.7084667.8634921-.4623678.9877209.4932149 1.604113 2.0952311 1.789438 3.4809785-.5858441.0620332-1.2952382.0925413-2.1288609.1233885-.4931818-.3698265-.5861836-2.9264084-.5240692-3.1419992z" fill="#fbfac4"></path><path d="m21.2556828 18.2373555c.0624538-1.2020206 0-2.4026853-.1534192-2.4948877-.3081961-.1857606-1.4496756-.4315206-2.0046322.0305082-.2168913.1535576-.1856644 1.3247311-.1544375 2.4335324.7399421.0308471 1.5114506.0308471 2.3440552.0616942zm5.1823101.0308471c.0305481-.8935494-.0312267-1.7250657-.1544372-1.7867599-.2773088-.1535576-1.3573527-.3389793-1.9123093.0308471-.1849855.1230495-.1849855.9552437-.1544375 1.7864209h2.2215236v-.0305081zm-9.7468705-.1538966c-.0308875-.3389793-.0308875-.7399918-.0308875-1.1399874v-1.2318508c0-.4623677-.1232106-.5545701-.3703105-.3389793-.4928422.3694875-.9252671 1.539983-1.1102526 2.6179372.431746.0311861.956494.0616942 1.5114506.0928803zm15.2984731-.0311861c-.4018769.0311861-.864171.0616942-1.3882402.0616942 0-.3386403.031227-.7081277.031227-1.1091403v-1.3243921c0-.4928759.0923231-.5854172.3390836-.3694874.431746.4006735.832944 1.5708301 1.0179296 2.7413256z" fill="#fff"></path><path d="m11.5711981 3.79032882c-.339423-1.53998297-1.88243996-2.5565819-3.42375976-2.49488766-2.12818216.09288033-5.42873133 2.43353241-5.36695634 4.74367634.03088749 1.29354503.98704205 2.4647185 1.9740841 3.20335441.9561546.74033079 2.55992822 1.50947479 3.79407023 1.17083449 1.23346315-.3389793 2.09695527-2.03319783 2.49815327-3.14166015.3696316-.95524366.7402815-2.46539646.4928421-3.4816564h.0315664z" fill="#85c51f"></path><path d="m11.0468235 3.9445983c.0302086.18474371.061775.36982641.061775.58541726-.4008586 1.69421854-1.35735257 3.63453606-2.43671769 3.94232928-1.66554862.49355387-5.02719393-1.7247267-4.84288724-4.0043625.92560649-1.41693348 2.90003004-2.58742901 4.31847871-2.64844528 1.29523814-.06203321 2.62170322.80100808 2.89969062 2.09455311v.03050813z" fill="#70a91b"></path><path d="m9.50451935 5.66963006c.43140661.86236335-.27696917 2.37183818-1.35701312 2.24878869-1.14114011-.15423557-3.60874526-1.84845414-3.60874526-3.17318524 0-.8318552 1.14114011-1.41727245 2.34371578-1.07863215.89471901.24677695 2.28261961 1.29422299 2.6220426 2.0030287m.95615455-2.15624733c.215873.52372301-.0926625 1.44744162-.70939404 1.35557824-.64761906-.12372746-2.19029657-1.23218978-2.12818216-1.84845414.03020865-.49321489.8943796-.92439656 1.57322558-.67761963.49318161.18440474 1.07902572.73931385 1.26435062 1.17049553" fill="#5d8d17"></path><g fill="#2c440c"><path d="m7.80804928 9.67382307c.03088751-.55457015-1.04881702-1.04676808-1.48056307-.6467725-.37031048.70880571-.27696917 1.57116903.03088748 1.75591283.33942299.1847437 1.17236701-.1542356 1.44967559-1.10914033zm-2.09719282-1.01659891c.12253169-.61524745-.70939406-1.13964843-1.11093146-.86236337-.52406909.52372304-.7087152 1.44778062-.46297295 1.66337144.24743936.21559084 1.14181894-.12338847 1.57390441-.80100807zm-1.57346317-1.53998298c.18600381-.40067354-.21587303-.95490469-.67850657-.92439655-.49284217.36982641-.95547571 1.23218975-.77116903 1.44811956.18532496.24609898 1.01826898 0 1.4496756-.52372301zm7.89620071 5.72922472c.2470999.4620288-.4314066.770839-.9867026.9864298-.5559749.1847437-.8329441.1847437-1.04881707-.277285-.24709995-.4620288-.3703105-1.1704956.21587297-1.3552393.5549566-.1847437 1.6037737.1847437 1.8508736.6467725h-.0312269z"></path><path d="m12.5274884 14.5714638c.061775-.523384-.6791854-.8006691-1.2952381-.9240576-.5861835-.1233884-.8332835-.0613552-.8943796.4623678-.0624539.524401.092323 1.3552393.709394 1.4782888.5851653.1230494 1.4181093-.492537 1.4802237-1.016599"></path><path d="m12.6504614 16.2968346c.0624538-.4932149-.6785066-.7403308-1.2945593-.8633803-.586523-.1223715-.8332835-.0613553-.8947191.4620288-.0624538.4932149.0923231 1.2630369.6785066 1.3864253.5861835.1233885 1.4187881-.4620288 1.4805631-.9542267zm-4.84241212 1.1397501c.09232307-.4013515.86349212-.3077932 1.44967562-.1857607.58584407.1542356.8020565.2776241.67850655.6779586-.09266248.4006735-.46297296.9549047-1.04779878.8010081-.58618351-.1538966-1.17236701-.8935494-1.08038339-1.3247311z"></path></g><path d="m7.28401415 12.5386049.1846461-.523384-.40085855.3077932c-.18566439.1542356-.33908357.3698264-.46263354.6162644.03020863-.246438.06177497-.4010125.12354997-.6162644-.58584409.9552437-1.11093146 2.0023507-.77184788 3.3880981.30921433 1.2633759 1.57390441 1.8487932 2.46828398 2.0948921.55495661.1538966 1.17134874.246438 1.72630537.1847437.339423-.0308471.9256065-.1230495 1.172367-.4308426.2467605-.3091492.3703105-.9552437.431746-1.3864254.0923231-.6776196.0621145-1.3860864-.0302086-2.063706-.0930019-.6155864-.277648-1.2013426-.5861835-1.6942185-.2467605-.3698265-.524748-.6467725-.8940402-.8013471-.4327643-.1844047-.86451033-.2152519-1.32748331-.1230495-.61605272.1230495-1.17134874.4928759-1.66520918 1.0165989z" fill="#85c51f"></path><path d="m11.0160039 17.1287237c.3703105-.4318597.555296-2.2498057.1232105-3.5738588-.1232105-.0311861-.277648-.0616942-.4314066-.0616942-.678846-.0620332-1.3271439.24576-1.75855051.6155864.03088748-.1847437.09266248-.3077932.15443745-.4003346-.37031048.1532187-.67850655.6155864-.89471902 1.1396484.03020866-.4315206.09266248-.6162643.15409806-.8630413-.46297298.1542356-.8326046.6779586-1.11059204 1.2318508-.24676051.4932149-.21587303 1.2020206.21587303 1.5094748 1.14114008.8318552 3.08467613.8935495 3.51608273.3698265z" fill="#a1e141"></path><path d="m35.845237 3.79032882c.3390836-1.53998297 1.8810822-2.5565819 3.4237597-2.49488766 2.1278426.09288033 5.4280525 2.43353241 5.3659381 4.74367634-.0298692 1.29354503-.987042 2.4647185-1.9734054 3.20335441-.9561545.74033079-2.5606069 1.50947479-3.79407 1.17083449-1.2331238-.3389793-2.0969552-2.03319783-2.4981532-3.14166015-.3703106-.95524366-.7402816-2.46539646-.4928422-3.4816564h-.031227z" fill="#85c51f"></path><path d="m36.338792 3.9445983c-.031227.18474371-.0624538.36982641-.0624538.58541726.401198 1.69421854 1.357013 3.63453606 2.4367175 3.94232928 1.6655488.49355387 5.0271941-1.7247267 4.842548-4.0043625-.9256065-1.41693348-2.9000301-2.58742901-4.3181395-2.64844528-1.2955775-.06203321-2.6220424.80100808-2.8996905 2.09455311v.03050813z" fill="#70a91b"></path><path d="m37.9116103 5.66963006c-.432425.86236335.2769692 2.37183818 1.3573526 2.24878869 1.1411399-.15423557 3.6084057-1.84845414 3.6084057-3.17318524 0-.8318552-1.1411402-1.41727245-2.3440552-1.07863215-.8947189.24677695-2.2822802 1.29422299-2.6217031 2.0030287m-.9561546-2.15624733c-.215873.52372301.0923231 1.44744162.7093939 1.35557824.6476191-.12372746 2.1892784-1.23218978 2.1281822-1.84845414-.0308874-.49321489-.8943795-.92439656-1.5732256-.67761963-.4935209.18440474-1.0793649.73931385-1.2643505 1.17049553" fill="#5d8d17"></path><path d="m41.6744536 8.65722416c-.1225319-.61524745.7093939-1.13964843 1.1109315-.86236337.5240689.52372304.7087152 1.44778062.4629728 1.66337144-.2474394.21559084-1.1421583-.12338847-1.5739043-.80100807zm-5.9297956 6.84096344c-.4272132-.1837018-.8144164-.5757394-.8560168-.9267238-.055225-.4704754.5370952-.7420929 1.1056271-.8818244-.4484072-.203968-.8395809-.4748975-.6428918-.8431735v.000678h-.0308874c.2467605-.4620288 1.2959169-.8315162 1.8505341-.6467725.586523.1847437.4629728.8932105.2162124 1.3552393-.096261.2057021-.2044977.3198225-.3439702.3668314.0153982.0545029.02705.1167212.0353329.1873319.0491063.4168579-.0379832 1.0273537-.3859013 1.3220297.1304527.0695108.2019413.2139714.2310905.4636794.0627934.4932149-.0919835 1.2630369-.6785065 1.3864253-.5858442.1233885-1.4184487-.4620288-1.4802238-.9542267l-.0302087-.0308471c-.0530123-.4186537.4728398-.6599916 1.0098095-.798647zm3.8326026-5.82436453c-.0312267-.55457015 1.0488171-1.04676808 1.4802238-.6467725.3703103.70880571.2773085 1.57116903-.0305481 1.75591283-.3394231.1847437-1.1727065-.1542356-1.4496757-1.10914033zm3.6703168-2.55658189c-.1856646-.40067354.2162123-.95490469.6785065-.92439655.4928422.36982641.9554756 1.23218975.7711689 1.44811956-.1853249.24609898-1.0179294 0-1.4496754-.52372301zm-3.6394971 10.31934352v-.0315251c.0919836.4311817-.4938605 1.1708345-1.0803834 1.3247311-.585844.1538966-.9551363-.4003346-1.0484777-.8010081-.1232106-.4003345.0933414-.523723.6785067-.6779586.5861834-.1220325 1.3573526-.2155908 1.4503544.1857607z" fill="#2c440c"></path><path d="m40.101296 12.5386049-.1849857-.523384.4008587.3077932c.1860036.1542356.3394229.3698264.4626334.6162644-.0302087-.246438-.0614357-.4010125-.1232105-.6162644.585844.9552437 1.1109315 2.0023507.7715083 3.3880981-.3088748 1.2633759-1.5739043 1.8487932-2.4679445 2.0948921-.5552959.1538966-1.1713487.246438-1.7266448.1847437-.3390834-.0308471-.925267-.1230495-1.1720274-.4308426-.2471-.3091492-.3703106-.9552437-.4317461-1.3864254-.0923231-.6776196-.062454-1.3860864.0305481-2.063706.0926625-.6155864.2769692-1.2013426.585844-1.6942185.2464211-.3698265.5247479-.6467725.8940402-.8013471.4327643-.1844047.8641708-.2152519 1.3271438-.1230495.6160528.1230495 1.1713487.4928759 1.6655488 1.0165989z" fill="#85c51f"></path><path d="m36.3693062 17.1287237c-.3703106-.4318597-.5552962-2.2498057-.1232105-3.5738588.1232105-.0311861.2776478-.0616942.4314064-.0616942.6788461-.0620332 1.3268045.24576 1.7585506.6155864-.031227-.1847437-.0926625-.3077932-.1544376-.4003346.3703106.1532187.6785068.6155864.8943798 1.1396484-.0302087-.4315206-.0926625-.6162643-.1537586-.8630413.4629728.1542356.8322651.6779586 1.1105919 1.2318508.2464211.4932149.215873 1.2020206-.215873 1.5094748-1.14114.8318552-3.0846762.8935495-3.5160827.3698265z" fill="#a1e141"></path></g></svg> 