<?xml version="1.0" encoding="UTF-8"?> <svg xmlns="http://www.w3.org/2000/svg" xmlns:xlink="http://www.w3.org/1999/xlink" version="1.1" id="Layer_1" x="0px" y="0px" viewBox="0 0 500 500" style="enable-background:new 0 0 500 500;" xml:space="preserve"> <style type="text/css"> .st0{fill:#3B43FF;} </style> <g> <path class="st0" d="M485,245c-0.7,65.1-20,117.1-58.7,161.5c-6.9,8.3-15.2,15.9-23.5,22.9c-7.6,6.9-18.6,6.9-24.8,0 c-6.2-7.6-4.8-18,3.5-24.9c17.3-14.6,31.1-31.2,42.1-50.6c16.6-28.4,26.2-58.9,27.6-92.2c2.8-57.5-15.2-106.7-53.1-149 c-5.5-5.5-11.7-11.1-17.3-16.6c-7.6-6.9-9-18-2.8-24.9c6.2-7.6,16.6-7.6,24.8,0c44.2,38.1,70.4,86.6,80.1,144.1 C484.3,227,484.3,238.8,485,245z"></path> <path class="st0" d="M15,250.6c1.4-72.1,28.3-132.4,82.8-180.2c7.6-6.9,18.6-6.2,24.2,0.7c6.2,6.9,4.8,18-2.8,24.3 c-37.3,32.6-60.7,72.8-68.3,122c-10.4,64.4,6.9,121.3,50.4,169.8c5.5,6.2,12.4,12.5,18.6,18c7.6,6.9,8.3,17.3,2.1,24.3 c-6.2,6.9-16.6,6.9-24.2,0.7c-48.3-41.6-75.9-94.9-81.4-158.7c0-3.5-0.7-6.9-0.7-10.4C15,257.5,15,254,15,250.6z"></path> <path class="st0" d="M81.9,249.9c1.4-51.3,20-94.2,59.4-128.2c8.3-6.9,17.3-6.2,24.2,1.4c6.2,6.9,5.5,15.9-2.8,23.6 c-18.6,17.3-33.8,37.4-41.4,62.4c-14.5,50.6-4.1,95.6,31.7,134.4c3.5,4.2,7.6,7.6,11,11.8c6.2,6.2,6.9,15.9,1.4,22.2 c-5.5,6.9-16.6,8.3-22.8,2.1c-10.4-9.7-20-19.4-29-30.5c-18.6-24.9-29-53.4-31.1-85.2c0-2.1-0.7-4.2-0.7-6.9 C81.9,254.7,81.9,252.6,81.9,249.9z"></path> <path class="st0" d="M418.1,250.6c-1.4,49.9-20,92.2-57.3,126.1c-5.5,5.5-12.4,8.3-20,5.5c-11-4.9-13.8-17.3-5.5-27 c9.7-11.1,20.7-21.5,29-34c33.1-51.3,25.5-121.3-17.9-164.9c-3.5-3.5-6.9-6.9-10.4-10.4c-6.2-6.2-6.9-15.9-1.4-22.2 c6.2-6.9,15.9-8.3,23.5-2.8c13.8,11.1,25.5,24.3,34.5,39.5c14.5,23.6,23.5,49.2,24.8,76.9C417.4,241.6,417.4,245.7,418.1,250.6z"></path> <path class="st0" d="M349.7,246.4c0,34.7-11.7,58.9-33.8,79.7c-7.6,7.6-18.6,7.6-24.8,0c-6.2-6.9-6.2-17.3,2.1-24.3 c13.8-13.2,22.8-29.1,23.5-48.5c0.7-18.7-4.8-34.7-17.3-48.5c-2.1-2.8-4.8-4.9-6.9-6.9c-6.9-6.9-7.6-16.6-1.4-23.6 c6.2-6.9,16.6-7.6,24.2-0.7c11.7,10.4,20.7,22.9,26.9,37.4C347.7,223.5,350.4,236.7,349.7,246.4z"></path> <path class="st0" d="M193.8,168.8c9.7,0,14.5,3.5,17.9,10.4c3.5,6.9,1.4,13.9-4.1,18.7c-9,9-16.6,18-20.7,30.5 c-8.3,26.3-2.8,49.2,15.2,69.3c1.4,2.1,3.5,3.5,5.5,5.5c6.9,7.6,7.6,17.3,0.7,24.3c-6.2,6.2-16.6,6.9-23.5,0.7 c-17.3-15.2-29-33.3-32.4-56.1c-6.9-37.4,3.5-70,31.1-95.6C186.9,171.6,191.7,170.2,193.8,168.8z"></path> <path class="st0" d="M249,283.1c-18.6,0-33.1-14.6-33.1-33.3c0-18.7,15.2-33.3,33.8-33.3c18.6,0,33.1,14.6,33.1,33.3 C282.8,269.3,268.3,283.1,249,283.1z"></path> </g> </svg> 