<?xml version="1.0" encoding="UTF-8"?> <svg xmlns="http://www.w3.org/2000/svg" xmlns:xlink="http://www.w3.org/1999/xlink" height="40" viewBox="0 0 38 40" width="38"><linearGradient id="a" x1="5.336943%" x2="93.412462%" y1="0%" y2="91.859723%"><stop offset=".109375" stop-color="#ffb800"></stop><stop offset=".510417" stop-color="#eb5500"></stop><stop offset="1" stop-color="#6712d2"></stop></linearGradient><g fill="none" fill-rule="evenodd"><path d="m-341.5-40.5h721v722h-721z" fill="#fff" stroke="#e9ebf8"></path><g><path d="m0 .4164461s.86694237.05893695 18.6730169 2.39055729c17.8061017 2.33162034 23.9688136 20.42445421 13.0665085 36.21523391 1.6865085-14.1092204-1.4-28.7461017-13.7978983-30.45722035-12.39793218-1.71111864-11.3180949-1.44894915-11.3180949-1.44894915s.20541695 3.1075932 1.36873899 11.4614915c1.16338983 8.3538305 7.67335591 12.4507797 13.37050851 14.5597966 0 0 .3341695-9.7767457-2.8444746-14.08-3.1786441-4.3032542-7.1332204-7.1610847-7.1332204-7.1610847s9.293356 1.1168135 12.8020339 7.6110508c3.5087458 6.4942373 3.1669153 20.2214916 3.1669153 20.2214916l-3.7850847-.1962034c-10.184678-1.2258305-19.69972208-7.3710509-21.31757971-20.2640678-1.61785966-12.89305765-2.25136949-18.8520963-2.25136949-18.8520963z" fill="#000"></path><path d="m0 .4164461s.86694237.05893695 18.6730169 2.39055729c17.8061017 2.33162034 23.9688136 20.42445421 13.0665085 36.21523391 1.6865085-14.1092204-1.4-28.7461017-13.7978983-30.45722035-12.39793218-1.71111864-11.3180949-1.44894915-11.3180949-1.44894915s.20541695 3.1075932 1.36873899 11.4614915c1.16338983 8.3538305 7.67335591 12.4507797 13.37050851 14.5597966 0 0 .3341695-9.7767457-2.8444746-14.08-3.1786441-4.3032542-7.1332204-7.1610847-7.1332204-7.1610847s9.293356 1.1168135 12.8020339 7.6110508c3.5087458 6.4942373 3.1669153 20.2214916 3.1669153 20.2214916l-3.7850847-.1962034c-10.184678-1.2258305-19.69972208-7.3710509-21.31757971-20.2640678-1.61785966-12.89305765-2.25136949-18.8520963-2.25136949-18.8520963z" fill="url(#a)"></path></g></g></svg> 