<?xml version="1.0" encoding="UTF-8"?> <svg xmlns="http://www.w3.org/2000/svg" width="184" height="243" viewBox="0 0 184 243" fill="none"><path fill-rule="evenodd" clip-rule="evenodd" d="M183.353 113.642C183.353 51.2636 142.465 0.695557 92.0095 0.695557C41.5536 0.695557 0.646973 51.2636 0.646973 113.642C0.646973 173.442 38.1152 222.234 85.5624 226.327L80.5168 242.305L112.155 239.614L101.054 226.047C147.249 220.44 183.353 172.264 183.353 113.642Z" fill="#FE544F"></path><path fill-rule="evenodd" clip-rule="evenodd" d="M113.789 40.4038L118.185 85.7632L163.734 87.0716L130.785 117.708L156.809 155.349L112.967 147.108L99.6753 190.951L79.4943 151.69L38.7458 170.361L54.4212 128.272L14.6797 108.227L57.2218 94.5449L45.4827 52.6359L85.7306 75.5815L113.789 40.4038Z" fill="white"></path></svg> 