<?xml version="1.0" encoding="UTF-8"?> <svg xmlns="http://www.w3.org/2000/svg" xmlns:xlink="http://www.w3.org/1999/xlink" version="1.1" id="Layer_1" x="0px" y="0px" viewBox="0 0 500 500" style="enable-background:new 0 0 500 500;" xml:space="preserve"> <style type="text/css"> .st0{fill-rule:evenodd;clip-rule:evenodd;fill:#F6884A;} </style> <path class="st0" d="M337.8,389.2c13.1,0,25.7-5.2,34.9-14.4c9.3-9.2,14.5-21.8,14.5-34.8v-88.8c0-5.8-2.3-11.4-6.4-15.5 c-4.1-4.1-9.7-6.4-15.5-6.4c-39.4,0-121.3,0-158.9,0c-10.8,0-19.6-8.7-19.6-19.5c0,0,0,0,0,0c0-10.8,8.8-19.5,19.6-19.5 c46.1,0,159,0,178.1,0c1.5,0,2.7-1.2,2.7-2.7v-23.5c0-19.2-15.6-34.8-35-34.8c0,0,0,0,0,0c-0.2,0-0.4,0.1-0.5,0.2 c-0.1,0.1-0.2,0.3-0.2,0.5v0.1c0,9.3-7.6,16.9-17,16.9h-4.5c-9.4,0-17-7.6-17-16.9c0,0,0,0,0,0c0-0.4-0.3-0.8-0.8-0.8 c-10.1,0-114.6,0-124.7,0c-0.4,0-0.8,0.3-0.8,0.8v0c0,9.3-7.6,16.9-17,16.9h-4.5c-9.4,0-17-7.6-17-16.9c0,0,0,0,0-0.1 c0-0.2-0.1-0.4-0.2-0.5c-0.1-0.1-0.3-0.2-0.5-0.2h0c-9.3,0-18.2,3.7-24.7,10.2c-6.6,6.5-10.2,15.4-10.2,24.6v103.2 c0,5.8,2.3,11.4,6.4,15.5c4.1,4.1,9.7,6.4,15.5,6.4c39.4,0,121.3,0,158.9,0c10.8,0,19.6,8.7,19.6,19.5c0,0,0,0,0,0 c0,10.8-8.8,19.5-19.6,19.5H115.5c-1.5,0-2.7,1.2-2.7,2.7v9.1c0,27.2,22.1,49.3,49.4,49.3H337.8z M148.5,84.8 c0.2-4.7,2.2-9.2,5.6-12.6c3.6-3.6,8.5-5.6,13.6-5.6c5.1,0,10,2,13.6,5.6c3.4,3.4,5.4,7.9,5.6,12.6h126.4c0.2-4.7,2.2-9.2,5.6-12.6 c3.6-3.6,8.5-5.6,13.6-5.6c5.1,0,10,2,13.6,5.6c3.4,3.4,5.4,7.9,5.6,12.6h6.5c41.9,0,75.9,34,75.9,75.9v196.7 c0,41.9-34,75.9-75.9,75.9H142c-41.9,0-75.9-34-75.9-75.9V160.7c0-41.9,34-75.9,75.9-75.9H148.5z"></path> </svg> 