<?xml version="1.0" encoding="UTF-8"?> <svg xmlns="http://www.w3.org/2000/svg" xmlns:xlink="http://www.w3.org/1999/xlink" version="1.1" id="Layer_1" x="0px" y="0px" viewBox="0 0 48 48" style="enable-background:new 0 0 48 48;" xml:space="preserve"> <style type="text/css"> .st0{fill-rule:evenodd;clip-rule:evenodd;fill:#428BCA;} </style> <path class="st0" d="M4.88,10.37c-0.9,0-1.64,0.71-1.64,1.59v4.76v16.65c0,0.88,0.73,1.59,1.64,1.59h0.41h19.24h0.41 c0.68,0,1.23-0.53,1.23-1.19s-0.55-1.19-1.23-1.19H6.93c-0.68,0-1.23-0.53-1.23-1.19V19.49c0-0.66,0.55-1.19,1.23-1.19h30.7 c0.9,0,1.64-0.71,1.64-1.59v-4.76c0-0.88-0.73-1.59-1.64-1.59H4.88z M43.36,27.22h-1.02v-1.39c0-2.85-2.38-5.15-5.32-5.15 c-2.94,0-5.32,2.31-5.32,5.15v1.39h-1.43c-0.9,0-1.64,0.71-1.64,1.59v7.93c0,0.88,0.73,1.59,1.64,1.59h13.1 c0.9,0,1.64-0.71,1.64-1.59v-7.93C45,27.93,44.27,27.22,43.36,27.22z M39.88,25.84v1.39h-5.73v-1.39c0-1.53,1.28-2.78,2.87-2.78 C38.6,23.06,39.88,24.3,39.88,25.84z M8.97,24.65c0-0.44,0.37-0.79,0.82-0.79h13.1c0.45,0,0.82,0.36,0.82,0.79s-0.37,0.79-0.82,0.79 H9.79C9.34,25.44,8.97,25.09,8.97,24.65z M8.97,28.22c0-0.44,0.37-0.79,0.82-0.79h4.91c0.45,0,0.82,0.35,0.82,0.79 c0,0.44-0.37,0.79-0.82,0.79H9.79C9.34,29.01,8.97,28.65,8.97,28.22z M30.67,36.34v-7.14h12.28v7.14H30.67z"></path> </svg> 