<?xml version="1.0" encoding="UTF-8"?> <svg xmlns="http://www.w3.org/2000/svg" height="48" viewBox="0 0 48 48" width="48"><g fill="none" fill-rule="evenodd"><path d="m0 0h48v48h-48z"></path><path d="m25.3764299 42.12228c-.4555289.0220841-.9144551.0332756-1.3764299.0332756-.4037414 0-.8051544-.0085479-1.2040061-.0254441-2.0851608 3.0469766-5.9404025 5.0921107-10.3515495 5.0921107-6.62741695 0-11.99999996-4.6164417-11.99999996-10.3111111 0-2.2136641.81183829-4.2643997 2.19364071-5.9443743-1.68636055-2.8149734-2.63808515-6.0066709-2.63808515-9.388959 0-11.3647929 10.745166-20.5777778 24-20.5777778s24 9.2129849 24 20.5777778c0 3.3325787-.9239552 6.4801278-2.5642086 9.2646006 1.4449186 1.7026711 2.2975419 3.8001451 2.2975419 6.0687327 0 5.6946694-5.372583 10.3111111-12 10.3111111-4.414925 0-8.2729923-2.048639-10.3569034-5.0999422zm-15.42087434-25.6556133v5.6h4.44444444v-5.6zm7.28888884 0v5.6h16.9777778v-5.6zm15.4666668 15.133382-.0000001.0000002v-2.6134124c-2.0029996.643589-4.13869.9911413-6.3555555.9911413-4.8905236 0-9.3859942-1.6914226-12.9333334-4.5211893v2.7110101c3.3633028 2.9006734 7.7434896 4.6546236 12.5333334 4.6546236 2.377539 0 4.654145-.4321453 6.7555556-1.2221735z" fill="#f60"></path></g></svg> 