<?xml version="1.0" encoding="UTF-8"?> <svg xmlns="http://www.w3.org/2000/svg" height="38" viewBox="0 0 48 38" width="48"><g fill="none" fill-rule="evenodd"><path d="m0-5h48v48h-48z"></path><g><path d="m5.37952381 23.0047619c2.64547619.3683333 4.94047619-.2452381 6.83261909-1.9269048l3.1533333.175-1.7169048 5.0280953c-1.9095238 3.0307143-4.65999997 3.6614286-7.49809521 3.4864286l-.77095238-6.745z" fill="#7eaaba"></path><path d="m6.55333333 24.1438095.52547619 4.6076191c2.34761905-.0178572 4.23976188-.7885715 5.64119048-2.9259524l1.2440476-3.6088095-1.3840476-.0702381c-1.7695238 1.4366666-3.80166667 2.0673809-6.00928571 1.9973809z" fill="#d3e8ef"></path><path d="m6.55333333 24.1438095.3152381 2.7328572c3.24119047-.3854762 5.76380957-1.7166667 7.07785717-4.66l-1.3842857-.0702381c-1.7692858 1.4366666-3.80142861 2.0673809-6.00880957 1.9973809" fill="#fff"></path><path d="m6.15047619 19.0457143c2.96071429 0 5.36095241 2.3997619 5.36095241 5.3607143 0 2.9607143-2.40023812 5.3609524-5.36095241 5.3609524s-5.36095238-2.4002381-5.36095238-5.3609524c0-2.9609524 2.40023809-5.3607143 5.36095238-5.3607143" fill="#7eaaba"></path><path d="m6.15047619 20.0966667c-2.38261905 0-4.29238095 1.9271428-4.29238095 4.292619 0 2.382381 1.92738095 4.2919048 4.29238095 4.2919048 2.38238095 0 4.29214281-1.927381 4.29214281-4.2919048 0-2.3828571-1.92690471-4.292619-4.29214281-4.292619" fill="#d3e8ef"></path><path d="m6.15047619 20.0966667c-1.45404762 0-2.75047619.7183333-3.52119048 1.8397619.14 2.2423809 2.01452381 4.0292857 4.29190477 4.0292857 1.45404762 0 2.75047619-.7183333 3.52142852-1.8395238-.140238-2.242381-2.01476186-4.0295238-4.29214281-4.0295238" fill="#fff"></path><path d="m5.5897619 19.8166667c2.20738096 0 3.99428572 1.7866666 3.99428572 3.9942857 0 2.2073809-1.78690476 3.9945238-3.99428572 3.9945238-2.20738095 0-3.99428571-1.7871429-3.99428571-3.9945238 0-2.2076191 1.78690476-3.9942857 3.99428571-3.9942857" fill="#7eaaba"></path><path d="m5.30952381 18.7478571c2.20738095 0 4.01190476 1.8042858 4.01190476 4.0116667 0 2.2076191-1.80452381 4.0121429-4.01190476 4.0121429s-4.01166667-1.8045238-4.01166667-4.0121429c0-2.2073809 1.80428572-4.0116667 4.01166667-4.0116667" fill="#7f3e13"></path><path d="m5.695 20.2895238c-1.76952381 0-3.18857143 1.4364286-3.18857143 3.1883333 0 1.7695239 1.43666667 3.1885715 3.18857143 3.1885715 1.76928571 0 3.18833333-1.4361905 3.18833333-3.1885715 0-1.7692857-1.43642857-3.1883333-3.18833333-3.1883333" fill="#b85a1b"></path><path d="m3.2947619 15.5069048c.0702381-2.2426191 3.41642858-2.3828572 3.50380953 0 .98119047-1.6469048 4.04690477-.7359524 3.08333333 1.8395238.05285714.2102381.08761905.4030952.12261904.6128571 1.6645238.0878572 2.207381 2.6980953-.0697619 3.5038095-.19285714.7185715-.49071428 1.3314286-.89357142 1.8392858-1.96214286 1.6821428-2.59285715.2983333-3.64404762-.8404762-1.01595238.035-3.81904762-.7009524-3.03095238 1.9273809-1.78690477-1.1216667-2.94309524-3.4340476-2.06714286-6.832619-1.20880953-2.7330953 1.9797619-3.7492857 2.99571428-2.0671429z" fill="#7f3e13"></path><path d="m1.36785714 17.9421429c-.42047619 1.6464285-.43809523 3.5035714.73571429 4.8352381 1.64690476 1.8745238 4.97523809 1.7869047 6.25428571-.5780953.68309524-1.2792857.64785715-2.8733333.3502381-4.275-2.4352381-.5254762-4.92261905-.4378571-7.35809524.035z" fill="#b85a1b"></path><path d="m1.36785714 17.9421429c-.42047619 1.6464285-.43809523 3.5035714.73571429 4.8352381.75333333.8583333 1.83952381 1.2961904 2.94309524 1.3138095v-6.5345238c-1.22642857.0171428-2.45238096.157619-3.67880953.3854762" fill="#e1762f"></path><path d="m2.97952381 19.2033333c-.22785714.9109524-.2452381 1.962381.42047619 2.6978572.91071429 1.0514285 2.76785714.9988095 3.48619048-.3328572.38547619-.7180952.36809523-1.5940476.19285714-2.382619-1.34904762-.2978572-2.75047619-.2452381-4.09952381.017619" fill="#7f3e13"></path><path d="m5.02928571 16.6804762c.50785715 0 .92833334-.4202381.92833334-.9283333 0-.5080953-.42047619-.9285715-.92833334-.9285715zm3.36357143-1.1735714c.50809524 0 .92857143.4204762.92857143.9283333 0 .5080952-.42047619.9285714-.92857143.9285714s-.92857143-.4204762-.92857143-.9285714c0-.5078571.42047619-.9283333.92857143-.9283333z" fill="#b85a1b"></path><path d="m1.85809524 15.6119048c.50833333 0 .92880952.4204762.92880952.9283333 0 .5083333-.42047619.9285714-.92880952.9285714-.50809524 0-.92833333-.4202381-.92833333-.9285714 0-.5078571.42023809-.9283333.92833333-.9283333m3.17119047 1.0685714v-1.8395238c-.50809523 0-.92857142.4204762-.92857142.9285714 0 .5083333.42047619.9285714.92857142.9285714z" fill="#e1762f"></path><path d="m9.42642857 18.8704762c.50833333 0 .92857143.4204762.92857143.9285714 0 .5078572-.4202381.9283334-.92857143.9283334-.50809524 0-.92857143-.4204762-.92857143-.9283334 0-.5080952.42047619-.9285714.92857143-.9285714" fill="#b85a1b"></path><path d="m41.2933333 29.837381c-.2102381-2.7857143-1.4714285-4.7826191-3.9592857-5.8688096l.4907143-1.9271428 3.9942857-1.0685715c3.4861905 1.0507143 4.8528572 3.2761905 5.5185714 6.0788096l-6.0266666 2.8033333z" fill="#7eaaba"></path><path d="m42.1166667 28.3133333 3.9771428-1.8569047c-.7009524-2.33-1.8571428-3.8371429-4.31-4.4328572l-3.1183333.8411905-.14.5257143c1.9445238 1.1033333 3.1009524 2.7854762 3.5738095 4.9052381z" fill="#fff"></path><path d="m37.4392857 30.3104762c-.8935714-2.7330952.5783333-5.6759524 3.3111905-6.5695238 2.7328571-.8935714 5.6759524.5780952 6.5695238 3.3109524.8933333 2.7328571-.5780952 5.6761904-3.3109524 6.5692857-2.7333333.8935714-5.6764286-.5778572-6.5697619-3.3107143" fill="#7eaaba"></path><path d="m38.297619 30.012619c.7357143 2.26 3.1709524 3.4861905 5.4309524 2.7328572 2.2597619-.7357143 3.4861905-3.1709524 2.7328572-5.4309524-.7357143-2.2597619-3.1709524-3.4861905-5.4307143-2.732619-2.26.7354762-3.4864286 3.1707142-2.7330953 5.4307142" fill="#d3e8ef"></path><path d="m46.6366667 28.0854762c-.035-.2628572-.087381-.5080952-.1752381-.7709524-.7357143-2.2597619-3.1707143-3.4861905-5.4307143-2.732619-.7007143.227619-1.2964286.6128571-1.7521429 1.1035714.035.2623809.0878572.5083333.1754762.7709524.7530953 2.2597619 3.1709524 3.4859524 5.4307143 2.732619.7009524-.2273809 1.2964286-.6128571 1.7519048-1.1035714" fill="#fff"></path><path d="m36.4580952 31.6419048c-.8583333-2.5752381.5433334-5.3607143 3.1185715-6.2016667 2.575-.8583333 5.3607143.5430952 6.2016666 3.1180952.8583334 2.5754762-.5430952 5.3611905-3.1185714 6.2021429-2.5752381.8583333-5.3607143-.5435714-6.2016667-3.1185714" fill="#7f3e13"></path><path d="m37.4566667 31.3264286c-.6657143-2.032381.4380952-4.2045238 2.4528571-4.87 2.0321429-.6657143 4.2042857.4378571 4.8702381 2.4521428.6657143 2.032381-.4380952 4.205-2.452619 4.8707143-2.0321429.6654762-4.2047619-.4380952-4.8704762-2.4528571" fill="#b85a1b"></path><path d="m37.2992857 29.5042857c.2276191-1.3838095 1.1911905-2.5928571 2.61-3.0657143 2.032381-.6657143 4.2047619.4380953 4.8704762 2.4528572.105.3154762.1752381.6480952.1926191.9635714-2.487381 1.5766667-5.7461905 1.2261905-7.6730953-.3680952z" fill="#e1762f"></path><path d="m19.482381.0902381c1.9621428 0 3.5388095 1.68166666 3.5388095 3.74904761 0 2.06738096-1.5766667 3.74880953-3.5388095 3.74880953-1.9621429 0-3.5388096-1.68142857-3.5388096-3.74880953 0-2.06738095 1.5766667-3.74904761 3.5388096-3.74904761" fill="#7f3e13"></path><path d="m19.482381 1.12380952c-1.4540477 0-2.5052381 1.29642858-2.5052381 2.71547619 0 1.40142858 1.0511904 2.71547619 2.5052381 2.71547619 1.4540476 0 2.505238-1.29642857 2.505238-2.71547619 0-1.40166666-1.0511904-2.71547619-2.505238-2.71547619" fill="#b85a1b"></path><path d="m19.482381 2.15738095c-.8933334 0-1.4716667.84095238-1.4716667 1.68166667 0 .82357143.5954762 1.68214286 1.4716667 1.68214286.8933333 0 1.4716666-.84095238 1.4716666-1.68214286 0-.82333333-.5957143-1.68166667-1.4716666-1.68166667" fill="#63300f"></path><path d="m34.5309524.0902381c1.9621428 0 3.5390476 1.68166666 3.5390476 3.74904761 0 2.06738096-1.5769048 3.74880953-3.5390476 3.74880953-1.9621429 0-3.5385714-1.68142857-3.5385714-3.74880953 0-2.06738095 1.5764285-3.74904761 3.5385714-3.74904761" fill="#7f3e13"></path><path d="m34.5309524 1.12380952c-1.4540476 0-2.505 1.29642858-2.505 2.71547619 0 1.40142858 1.0509524 2.71547619 2.505 2.71547619 1.4542857 0 2.5052381-1.29642857 2.5052381-2.71547619 0-1.40166666-1.0509524-2.71547619-2.5052381-2.71547619" fill="#b85a1b"></path><path d="m34.5309524 2.15738095c-.8933334 0-1.4714286.84095238-1.4714286 1.68166667 0 .82357143.5957143 1.68214286 1.4714286 1.68214286.8935714 0 1.4716666-.84095238 1.4716666-1.68214286 0-.82333333-.5954761-1.68166667-1.4716666-1.68166667" fill="#4f2800"></path><path d="m28.4345238 1.84214286c.6130952 0 1.1211905.50809524 1.1211905 1.12095238 0 .61333333-.5080953 1.12142857-1.1211905 1.12142857-.6133333 0-1.1211905-.50809524-1.1211905-1.12142857 0-.61285714.5078572-1.12095238 1.1211905-1.12095238m-2.8557143 0c.6133334 0 1.1214286.50809524 1.1214286 1.12095238 0 .61333333-.5080952 1.12142857-1.1214286 1.12142857-.6128571 0-1.1209524-.50809524-1.1209524-1.12142857 0-.61285714.5080953-1.12095238 1.1209524-1.12095238" fill="#7f3e13"></path><path d="m40.0845238 6.51952381v6.97261909l.0702381.017619c1.0159524.4026191 1.6642857 1.3314286 1.6642857 2.4352381v5.0102381l-14.8035714 4.887619-14.8033333-4.765v-5.1328571c0-1.1038095.6478571-2.032619 1.6640476-2.4352381l.0702381-.017619v-6.99023814c0-4.81761905 26.1380952-4.81761905 26.1380952 0z" fill="#7f3e13"></path><path d="m15.1202381 6.78238095v7.51547615l-.6133333.2452381c-.6830953.2628572-1.1038096.8938096-1.1038096 1.6292858v5.2909523l13.612381 4.3795238 13.6123809-4.4845238v-5.1859523c0-.7354762-.4204761-1.3490477-1.1038095-1.6292858l-.6130952-.2452381v-7.51547615c0-3.57404762-23.7733334-3.57404762-23.7733334 0z" fill="#b85a1b"></path><path d="m15.1202381 6.78238095v7.51547615l-.6133333.2452381c-.6830953.2628572-1.1038096.8938096-1.1038096 1.6292858v5.2909523l13.612381 4.3795238v-2.8730952c-4.712381.0176191-9.4252381-3.0657143-8.1814286-9.18h8.1814286v-9.67047619c-5.9388095 0-11.8952381.89333334-11.8952381 2.68047619z" fill="#e1762f"></path><path d="m18.1859524 12.1957143h17.6940476c2.5052381 13.2797619-20.3919048 13.1742857-17.6940476 0" fill="#e5895b"></path><path d="m19.0619048 13.2292857c-.2454762 2.0497619.192619 4.0292857 1.7166666 5.5709524 1.6121429 1.6116667 4.0471429 2.3123809 6.2892857 2.2952381 2.155-.0176191 4.45-.7007143 6.0442858-2.225 1.5940476-1.5416667 2.0845238-3.5390476 1.8745238-5.6411905z" fill="#e5895b"></path><path d="m29.9761905 19.4311905c1.1911905 1.5416666 4.66.9107143 3.6264285-2.3478572z" fill="#fad395"></path><path d="m28.89 19.0983333c1.3314286 1.7166667 5.6761905.7007143 4.677619-3.0133333z" fill="#4f2800"></path><path d="m32.8842857 16.242619c.2628572-.070238.5430953.105.6133333.3854762.07.2802381-.070238.5780953-.3328571.6480953-.2628571.0702381-.5433333-.105-.6133333-.3854762-.0702381-.2802381.07-.5780953.3328571-.6480953m-2.8380952 1.9621429c.2628571-.07.5257143.1052381.6133333.3854762.07.28-.0702381.5780952-.3330952.6480952-.2626191.0697619-.5254762-.1052381-.6130953-.3852381-.07-.2804762.07-.5783333.3328572-.6483333" fill="#fff"></path><path d="m31.7983333 19.7464286c.9457143-.3154762 1.7692857-1.0688096 1.9092857-2.2776191-.7707142-.105-2.1021428 1.0161905-1.9092857 2.2776191" fill="#ad6151"></path><path d="m20.0078571 12.1957143h14.0328572c1.9795238 9.4778571-16.17 9.3902381-14.0328572 0" fill="#fad395"></path><path d="m27.0154762 17.5914286c.087619-.5778572.2978571-1.1035715.6659524-1.5764286 1.6814285-.2628571 3.1357143-1.5416667 2.68-3.8369048-1.1035715-.3852381-2.225-.5780952-3.3283334-.5780952l-.6833333 2.172381.6833333 3.8369047z" fill="#4f2800"></path><path d="m27.0154762 17.5914286c-.0876191-.5778572-.2978572-1.1035715-.6657143-1.5764286-1.6819048-.2628571-3.1359524-1.5416667-2.6804762-3.8369048 1.1038095-.3852381 2.225-.5780952 3.3285714-.5780952v5.9914286z" fill="#63300f"></path><path d="m24.5278571 12.5111905c1.6642858-.4380953 3.3109524-.4380953 4.9752381 0 .7007143 1.7342857-5.7285714 1.7164285-4.9752381 0" fill="#ad6151"></path><path d="m24.335 7.69333333c1.0335714 0 1.8747619.84095238 1.8747619 1.87476191 0 1.03357146-.8411905 1.87452376-1.8747619 1.87452376s-1.8745238-.8409523-1.8745238-1.87452376c0-1.03380953.8409524-1.87476191 1.8745238-1.87476191" fill="#fff"></path><path d="m24.4752381 8.34166667c.7707143 0 1.4016667.63071428 1.4016667 1.40142857 0 .77095236-.6309524 1.40142856-1.4016667 1.40142856-.7709524 0-1.4014286-.6304762-1.4014286-1.40142856 0-.77071429.6304762-1.40142857 1.4014286-1.40142857" fill="#1b1d23"></path><path d="m29.7309524 7.69333333c-1.0335714 0-1.8747619.84095238-1.8747619 1.87476191 0 1.03357146.8411905 1.87452376 1.8747619 1.87452376 1.0338095 0 1.8745238-.8409523 1.8745238-1.87452376 0-1.03380953-.8407143-1.87476191-1.8745238-1.87476191" fill="#fff"></path><path d="m29.5907143 8.34166667c-.7707143 0-1.4014286.63071428-1.4014286 1.40142857 0 .77095236.6307143 1.40142856 1.4014286 1.40142856.7709524 0 1.4016667-.6304762 1.4016667-1.40142856 0-.77071429-.6307143-1.40142857-1.4016667-1.40142857" fill="#1b1d23"></path><path d="m25.7014286 7.08c-1.4890476-.2802381-2.7678572-.01738095-3.8890476.68333333-.4030953-2.295 3.4688095-2.97809523 3.8890476-.68333333" fill="#63300f"></path><path d="m27.9790476 5.92380952c1.4890476-.28 2.7678572-.01738095 3.8892857.68333334.4028572-2.295-3.4690476-2.97833334-3.8892857-.68333334" fill="#4f2800"></path><path d="m41.8014286 20.9728571v14.4180953c0 .9635714-.7883334 1.7519047-1.7519048 1.7519047h-26.1030952c-.9635715 0-1.7521429-.7883333-1.7521429-1.7519047v-14.2957143l14.8038095 3.5392857z" fill="#7eaaba"></path><path d="m40.6278571 22.4792857-13.6123809 3.3635714-13.6297619-3.2583333v12.4911905c0 .4902381.3857143.8757143.8759524.8757143h25.4902381c.4904762 0 .8759523-.3854762.8759523-.8757143z" fill="#d3e8ef"></path><path d="m27.0154762 25.8428571-13.612381-3.2583333v12.4911905c0 .4902381.3854762.8757143.8761905.8757143h12.7361905z" fill="#fff"></path><path d="m27.0154762 34.0945238h11.4397619v-1.5414286h-11.4397619zm0-3.1709524h11.4397619v-1.5416666h-11.4397619z" fill="#036aab"></path><path d="m15.5757143 34.0945238h11.4397619v-1.5416667h-11.4397619zm0-3.1709524h11.4397619v-1.5416666h-11.4397619z" fill="#0399ed"></path><path d="m20.2180952 35.3733333h1.4366667v-6.9897619h-1.4366667z" fill="#fff"></path><path d="m16.1888095 22.0414286c3.6088095.8585714 7.2176191 1.7342857 10.8092857 2.5928571l-3.8542857 3.6438095c-2.5052381-1.4714285-4.9754762-3.1009523-6.955-6.2366666" fill="#7eaaba"></path><path d="m19.2545238 23.9861905c1.1038095 1.0859524 2.33 1.9616666 3.7314286 2.8204762l1.6295238-1.5416667c-1.7869048-.4202381-3.5740476-.8585714-5.3609524-1.2788095" fill="#fff"></path><path d="m37.8247619 22.0414286c-3.6090476.8585714-7.2178571 1.7342857-10.8092857 2.5928571l3.8542857 3.6438095c2.505-1.4714285 4.9752381-3.1009523 6.955-6.2366666" fill="#7eaaba"></path><path d="m34.7588095 23.9861905c-1.1035714 1.0859524-2.33 1.9616666-3.7314285 2.8204762l-1.6292858-1.5416667c1.7869048-.4202381 3.5738096-.8585714 5.3607143-1.2788095" fill="#fff"></path></g></g></svg> 