<?xml version="1.0" encoding="UTF-8"?> <svg xmlns="http://www.w3.org/2000/svg" fill="none" height="47" viewBox="0 0 197 47" width="197"><path d="m48.3243 13.2h11.4513v3.7878h-7.2143v7.1165h5.7256v3.7878h-5.7256v8.2644h7.2143v3.7878h-11.4513z" fill="#000"></path><path d="m69.9671 40.0591c-.1145-.2296-.229-1.0331-.3435-2.2957-.6871 1.7217-2.1758 2.64-4.1225 2.64-2.6338 0-4.2369-1.8365-4.2369-4.9357 0-3.0991 1.2596-4.8208 4.695-6.5426 2.7483-1.3774 3.2063-1.7217 3.2063-2.7547v-.3444c0-1.6069-.458-2.1809-1.6032-2.1809-1.2596 0-1.8322.8035-1.8322 2.2957v.6887h-3.8934v-.4591c0-3.7879 1.9467-5.9687 5.7256-5.9687 4.008 0 5.6112 2.1808 5.6112 6.4278v7.8052c0 2.7548.229 4.4765.458 5.6244zm-.8016-6.4279v-3.3287c-.3435.3444-.9161.8035-1.9467 1.4922-1.2596.8035-1.8322 1.7217-1.8322 2.9843 0 1.3774.5726 2.0661 1.7177 2.0661 1.2596.1148 2.0612-1.033 2.0612-3.2139z" fill="#000"></path><path d="m75.5782 34.4347v-.5739h3.8935v.6887c0 1.7217.8016 2.4104 1.8322 2.4104s1.7177-.5739 1.7177-2.0661c0-1.4921-1.2597-2.1808-2.8629-3.0991-2.0612-1.1478-4.4659-2.5252-4.4659-6.1983 0-3.2139 1.8322-5.3947 5.4966-5.3947 3.3208 0 5.4966 2.1808 5.4966 5.7391v.4591h-3.7789v-.5739c0-1.6069-.5726-2.0661-1.6032-2.0661-.8016 0-1.6032.4591-1.6032 1.8365 0 1.607 1.3741 2.4105 2.9773 3.3287 2.0612 1.1479 4.3515 2.5253 4.3515 5.9687 0 3.4435-1.8322 5.6244-5.6111 5.6244-3.7789-.1148-5.8402-2.2957-5.8402-6.0835z" fill="#000"></path><path d="m89.2052 45.913v-3.4435c.4581.1148.9161.2296 1.4887.2296 1.3741 0 1.8322-.3443 2.1757-1.607l.1145-.2295-4.8095-20.4313h4.1225l2.6338 13.4295 2.2902-13.4295h3.7789l-4.3515 21.2348c-.687 3.3287-2.1757 4.5913-5.382 4.5913-.5726.1147-1.3742 0-2.0613-.3444z" fill="#000"></path><g fill="#dfc015"><path d="m111.421 34.779h-4.924l-.687 5.28h-3.894l4.352-26.7443h5.725l4.352 26.7443h-4.237zm-.573-3.673-1.947-13.5443-1.832 13.5443z"></path><path d="m123.445 18.1356v2.4104h2.977v3.4435h-2.977v16.0695h-4.008v-16.0695h-2.176v-3.4435h2.176v-2.8696c0-3.2139 1.603-4.7061 4.809-4.7061.802 0 1.489.1148 2.176.3444v3.4435c-.458-.1148-.916-.2296-1.374-.2296-1.145-.1148-1.603.3443-1.603 1.607z"></path><path d="m134.323 12.8556c.802 0 1.489.1148 2.176.3443v3.4435c-.458-.1148-.916-.2295-1.374-.2295-1.145 0-1.603.4591-1.603 1.7217v2.4104h2.977v3.4435h-2.977v16.0696h-4.008v-16.0696h-2.176v-3.4435h2.176v-2.8695c0-3.3287 1.603-4.8209 4.809-4.8209zm8.245.8035v4.4765h-4.008v-4.4765zm-4.008 6.7721h4.008v19.5131h-4.008z"></path><path d="m145.774 13.2h4.008v26.7443h-4.008z"></path><path d="m152.874 13.6591h4.008v4.4765h-4.008zm0 6.7721h4.008v19.5131h-4.008z"></path><path d="m167.99 40.0591c-.115-.2296-.229-1.0331-.344-2.2957-.687 1.7217-2.175 2.64-4.122 2.64-2.634 0-4.237-1.8365-4.237-4.9357 0-3.0991 1.259-4.8208 4.695-6.5426 2.748-1.3774 3.206-1.7217 3.206-2.7547v-.3444c0-1.6069-.458-2.1809-1.603-2.1809-1.26 0-1.832.8035-1.832 2.2957v.6887h-3.779v-.4591c0-3.7879 1.947-5.9687 5.726-5.9687 4.007 0 5.611 2.1808 5.611 6.4278v7.8052c0 2.7548.229 4.4765.458 5.6244zm-.802-6.4279v-3.3287c-.343.3444-.916.8035-1.946 1.4922-1.26.8035-1.833 1.7217-1.833 2.9843 0 1.3774.573 2.0661 1.718 2.0661 1.26.1148 2.061-1.033 2.061-3.2139z"></path><path d="m179.441 23.8747v11.1339c0 1.2626.458 1.7218 1.603 1.7218.458 0 .916-.1148 1.374-.2296v3.4435c-.687.2296-1.374.3443-2.175.3443-3.207 0-4.81-1.6069-4.81-4.706v-11.7079h-2.176v-3.4435h2.405l.344-5.28h3.435v5.28h2.977v3.4435z"></path><path d="m196.274 26.5147v4.7061h-7.901v3.2139c0 1.7217.687 2.4104 2.061 2.4104 1.26 0 2.061-.6887 2.061-2.4104v-.6887h3.894v.3444c0 4.0173-2.061 6.313-5.955 6.313-3.893 0-5.954-2.2957-5.954-6.313v-7.5757c0-4.0174 2.061-6.313 5.954-6.313 3.894 0 5.84 2.1808 5.84 6.313zm-4.008 1.3774v-1.8365c0-1.7218-.687-2.4105-1.946-2.4105-1.26 0-1.947.6887-1.947 2.4105v1.8365z"></path></g><path d="m24.9637 23.9896c7.3288 2.64 12.0238 8.4939 10.4206 12.9704-1.6032 4.4766-8.7029 4.9357-16.0317 2.1809s-12.25286-7.2313-10.64969-11.8226c1.60319-4.5913 8.93199-5.9687 16.26079-3.3287z" fill="#f5d10e"></path><path d="m40.6519 12.7408c-1.0306-2.64-4.924-2.86953-7.3288-2.4104-3.3209.6887-6.1837 2.7548-8.5884 5.1652.1145-.4591.229-.8035.229-1.2626.1145-.9183.229-1.8365.229-2.64.1145-3.09913-.5725-9.64173-4.5805-10.21565-2.7483-.459126-4.924 2.86957-5.7256 5.16522-1.1451 3.21391-.6871 6.88693.229 10.10083.8016 3.214 2.1758 6.1983 5.0386 8.1496l.229.3444c.1145-.2296.5726.4591.6871.2295 3.6644.3444 7.0997-.9182 10.5351-2.1809.8016-.3443 1.7177-.6886 2.5193-1.033 2.7483-1.8365 8.0159-5.6243 6.5272-9.4122z" fill="#fff"></path><path d="m39.6209 42.353c-1.3741-.5739-2.7483-1.1478-4.1224-1.7217.3435-2.64-.229-5.5096-1.9467-7.5757-.5726-.6886-1.3742-1.3773-2.2903-1.6069-.8016-.2296-1.6032-.2296-2.4047-.1148-1.1452-2.0661-3.0919-4.0174-5.2676-5.0504 2.7483-.2296 5.4966-1.1479 8.3594-2.1809.9161-.3443 1.7177-.6887 2.6338-1.1478.9161-.4592 9.2755-4.9357 7.0997-10.56-1.2596-3.67306-6.1836-3.67306-8.4739-3.21393-2.1757.45913-4.466 1.49213-6.7562 3.32873 0-.3444 0-.574.1145-.9183 0-1.033.229-10.56-5.6111-11.478262-3.6644-.573913-6.1837 3.558262-6.9853 5.853912-1.0306 2.98435-.9161 6.54265.1145 10.78955.3436 1.3774.9161 2.9844 1.7177 4.4765-.3435-.1147-.8016-.1147-1.2596-.1147-.8016 0-1.4887.2295-2.1757.4591-.4581-1.7218-2.0613-2.9844-3.89347-3.5583-1.48866-.4591-3.09184-.2295-4.35147.5739-1.14513.9183-1.8322 2.1809-2.51928 3.5583v.1148c0 .1148 0 .1148-.11451.2295.34354-1.1478.80159-2.066 1.37415-2.9843.45805-.6887-.68708-1.3774-1.14513-.6887-1.603171 2.64-2.404758 5.8539-.916096 8.7235.687076 1.3774 1.946716 2.5252 3.435376 3.0991 1.37415.4591 2.97732.2296 4.35147-.4591 2.29026-1.1478 3.54986-3.4435 4.00796-5.8539.8016-.4592 1.6032-.6887 2.5193-.6887.3435 0 .458 0 .8015.1148.1146 0 .2291.1147.3436.1147.9161.574 1.4886 1.0331 2.0612 1.9513-2.8628.9183-5.2676 3.3287-6.6417 5.9687-1.2597 2.64-1.83222 7.0018 1.2596 8.7235 2.6338 1.3774 5.0386-1.6069 6.1837-3.5582 1.6032-2.64 2.5193-5.854 2.1757-8.9531 1.3742.2296 2.8628 1.2626 3.8935 2.2957.5725.4591 1.0306 1.033 1.3741 1.6069-1.4887.5739-2.8628 1.4922-3.7789 2.7548-1.2596 1.7217-1.8322 4.1322-1.6032 6.3131.3436 2.066 1.8322 3.673 4.008 3.0991 2.1757-.5739 3.7789-2.9844 4.5805-4.9357.687-1.7217.687-3.7878.1145-5.5095.3435 0 .687.1147 1.0306.2295l.229.1148c.1145.1148.3435.2296.4581.3444.3435.2295.5725.5739.8015.9182.4581.6887.6871 1.2626.9161 2.0661.3436 1.1478.3436 2.4104.2291 3.5583v.1148.1147.1148c-.1145.5739.229 1.1478.8016 1.3774 1.6031.6887 3.2063 1.2626 4.8095 1.8365.8016.2296 1.6031-1.6069.458-2.0661zm-23.475-18.5947c.1145.1147.1145.1147 0 0zm1.8322 9.6417c-.3436 1.033-1.0306 2.2956-1.7177 3.3287-.1145.1148-.1145.2296-.3436.4591-.229.2296-.3435.3444-.5725.5739-.1145.1148-.1145.1148-.229.2296 0 0-.1146 0-.1146.1148-.1145 0-.1145.1148-.229.1148 0 0-.1145 0-.229.1148l-.3435.1147h-.1146l-.1145-.1147s-.229-.1148-.229-.2296c0 0-.3435-.3444-.229-.2296-.3436-.4591-.4581-.6887-.5726-1.2626 0-.2296 0 0 0-.2296 0-.1147 0-.2295 0-.4591 0-.1148 0-.3443 0-.4591v-.3444c.3436-2.5252 2.1758-5.0504 4.3515-6.4278.458-.3443 1.0306-.5739 1.4887-.6887v1.4922c-.1146 1.2626-.3436 2.64-.8016 3.9026zm3.3208-9.527-.1145-.1147-.229-.2296c-2.1757-1.3774-3.5499-3.6731-4.466-7.4609-1.0306-3.7878-1.0306-6.88693-.229-9.41215.5725-1.95131 2.4047-4.59131 4.3515-4.36174 2.9773.45913 3.7789 5.62435 3.6644 9.06779 0 .8035-.1146 1.7218-.2291 2.5253-.1145.4591-.1145.8034-.229 1.2626l-.9161 3.9026 2.8628-2.7548c2.7483-2.7548 5.3821-4.3618 8.0159-4.8209 2.0612-.3443 5.2676-.1148 5.9546 1.7218 1.0306 2.7547-2.9773 6.0834-6.0691 7.6904-.8016.3443-1.4887.6887-2.2903 1.033-3.6644 1.1479-6.8707 2.1809-10.0771 1.9513zm5.6111 15.3809c-.458.6887-.9161 1.3774-1.6031 1.9513-.2291.2296-.5726.3444-.8016.4591-.229 0-.3436 0-.4581 0 0 0-.229-.1147-.1145-.1147 0 0-.1145-.2296-.229-.3444 0-.1148-.229-.5739-.229-.8035-.1145-.8034 0-1.6069.229-2.4104.458-1.7217 1.4887-2.9843 3.0918-3.7878.2291-.1148.4581-.2296.6871-.3444.5726 1.7218.4581 3.6731-.5726 5.3948z" fill="#000"></path></svg> 