<?xml version="1.0" encoding="UTF-8"?> <svg xmlns="http://www.w3.org/2000/svg" viewBox="0 0 265 72"><g fill="#5e5d5d"><path d="m162.67 54.88a9.61 9.61 0 0 1 -1.81-.17l-.35-.06-.06-.36a10.9 10.9 0 0 1 -.06-1.53v-3.17c0-.5 0-1 0-1.57s0-1.13 0-1.71v-6.5c0-1.17 0-2.28 0-3.39s0-2 0-3a5.59 5.59 0 0 1 -3.08-.93l-.23-.18v-.29c.27-2.19.63-2.75 2-3.17.2-.06.39-.1.65-.16l.6-.13a26.17 26.17 0 0 1 .22-3.54c.76-8.73 8-9.41 10.23-9.41s3.74.41 4.56 1.13l.21.22a2 2 0 0 1 .36 1.37 5.5 5.5 0 0 1 -.35 1.37 3.9 3.9 0 0 1 -.71 1.19l-.06.06h-.07a2.65 2.65 0 0 1 -1.14.27 1.8 1.8 0 0 1 -.54-.08h-.07-.06a.37.37 0 0 0 -.19-.08h-.08-.07a7 7 0 0 0 -1.79-.19c-1.62 0-3.52.55-3.73 4.88v2.63h1.79c1.15 0 2.85-.05 3.51-.1h.58v.59c-.15 2.79-.44 3.8-1.84 4.32l-.23.1-.36.15h-.06-.05a33 33 0 0 1 -3.36.11c0 6.11.06 14.28.11 19.41a1.65 1.65 0 0 1 -1 1.73 20.94 20.94 0 0 1 -3.47.19z"></path><path d="m182.7 55.47c-7.57 0-11.25-4.52-11.25-13.83 0-8.89 4.16-14 11.42-14s11.13 4.73 11.13 13.68c0 8.73-4.35 14.15-11.3 14.15zm0-22.72c-2.67 0-4.26 3.25-4.26 8.68 0 6 1.47 9 4.37 9 2.72 0 4.22-3.19 4.22-9s-1.42-8.68-4.33-8.68z"></path><path d="m196.25 54.88v-.52c.05-2.44.11-6.2.11-10.62v-9a11 11 0 0 0 -.67-3.85l-.1-.31.22-.23a7.46 7.46 0 0 1 2.48-1.45 2.58 2.58 0 0 1 1-.15 2.34 2.34 0 0 1 2.11.86 16 16 0 0 1 2.81-1.31 6.93 6.93 0 0 1 2.57-.51 5.32 5.32 0 0 1 .81.06c2.42.25 3 1.3 3.11 1.91a6.86 6.86 0 0 1 -1.05 3.77l-.11.15h-.17a2.48 2.48 0 0 1 -1 .13 12.75 12.75 0 0 1 -1.63-.11 2 2 0 0 0 -.63-.1 4.34 4.34 0 0 0 -3.14 1.1v16.7a4 4 0 0 1 -.63 2.49v.07h-.06c-1 .77-2.05.8-5.47.8z"></path><path d="m238.14 54.88-.14-.28a4.87 4.87 0 0 1 -.53-2.22v-14.5c0-4.09-.81-4.8-2.5-4.8a5.29 5.29 0 0 0 -3.46 1.63v18.48c0 .57-.25 1.32-1.46 1.62a15.39 15.39 0 0 1 -2.11.07h-3.24v-.53c.1-2.67.1-6.13.1-10.13v-6.39c0-4.09-.82-4.81-2.55-4.81a5.15 5.15 0 0 0 -3.51 1.63v17a3.38 3.38 0 0 1 -.71 2.37c-1 .8-1.89.8-5.42.8h-.61v-.52c0-2.68 0-6.16 0-10.2v-9.5a11.29 11.29 0 0 0 -.61-3.86l-.1-.28.2-.23a6.69 6.69 0 0 1 2.5-1.48 2.76 2.76 0 0 1 .89-.14 2.72 2.72 0 0 1 2.12.93 12 12 0 0 1 3-1.33 10.75 10.75 0 0 1 3.65-.56 8 8 0 0 1 1.16.06 7.15 7.15 0 0 1 4.73 2.07 13 13 0 0 1 3.25-1.52 10.38 10.38 0 0 1 3.53-.56 7.41 7.41 0 0 1 1.23.06c5.85.5 6.65 5.26 6.65 9.85v8.92c0 2.62 0 5.09.1 6.95v.28l-.22.16c-1 .78-2.14 1-5.63 1z"></path><path d="m254 55.42c-3.75 0-6.88-1.19-7.61-2.89v-.09-.11a6.07 6.07 0 0 1 1.17-3.21l.16-.2h.79a3.56 3.56 0 0 1 1.43.33l.38.14a9.67 9.67 0 0 0 3.62.82 7 7 0 0 0 .88-.1 2.24 2.24 0 0 0 2.15-2.4c0-1.1-.54-1.93-1.82-2.8a6.61 6.61 0 0 0 -.59-.41l.15-.27-.21.25c-1.29-.9-2.72-2.06-3.69-2.88l-1.33-1.06a7.71 7.71 0 0 1 -2.66-5.61c0-4.43 3.57-7.28 9.1-7.28a11.57 11.57 0 0 1 1.63.11c3.63.28 5.36 1.82 5.63 2.78v.07.07a6 6 0 0 1 -1.18 3.06l-.2.26-.33-.08c-.14 0-.47-.1-.74-.15l-.31-.06a11.29 11.29 0 0 1 -1.85-.45 6 6 0 0 0 -2.24-.45c-1.55 0-2.55.77-2.55 1.95 0 .67.22 1.28 1.26 2.13l.18.12c.56.42 1.28.94 2.05 1.47.6.48 1.24.93 1.84 1.37s.9.65 1.29.95c2.42 2 3.54 4.05 3.54 6.43-.05 4.97-3.94 8.19-9.94 8.19z"></path></g><path d="m121.75 55.15a6.72 6.72 0 0 1 -1.94-2.88l-.36-1.27-.35-1.26c-.09-.31-.17-.61-.24-.88l-.13-.51c-.53-2.2-1.09-4.68-1.52-6.63-.43 1.74-.91 3.6-1.36 5.31l-1.47 5.61v.05a1.31 1.31 0 0 0 0 .15s0 .08 0 .13c-.28.95-.5 1.7-1.57 2.06-.49.08-1.47.13-3.46.24h-.19l-.15-.12a6.29 6.29 0 0 1 -2.01-2.91l-1-3.77c-.87-3.2-1.91-7-2.84-10.4-.46-1.73-1.86-7-2.28-7.92l-.11-.24.13-.23c.62-1.11 2.4-1.6 5.76-1.6h.18l.14.11a4 4 0 0 1 1.2 2.1c.48 2.1 1 4.36 1.56 6.56.18.81.34 1.62.5 2.39.12.61.24 1.2.36 1.75l.5 2.46c0 .17.06.32.09.46.26-1.11.57-2.4.88-3.73s2-8.09 2.25-9.39a1.73 1.73 0 0 0 .1-.54v-.65l.1-.14c.37-.48 3.23-1 4.27-1a2.58 2.58 0 0 1 .68.07h.12l.09.09a4.12 4.12 0 0 1 1.18 2.46c.59 2.58 1.34 5.75 2.15 9.08.11.49.21 1 .31 1.47.14.67.28 1.34.44 2 0 .15.06.28.09.4.46-1.92.93-4.13 1.41-6.43l.24-1.09c.55-2.27 1-4.48 1.5-6.77v-.15-.2-.08a2.34 2.34 0 0 1 .34-.68v-.06h.06a2.17 2.17 0 0 1 1.49-.42 21.62 21.62 0 0 1 3.77.48 1.29 1.29 0 0 1 .63.83 4.43 4.43 0 0 1 -.26 2l-.19.48c-.37 1.24-.76 2.67-1.18 4.2-.3 1.13-.63 2.32-1 3.53-1.24 4.63-2.55 9.42-3.65 13a.73.73 0 0 0 -.06.14v.2c-.21.88-.41 1.72-1.52 2.09-.46.07-1.34.12-3.08.22h-.57z" fill="#b85a1b"></path><path d="m138 65.63a11.54 11.54 0 0 1 -2.26-.28l-.34-.08-.06-.34a41.52 41.52 0 0 1 -.17-5.51v-24.76a11.17 11.17 0 0 0 -.56-3.81l-.08-.22.13-.21a5.09 5.09 0 0 1 2.49-1.6 3.66 3.66 0 0 1 .9-.15 2.8 2.8 0 0 1 2.13.94 15.17 15.17 0 0 1 2.91-1.4 9.91 9.91 0 0 1 3.5-.62c6.44 0 10.13 4.46 10.13 12.22 0 6.23-1.74 10.91-5 13.51a9.35 9.35 0 0 1 -6.17 2.15 9.75 9.75 0 0 1 -3.68-.6v7.24a15.92 15.92 0 0 1 -.11 2.38v.21l-.38.29a7.35 7.35 0 0 1 -3.38.64zm3.84-16.41a4.47 4.47 0 0 0 2.87 1.15c2.4 0 5-2.68 5-10.18 0-6.43-2.41-7.17-4.22-7.17a6.26 6.26 0 0 0 -3.62 1.56z" fill="#b85a1b"></path><path d="m10.46 44.49c5.13.69 9.62-.47 13.27-3.75l6.11.32-3.33 9.81c-3.7 5.87-9.07 7.12-14.57 6.75z" fill="#7eaaba"></path><path d="m12.73 46.71 1 9c4.58 0 8.23-1.53 11-5.69l2.41-7-2.68-.14a17.06 17.06 0 0 1 -11.7 3.89z" fill="#d3e8ef"></path><path d="m12.73 46.71.6 5.31c6.29-.74 11.19-3.33 13.73-9.06l-2.68-.14a16.92 16.92 0 0 1 -11.65 3.89" fill="#fff"></path><path d="m11.94 36.81a10.41 10.41 0 1 1 -10.4 10.4 10.42 10.42 0 0 1 10.4-10.4" fill="#7eaaba"></path><path d="m11.94 38.84a8.33 8.33 0 1 0 8.32 8.33 8.32 8.32 0 0 0 -8.32-8.33" fill="#d3e8ef"></path><path d="m11.94 38.84a8.27 8.27 0 0 0 -6.84 3.56 8.38 8.38 0 0 0 8.32 7.82 8.27 8.27 0 0 0 6.84-3.56 8.34 8.34 0 0 0 -8.32-7.82" fill="#fff"></path><path d="m10.88 38.34a7.77 7.77 0 1 1 -7.77 7.72 7.75 7.75 0 0 1 7.77-7.72" fill="#7eaaba"></path><path d="m10.32 36.25a7.8 7.8 0 1 1 -7.81 7.75 7.83 7.83 0 0 1 7.81-7.77" fill="#7f3e13"></path><path d="m11.06 39.21a6.2 6.2 0 1 0 6.2 6.2 6.21 6.21 0 0 0 -6.2-6.2" fill="#b85a1b"></path><path d="m6.39 30a3.4 3.4 0 0 1 6.8 0c1.89-3.2 7.86-1.44 6 3.56a9.77 9.77 0 0 1 .23 1.2c3.24.18 4.3 5.22-.14 6.8a9.65 9.65 0 0 1 -1.75 3.56c-3.8 3.28-5 .6-7.08-1.62-2 0-7.4-1.34-5.87 3.74-3.46-2.24-5.68-6.73-4.02-13.3-2.31-5.32 3.84-7.3 5.83-4z" fill="#7f3e13"></path><path d="m2.65 34.68c-.79 3.19-.84 6.8 1.43 9.39 3.19 3.65 9.66 3.47 12.16-1.11 1.34-2.5 1.25-5.6.69-8.32a36.13 36.13 0 0 0 -14.28 0z" fill="#b85a1b"></path><path d="m2.65 34.68c-.79 3.19-.84 6.8 1.43 9.39a7.77 7.77 0 0 0 5.73 2.54v-12.67a37.83 37.83 0 0 0 -7.16.74" fill="#e1762f"></path><path d="m5.79 37.13a5.59 5.59 0 0 0 .83 5.23 4.18 4.18 0 0 0 6.75-.65 6.85 6.85 0 0 0 .37-4.62 19.89 19.89 0 0 0 -7.95 0" fill="#7f3e13"></path><path d="m9.77 32.23a1.81 1.81 0 0 0 0-3.61zm6.52-2.23a1.8 1.8 0 1 1 -1.81 1.8 1.81 1.81 0 0 1 1.81-1.8" fill="#b85a1b"></path><path d="m3.62 30.15a1.81 1.81 0 0 1 0 3.61 1.85 1.85 0 0 1 -1.81-1.76 1.81 1.81 0 0 1 1.81-1.8m6.15 2.08v-3.61a1.84 1.84 0 0 0 -1.77 1.8 1.77 1.77 0 0 0 1.81 1.76z" fill="#e1762f"></path><path d="m18.32 36.49a1.8 1.8 0 1 1 -1.8 1.8 1.77 1.77 0 0 1 1.8-1.8" fill="#b85a1b"></path><path d="m80.19 57.76c-.41-5.41-2.86-9.3-7.67-11.38l1-3.74 7.77-2.09c6.75 2 9.34 6.39 10.63 11.8l-11.7 5.41z" fill="#7eaaba"></path><path d="m81.81 54.8 7.73-3.61c-1.35-4.53-3.61-7.44-8.37-8.6l-6.06 1.62-.28 1a14.41 14.41 0 0 1 7 9.57z" fill="#fff"></path><path d="m72.7 58.68a10.1 10.1 0 1 1 12.77 6.43 10.08 10.08 0 0 1 -12.77-6.43" fill="#7eaaba"></path><path d="m74.37 58.13a8.35 8.35 0 1 0 5.32-10.55 8.34 8.34 0 0 0 -5.32 10.55" fill="#d3e8ef"></path><path d="m90.55 54.38a7.84 7.84 0 0 0 -.32-1.48 8.34 8.34 0 0 0 -10.54-5.32 9.11 9.11 0 0 0 -3.43 2.13 8.74 8.74 0 0 0 .33 1.48 8.36 8.36 0 0 0 10.54 5.32 7.83 7.83 0 0 0 3.42-2.13" fill="#fff"></path><path d="m70.81 61.27a9.52 9.52 0 1 1 12 6.06 9.49 9.49 0 0 1 -12-6.06" fill="#7f3e13"></path><path d="m72.75 60.67a7.5 7.5 0 1 1 9.48 4.76 7.51 7.51 0 0 1 -9.48-4.76" fill="#b85a1b"></path><path d="m72.43 57.11a7.62 7.62 0 0 1 5.08-6 7.51 7.51 0 0 1 9.49 4.8 8.09 8.09 0 0 1 .37 1.85 13.08 13.08 0 0 1 -14.93-.65z" fill="#e1762f"></path><path d="m37.84 0a7.11 7.11 0 0 1 6.89 7.26 7.06 7.06 0 0 1 -6.89 7.26 7.1 7.1 0 0 1 -6.84-7.26 7.1 7.1 0 0 1 6.84-7.26" fill="#7f3e13"></path><path d="m37.84 2a5.08 5.08 0 0 0 -4.84 5.26 5.1 5.1 0 0 0 4.86 5.27 5.07 5.07 0 0 0 4.85-5.27 5.12 5.12 0 0 0 -4.87-5.26" fill="#b85a1b"></path><path d="m37.84 4a3.08 3.08 0 0 0 -2.84 3.31 3.14 3.14 0 0 0 2.87 3.28 3.07 3.07 0 0 0 2.83-3.28 3.13 3.13 0 0 0 -2.86-3.31" fill="#63300f"></path><path d="m67.06 0a7.11 7.11 0 0 1 6.94 7.26 6.9 6.9 0 1 1 -13.78 0 7.11 7.11 0 0 1 6.84-7.26" fill="#7f3e13"></path><path d="m67.06 2a5.07 5.07 0 0 0 -4.85 5.27 4.87 4.87 0 1 0 9.71 0 5.13 5.13 0 0 0 -4.86-5.27" fill="#b85a1b"></path><path d="m67.06 4a3.08 3.08 0 0 0 -2.87 3.29 3.14 3.14 0 0 0 2.87 3.28 3.07 3.07 0 0 0 2.87-3.28 3.14 3.14 0 0 0 -2.87-3.29" fill="#4f2800"></path><path d="m78 26.08h-.13v-13.59c0-4.09-9.6-6.39-20.45-6.93a2.16 2.16 0 0 0 -4.32-.12h-1.27a2.17 2.17 0 0 0 -4.33.12c-10.84.52-20.44 2.82-20.44 6.88v13.56h-.14a5 5 0 0 0 -3.23 4.72v9.94l28.76 9.34 28.76-9.48v-9.72a5 5 0 0 0 -3.21-4.72z" fill="#7f3e13"></path><path d="m29.37 13v14.61l-1.2.46a3.3 3.3 0 0 0 -2.17 3.14v10.27l26.49 8.52 26.51-8.71v-10.08a3.33 3.33 0 0 0 -2.13-3.14l-1.2-.46v-14.61c-.05-6.93-46.2-6.93-46.25 0z" fill="#b85a1b"></path><path d="m29.37 13v14.61l-1.2.46a3.3 3.3 0 0 0 -2.17 3.14v10.27l26.49 8.52v-5.56c-9.15.05-18.31-6-15.9-17.85h15.9v-18.77c-11.56 0-23.12 1.75-23.12 5.18z" fill="#e1762f"></path><path d="m35.34 23.49h34.36c4.85 25.8-39.63 25.62-34.36 0" fill="#e5895b"></path><path d="m37 25.53c-.46 4 .37 7.81 3.33 10.82 3.15 3.14 7.86 4.48 12.21 4.44s8.65-1.34 11.75-4.3a12.79 12.79 0 0 0 3.65-11z" fill="#e5895b"></path><path d="m58.23 37.55c2.31 3 9.06 1.76 7-4.58z" fill="#fad395"></path><path d="m56.1 36.9c2.59 3.33 11 1.34 9.07-5.87z" fill="#4f2800"></path><path d="m63.87 31.35a1 1 0 0 1 1.2.74 1 1 0 1 1 -1.85.51 1 1 0 0 1 .65-1.25m-5.5 3.84a1 1 0 0 1 1.2.74 1 1 0 0 1 -.65 1.25 1 1 0 0 1 -1.2-.74 1 1 0 0 1 .65-1.25" fill="#fff"></path><path d="m61.74 38.2a5.19 5.19 0 0 0 3.7-4.44c-1.48-.23-4.07 2-3.7 4.44" fill="#ad6151"></path><path d="m38.85 23.49h27.24c3.88 18.45-31.4 18.27-27.24 0" fill="#fad395"></path><path d="m52.45 34a6.82 6.82 0 0 1 1.29-3.05c3.29-.51 6.11-3 5.23-7.45a19.66 19.66 0 0 0 -6.48-1.11l-1.34 4.21z" fill="#4f2800"></path><path d="m52.45 34a6.84 6.84 0 0 0 -1.3-3.05c-3.28-.51-6.1-3-5.22-7.45a19.65 19.65 0 0 1 6.47-1.11z" fill="#63300f"></path><path d="m47.64 24.14a19 19 0 0 1 9.66 0c1.35 3.37-11.14 3.33-9.66 0" fill="#ad6151"></path><path d="m47.27 14.75a3.66 3.66 0 1 1 -3.65 3.65 3.66 3.66 0 0 1 3.65-3.65" fill="#fff"></path><path d="m47.55 16.05a2.73 2.73 0 1 1 -2.73 2.72 2.7 2.7 0 0 1 2.73-2.72" fill="#1b1d23"></path><path d="m57.72 14.75a3.66 3.66 0 1 0 3.65 3.65 3.66 3.66 0 0 0 -3.65-3.65" fill="#fff"></path><path d="m57.49 16.05a2.73 2.73 0 1 0 2.73 2.72 2.76 2.76 0 0 0 -2.73-2.72" fill="#1b1d23"></path><path d="m49.91 13.6a9.9 9.9 0 0 0 -7.54 1.34c-.79-4.49 6.75-5.83 7.54-1.34" fill="#63300f"></path><path d="m54.34 11.33a9.9 9.9 0 0 1 7.54 1.34c.79-4.49-6.7-5.78-7.54-1.34" fill="#4f2800"></path><path d="m81.17 40.55v28a3.45 3.45 0 0 1 -3.43 3.45h-50.68a3.44 3.44 0 0 1 -3.42-3.42v-27.75l28.76 6.89z" fill="#7eaaba"></path><path d="m78.9 43.47-26.45 6.53-26.45-6.3v24.3a1.68 1.68 0 0 0 1.71 1.71h49.52a1.68 1.68 0 0 0 1.77-1.71v-24.53z" fill="#d3e8ef"></path><path d="m52.45 50-26.45-6.3v24.3a1.68 1.68 0 0 0 1.72 1.71h24.77v-19.71z" fill="#fff"></path><path d="m52.49 63h22.16v3h-22.15v-3zm0-6.15h22.16v3h-22.15v-3z" fill="#036aab"></path><path d="m52.49 66v-3h-22.24v3zm-22.24-9.12h22.24v3h-22.24z" fill="#0399ed"></path><path d="m39.27 54.94h2.77v13.59h-2.77z" fill="#fff"></path><path d="m31.45 42.64c7 1.66 14 3.37 21 5l-7.45 7.11c-4.86-2.87-9.67-6-13.51-12.11" fill="#7eaaba"></path><path d="m37.37 46.43a38.17 38.17 0 0 0 7.26 5.45l3.15-3c-3.42-.79-6.94-1.67-10.41-2.45" fill="#fff"></path><path d="m73.44 42.64c-7 1.66-14 3.37-21 5l7.49 7.07c4.86-2.87 9.66-6 13.5-12.11" fill="#7eaaba"></path><path d="m67.52 46.43a37.55 37.55 0 0 1 -7.26 5.45l-3.14-3c3.47-.79 6.94-1.67 10.4-2.45" fill="#fff"></path></svg> 