<?xml version="1.0" encoding="UTF-8"?> <svg xmlns="http://www.w3.org/2000/svg" viewBox="0 0 252 40"><path d="m48 17.5c0-4.1 3.3-7.4 7.4-7.4s7.4 3.3 7.4 7.4v17.5c0 2.8 2.3 5 5 5 2.8 0 5-2.3 5-5v-17.5c.1-9.7-7.7-17.5-17.4-17.5-4.8 0-9.2 2-12.4 5.2 3.1 3.2 5 7.5 5 12.3z" fill="#20d1cc"></path><path d="m38 17.5c0-4.8 1.9-9.1 5-12.3-3.2-3.2-7.6-5.2-12.4-5.2-4.9 0-9.3 2-12.4 5.2 3.1 3.1 5 7.5 5 12.2 0-4.1 3.3-7.4 7.4-7.4 4.1.1 7.4 3.4 7.4 7.5z" fill="#05d0e0"></path><path d="m48 35v-17.5c0-4.8-1.9-9.1-5-12.3-3.1 3.2-5 7.5-5 12.3v17.5c0 1.4.6 2.6 1.5 3.6.9.9 2.2 1.5 3.6 1.5 2.7-.1 4.9-2.4 4.9-5.1z" fill="#01a9b2"></path><path d="m5.7 0c-2.8 0-5 2.3-5 5 0 2.8 2.3 5 5 5 4.1 0 7.4 3.3 7.4 7.4 0-4.8 1.9-9.1 5-12.2-3.1-3.2-7.5-5.2-12.4-5.2z" fill="#0282c9"></path><path d="m13.1 17.4v17.5c0 2.8 2.3 5 5 5 .9 0 1.7-.2 2.4-.6 1.6-.9 2.6-2.5 2.6-4.4v-17.4c0-4.8-1.9-9.1-5-12.2-3.1 3.1-5 7.4-5 12.1z" fill="#016bb1"></path><circle cx="5.7" cy="5" fill="#06429e" r="5"></circle><circle cx="18.1" cy="35" fill="#01569a" r="5"></circle><circle cx="43" cy="35" fill="#008c9d" r="5"></circle><circle cx="67.9" cy="35" fill="#03aba3" r="5"></circle><g fill="#06429e"><path d="m101 15.6c-1.8 0-3.6.8-4.5 2.8-.6-2.1-2.3-2.8-4.3-2.8-1.5 0-3 .6-3.8 2.1v-.8c0-.6-.5-1.1-1.1-1.1s-1.1.5-1.1 1.1v10.9c0 .6.5 1.1 1.1 1.1s1.1-.5 1.1-1.1v-6.5c0-2.1 1.4-3.7 3.5-3.7 2.3 0 3.5 1.6 3.5 3.7v6.5c0 .6.5 1.1 1.1 1.1s1.1-.5 1.1-1.1v-6.5c0-2.1 1.4-3.7 3.5-3.7 2.3 0 3.4 1.5 3.4 3.7v6.5c0 .6.5 1.1 1.1 1.1s1.1-.5 1.1-1.1v-6.5c-.3-3.5-2.2-5.7-5.7-5.7z"></path><path d="m138.3 15.6c-1.8 0-3.6.8-4.5 2.8-.6-2.1-2.3-2.8-4.3-2.8-1.5 0-3 .6-3.8 2.1v-.8c0-.6-.5-1.1-1.1-1.1s-1.1.5-1.1 1.1v10.9c0 .6.5 1.1 1.1 1.1s1.1-.5 1.1-1.1v-6.5c0-2.1 1.4-3.7 3.5-3.7 2.3 0 3.5 1.6 3.5 3.7v6.5c0 .6.5 1.1 1.1 1.1s1.1-.5 1.1-1.1v-6.5c0-2.1 1.4-3.7 3.5-3.7 2.3 0 3.4 1.5 3.4 3.7v6.5c0 .6.5 1.1 1.1 1.1s1.1-.5 1.1-1.1v-6.5c-.3-3.5-2.1-5.7-5.7-5.7z"></path><path d="m120.5 23.1c.5 0 1-.4 1-1 0-4.5-2.8-6.6-6.5-6.6-3.9 0-6.7 2.8-6.7 6.7 0 4.1 2.8 6.7 6.8 6.7 1.9 0 4-.7 5.3-2 .2-.2.3-.4.3-.7 0-.5-.4-1-1-1-.3 0-.5.1-.7.3-.9.9-2.5 1.4-3.9 1.4-2.5 0-4.4-1.5-4.7-3.8zm-10-1.8c.4-2.5 2.3-3.8 4.5-3.8 2.5 0 4.2 1.3 4.3 3.8z"></path><path d="m173.4 23.1c.5 0 1-.4 1-1 0-4.5-2.8-6.6-6.5-6.6-3.9 0-6.7 2.8-6.7 6.7 0 4.1 2.8 6.7 6.8 6.7 1.9 0 4-.7 5.3-2 .2-.2.3-.4.3-.7 0-.5-.4-1-1-1-.3 0-.5.1-.7.3-.9.9-2.5 1.4-3.9 1.4-2.5 0-4.4-1.5-4.7-3.8zm-10-1.8c.4-2.5 2.3-3.8 4.5-3.8 2.5 0 4.2 1.3 4.3 3.8z"></path><path d="m225.1 23.1c.5 0 1-.4 1-1 0-4.5-2.8-6.6-6.5-6.6-3.9 0-6.7 2.8-6.7 6.7 0 4.1 2.8 6.7 6.8 6.7 1.9 0 4-.7 5.3-2 .2-.2.3-.4.3-.7 0-.5-.4-1-1-1-.3 0-.5.1-.7.3-.9.9-2.5 1.4-3.9 1.4-2.5 0-4.4-1.5-4.7-3.8zm-10-1.8c.4-2.5 2.3-3.8 4.5-3.8 2.5 0 4.2 1.3 4.3 3.8z"></path><path d="m153.3 15.6c-1.8 0-3.9.8-4.8 2.5v-6.6c0-.6-.5-1.1-1.1-1.1s-1.1.5-1.1 1.1v16.3c0 .6.5 1.1 1.1 1.1s1.1-.5 1.1-1.1v-1.4c1 1.7 2.9 2.4 4.8 2.4 3.7 0 6.6-2.4 6.6-6.6 0-4.3-2.9-6.6-6.6-6.6zm-.1 11.3c-2.5 0-4.5-1.9-4.5-4.7s2-4.7 4.5-4.7 4.5 1.6 4.5 4.7c0 3-2 4.7-4.5 4.7z"></path><path d="m194.4 15.6c-1.9 0-3.8.8-4.8 2.4v-1.4c0-.6-.5-1.1-1.1-1.1s-1.1.5-1.1 1.1v17.1c0 .6.5 1.1 1.1 1.1s1.1-.5 1.1-1.1 0-7.4 0-7.4c.9 1.7 3 2.5 4.8 2.5 3.7 0 6.5-2.3 6.5-6.7 0-4.1-2.8-6.5-6.5-6.5zm-.1 11.3c-2.5 0-4.5-1.9-4.5-4.7s2-4.7 4.5-4.7 4.5 1.7 4.5 4.6c0 3.2-2 4.8-4.5 4.8z"></path><path d="m185.1 16.1c-.7-.3-1.4-.5-2.3-.5-1.6 0-3.2.6-4 2v-.9c0-.6-.5-1-1-1-.6 0-1 .5-1 1v11.2c0 .6.5 1.1 1.1 1.1s1.1-.5 1.1-1.1 0-6.3 0-6.3c0-2.4 1.4-3.8 3.8-3.8.6 0 1.1.1 1.6.3.1.1.3.1.4.1.6 0 1-.5 1-1-.1-.6-.4-.9-.7-1.1z"></path><path d="m211.7 16.1c-.7-.3-1.4-.5-2.3-.5-1.6 0-3.2.6-4 2v-.9c0-.6-.5-1-1-1-.6 0-1 .5-1 1v11.2c0 .6.5 1.1 1.1 1.1s1.1-.5 1.1-1.1 0-6.3 0-6.3c0-2.4 1.4-3.8 3.8-3.8.6 0 1.1.1 1.6.3.1.1.3.1.4.1.6 0 1-.5 1-1-.1-.6-.4-.9-.7-1.1z"></path><path d="m233.2 21.1c-1.6-.2-3.2-.5-3.2-1.8 0-1.4 1.4-2.1 3.2-2.1.8 0 2.2.2 2.9.5l.6.3c.1.1.3.1.4.1.5 0 1-.4 1-1 0-.4-.3-.8-.6-.9-.2-.1-.4-.2-.6-.2-1.2-.4-2.5-.6-3.6-.6-2.5 0-5.3 1.1-5.3 3.9 0 2.7 2.7 3.3 5.2 3.7 2 .2 3.6.6 3.6 2.1-.1 1.7-2.1 2-3.4 2-1.2 0-2.4-.3-3.4-.8-.1-.1-.3-.1-.5-.1-.6 0-1 .5-1 1 0 .4.2.8.6.9 1.3.6 2.6.9 4.2.9 2.9 0 5.4-1.2 5.5-3.9 0-3.2-3.2-3.6-5.6-4z"></path><path d="m245.8 21.1c-1.6-.2-3.2-.5-3.2-1.8 0-1.4 1.4-2.1 3.2-2.1.8 0 2.2.2 2.9.5l.6.3c.1.1.3.1.4.1.5 0 1-.4 1-1 0-.4-.3-.8-.6-.9-.2-.1-.4-.2-.6-.2-1.2-.4-2.5-.6-3.6-.6-2.5 0-5.3 1.1-5.3 3.9 0 2.7 2.7 3.3 5.2 3.7 2 .2 3.6.6 3.6 2.1-.1 1.7-2.1 2-3.4 2-1.2 0-2.4-.3-3.4-.8-.1-.1-.3-.1-.5-.1-.6 0-1 .5-1 1 0 .4.2.8.6.9 1.3.6 2.6.9 4.2.9 2.9 0 5.4-1.2 5.5-3.9 0-3.2-3.2-3.6-5.6-4z"></path></g></svg> 