<?xml version="1.0" encoding="UTF-8"?> <svg xmlns="http://www.w3.org/2000/svg" xmlns:xlink="http://www.w3.org/1999/xlink" fill="none" height="39" viewBox="0 0 240 39" width="240"><linearGradient id="a" gradientUnits="userSpaceOnUse" x1="38.1057" x2="74.7146" y1="20.4083" y2="18.9483"><stop offset="0" stop-color="#ff8c00"></stop><stop offset=".7" stop-color="#ffd200"></stop></linearGradient><path d="m36.5 14.3c-.8-.8-1.2-1.9-1.2-3-6.4-.3-12.8-.1-19.6.7-.5.1-.9.4-1 .7-.1.4.3.6.4.6 2.9 1.3 4.4 2 7.1 3.6.2.1.5.2.8.2 1.4-.1 2.7-.2 4-.2 4.2-.1 8.4 0 12.4.5z" fill="#4fd6f6"></path><path d="m43.2 21.3-1.2-1.2c-4.5-.7-9.1-1-13.7-.9-.4 0-.8.2-.9.5s.1.6.3.7c2.4 1.7 3.6 2.6 5.9 4.5.2.1.3.2.5.2 2.7.2 4.9.3 6.9.7z" fill="#9ae8fa"></path><path d="m39.5 6.99997h.7l9.8 1.2 1.5-3c-17.2-3.4-33.3-2.8-50.4 1.8-.6.2-1.1.6-1.1 1 0 .3.4.4.5.5 3.3.8 5 1.3 8.1 2.40003.3.1.6.1 1 0 5.9-1.10003 11.4-1.70003 17-1.90003 3.1-.1 6.2 0 9.3.2.8-1.3 2.1-2.1 3.6-2.2z" fill="#03c5f2"></path><path d="m74.5 15c-.2-.8-.8-1.4-1.6-1.5l-11.4-1.4-1.8-10.20003c-.1-.8-.8-1.399998-1.6-1.499998s-1.6.3-2 .999998l-4.8 9.50003-11.4-1.40003c-.8-.1-1.6.3-1.9 1.00003-.4.7-.2 1.6.3 2.1l7.9 8.2-5.8 11.8s0 .1-.1.1c0 0 0 .1-.1.1v.1.1.1.1.1.1.1.2s0 .1.1.1c0 .1 0 .1.1.2 0 0 0 .1.1.1l.1.1.1.1.1.1c.1.1.2.1.2.2h.1c.1 0 .1.1.2.1h.1c.1 0 .1 0 .2.1h.1.2.2.1.2.1c.1 0 .2 0 .2-.1h.1c.1 0 .2-.1.3-.1l10.8-6.4 8.8 9.4c.3.3.7.5 1.1.6.4 0 .7 0 1.1-.2.7-.4 1.2-1.2 1-2l-2.4-13.4 10.2-6c.6 0 1-.8.8-1.6z" fill="url(#a)"></path><g fill="#0642b7"><path d="m129.6 22.8c.7 0 1.2-.5 1.2-1.2 0-5.5-3.5-8.1-7.9-8.1-4.8 0-8.2 3.4-8.2 8.2 0 5 3.4 8.2 8.3 8.2 2.3 0 4.9-.8 6.5-2.4.2-.2.3-.5.3-.8 0-.6-.5-1.2-1.2-1.2-.3 0-.6.1-.8.4-1.1 1.1-3.1 1.7-4.7 1.7-3 0-5.4-1.8-5.7-4.7zm-12.3-2.2c.4-3 2.8-4.7 5.6-4.7 3.1 0 5.2 1.6 5.3 4.7z"></path><path d="m91.7 13.6c-2.3 0-4.7.9-5.8 3v-1.7c0-.7-.6-1.3-1.3-1.3s-1.3.6-1.3 1.3v21c0 .7.6 1.3 1.3 1.3s1.3-.6 1.3-1.3 0-9.1 0-9.1c1.1 2.1 3.7 3.1 5.9 3.1 4.5 0 8-2.8 8-8.2 0-5.1-3.6-8.1-8.1-8.1zm-.1 13.9c-3.1 0-5.6-2.3-5.6-5.7s2.4-5.7 5.6-5.7c3.1 0 5.6 2.1 5.6 5.7-.1 3.7-2.6 5.7-5.6 5.7z"></path><path d="m112.9 14.2c-.9-.4-1.8-.6-2.8-.6-1.9 0-3.9.7-4.9 2.4v-1.1c0-.7-.6-1.3-1.3-1.3s-1.3.6-1.3 1.3v13.8c0 .7.6 1.3 1.3 1.3s1.3-.6 1.3-1.3 0-7.8 0-7.8c0-3 1.7-4.7 4.7-4.7.7 0 1.3.1 1.9.4.2.1.3.1.5.1.7 0 1.3-.6 1.3-1.3 0-.5-.3-1-.7-1.2z"></path><path d="m233.2 20.4c-2-.2-3.9-.6-4-2.2 0-1.7 1.7-2.6 3.9-2.5 1 0 2.7.2 3.5.7l.7.3c.2.1.3.1.5.1.7 0 1.2-.5 1.2-1.2 0-.5-.3-.9-.8-1.1-.2-.1-.5-.2-.7-.3-1.4-.5-3-.7-4.5-.7-3 0-6.5 1.4-6.4 4.8 0 3.3 3.3 4.1 6.3 4.5 2.5.3 4.4.8 4.4 2.5-.1 2.1-2.6 2.4-4.1 2.4-1.4 0-2.9-.3-4.2-1-.2-.1-.4-.1-.6-.1-.7 0-1.3.6-1.3 1.3 0 .5.3.9.7 1.1 1.6.8 3.2 1.1 5.2 1.1 3.6 0 6.7-1.5 6.7-4.8.4-3.9-3.6-4.5-6.5-4.9z"></path><path d="m142.7 28.5c0-.6-.5-1.2-1.2-1.2-.1 0-.2 0-.3 0-.3.1-.7.1-1 .1-1.9 0-2.5-1.2-2.5-3v-8.3h3c.6 0 1.1-.5 1.1-1.1s-.5-1.1-1.1-1.1h-2.9v-3.3c0-.69995-.6-1.29995-1.3-1.29995s-1.3.6-1.3 1.29995v3.4h-2c-.6 0-1.1.5-1.1 1.1s.5 1.1 1.1 1.1h2v8.3c0 3.5 1.6 5.5 5 5.4.6 0 1.1-.0999 1.6-.1999h.1c.5-.2.8-.6001.8-1.2001z"></path><path d="m154.3 28.5c0-.6-.5-1.2-1.2-1.2-.1 0-.2 0-.3 0-.3.1-.7.1-1 .1-1.9 0-2.5-1.2-2.5-3v-8.3h3.5c.6 0 1.1-.5 1.1-1.1s-.5-1.1-1.1-1.1h-3.4v-3.3c0-.69995-.6-1.29995-1.3-1.29995s-1.3.6-1.3 1.29995v3.4h-2c-.6 0-1.1.5-1.1 1.1s.5 1.1 1.1 1.1h2v8.3c0 3.5 1.6 5.5 5 5.4.6 0 1.1-.0999 1.6-.1999h.1c.5-.2.8-.6001.8-1.2001z"></path><path d="m171.2 14.9c0-.7-.6-1.3-1.3-1.3-.6 0-1.1.4-1.3.9l-4.7 12.2-5.1-12.3c-.2-.5-.7-.8-1.2-.8-.7 0-1.3.6-1.3 1.3 0 .2 0 .4.1.5l6 14.1-1.5 3.8c-.8 1.7-2.1 1.6-3.5 1-.2-.1-.3-.1-.5-.1-.7 0-1.2.5-1.2 1.2 0 .5.3.9.7 1.1 2.9 1.4 5.6.9 7-2.4l7.7-18.7c.1-.1.1-.3.1-.5z"></path><path d="m202.1 13.7001c-2.1 0-3.8.7-5.3 2.7v-1.2c0-.7-.6-1.3-1.3-1.3s-1.3.6-1.3 1.3v13.5c0 .7.6 1.3 1.3 1.3s1.3-.6 1.3-1.3v-7.5c0-3.1 2.1-5.1 5-5.1 3.2 0 4.5 1.5 4.5 4.9v7.6c0 .7.6 1.3 1.3 1.3s1.3-.6 1.3-1.3v-7.6c.1-4.7-2.2-7.3-6.8-7.3z"></path><path d="m219 20.5 5.5-4.6c.2-.2.4-.5.4-.8 0-.6-.5-1.1-1.1-1.1-.3 0-.6.1-.8.3l-7.7 6.7v-12.2c0-.7-.6-1.3-1.3-1.3s-1.3.6-1.3 1.3v20c0 .7.6 1.3 1.3 1.3s1.3-.6 1.3-1.3v-5.1l1.8-1.4 5.4 7.4c.2.3.6.5 1 .5.7 0 1.3-.6 1.3-1.3 0-.3-.1-.6-.3-.8z"></path><path d="m180.9 7.40002c-.7 0-1.3.6-1.3 1.3v19.99998c0 .7.6 1.3 1.3 1.3s1.3-.6 1.3-1.3v-19.99998c0-.7-.5-1.3-1.3-1.3z"></path><path d="m190.2 10.5c0-2.09995-3.1-2.09995-3.1 0-.1 2.1 3.1 2.1 3.1 0z"></path><path d="m188.5 14.5c-.7 0-1.3.6-1.3 1.3v12.9c0 .7.6 1.3 1.3 1.3s1.3-.6 1.3-1.3v-12.9c.1-.7-.5-1.3-1.3-1.3z"></path></g></svg> 