<?xml version="1.0" encoding="UTF-8"?> <svg xmlns="http://www.w3.org/2000/svg" xmlns:xlink="http://www.w3.org/1999/xlink" fill="none" height="54" viewBox="0 0 258 54" width="258"><mask id="a" fill="#fff"><path clip-rule="evenodd" d="m4.64822 10c-.95896 0-1.78152.6802-1.94585 1.625-.52754 3.0329-1.59107 9.7155-1.702373 14.875-.114068 5.2877 1.133983 13.417 1.711853 16.8644.1595.9516.98471 1.6356 1.94955 1.6356h30.6841c.9583 0 1.7796-.6746 1.9447-1.6186.5836-3.3394 1.8233-11.12 1.7098-16.3814-.1121-5.1946-1.1937-12.217-1.7196-15.3603-.1593-.9521-.9853-1.6397-1.9506-1.6397zm2.72851 5c-.50339 0-.92764.3729-.98654.8728-.23706 2.0122-.79691 7.1115-.89022 11.1272-.09565 4.1165.93978 10.0664 1.34117 12.2007.08782.4669.4963.7993.97144.7993h24.36802c.4748 0 .8831-.3319.9712-.7985.4032-2.1335 1.4439-8.0845 1.3482-12.2015-.0933-4.0164-.6581-9.117-.8972-11.1283-.0593-.4995-.4833-.8717-.9863-.8717z" fill="#fff" fill-rule="evenodd"></path></mask><path clip-rule="evenodd" d="m4.64822 10c-.95896 0-1.78152.6802-1.94585 1.625-.52754 3.0329-1.59107 9.7155-1.702373 14.875-.114068 5.2877 1.133983 13.417 1.711853 16.8644.1595.9516.98471 1.6356 1.94955 1.6356h30.6841c.9583 0 1.7796-.6746 1.9447-1.6186.5836-3.3394 1.8233-11.12 1.7098-16.3814-.1121-5.1946-1.1937-12.217-1.7196-15.3603-.1593-.9521-.9853-1.6397-1.9506-1.6397zm2.72851 5c-.50339 0-.92764.3729-.98654.8728-.23706 2.0122-.79691 7.1115-.89022 11.1272-.09565 4.1165.93978 10.0664 1.34117 12.2007.08782.4669.4963.7993.97144.7993h24.36802c.4748 0 .8831-.3319.9712-.7985.4032-2.1335 1.4439-8.0845 1.3482-12.2015-.0933-4.0164-.6581-9.117-.8972-11.1283-.0593-.4995-.4833-.8717-.9863-.8717z" fill="#bfcdc2" fill-rule="evenodd"></path><path d="m2.70237 11.625.98521.1713zm-1.702373 14.875.999763.0216zm1.711853 16.8644-.98624.1653zm34.57835.017-.9851-.1722zm1.7098-16.3814.9998-.0216zm-1.7196-15.3603.9863-.165zm-30.89021 4.2331.99313.117zm-.89022 11.1272-.99973-.0232zm1.34117 12.2007-.98277.1848zm26.31066.0008.9826.1857zm1.3482-12.2015-.9997.0232zm-.8972-11.1283.9931-.118zm-29.91522-4.0754c.07954-.4573.4792-.7963.96064-.7963v-2c-1.43648 0-2.68195 1.0214-2.93106 2.4536zm-1.68782 14.7253c.10952-5.0766 1.16042-11.6931 1.68782-14.7253l-1.97042-.3427c-.52767 3.0338-1.603839 9.7824-1.71693067 15.0248zm1.69833 16.6775c-.58006-3.4605-1.81005-11.4987-1.69833-16.6775l-1.99953067-.0432c-.11641633 5.3966 1.14971067 13.617 1.72538067 17.0513zm.96331.8009c-.48698 0-.8863-.3415-.96331-.8009l-1.97248.3306c.242 1.4438 1.49309 2.4703 2.93579 2.4703zm30.6841 0h-30.6841v2h30.6841zm.9596-.7908c-.0794.454-.4755.7908-.9596.7908v2c1.4325 0 2.6791-1.0125 2.9297-2.4465zm1.6951-16.1876c.1111 5.1496-1.1096 12.8377-1.6951 16.1876l1.9701.3443c.5819-3.3288 1.8405-11.2019 1.7246-16.5751zm-1.7061-15.2169c.5262 3.1452 1.5958 10.1028 1.7061 15.2169l1.9996-.0432c-.1138-5.275-1.2075-12.3623-1.7331-15.5037zm-.9643-.8047c.4853 0 .8871.343.9643.8047l1.9726-.33c-.2413-1.4425-1.4916-2.4747-2.9369-2.4747zm-30.68158 0h30.68158v-2h-30.68158zm2.7351 4.9898c.00004-.0002-.00002.0004-.00038.0015-.00035.0011-.00084.0023-.00143.0034-.00116.0022-.00227.0033-.00283.0038-.00054.0005-.00116.0009-.00198.0012-.00124.0005-.00166.0003.00003.0003v-2c-1.00433 0-1.86073.7463-1.97967 1.7558zm-.88362 11.0334c.09212-3.9642.64669-9.0223.88362-11.0334l-1.98626-.234c-.23719 2.0133-.80231 7.1538-.89682 11.221zm1.32421 11.9926c-.40341-2.145-1.41707-7.9961-1.32421-11.9926l-1.99946-.0464c-.09844 4.2364.95877 10.2852 1.35813 12.4087zm-.01133-.0158c-.00169 0-.00145-.0002-.00022.0002.00092.0004.00208.0009.00339.002.00134.0011.00321.003.00501.006.00202.0034.00293.0065.00315.0076l-1.96554.3697c.1785.9491 1.00773 1.6145 1.95421 1.6145zm24.36802 0h-24.36802v2h24.36802zm-.0114.0158c.0002-.0012.0012-.0042.0032-.0076.0018-.003.0036-.0049.005-.006.0013-.001.0024-.0016.0034-.002.0012-.0004.0015-.0002-.0002-.0002v2c.9458 0 1.7746-.6645 1.9538-1.6128zm1.3311-11.9926c.0928 3.9966-.9259 9.8483-1.3311 11.9926l1.9652.3714c.4012-2.1227 1.4638-8.1729 1.3653-12.4104zm-.8905-11.0335c.2389 2.0102.7983 7.0691.8905 11.0335l1.9994-.0464c-.0945-4.0685-.6647-9.2107-.9038-11.2231zm.0067.0103c.0017 0 .0013.0002.0001-.0003-.0009-.0003-.0015-.0007-.0021-.0012-.0005-.0005-.0017-.0017-.0028-.0039-.0006-.0011-.0011-.0023-.0015-.0034-.0003-.0012-.0004-.0017-.0004-.0015l1.9861-.236c-.1199-1.0087-.976-1.7537-1.9794-1.7537zm-25.23977 0h25.23977v-2h-25.23977z" fill="#839788" mask="url(#a)"></path><g stroke="#839788"><path d="m9.5 23.0986c0-4.8785.532-9.4464 1.4582-13.37316.0869-.36807.2754-.5845.5261-.72929.2709-.15645.6366-.24029 1.0731-.27319.4308-.03247.8821-.01279 1.3155.0061l.0083.00036c.012.00053.024.00105.0361.00158.3936.01723.8239.03606 1.1366-.02482 1.4189-.27631 2.5335-.21237 3.3294-.08269.3991.06503.7216.14715.9706.2148.0395.01072.079.02162.1175.03224.0777.02142.1513.04171.212.05716.0778.0198.2015.05043.3166.05043.1096 0 .2685-.01425.453-.0315.0385-.00359.0791-.00743.122-.01149.1758-.01661.3902-.03687.6522-.05887.65-.05459 1.5917-.11972 2.9134-.1611.2105-.00659.5107-.04298.8345-.08221.1438-.01743.2924-.03543.4397-.05162.5073-.05576 1.064-.09967 1.5947-.07366.5357.02625 1.0028.12228 1.3538.31513.3311.18191.5731.45586.6785.90264.9262 3.92676 1.4582 8.49466 1.4582 13.37316 0 6.5923-.9713 12.613-2.5712 17.2504-.9782 2.8354-2.1401 3.7324-3.3389 4.0219-.6357.1536-1.3278.1484-2.1059.0956-.2142-.0146-.4373-.0331-.6667-.0521-.579-.0479-1.1983-.0992-1.8173-.0992s-1.2383.0513-1.8173.0992c-.2294.019-.4525.0375-.6667.0521-.7781.0528-1.4702.058-2.1059-.0956-1.1988-.2895-2.3607-1.1865-3.3389-4.0219-1.5999-4.6374-2.5712-10.6581-2.5712-17.2504z" fill="#fff"></path><path d="m10.81 39.5h18.38c.7707 0 1.4159.5839 1.4926 1.3507l.6 6c.0883.8831-.6051 1.6493-1.4926 1.6493h-19.58c-.88746 0-1.58088-.7662-1.49258-1.6493l.6-6c.07668-.7668.72188-1.3507 1.49258-1.3507z" fill="#bfcdc2"></path><path d="m14.9962 1.5h10c.2761 0 .5.22386.5.5v8.5h-11v-8.5c0-.27614.2238-.5.5-.5z" stroke-linejoin="round" stroke-width="3"></path><path d="m12.9962 5.5h14c.8284 0 1.5.67157 1.5 1.5v4.5h-17v-4.5c0-.82843.6715-1.5 1.5-1.5z" fill="#bfcdc2"></path><path d="m9.99615 8.5h20.00005c.8284 0 1.5.67157 1.5 1.5v4.5h-23.00005v-4.5c0-.82843.67158-1.5 1.5-1.5z" fill="#bfcdc2"></path><path d="m6.5086 47.5h26.9828c.6697 0 1.2583.444 1.4423 1.0879l.8571 3c.2738.9582-.4457 1.9121-1.4423 1.9121h-28.69704c-.99657 0-1.71606-.9539-1.44229-1.9121l.85715-3c.18398-.6439.77256-1.0879 1.44228-1.0879z" fill="#bfcdc2"></path><path d="m9.24164 35.8023 11.08396-9.6596 11.2711-8.6309" stroke-width="2"></path><path d="m30.6903 35.7466-11.047-9.6292-11.24462-8.6094" stroke-width="2"></path></g><path clip-rule="evenodd" d="m57.3987 34.9305c.3712 6.0411 3.0106 9.7712 12.6608 9.7712 4.4127 0 11.5472-.7704 11.5472-8.9603 0-5.7978-3.5467-7.4196-7.7531-8.5143l-6.5985-1.7434c-1.7321-.446-3.0105-1.0541-3.0105-3.1624 0-2.3111 1.5671-2.8787 4.6601-2.8787 5.2788 0 5.4025 1.6218 5.6912 4.0544h6.1035c-.1237-5.1896-2.8456-9.163-11.5472-9.163-9.1553 0-11.0936 4.3788-11.0936 8.5549 0 5.3113 3.1755 7.0141 6.7634 7.9466l7.1758 1.9056c2.5981.6893 3.4229 1.6623 3.4229 3.4463 0 2.9597-2.2682 3.4057-5.3612 3.4057-5.8561 0-6.3098-1.6218-6.5572-4.6626zm41.3639 3.0003c-.5774 1.6217-1.897 2.0272-4.0828 2.0272-3.2167 0-4.2477-.9731-4.4539-5.0275h14.6401c0-9.2846-2.268-12.7714-9.8975-12.7714-8.9903 0-10.64 4.8653-10.64 10.9875 0 9.163 3.6704 11.4334 10.3926 11.4334 5.8969 0 9.1969-1.7434 9.8979-6.6492zm-8.4955-6.5682c.2062-3.4462 1.0723-4.5815 4.4127-4.5815 2.6394 0 4.2065.6893 4.454 4.5815zm23.3009-2.1894c.288-1.8245.866-2.4732 3.711-2.4732 2.681 0 3.712.5676 3.712 2.5543v1.2974l-7.176 1.0947c-3.175.4866-6.309 2.2705-6.309 7.0142 0 3.649 1.855 5.9194 7.052 5.9194 3.464 0 5.567-1.0136 6.68-2.1488v1.6217h5.485v-15.65c0-4.6626-3.175-6.2438-9.196-6.2438-5.856 0-9.073 1.5001-9.362 7.0141zm7.423 6.7304c0 2.6353-.866 4.5004-4.371 4.5004-2.557 0-3.382-.892-3.382-2.5138 0-2.2704 1.567-2.7164 3.753-3.0408l4-.6487zm16.537 8.1493v-7.9061c0-4.8653.413-8.5143 4.949-8.5143 1.155 0 1.815.1217 1.815.1217v-5.3924s-.454-.1216-1.485-.1216c-2.846 0-4.289.8919-5.609 3.1219v-2.6759h-5.402v21.3667zm29.281-14.1499c-.578-5.2302-3.258-7.7439-9.527-7.7439-8.536 0-10.598 4.622-10.598 11.4334 0 6.2033 1.69 10.9875 10.31 10.9875 7.175 0 9.361-3.3246 9.815-8.1088h-5.733c-.165 2.1488-1.237 3.4868-4.371 3.4868-2.804 0-4.124-1.0542-4.124-6.5682s1.32-6.6087 4.413-6.6087c2.928 0 3.629 1.0542 4.082 3.1219h5.692zm9.732-14.9202h-5.732v29.0701h5.732v-11.7172c0-4.0544.784-5.5546 4.578-5.5546 3.671 0 3.671 1.3785 3.671 6.2438v11.028h5.732v-12.0416c0-6.7709-1.32-9.8522-7.794-9.8522-2.227 0-4.826.3649-6.187 2.4732zm31.549 29.0701 4.66-21.1235 4.619 21.1235h6.475c3.34-9.69 6.021-19.3801 7.918-29.0701h-6.186c-1.031 6.9736-2.639 13.9472-4.743 20.9208l-4.701-20.9208h-6.722l-4.537 20.7991c-2.02-6.933-3.587-13.8661-4.701-20.7991h-6.433c1.897 9.69 4.577 19.3801 7.918 29.0701zm27.219 0h6.103v-10.6225h5.733c5.856 0 10.846-1.0947 10.846-9.3252 0-8.5548-5.361-9.1224-11.506-9.1224h-11.176zm10.31-24.0832c5.113 0 6.186.6082 6.186 3.8922 0 4.095-1.65 4.5815-6.557 4.5815h-3.836v-8.4737z" fill="#839788" fill-rule="evenodd"></path></svg> 